<?xml version="1.0" standalone="no"?>
<!DOCTYPE svg PUBLIC "-//W3C//DTD SVG 20010904//EN"
 "http://www.w3.org/TR/2001/REC-SVG-20010904/DTD/svg10.dtd">
<svg version="1.0" xmlns="http://www.w3.org/2000/svg"
 width="300.000000pt" height="300.000000pt" viewBox="0 0 300.000000 300.000000"
 preserveAspectRatio="xMidYMid meet">

<g transform="translate(0.000000,300.000000) scale(0.100000,-0.100000)"
fill="#000000" stroke="none">
<path d="M663 2564 c-3 -9 0 -54 7 -100 7 -46 10 -87 7 -90 -4 -4 -18 1 -31
10 -38 24 -59 20 -101 -21 -44 -44 -73 -102 -81 -165 -6 -39 -9 -44 -28 -41
-15 3 -36 -7 -65 -31 -24 -20 -47 -36 -52 -36 -4 0 -13 -9 -19 -20 -8 -15 -7
-27 5 -49 8 -17 15 -46 15 -65 0 -25 6 -38 20 -46 13 -7 20 -21 20 -41 0 -48
25 -97 54 -105 32 -8 46 1 46 32 0 13 5 24 11 24 23 0 65 -33 88 -70 28 -44
56 -59 126 -67 l50 -5 -29 16 c-15 9 -34 16 -42 16 -7 0 -18 9 -24 20 -6 11
-7 20 -3 20 4 0 64 -16 133 -35 154 -43 160 -41 178 64 6 39 12 76 12 81 0 5
-20 15 -45 21 -25 6 -42 16 -39 21 3 5 18 7 32 3 22 -5 24 -4 13 9 -16 20
-249 156 -325 190 -48 21 -56 29 -47 40 8 9 10 31 6 63 -6 45 -4 51 30 96 21
26 45 47 54 47 9 0 54 -21 101 -46 82 -44 250 -114 274 -114 6 0 21 7 33 15
l22 15 -22 35 c-12 19 -51 78 -87 132 l-65 98 -95 47 c-103 51 -127 57 -137
32z m212 -84 c3 -5 1 -10 -4 -10 -6 0 -11 5 -11 10 0 6 2 10 4 10 3 0 8 -4 11
-10z"/>
<path d="M1107 2355 c46 -51 69 -68 117 -86 34 -13 81 -24 106 -24 26 -1 53
-5 60 -11 15 -9 20 -10 40 -13 6 0 10 -6 10 -12 0 -5 -4 -7 -10 -4 -5 3 -10 2
-10 -3 0 -13 43 -23 54 -12 15 15 -2 56 -29 70 -31 16 -117 18 -123 2 -2 -7
-21 6 -43 28 -37 38 -103 76 -192 113 l-38 16 58 -64z"/>
<path d="M1137 2179 c-59 -52 -69 -72 -41 -83 30 -12 46 -6 102 40 64 52 68
57 50 71 -35 28 -53 23 -111 -28z"/>
<path d="M1243 1844 c-4 -11 3 -24 18 -36 l24 -20 -25 6 c-14 2 -41 1 -60 -3
l-35 -8 44 -7 c78 -14 266 -95 328 -142 l31 -24 -11 30 c-6 17 -19 33 -29 36
-31 9 -20 24 15 18 l32 -5 -27 16 c-36 20 -35 29 2 22 17 -4 30 -2 30 3 0 5
-16 12 -35 16 -19 3 -38 10 -41 15 -9 16 -56 10 -70 -8 -12 -16 -13 -15 -14
15 0 25 -4 32 -20 32 -11 0 -20 4 -20 8 0 5 -11 14 -25 20 -32 15 -35 15 -35
2 0 -5 6 -10 14 -10 7 0 19 -7 26 -15 21 -25 -48 -15 -77 11 -30 28 -29 36 2
24 14 -5 25 -6 25 -1 0 23 -58 27 -67 5z m107 -74 c13 -8 13 -10 -2 -10 -9 0
-20 5 -23 10 -8 13 5 13 25 0z m58 -14 c1 -19 -2 -23 -18 -19 -25 7 -25 12 -2
29 9 7 17 14 17 14 0 0 2 -11 3 -24z m86 -2 c19 -7 21 -37 3 -52 -10 -9 -19
-7 -35 4 -18 12 -20 19 -12 35 11 20 19 23 44 13z"/>
<path d="M1975 1792 c-27 -34 -27 -36 -5 -21 26 17 57 59 44 59 -5 0 -22 -17
-39 -38z"/>
<path d="M2206 1795 c7 -19 14 -43 14 -55 0 -15 18 -29 73 -56 67 -34 207
-122 207 -131 0 -2 -24 10 -52 27 -56 32 -176 90 -188 90 -4 0 -15 9 -25 20
-24 27 -43 25 -57 -6 -9 -20 -9 -27 1 -34 16 -9 6 -30 -14 -30 -22 0 -45 -51
-32 -71 6 -9 7 -24 3 -34 -6 -17 -7 -17 -26 0 -11 10 -20 15 -20 11 0 -10 -22
15 -36 40 -19 33 -25 79 -15 107 13 34 65 60 118 59 24 0 43 4 43 8 0 28 -23
59 -49 68 -28 10 -35 8 -69 -21 -92 -79 -206 -196 -225 -232 -25 -47 -25 -48
-38 -149 -15 -113 -14 -115 140 -164 69 -22 140 -43 156 -47 l30 -6 -25 18
c-48 34 -69 56 -81 84 -14 35 -12 37 29 45 27 5 33 3 43 -19 6 -14 29 -33 50
-42 36 -17 40 -17 78 2 21 11 37 14 35 8 -3 -6 -17 -17 -32 -23 -19 -8 -21
-11 -6 -8 12 2 29 -1 38 -6 16 -9 16 -11 -1 -24 -10 -7 -13 -14 -6 -14 14 0 5
-40 -10 -40 -8 0 -8 -3 0 -11 6 -6 76 -17 156 -26 l145 -15 36 39 c23 24 39
34 43 27 5 -6 16 -13 26 -17 24 -9 33 18 17 49 -11 20 -11 27 5 44 10 11 29
20 42 20 12 0 23 4 23 9 0 5 -27 49 -60 98 -63 94 -166 207 -265 290 -61 51
-211 153 -226 153 -4 0 -1 -16 7 -35z m113 -209 c53 -28 111 -73 111 -87 0 -6
16 -35 35 -65 32 -50 35 -61 29 -100 -7 -47 -14 -53 -34 -29 -7 8 -17 15 -22
15 -15 0 -88 62 -83 70 3 4 -2 13 -10 20 -12 10 -15 10 -15 -1 0 -11 -2 -11
-10 1 -7 12 -11 10 -19 -10 -10 -25 -10 -25 -10 6 -1 16 4 35 11 42 9 9 8 15
-7 26 -17 12 -23 12 -48 -2 -15 -9 -41 -29 -58 -44 -17 -16 -34 -28 -40 -28
-5 0 -9 -9 -9 -20 0 -22 -15 -27 -23 -7 -4 8 -8 9 -14 1 -4 -6 -27 -13 -50
-16 -44 -6 -57 7 -43 46 7 20 79 45 131 46 26 0 51 30 26 30 -7 1 2 7 18 14
35 15 80 72 78 98 -2 23 -2 23 56 -6z"/>
<path d="M1822 1538 c-24 -65 -47 -176 -38 -185 3 -3 6 2 6 13 0 11 7 44 15
74 9 30 18 66 21 79 3 13 10 33 15 43 6 11 8 22 6 25 -3 2 -14 -20 -25 -49z"/>
<path d="M477 1562 c-33 -20 -42 -44 -27 -72 13 -25 67 -50 105 -50 65 0 123
48 110 90 -15 47 -132 67 -188 32z m106 -29 c44 -19 45 -25 12 -43 -20 -11
-30 -11 -62 1 -21 8 -38 19 -38 24 0 6 -3 15 -7 21 -11 17 52 15 95 -3z"/>
<path d="M2220 1169 c0 -5 5 -7 10 -4 6 3 10 8 10 11 0 2 -4 4 -10 4 -5 0 -10
-5 -10 -11z"/>
<path d="M2756 1138 c-50 -67 -73 -158 -40 -158 23 0 82 62 90 93 7 32 -3 97
-16 97 -5 0 -20 -15 -34 -32z"/>
<path d="M2618 1133 c7 -3 16 -2 19 1 4 3 -2 6 -13 5 -11 0 -14 -3 -6 -6z"/>
</g>
</svg>
