<?xml version="1.0" standalone="no"?>
<!DOCTYPE svg PUBLIC "-//W3C//DTD SVG 20010904//EN"
 "http://www.w3.org/TR/2001/REC-SVG-20010904/DTD/svg10.dtd">
<svg version="1.0" xmlns="http://www.w3.org/2000/svg"
 width="640.000000pt" height="360.000000pt" viewBox="0 0 640.000000 360.000000"
 preserveAspectRatio="xMidYMid meet">

<g transform="translate(0.000000,360.000000) scale(0.100000,-0.100000)"
fill="#000000" stroke="none">
<path d="M0 1800 l0 -1800 857 2 856 3 2 23 c2 24 -10 30 -18 10 -8 -22 -42 7
-42 35 1 16 -4 23 -12 20 -7 -3 -13 -11 -13 -19 0 -8 -7 -14 -15 -14 -13 0
-14 4 -4 21 8 16 8 23 0 29 -8 4 -4 13 10 26 12 10 23 18 25 17 10 -7 24 -2
24 7 0 6 -9 10 -19 10 -11 0 -21 6 -24 13 -3 6 -10 -1 -17 -18 l-13 -30 -10
39 c-7 30 -6 40 4 48 11 8 11 11 1 15 -10 4 -10 8 -1 19 17 20 42 17 57 -7 17
-26 10 -35 -11 -14 -9 8 -19 15 -23 15 -3 0 15 -22 42 -49 l49 -50 14 26 c12
23 11 28 -3 38 -9 7 -16 20 -16 29 0 9 -5 15 -12 13 -6 -1 -13 10 -14 26 -2
15 1 25 7 22 5 -4 9 0 9 8 0 8 -7 17 -15 21 -8 3 -15 1 -15 -4 0 -6 -7 -10
-15 -10 -7 0 -19 -8 -24 -17 -10 -17 -10 -17 -11 -1 0 29 -19 30 -46 1 -15
-16 -23 -35 -20 -46 6 -22 -16 -32 -41 -19 -13 8 -22 7 -35 -5 -10 -9 -36 -16
-58 -17 -23 0 -36 -2 -30 -4 17 -6 11 -22 -8 -22 -10 0 -23 -5 -29 -11 -13
-13 -43 -5 -43 11 0 5 9 10 21 10 11 0 17 4 14 10 -3 5 -29 10 -57 10 -40 0
-49 -3 -44 -15 7 -19 -1 -19 -20 0 -9 8 -23 15 -32 15 -13 0 -13 -3 4 -16 18
-15 18 -15 -8 -10 -14 3 -34 9 -45 12 -17 5 -17 4 1 -10 18 -15 18 -16 2 -16
-16 0 -16 -1 -2 -16 9 -8 16 -17 16 -20 0 -7 -143 8 -160 16 -8 5 -36 11 -62
15 -39 6 -48 4 -48 -8 0 -10 9 -13 32 -11 21 3 39 -2 52 -15 12 -10 30 -23 41
-29 16 -9 8 -11 -42 -10 -37 1 -63 6 -63 12 0 6 -5 4 -10 -4 -7 -11 -10 -11
-10 -2 0 8 -5 10 -12 6 -7 -4 -22 -9 -35 -10 -17 -2 -23 2 -23 17 0 23 -16 25
-24 2 -6 -14 -8 -14 -21 3 -8 10 -15 30 -15 43 0 18 -4 22 -19 18 -13 -3 -18
0 -15 8 3 6 -2 18 -11 25 -13 11 -15 9 -15 -9 0 -26 -15 -27 -29 -3 -6 9 -11
13 -11 8 0 -5 -8 -1 -19 8 -17 16 -19 16 -23 -2 -4 -15 -13 -19 -40 -17 -20 1
-40 5 -47 9 -15 9 -31 -1 -31 -20 0 -9 -7 -14 -17 -12 -10 2 -18 10 -18 18 0
32 -97 28 -121 -5 -11 -14 -13 -14 -28 0 -9 9 -13 21 -10 27 4 7 9 6 14 -2 5
-9 9 -9 14 -1 4 6 4 15 1 21 -3 5 0 10 7 10 10 0 10 2 -1 9 -7 5 -11 14 -7 20
5 7 1 9 -8 5 -11 -4 -16 0 -16 10 0 9 6 16 13 17 6 0 -1 7 -18 14 -16 7 -43
11 -60 8 -16 -2 -41 0 -55 6 -14 5 -19 10 -12 10 7 1 11 5 8 10 -5 7 -98 6
-140 -2 -7 -1 -12 30 -13 101 -1 102 -1 102 23 102 15 0 24 6 24 15 0 9 6 18
14 21 24 9 7 31 -20 26 -13 -2 -24 -8 -24 -13 0 -5 -4 -9 -10 -9 -5 0 -10 11
-10 25 0 14 5 25 12 25 9 0 9 3 0 12 -17 17 -15 59 3 85 12 17 12 23 2 27 -9
5 -9 7 2 12 21 10 101 92 101 103 0 37 39 -26 43 -67 0 -12 6 -18 14 -15 7 3
18 -6 24 -20 12 -28 46 -42 64 -27 7 6 15 6 22 -1 6 -6 9 -2 9 13 -1 18 5 23
24 24 14 0 33 -3 43 -8 19 -9 97 7 97 21 0 4 16 7 35 6 27 0 34 3 30 13 -4 10
0 12 11 8 8 -3 21 -6 27 -6 7 0 3 -7 -7 -15 -25 -19 -12 -33 14 -17 13 8 20 9
20 1 0 -5 4 -8 10 -4 5 3 6 13 3 23 -5 14 -3 15 7 5 10 -9 17 -10 27 -1 8 6
40 12 71 14 78 3 151 14 158 25 3 5 16 9 29 9 30 0 55 10 55 21 0 5 -12 7 -27
4 -16 -3 -22 -2 -15 1 6 3 12 11 12 18 0 8 10 12 25 11 21 -3 25 1 25 23 0 22
2 24 11 12 7 -11 12 -12 15 -3 3 7 11 10 19 7 10 -4 12 0 8 15 -3 12 -1 21 6
21 6 0 11 5 11 10 0 6 -6 10 -13 10 -8 0 -22 9 -32 20 l-19 21 -13 -23 c-12
-22 -12 -22 -14 -3 -1 11 -2 25 -2 32 1 17 -87 22 -96 5 -11 -20 -108 -42
-188 -42 -55 0 -71 -3 -67 -13 5 -15 -49 -37 -93 -37 -17 0 -36 -7 -43 -15 -7
-8 -20 -15 -29 -14 -11 0 -12 2 -3 6 10 4 9 8 -5 18 -13 10 -20 10 -25 2 -6
-9 -10 -8 -17 2 -7 11 -9 11 -13 0 -3 -10 -8 -7 -17 9 -7 13 -21 22 -34 22
-12 0 -52 10 -90 22 -51 16 -67 26 -67 40 0 32 -31 33 -82 5 -26 -15 -54 -24
-63 -21 -21 8 -21 97 1 118 14 15 14 16 0 16 -14 0 -16 21 -18 148 0 81 -2
185 -2 230 -1 90 8 106 57 101 27 -3 65 9 92 28 18 13 14 14 -36 8 -37 -5 -59
-3 -63 4 -4 6 -16 11 -27 11 -10 0 -19 5 -19 10 0 6 7 10 15 10 8 0 15 5 15
10 0 6 -7 10 -15 10 -13 0 -15 33 -15 235 0 129 3 235 8 236 4 0 16 2 27 4 19
4 83 -4 350 -45 209 -31 621 -112 765 -150 41 -10 90 -22 108 -25 18 -3 51
-11 75 -19 23 -7 62 -19 87 -26 25 -7 54 -16 65 -20 11 -5 43 -14 70 -20 28
-7 136 -42 240 -77 105 -35 213 -71 240 -78 28 -8 75 -23 105 -34 52 -19 56
-19 67 -3 25 34 34 42 60 48 14 4 34 2 45 -5 11 -7 18 -7 18 -1 0 5 11 10 25
10 14 0 25 -4 25 -10 0 -5 5 -10 10 -10 14 0 12 64 -2 79 -11 11 -10 14 0 18
7 3 19 11 26 19 8 8 19 14 24 14 17 0 22 29 7 44 -20 19 -19 28 3 24 11 -2 16
3 14 13 -1 9 3 21 10 26 19 14 90 33 100 27 4 -3 5 2 2 10 -3 9 -1 16 5 16 6
0 11 -5 11 -12 0 -8 7 -6 18 5 14 15 15 19 3 26 -11 7 -7 14 20 30 19 12 41
21 49 21 9 0 31 15 50 34 42 41 70 34 70 -15 l0 -30 -31 22 c-26 18 -33 19
-40 8 -5 -8 -9 -22 -9 -31 0 -9 -5 -20 -10 -23 -17 -11 -11 -22 13 -21 15 1
22 -4 21 -16 -1 -10 2 -18 7 -18 5 0 9 6 9 14 0 14 39 30 77 30 12 0 20 3 17
7 -2 4 0 10 6 14 5 3 10 0 10 -8 0 -8 7 -27 14 -43 13 -25 13 -29 -2 -40 -24
-19 -50 -17 -69 5 -20 24 -33 19 -26 -10 5 -19 3 -21 -20 -15 -18 4 -27 2 -27
-6 0 -9 -3 -9 -12 0 -14 14 -48 16 -48 3 0 -13 55 -51 73 -51 8 0 18 -7 21
-16 3 -8 10 -13 14 -10 5 3 8 -8 7 -24 -1 -17 3 -30 9 -30 6 0 3 -7 -7 -15
-24 -17 -41 -11 -56 22 -6 14 -14 23 -18 20 -3 -4 -1 -13 5 -20 6 -7 13 -31
16 -52 7 -52 46 -74 46 -25 0 29 14 31 27 4 8 -18 8 -24 0 -24 -7 0 -4 -7 6
-14 11 -9 14 -17 8 -20 -6 -4 -8 -13 -4 -21 3 -8 -1 -15 -8 -15 -7 0 -10 -2
-7 -5 3 -3 18 -1 33 5 22 9 26 8 22 -4 -3 -8 -1 -17 6 -19 7 -3 0 -8 -15 -12
-16 -4 -28 -13 -28 -20 0 -21 20 -69 31 -76 19 -12 94 3 110 22 9 10 19 16 23
12 3 -3 6 0 6 8 1 10 3 9 11 -4 5 -9 24 -24 42 -34 46 -23 55 -40 54 -102 0
-64 -12 -88 -32 -68 -7 7 -16 23 -19 35 -7 20 -5 22 17 17 25 -7 26 -4 18 50
-4 32 -18 37 -52 20 -44 -23 -46 -25 -29 -35 10 -6 11 -12 3 -22 -6 -7 -10
-20 -10 -28 0 -8 -4 -32 -8 -53 -4 -21 -3 -37 1 -36 24 4 31 -4 32 -36 1 -29
-2 -35 -18 -35 -11 0 -20 5 -20 11 0 24 -18 -4 -29 -44 -6 -25 -18 -50 -28
-58 -9 -8 -14 -9 -10 -2 4 7 -5 15 -23 22 -17 5 -30 12 -30 15 0 3 6 3 13 0 8
-3 26 0 42 6 35 13 22 31 -23 32 -28 1 -37 18 -10 18 22 0 37 37 38 92 0 31 5
60 11 64 6 4 -2 17 -23 34 -18 15 -37 26 -41 23 -13 -8 -57 26 -67 53 -5 13
-16 24 -25 24 -8 0 -15 5 -15 12 0 6 -9 1 -19 -11 -14 -17 -28 -22 -53 -19
-28 2 -34 8 -38 32 -4 22 -14 33 -37 43 -23 9 -33 10 -33 2 0 -6 -6 -9 -14 -6
-8 3 -17 1 -19 -6 -2 -7 -12 6 -23 28 -16 34 -19 37 -22 18 -3 -22 -22 -33
-22 -14 0 5 -9 7 -20 4 -12 -3 -22 1 -26 10 -5 15 -8 15 -31 0 -21 -14 -24
-23 -21 -58 2 -32 0 -41 -10 -37 -7 2 -11 10 -8 17 2 7 -2 22 -10 33 -10 15
-11 21 -2 24 8 3 8 9 0 24 -9 16 -11 16 -12 2 0 -11 -6 -15 -20 -11 -18 5 -20
0 -20 -45 0 -41 4 -53 20 -62 11 -6 20 -16 20 -23 0 -39 23 -89 46 -97 21 -8
24 -16 24 -60 0 -63 10 -84 50 -100 35 -14 49 -8 30 15 -10 12 -10 15 1 15 8
0 6 5 -6 12 -29 17 -41 30 -47 56 -9 33 22 25 35 -10 5 -14 13 -16 37 -12 25
5 30 3 30 -12 0 -11 9 -25 20 -32 30 -18 26 -44 -5 -36 -25 6 -25 6 -10 -22 8
-16 15 -37 15 -46 0 -19 47 -55 57 -44 4 3 -2 13 -13 21 -16 13 -17 16 -4 25
13 9 13 10 0 10 -11 0 -9 4 5 12 11 6 22 12 24 14 2 2 -7 12 -20 23 l-24 19
26 -5 c20 -4 28 -13 33 -34 3 -15 14 -37 25 -48 23 -23 18 -31 -18 -31 -15 0
-21 -3 -15 -8 7 -4 20 -23 31 -41 18 -34 18 -36 1 -53 -23 -23 -30 -23 -58 2
-13 11 -32 20 -42 20 -22 0 -76 26 -98 47 -8 8 -30 23 -49 34 -18 11 -31 23
-27 26 3 3 1 12 -5 20 -6 7 -8 14 -3 14 5 1 -13 7 -41 13 -42 10 -55 19 -79
55 -23 35 -26 45 -15 52 11 7 9 12 -10 25 -13 10 -31 25 -40 36 -8 10 -21 18
-28 18 -7 0 -13 6 -13 13 0 9 -11 12 -34 9 -36 -4 -58 14 -35 30 9 6 1 7 -25
3 -34 -6 -38 -4 -32 10 5 14 2 16 -19 11 -16 -4 -34 -1 -48 9 -12 8 -34 15
-50 15 -15 0 -26 4 -23 8 2 4 -9 9 -25 10 -16 1 -49 9 -72 17 -23 8 -59 15
-81 15 -31 0 -36 3 -27 13 8 11 5 14 -19 14 -30 0 -30 0 -10 -19 28 -26 25
-36 -12 -40 -19 -2 -32 -8 -31 -15 2 -7 -4 -10 -13 -6 -9 3 -14 13 -11 22 5
19 -19 45 -32 36 -5 -3 -12 -1 -16 5 -3 5 -17 10 -31 10 -29 0 -114 37 -114
49 0 5 -16 12 -35 15 -20 4 -33 11 -31 15 3 5 -5 7 -17 6 -12 -1 -35 -4 -52
-5 -26 -2 -23 -4 20 -15 64 -16 155 -55 155 -67 0 -5 17 -16 38 -25 57 -25 15
-28 -57 -4 -33 12 -66 21 -74 21 -7 0 -22 7 -33 15 -18 15 -17 16 16 9 19 -3
32 -3 27 2 -4 4 -39 8 -77 9 -70 2 -94 10 -74 23 6 4 14 16 18 27 7 18 5 18
-14 -2 -24 -27 -33 -28 -50 -8 -7 8 -21 15 -31 15 -11 0 -19 5 -19 10 0 6 -3
9 -7 8 -5 -1 -21 4 -37 11 -41 17 -57 8 -21 -13 22 -12 24 -15 8 -11 -13 4
-23 2 -23 -3 0 -6 -12 -14 -27 -19 -22 -8 -24 -11 -10 -16 9 -3 17 -2 17 3 0
6 7 10 16 10 12 0 15 -7 12 -24 -4 -20 0 -25 24 -30 39 -8 35 -22 -9 -29 -39
-7 -93 10 -93 27 0 6 -7 1 -16 -10 -8 -10 -13 -14 -10 -7 4 6 -8 22 -26 34
-27 20 -31 20 -25 5 4 -10 7 -20 7 -22 0 -2 6 -4 14 -4 8 0 16 -7 20 -15 3 -8
17 -20 31 -25 14 -5 25 -15 25 -22 0 -10 3 -10 9 1 7 11 10 9 16 -8 3 -12 11
-19 16 -15 10 6 69 -17 69 -28 0 -3 9 -4 20 -1 13 3 20 0 20 -8 0 -15 48 -41
61 -33 4 2 6 11 2 20 -3 8 -2 14 3 13 18 -3 34 1 34 9 0 5 -14 6 -31 4 -24 -4
-30 -1 -27 9 3 8 -2 19 -11 26 -14 11 -13 12 6 13 16 0 21 4 17 15 -7 17 21
21 31 5 8 -13 43 22 37 38 -2 7 4 12 16 12 24 0 48 -36 46 -68 -1 -12 1 -20 5
-17 3 4 6 13 6 22 0 26 40 34 58 12 9 -10 15 -20 12 -20 -21 -6 -27 -7 -42 -8
-16 -1 -16 -3 -3 -11 8 -5 11 -10 6 -10 -5 0 6 -11 25 -25 19 -13 44 -32 56
-40 12 -9 37 -19 55 -22 18 -2 38 -9 43 -15 7 -7 1 -9 -18 -6 -22 4 -27 2 -23
-9 4 -10 0 -13 -12 -11 -9 2 -16 9 -15 14 1 5 -15 21 -35 34 -20 14 -44 31
-52 39 -13 12 -15 11 -20 -10 -4 -16 -8 -20 -14 -11 -10 17 -33 15 -40 -4 -3
-9 -2 -12 5 -9 5 4 16 1 24 -5 8 -6 20 -8 26 -4 8 5 9 3 4 -6 -5 -9 -2 -10 12
-6 12 4 27 -1 39 -12 10 -10 40 -26 67 -36 26 -10 47 -21 48 -24 0 -4 2 -15 4
-25 3 -14 -1 -17 -13 -11 -9 4 -28 8 -42 9 -23 2 -23 2 -1 -2 13 -3 26 -13 28
-24 5 -17 15 -23 36 -20 4 1 30 -6 57 -15 45 -15 50 -19 50 -45 0 -17 -6 -32
-15 -35 -8 -4 -15 -12 -15 -19 0 -28 -17 -23 -18 5 -3 55 -5 61 -19 56 -7 -3
-13 -1 -13 4 0 5 -7 6 -17 3 -10 -4 -14 -2 -9 5 3 6 1 14 -5 18 -8 4 -9 3 -5
-4 9 -15 1 -15 -25 -1 -11 5 -17 14 -14 19 7 11 -34 34 -43 24 -4 -4 -1 -9 6
-11 20 -8 14 -36 -7 -30 -10 2 -25 1 -32 -4 -15 -9 21 -14 74 -10 27 2 37 -13
15 -23 -7 -3 -1 -3 15 0 16 4 27 2 27 -5 0 -6 7 -8 17 -4 11 4 14 3 9 -5 -4
-7 -2 -12 3 -12 6 0 11 -7 11 -15 0 -20 -22 -19 -62 3 -57 31 -110 43 -127 29
-12 -9 -13 -9 -7 0 4 8 2 13 -6 14 -7 0 -22 3 -33 5 -11 3 -32 5 -47 5 -34 -1
-41 10 -22 37 13 18 19 20 36 11 16 -8 22 -8 29 2 4 7 5 17 3 21 -8 12 4 9 30
-7 22 -15 23 -14 22 12 -1 16 -6 28 -13 27 -7 -1 -25 -2 -39 -2 -18 -2 -24 -6
-21 -16 3 -8 0 -17 -8 -20 -8 -3 -15 0 -17 6 -2 6 -13 11 -23 12 -32 2 -138
48 -158 68 -10 11 -16 25 -13 33 6 16 -59 69 -77 61 -7 -3 -3 -8 11 -11 13 -4
22 -15 22 -26 0 -19 -1 -19 -32 -3 -18 9 -35 20 -38 24 -6 8 -54 21 -95 24
-16 2 -34 4 -40 6 -5 1 -14 2 -18 1 -5 -1 -6 7 -2 18 5 17 2 18 -40 10 -25 -5
-52 -6 -60 -2 -10 3 -15 0 -13 -8 2 -9 -4 -13 -14 -11 -12 2 -16 -2 -12 -13 3
-8 13 -15 20 -15 8 0 32 -18 54 -40 26 -26 48 -40 65 -40 17 0 28 -7 34 -23 9
-24 51 -57 72 -57 24 0 129 -53 129 -65 0 -7 7 -18 15 -25 19 -16 19 -30 0
-30 -8 0 -15 8 -16 18 0 20 -77 79 -116 88 l-28 7 25 -24 c14 -13 34 -35 45
-48 l20 -24 -24 8 c-14 4 -26 3 -30 -3 -4 -7 -12 -8 -21 -2 -13 8 -12 10 2 10
14 0 13 6 -10 40 -27 43 -70 70 -108 70 -13 0 -26 5 -29 10 -4 7 -12 7 -24 0
-22 -11 -31 -4 -31 24 -1 32 -20 49 -78 69 -39 13 -65 16 -100 11 -62 -10 -81
-7 -116 18 -18 13 -43 21 -65 20 -19 -1 -42 5 -51 13 -18 17 -117 30 -153 21
-18 -4 -24 -11 -20 -24 3 -15 16 -18 70 -20 74 -3 84 -7 77 -27 -4 -10 3 -16
23 -20 15 -4 38 -11 50 -17 13 -6 25 -9 28 -6 3 3 27 1 52 -3 34 -7 49 -6 54
3 4 7 23 12 42 12 21 0 33 4 31 11 -6 14 35 13 63 -3 12 -6 28 -12 36 -12 25
0 37 -23 22 -43 -10 -14 -17 -15 -36 -7 -21 9 -21 10 -3 7 11 -1 20 3 20 8 -1
6 -12 10 -26 10 -14 1 -30 3 -35 6 -6 3 -18 -2 -27 -13 -14 -14 -15 -18 -4
-18 8 0 18 -9 21 -20 3 -11 13 -20 21 -20 8 0 14 -4 14 -8 0 -12 69 -42 102
-44 20 -2 27 -7 23 -18 -12 -36 108 -106 139 -81 9 7 17 5 29 -9 9 -11 12 -20
7 -20 -6 0 -10 -4 -10 -10 0 -5 7 -10 16 -10 8 0 13 -4 10 -9 -13 -21 34 -42
100 -46 85 -5 109 -9 153 -27 l35 -14 -23 -21 c-23 -21 -46 -21 -66 1 -19 21
-55 37 -55 25 0 -8 -5 -8 -15 1 -18 15 -20 -1 -3 -18 7 -7 8 -12 3 -13 -6 -1
-19 -2 -29 -3 -32 -2 -29 -22 6 -40 18 -9 40 -20 48 -25 8 -5 37 -18 64 -30
26 -12 46 -25 42 -28 -3 -3 -14 0 -23 8 -15 11 -15 10 1 -9 13 -15 15 -22 6
-22 -21 0 -2 -13 23 -16 12 -1 25 -3 29 -3 11 -1 -3 -31 -14 -31 -5 0 -6 5 -3
10 4 6 -7 10 -24 10 -22 0 -31 -5 -31 -16 0 -11 6 -15 20 -11 11 3 22 1 25 -4
3 -4 13 -5 22 -2 10 4 14 2 9 -5 -7 -12 31 -52 51 -52 8 0 25 -7 38 -16 19
-12 28 -14 39 -5 16 13 73 8 89 -8 6 -6 25 -11 42 -11 50 0 93 -58 65 -86 -15
-15 -3 -39 26 -52 33 -16 31 4 -2 21 -20 10 -23 16 -14 22 8 5 18 2 25 -8 7
-10 15 -17 18 -17 12 0 58 -52 52 -58 -3 -4 -9 -2 -13 3 -4 6 -16 12 -27 13
-11 2 -32 10 -47 18 -18 10 -29 11 -33 3 -9 -13 17 -34 73 -59 53 -24 85 -25
103 -4 7 8 20 13 30 11 21 -6 32 26 15 43 -8 8 -7 9 7 4 12 -4 16 -13 12 -25
-4 -11 -2 -19 4 -19 6 0 11 -4 11 -9 0 -5 -6 -9 -12 -8 -44 1 -60 -4 -54 -18
4 -11 -1 -15 -18 -15 -14 0 -23 -6 -23 -15 0 -9 5 -14 12 -12 6 3 19 -1 30 -9
10 -8 15 -14 11 -14 -4 0 -1 -7 8 -15 8 -8 20 -15 27 -15 7 0 0 -13 -15 -29
-18 -19 -34 -27 -45 -24 -9 4 -4 -8 14 -28 17 -19 42 -47 55 -64 l25 -30 -25
21 c-14 12 -33 24 -43 27 -10 4 -16 11 -13 16 3 5 -1 14 -9 21 -8 7 -15 9 -15
5 0 -4 -7 -2 -16 5 -12 11 -18 10 -32 -4 -16 -16 -16 -19 5 -56 l23 -39 -22
-15 c-12 -9 -17 -16 -11 -16 6 0 13 -9 16 -20 3 -11 11 -20 17 -20 8 0 10 9 6
25 -5 20 -3 25 14 25 11 0 25 -9 32 -20 7 -11 21 -20 30 -20 10 0 27 -8 38
-17 15 -13 17 -20 7 -32 -6 -9 -7 -13 -3 -9 5 4 25 -6 46 -22 l37 -29 346 -1
c327 0 346 1 341 17 -5 17 -5 17 9 0 13 -15 31 -17 140 -16 113 1 125 2 119
17 -5 14 -3 15 9 6 8 -7 48 -15 89 -19 73 -7 74 -6 56 12 -13 13 -20 15 -23 6
-3 -7 -12 -13 -21 -13 -13 0 -12 3 4 15 13 10 15 14 5 15 -8 0 -11 3 -8 6 4 4
25 -5 47 -20 38 -25 48 -27 140 -25 55 1 97 5 95 10 -3 4 -13 7 -23 7 -20 -1
-72 19 -72 27 0 14 79 -1 110 -22 29 -19 48 -23 113 -23 47 0 76 4 72 9 -3 6
4 7 17 4 40 -11 158 -15 158 -6 0 10 -79 73 -92 73 -4 0 -8 7 -8 15 0 8 -6 15
-14 15 -21 0 -40 27 -24 33 10 4 11 8 0 23 -6 11 -16 29 -22 41 -12 28 -36 30
-43 4 -6 -23 0 -31 23 -31 9 0 16 -8 16 -19 0 -11 -4 -17 -8 -15 -4 3 -8 0 -8
-6 0 -6 11 -15 25 -22 19 -8 24 -18 23 -44 -1 -25 -5 -32 -20 -31 -10 1 -18 7
-18 13 0 6 -15 29 -34 50 -23 26 -42 38 -62 39 -15 0 -29 5 -31 12 -3 7 4 10
19 6 20 -4 17 1 -17 35 -22 23 -45 41 -51 42 -6 0 -17 7 -24 15 -12 14 -30 12
-30 -3 0 -4 18 -18 40 -32 43 -27 55 -47 16 -26 -31 16 -115 79 -116 87 0 3
11 4 25 1 14 -2 22 -9 18 -15 -4 -6 -1 -7 6 -2 9 5 10 10 2 18 -16 16 -14 24
9 30 18 5 25 -3 21 -25 0 -4 6 -5 14 -2 16 7 48 -20 37 -30 -3 -4 1 -4 11 0
12 4 17 1 17 -9 0 -9 5 -19 12 -23 8 -5 9 -2 5 9 -5 13 -1 17 18 17 29 0 32 8
8 25 -13 10 -22 10 -35 1 -16 -9 -22 -7 -38 14 -10 14 -25 25 -32 25 -7 0 -13
6 -13 14 0 8 -7 16 -15 18 -13 4 -13 3 -1 -5 11 -8 8 -11 -15 -14 -17 -2 -28
-8 -27 -15 2 -7 -2 -13 -7 -13 -6 0 -10 7 -10 15 0 8 4 15 9 15 14 0 21 29 9
36 -7 4 -8 3 -4 -4 4 -7 2 -12 -3 -12 -17 0 -13 25 6 49 l18 22 61 -60 c48
-46 67 -58 83 -54 l22 6 -21 14 c-14 10 -19 21 -15 34 5 14 -1 22 -19 31 -14
6 -33 28 -43 49 -9 21 -20 36 -24 34 -4 -3 -5 5 -1 17 3 12 7 17 10 10 2 -6 8
-12 13 -12 13 0 94 -60 94 -70 0 -5 3 -12 7 -16 13 -12 9 -22 -9 -27 -16 -3
-16 -5 2 -12 11 -5 34 -19 51 -32 17 -13 35 -23 41 -23 5 0 26 -16 46 -35 19
-19 48 -37 64 -41 l28 -6 -30 27 c-16 14 -24 24 -17 20 7 -3 12 0 12 8 0 11
-48 38 -92 52 -5 1 -11 4 -15 5 -5 1 -15 2 -24 1 -9 -1 -19 5 -22 13 -4 9 -3
15 1 15 21 -4 22 3 1 20 -13 11 -21 22 -17 26 4 4 20 -7 36 -23 34 -35 84 -63
120 -67 13 -1 27 -7 31 -13 4 -7 12 -8 21 -2 10 7 11 10 3 10 -7 0 -13 7 -13
16 0 11 -5 14 -16 10 -14 -5 -15 -4 -4 9 7 9 21 13 31 10 32 -11 21 11 -21 40
-22 15 -40 31 -40 36 0 4 -9 10 -19 14 -10 3 -21 15 -24 25 -6 25 -8 25 33 -5
36 -27 50 -31 50 -15 0 6 -7 10 -15 10 -8 0 -15 4 -15 9 0 13 -83 91 -96 91
-7 0 -14 -6 -17 -14 -4 -10 0 -14 14 -11 16 3 18 1 8 -17 -8 -15 -8 -19 0 -14
7 4 11 -1 11 -13 0 -21 -21 -22 -59 -1 -17 9 -21 8 -21 -5 0 -8 5 -15 12 -15
6 0 9 -2 6 -5 -10 -10 -68 18 -69 33 0 10 -3 12 -5 6 -4 -9 -11 -9 -29 0 -14
6 -25 14 -25 18 0 4 -7 14 -16 22 -12 13 -12 16 -2 16 8 0 20 -6 28 -12 8 -7
12 -9 8 -4 -4 4 2 17 12 28 15 16 22 18 39 9 12 -7 21 -16 21 -21 0 -14 -18
-21 -25 -10 -4 6 -11 8 -16 4 -6 -3 -2 -12 8 -19 15 -11 19 -11 26 1 4 8 15
14 23 14 9 0 12 -5 8 -12 -4 -6 -3 -8 3 -5 6 4 13 -2 16 -13 3 -11 11 -20 19
-19 10 0 10 2 1 6 -7 2 -13 13 -13 23 0 10 -7 20 -15 24 -8 3 -12 12 -9 20 6
16 -17 46 -34 46 -6 0 -30 12 -53 26 -24 14 -35 23 -24 20 14 -4 11 1 -9 16
-50 38 -79 68 -73 75 4 3 13 0 22 -7 9 -7 19 -10 22 -6 4 4 1 11 -7 17 -13 8
-13 10 0 19 13 8 13 10 -1 10 -9 0 -26 9 -39 20 l-23 20 24 9 c19 8 20 10 5
10 -13 1 -17 6 -13 20 4 16 -1 20 -26 23 -31 3 -52 28 -23 28 9 0 16 4 16 10
0 5 7 7 16 3 9 -3 20 0 24 7 12 20 97 49 108 38 7 -7 28 -5 60 5 43 12 52 12
56 1 3 -8 12 -14 21 -14 8 0 15 -6 15 -13 0 -49 108 -77 191 -49 47 16 79 12
79 -9 0 -7 -2 -10 -6 -7 -3 3 -26 0 -51 -8 -25 -8 -49 -11 -53 -9 -21 13 -18
-17 3 -37 98 -91 119 -108 147 -112 12 -2 60 -45 60 -53 0 -16 100 -37 113
-24 16 16 53 13 68 -6 10 -11 10 -14 2 -9 -7 4 -13 3 -13 -3 0 -5 6 -11 12
-14 10 -3 10 -8 -1 -18 -12 -12 -13 -12 -6 1 8 13 7 13 -11 0 -48 -37 -59 -87
-25 -117 11 -9 17 -22 14 -29 -9 -25 9 -15 43 23 28 32 35 36 44 23 5 -8 10
-12 10 -7 0 4 18 -2 41 -13 42 -22 47 -43 11 -48 -27 -4 -28 -18 -2 -34 11 -7
20 -15 20 -18 0 -12 137 -150 149 -150 6 0 9 -5 5 -11 -3 -6 7 -23 22 -38 41
-39 147 -158 157 -176 7 -13 121 -15 927 -15 l920 0 0 1800 0 1800 -575 0
c-473 0 -575 -2 -575 -13 0 -19 -30 -17 -31 2 0 13 -2 13 -6 2 -3 -8 -19 -26
-34 -39 -21 -17 -29 -33 -29 -56 0 -19 -8 -38 -20 -49 -24 -20 -129 -57 -164
-57 -14 0 -31 -9 -40 -21 -13 -19 -21 -21 -60 -15 -29 5 -47 13 -51 24 -8 25
-46 65 -90 95 -49 33 -55 33 -55 3 0 -14 -4 -28 -10 -31 -18 -11 23 -74 69
-104 26 -16 55 -39 66 -51 l19 -21 -44 0 c-78 1 -115 -2 -102 -6 17 -6 15 -23
-4 -23 -8 0 -13 -3 -11 -7 7 -11 -15 -28 -38 -29 -20 -2 -66 -17 -120 -40 -16
-7 -38 -15 -48 -18 -9 -3 -22 -17 -27 -30 -9 -24 -17 -28 -82 -41 -11 -2 -18
3 -18 11 0 8 -2 14 -5 14 -11 0 -101 -46 -114 -58 -7 -7 -20 -11 -28 -8 -8 3
-11 1 -8 -4 4 -6 -13 -9 -44 -7 -53 2 -70 17 -45 37 16 14 20 55 4 45 -6 -3
-10 -2 -10 4 0 16 20 24 33 13 7 -6 24 -9 38 -7 23 3 38 9 89 36 8 5 34 17 56
28 23 10 51 27 61 37 10 11 28 20 38 22 11 2 40 16 63 30 94 58 117 72 127 76
6 2 5 9 -2 17 -22 23 -14 49 29 100 36 43 46 49 79 49 21 0 41 -5 45 -11 11
-19 75 -41 87 -31 7 5 23 13 37 17 41 13 66 55 32 55 -23 0 -42 19 -42 42 0
17 -22 18 -411 18 -380 0 -413 -1 -425 -17 -13 -17 -15 -17 -25 0 -7 12 -23
17 -54 17 -49 0 -53 -12 -17 -50 20 -21 20 -25 6 -33 -20 -11 -70 -2 -102 19
-17 11 -23 22 -19 40 l4 24 -1898 0 -1899 0 0 -1800z m4600 1760 c0 -5 -4 -10
-10 -10 -5 0 -10 5 -10 10 0 6 5 10 10 10 6 0 10 -4 10 -10z m-3680 -64 c0 -3
-4 -8 -10 -11 -5 -3 -10 -1 -10 4 0 6 5 11 10 11 6 0 10 -2 10 -4z m4910 -6
c0 -5 -4 -10 -10 -10 -5 0 -10 5 -10 10 0 6 5 10 10 10 6 0 10 -4 10 -10z
m-2213 -72 c-3 -8 -6 -5 -6 6 -1 11 2 17 5 13 3 -3 4 -12 1 -19z m73 12 c0 -5
-4 -10 -10 -10 -5 0 -10 5 -10 10 0 6 5 10 10 10 6 0 10 -4 10 -10z m-644 -61
c17 -5 40 -20 52 -32 19 -20 60 -133 61 -167 0 -8 3 -40 7 -71 l7 -57 -27 5
c-18 4 -26 12 -26 26 0 11 -12 36 -27 56 -16 20 -28 41 -29 46 0 6 -4 18 -9
28 -4 9 -5 25 -3 35 4 14 -7 26 -38 46 -24 15 -44 34 -44 42 0 8 -5 14 -11 14
-5 0 -7 5 -3 12 4 7 3 8 -5 4 -6 -4 -9 -11 -6 -16 7 -11 -7 -20 -39 -22 -14
-1 -26 -6 -26 -10 0 -5 11 -6 25 -2 24 6 25 4 25 -39 0 -25 5 -49 11 -52 12
-8 9 -67 -5 -77 -6 -4 -16 -2 -23 4 -9 7 -13 7 -13 0 0 -6 4 -13 9 -16 5 -3 7
-16 4 -29 -4 -17 -3 -19 6 -7 9 12 11 12 17 -3 3 -9 15 -17 25 -17 29 0 22
-13 -17 -33 -49 -24 -61 -9 -59 68 1 33 -2 80 -7 105 -17 84 -19 137 -6 148
23 18 127 25 174 11z m484 1 c0 -5 -4 -10 -10 -10 -5 0 -10 5 -10 10 0 6 5 10
10 10 6 0 10 -4 10 -10z m1016 1 c-4 -5 0 -12 6 -14 7 -3 3 -6 -10 -6 -12 -1
-33 -7 -45 -15 -12 -8 -38 -17 -57 -21 -33 -7 -34 -6 -15 9 11 8 28 16 38 16
9 0 17 4 17 10 0 5 15 14 33 19 17 5 33 10 35 10 2 1 1 -3 -2 -8z m-946 -61
c0 -5 -5 -10 -11 -10 -5 0 -7 5 -4 10 3 6 8 10 11 10 2 0 4 -4 4 -10z m815
-20 c3 -5 1 -10 -4 -10 -6 0 -11 5 -11 10 0 6 2 10 4 10 3 0 8 -4 11 -10z
m-91 -45 c3 -10 1 -15 -7 -14 -6 1 -20 -1 -30 -6 -26 -11 -35 4 -13 21 26 18
42 18 50 -1z m-619 -107 c14 -6 25 -15 25 -20 0 -11 -7 -10 -30 2 -15 8 -17 6
-13 -9 2 -10 -3 -25 -11 -34 -14 -13 -14 -17 -3 -24 15 -9 40 -49 43 -71 3
-18 24 -42 37 -42 7 0 7 4 -1 12 -21 21 -13 32 9 12 16 -14 23 -15 26 -6 3 6
9 12 15 12 6 0 8 -6 5 -14 -4 -9 1 -16 14 -18 11 -2 21 -7 22 -13 3 -16 -74
-16 -97 0 -11 8 -29 15 -39 15 -30 0 -57 34 -72 94 -21 80 -19 93 13 104 15 6
28 11 29 11 1 1 14 -4 28 -11z m2305 -17 c0 -6 -4 -13 -10 -16 -5 -3 -10 1
-10 9 0 9 5 16 10 16 6 0 10 -4 10 -9z m129 -36 c41 -33 61 -37 61 -14 0 6 -8
8 -18 5 -13 -4 -18 -1 -18 13 0 27 40 11 44 -18 4 -25 -35 -45 -55 -29 -10 8
-13 5 -13 -11 0 -18 3 -19 26 -11 34 13 39 13 25 -3 -8 -10 -7 -14 4 -15 8 -1
21 -3 29 -4 8 -1 20 -13 26 -27 10 -22 9 -28 -10 -43 -31 -25 -41 -23 -81 18
-18 20 -52 45 -74 56 -22 11 -41 22 -43 23 -1 1 3 23 10 49 15 56 28 58 87 11z
m-2399 11 c0 -3 -4 -8 -10 -11 -5 -3 -10 -1 -10 4 0 6 5 11 10 11 6 0 10 -2
10 -4z m77 -50 c-3 -8 1 -22 8 -33 8 -10 15 -29 15 -42 0 -23 -1 -23 -18 -8
-10 10 -25 17 -33 17 -17 0 -74 48 -67 56 13 12 44 11 60 -3 14 -13 17 -12 23
6 3 12 9 21 12 21 3 0 3 -6 0 -14z m101 -8 c-2 -6 -10 -14 -16 -16 -7 -2 -10
2 -6 12 7 18 28 22 22 4z m287 -36 c0 -18 -20 -15 -23 4 -3 10 1 15 10 12 7
-3 13 -10 13 -16z m-285 -2 c0 -5 -4 -10 -10 -10 -5 0 -10 5 -10 10 0 6 5 10
10 10 6 0 10 -4 10 -10z m-15 -50 c0 -7 -10 -16 -22 -21 -20 -7 -23 -5 -23 15
0 17 5 22 23 21 12 -1 22 -8 22 -15z m305 -70 c-8 -5 -19 -10 -25 -10 -5 0 -3
5 5 10 8 5 20 10 25 10 6 0 3 -5 -5 -10z m-65 -56 c20 -15 20 -15 -5 -34 -31
-25 -50 -22 -61 8 -5 13 -5 21 0 18 5 -3 14 1 21 9 15 18 20 18 45 -1z m115
-79 c40 -3 42 -4 33 -17 -12 -19 -11 -88 1 -88 6 0 0 -9 -14 -20 -20 -16 -22
-20 -7 -20 10 0 17 -8 17 -20 0 -13 -5 -18 -15 -14 -8 4 -15 1 -15 -5 0 -17
47 -62 62 -60 33 4 46 -4 61 -36 9 -19 23 -35 32 -35 19 0 19 10 -1 38 -8 12
-11 22 -5 22 16 0 33 -38 29 -68 -2 -23 -7 -27 -29 -24 -29 3 -43 -18 -34 -49
5 -16 10 -14 35 14 25 27 31 30 40 17 15 -22 12 -40 -6 -40 -12 0 -15 -7 -12
-25 4 -18 -2 -32 -18 -48 -29 -27 -31 -47 -3 -47 28 0 15 -17 -27 -35 -19 -8
-34 -18 -33 -22 4 -25 -4 -32 -37 -30 -22 2 -40 10 -45 20 -6 9 -17 17 -24 17
-23 0 -18 17 6 23 16 4 19 10 14 28 -5 13 -3 19 3 15 12 -7 22 16 22 49 0 13
11 32 25 43 30 24 32 39 4 47 -12 4 -18 12 -15 21 3 8 -1 14 -10 14 -9 0 -18
9 -21 20 -9 36 -30 21 -37 -26 -1 -9 -10 -22 -19 -29 -9 -7 -17 -22 -17 -33 0
-11 -8 -23 -18 -26 -12 -4 -25 -28 -36 -66 -18 -58 -28 -71 -41 -50 -5 8 -11
7 -21 -1 -10 -8 -14 -8 -14 0 0 6 9 16 19 23 14 9 17 16 10 24 -14 17 -39 6
-39 -15 0 -9 -4 -21 -9 -27 -11 -11 -2 -64 11 -64 5 0 7 -4 4 -9 -3 -5 -15 -7
-26 -4 -14 4 -19 11 -15 23 3 10 1 21 -5 25 -9 6 -14 -11 -12 -44 0 -8 -8 -26
-19 -39 -23 -29 -25 -78 -4 -85 8 -4 17 -1 21 5 4 7 9 6 15 -3 8 -12 11 -11
19 1 8 13 10 13 10 -1 0 -9 7 -19 15 -22 11 -5 12 -1 4 20 -11 30 -9 35 10 23
8 -4 14 -22 13 -38 0 -18 5 -33 14 -36 8 -3 14 -19 14 -42 0 -31 -2 -35 -15
-24 -8 7 -15 18 -15 25 0 14 -27 28 -34 17 -5 -9 40 -79 46 -72 9 9 38 -22 38
-41 0 -20 24 -26 35 -9 4 7 13 6 26 -1 20 -10 20 -11 3 -30 -15 -17 -16 -22
-5 -29 11 -6 12 -19 4 -62 -9 -49 -10 -51 -20 -28 -10 22 -12 23 -18 8 -10
-26 -22 -22 -40 11 -14 28 -14 30 5 36 27 9 25 26 -2 21 -36 -5 -49 16 -42 71
4 26 3 45 -1 41 -4 -4 -14 -1 -22 7 -21 21 -36 18 -30 -5 4 -17 0 -20 -33 -20
-29 0 -43 6 -55 23 -15 21 -15 22 11 25 15 2 30 -2 34 -8 12 -19 21 19 10 40
-5 10 -22 28 -37 40 -15 12 -28 29 -28 37 0 9 -8 17 -18 19 -9 1 -15 -2 -11
-7 3 -5 0 -9 -5 -9 -6 0 -11 5 -11 10 0 6 -13 10 -30 10 -16 0 -30 5 -30 11 0
6 9 8 21 4 14 -5 19 -3 15 3 -3 6 2 12 11 15 16 3 16 5 -2 12 -11 5 -31 20
-45 33 l-25 23 30 -7 c17 -4 33 -12 37 -18 5 -7 8 -5 8 5 0 8 -5 20 -12 27 -7
7 -9 12 -5 12 4 0 16 -9 27 -20 22 -22 42 -25 70 -10 15 8 16 13 7 35 -15 31
-37 33 -37 3 -1 -20 -4 -17 -23 14 -20 34 -57 52 -57 28 0 -15 -36 -12 -50 5
-15 18 -34 20 -27 2 2 -6 -2 -18 -9 -25 -17 -15 -16 -16 -18 26 -2 21 1 29 7
23 7 -7 17 -7 29 0 12 6 18 6 18 -1 0 -5 7 -10 15 -10 8 0 15 7 15 15 0 8 -5
15 -12 15 -6 0 -4 6 5 13 16 11 16 14 1 42 -8 17 -20 35 -26 40 -8 7 -9 6 -3
-4 5 -9 3 -12 -5 -9 -28 9 -22 28 9 28 23 0 31 5 31 18 0 14 2 15 10 2 16 -24
32 7 26 52 -2 22 0 36 6 35 6 -1 13 4 15 11 3 6 0 12 -6 12 -6 0 -8 6 -5 14 3
8 1 17 -5 21 -18 11 -12 23 8 18 10 -3 22 0 25 6 4 6 0 11 -9 11 -9 0 -13 5
-10 10 3 6 19 8 36 5 19 -4 28 -1 27 7 -2 6 8 12 22 12 18 1 26 7 28 23 2 15
8 20 19 16 12 -5 15 -2 10 10 -3 9 -2 17 3 17 6 0 10 8 10 18 1 9 11 30 24 45
18 22 30 28 57 26 53 -4 89 0 89 10 0 5 -6 11 -12 14 -7 2 -2 2 12 -1 14 -2
36 -5 50 -7z m-740 -30 c0 -18 -35 -55 -52 -55 -15 0 -19 -5 -14 -17 6 -17 5
-17 -8 -1 -12 17 -14 17 -36 -2 -13 -11 -19 -20 -14 -20 5 0 2 -5 -6 -10 -13
-8 -12 -10 3 -10 11 0 29 -8 42 -18 l23 -18 -29 -32 c-27 -30 -29 -31 -46 -14
-10 9 -17 15 -16 13 2 -3 -32 -66 -44 -81 -10 -12 -21 26 -11 43 13 25 0 37
-16 15 -8 -11 -21 -15 -37 -12 -13 2 -18 2 -11 -2 17 -8 15 -24 -3 -24 -8 0
-15 5 -15 10 0 15 -27 12 -33 -4 -3 -8 -2 -16 2 -18 4 -2 11 -18 14 -36 5 -25
3 -32 -6 -29 -6 2 -11 14 -11 26 1 15 -6 23 -25 27 -14 3 -30 7 -36 8 -5 2 8
14 31 28 38 25 78 71 79 93 0 16 59 12 72 -5 11 -13 12 -12 13 8 0 12 -5 22
-12 22 -24 0 19 31 103 75 83 44 99 50 99 40z m-780 -47 c0 -18 2 -20 9 -9 8
12 12 10 21 -10 9 -19 8 -32 -4 -60 -18 -44 -54 -57 -90 -34 -34 22 -38 41
-20 78 25 48 34 57 60 57 18 0 24 -6 24 -22z m150 2 c0 -5 -4 -10 -10 -10 -5
0 -10 5 -10 10 0 6 5 10 10 10 6 0 10 -4 10 -10z m2350 -40 c18 -22 27 -26 37
-18 10 8 13 5 13 -11 0 -12 -4 -19 -10 -16 -6 3 -13 -1 -16 -9 -3 -9 -13 -16
-21 -16 -8 0 -21 -6 -28 -14 -9 -8 -33 -13 -64 -12 -40 2 -51 -1 -54 -16 -5
-18 -52 -42 -67 -33 -4 3 -8 -1 -7 -8 0 -6 -1 -21 -2 -32 -2 -19 -3 -19 -11 2
-5 13 -15 21 -22 19 -7 -3 -26 -7 -42 -11 -24 -5 -27 -8 -15 -16 10 -8 8 -9
-9 -4 -13 4 -29 2 -35 -4 -13 -11 -52 -18 -149 -27 l-58 -6 0 32 c0 19 4 29
10 25 17 -10 62 -16 57 -8 -3 5 1 16 8 26 10 14 22 16 54 12 39 -5 42 -3 36
15 -5 16 -2 20 17 20 13 0 32 6 43 14 11 7 34 17 52 20 17 4 45 19 61 34 64
57 68 58 90 16 10 -19 8 -24 -11 -37 l-22 -16 23 6 c12 3 22 9 22 14 0 5 6 9
14 9 8 0 17 13 21 29 5 23 31 47 55 50 3 1 16 -12 30 -29z m-1810 -10 c0 -5
-5 -10 -11 -10 -5 0 -7 5 -4 10 3 6 8 10 11 10 2 0 4 -4 4 -10z m1510 -20 c0
-5 -2 -10 -4 -10 -3 0 -8 5 -11 10 -3 6 -1 10 4 10 6 0 11 -4 11 -10z m-70
-16 c0 -8 -4 -12 -10 -9 -5 3 -10 10 -10 16 0 5 5 9 10 9 6 0 10 -7 10 -16z
m1037 -6 c0 -7 2 -19 4 -26 5 -18 -24 -37 -45 -29 -16 6 -22 47 -9 60 11 12
50 8 50 -5z m-2317 -19 c0 -5 -5 -9 -11 -9 -6 0 -18 -7 -26 -16 -13 -12 -13
-18 -4 -24 9 -5 4 -9 -14 -14 -32 -8 -45 -1 -45 25 0 12 7 19 20 19 22 0 27
16 8 23 -7 2 6 5 30 5 23 0 42 -3 42 -9z m1145 -79 c3 -5 1 -10 -4 -10 -6 0
-11 5 -11 10 0 6 2 10 4 10 3 0 8 -4 11 -10z m1393 -26 c38 -6 42 -25 7 -44
-19 -10 -23 -19 -19 -36 3 -12 1 -31 -5 -42 -8 -15 -8 -23 0 -28 8 -4 2 -12
-15 -21 -14 -7 -26 -18 -26 -23 0 -6 -9 -5 -20 2 -12 7 -19 20 -17 28 2 9 -2
21 -10 28 -16 15 -17 32 -2 32 6 0 3 7 -5 16 -9 8 -14 20 -11 25 4 5 1 9 -4 9
-19 0 -12 22 9 27 11 3 20 11 20 18 0 13 39 17 98 9z m-3058 -13 c0 -5 -6 -13
-13 -19 -10 -8 -13 -6 -13 9 0 10 6 19 13 19 7 0 13 -4 13 -9z m2090 -1 c0 -5
-4 -10 -10 -10 -5 0 -10 5 -10 10 0 6 5 10 10 10 6 0 10 -4 10 -10z m-1413
-29 c-3 -14 -1 -18 9 -14 15 5 44 -13 44 -28 0 -13 -33 -10 -52 5 -15 11 -16
56 -1 56 3 0 3 -9 0 -19z m1303 2 c0 -15 -2 -16 -10 -3 -5 8 -10 10 -10 5 0
-6 5 -16 12 -23 9 -9 9 -12 0 -12 -7 0 -12 -7 -12 -15 0 -8 -3 -14 -7 -14 -20
3 -24 -2 -13 -16 10 -12 8 -16 -14 -25 -18 -7 -26 -17 -26 -34 0 -14 -4 -28
-10 -31 -5 -3 -9 -16 -9 -28 1 -17 2 -18 6 -4 5 18 18 23 27 8 3 -5 15 -7 27
-4 12 4 25 0 30 -8 7 -11 9 -10 9 4 0 27 25 -1 32 -36 4 -21 1 -27 -13 -27
-10 0 -17 6 -15 13 1 6 1 9 -1 5 -3 -5 -12 -8 -20 -8 -13 0 -13 -2 -2 -17 8
-10 9 -14 2 -10 -6 4 -14 3 -18 -3 -3 -5 -11 -10 -17 -10 -7 0 -7 4 0 13 9 10
4 13 -23 14 -20 1 -35 -4 -35 -10 0 -8 -3 -8 -8 -2 -4 6 -16 12 -27 13 -11 2
-23 9 -26 14 -4 7 -9 7 -13 0 -9 -16 -44 -2 -49 19 -6 23 -20 24 -42 3 -20
-20 -11 -32 11 -14 13 12 17 11 24 0 10 -17 3 -33 -11 -24 -6 3 -13 -3 -16
-15 -3 -12 -8 -21 -12 -22 -3 0 -16 -2 -28 -5 -21 -4 -21 -3 -8 29 13 31 12
35 -6 50 -10 9 -19 14 -19 11 0 -3 -7 1 -15 10 -8 8 -15 19 -15 25 0 6 -6 8
-12 6 -9 -4 -13 5 -12 27 1 26 6 35 27 42 15 6 27 13 27 18 0 4 9 8 20 8 11 0
20 7 20 15 0 8 4 14 9 13 4 -2 18 8 30 22 l21 25 6 -23 c4 -15 10 -19 18 -13
6 5 26 8 44 6 17 -1 32 1 32 5 0 15 33 21 43 8 6 -9 7 -6 4 10 -3 14 -1 20 6
15 19 -12 56 -9 61 4 8 19 26 16 26 -4z m-1770 -13 c0 -5 -5 -10 -11 -10 -5 0
-7 5 -4 10 3 6 8 10 11 10 2 0 4 -4 4 -10z m-170 -31 c0 -5 -8 -9 -19 -9 -23
0 -74 -47 -66 -60 11 -18 -24 -11 -44 9 -19 19 -19 19 -26 -17 -7 -40 -30 -72
-51 -72 -32 0 -92 42 -97 67 -9 49 46 82 140 83 85 1 120 4 128 12 9 8 35 -1
35 -13z m190 -18 c0 -9 6 -23 13 -30 10 -11 8 -11 -10 -2 -15 8 -23 21 -23 37
0 14 4 22 10 19 6 -3 10 -14 10 -24z m2380 -45 c0 -11 -19 -15 -25 -6 -3 5 1
10 9 10 9 0 16 -2 16 -4z m-670 -27 c0 -6 -4 -7 -10 -4 -5 3 -10 11 -10 16 0
6 5 7 10 4 6 -3 10 -11 10 -16z m-1223 5 c-3 -3 -12 -4 -19 -1 -8 3 -5 6 6 6
11 1 17 -2 13 -5z m1823 -44 c0 -5 -4 -10 -10 -10 -5 0 -10 5 -10 10 0 6 5 10
10 10 6 0 10 -4 10 -10z m-45 -69 c3 -5 -12 -15 -32 -22 -21 -6 -41 -17 -45
-23 -12 -17 -9 -38 3 -31 6 4 17 -2 25 -14 8 -11 30 -23 49 -27 36 -6 44 -21
23 -42 -17 -17 -50 -15 -90 5 -18 9 -40 19 -48 23 -9 4 -19 30 -24 60 -8 46
-7 55 9 66 21 16 121 19 130 5z m-2701 -34 c15 -24 -2 -34 -19 -11 -8 10 -15
23 -15 27 0 13 22 3 34 -16z m1305 7 c12 -12 -8 -10 -34 2 l-30 14 30 -6 c16
-3 32 -8 34 -10z m91 -14 c0 -5 -2 -10 -4 -10 -3 0 -8 5 -11 10 -3 6 -1 10 4
10 6 0 11 -4 11 -10z m-132 -45 c-3 -3 -9 2 -12 12 -6 14 -5 15 5 6 7 -7 10
-15 7 -18z m-298 -26 c0 -5 -7 -9 -15 -9 -15 0 -20 12 -9 23 8 8 24 -1 24 -14z
m2170 -85 c0 -8 -5 -12 -10 -9 -6 4 -8 11 -5 16 9 14 15 11 15 -7z m-1721 -13
c11 -7 10 -12 -6 -28 -11 -11 -27 -20 -36 -20 -19 0 -23 17 -4 18 10 0 10 2 0
6 -7 2 -13 9 -13 14 0 6 4 8 9 4 5 -3 12 -1 16 5 8 12 16 12 34 1z m1276 -30
c-3 -6 -11 -11 -17 -11 -6 0 -6 6 2 15 14 17 26 13 15 -4z m74 -24 c1 14 43
13 54 -2 6 -7 10 -6 14 2 3 9 10 10 23 3 13 -7 20 -6 23 3 4 8 8 8 14 2 4 -5
18 -16 31 -23 19 -11 26 -11 39 0 15 12 16 10 10 -17 l-7 -30 15 25 15 25 6
-22 c3 -12 17 -29 31 -39 14 -9 23 -12 20 -7 -9 14 36 36 59 31 17 -4 16 -6
-6 -16 -17 -7 -20 -11 -8 -11 9 -1 28 10 41 23 l24 24 18 -24 c10 -13 22 -24
28 -24 5 0 16 -8 23 -17 8 -11 13 -13 14 -5 0 19 14 14 29 -10 13 -21 13 -22
-2 -10 -15 13 -37 9 -37 -6 0 -11 59 -34 70 -27 5 3 10 1 10 -6 0 -9 4 -9 15
1 8 6 19 9 26 5 6 -4 15 -1 20 6 8 12 11 12 19 -1 5 -8 10 -10 11 -5 0 6 7 -6
14 -25 13 -33 14 -33 14 -9 1 15 8 30 17 33 13 5 14 3 7 -6 -6 -7 -13 -25 -16
-39 -7 -27 -33 -35 -41 -13 -3 8 -12 11 -21 7 -12 -4 -13 -8 -5 -13 7 -5 8
-10 3 -13 -6 -4 -16 5 -23 18 -16 31 -30 33 -22 3 4 -16 2 -19 -9 -12 -21 13
-49 15 -49 4 0 -6 -8 -10 -17 -10 -12 0 -18 -8 -19 -26 -2 -21 2 -25 17 -21
10 3 17 1 14 -3 -12 -19 57 -6 70 13 8 12 18 17 22 13 5 -5 2 -11 -4 -13 -7
-3 -13 -9 -13 -15 0 -6 9 -3 20 7 21 19 60 28 60 14 0 -4 -5 -20 -12 -36 l-11
-28 -7 30 c-6 24 -8 25 -9 8 0 -13 -7 -23 -15 -23 -7 0 -19 -7 -26 -15 -11
-13 -10 -18 6 -30 10 -8 29 -12 40 -10 17 2 23 -3 27 -23 3 -15 5 -28 4 -29
-1 -1 -29 -4 -62 -8 -33 -3 -67 -12 -75 -19 -8 -7 -21 -11 -27 -9 -7 3 -13 -1
-13 -7 0 -7 -8 -10 -20 -7 -11 3 -18 1 -14 -4 3 -5 -10 -9 -28 -10 -18 0 -69
-8 -113 -17 -64 -14 -103 -16 -200 -9 -98 6 -143 3 -245 -13 -69 -11 -158 -21
-198 -24 -40 -2 -75 -6 -77 -8 -3 -2 -30 0 -62 4 -200 28 -223 29 -239 13 -9
-9 -11 -16 -4 -20 6 -4 9 -14 8 -23 -2 -10 5 -18 17 -20 40 -8 39 -22 0 -22
-29 0 -51 9 -79 30 -45 34 -55 35 -111 14 -38 -14 -78 -24 -100 -25 -37 -1
-132 14 -142 23 -20 16 1 43 46 58 28 9 46 23 56 43 17 35 18 40 6 32 -5 -3
-13 0 -17 6 -4 8 -9 7 -15 -2 -7 -11 -9 -11 -9 2 0 28 -82 39 -149 19 -29 -8
-41 -6 -79 15 -51 29 -56 30 -47 13 4 -7 -3 -2 -14 12 -20 25 -31 118 -13 106
5 -3 7 -18 5 -33 -3 -19 2 -34 14 -45 17 -15 20 -15 41 2 19 15 20 21 9 32
-21 20 -35 52 -30 66 6 16 45 16 61 0 10 -10 14 -8 18 9 4 12 14 25 24 28 22
7 70 68 70 89 0 9 6 17 13 18 40 5 74 1 85 -9 21 -20 30 -16 81 35 49 49 91
65 91 34 0 -15 2 -15 10 -2 11 18 11 19 15 -45 1 -27 6 -58 10 -67 3 -9 2 -25
-4 -37 -18 -33 -13 -79 9 -91 11 -6 20 -8 20 -4 0 3 6 2 13 -3 30 -23 137 23
137 60 0 9 5 17 11 17 6 0 9 7 5 15 -4 10 1 15 14 15 11 0 20 4 20 10 0 20 70
45 158 56 37 5 91 -21 93 -46 1 -11 2 -11 6 3 5 20 14 22 31 5 9 -9 12 -9 12
0 0 7 4 12 10 12 5 0 7 -7 4 -15 -5 -12 0 -14 27 -8 19 3 37 11 40 16 4 5 12
6 19 2 10 -6 12 -1 8 19 -3 14 -1 29 4 32 4 3 6 10 3 15 -4 5 -2 9 3 9 6 0 13
7 16 16 3 9 2 12 -5 8 -6 -3 -6 2 2 13 12 20 69 41 129 47 19 2 36 9 39 17 3
9 7 5 12 -11 4 -14 7 -20 8 -13z m-3169 13 c0 -5 -2 -10 -4 -10 -3 0 -8 5 -11
10 -3 6 -1 10 4 10 6 0 11 -4 11 -10z m3463 -30 c-3 -12 -8 -19 -11 -16 -5 6
5 36 12 36 2 0 2 -9 -1 -20z m-2017 -17 c-6 -6 -36 9 -36 18 0 5 9 4 20 -3 10
-7 18 -14 16 -15z m2244 5 c0 -12 -3 -18 -7 -15 -3 4 -17 0 -31 -9 -18 -12
-27 -13 -36 -4 -8 9 -7 11 6 8 9 -1 16 2 15 7 -1 6 -5 9 -9 8 -5 -2 -8 2 -8 7
0 14 13 13 29 -2 11 -11 15 -10 24 5 15 22 17 22 17 -5z m-185 2 c3 -5 1 -10
-4 -10 -6 0 -11 5 -11 10 0 6 2 10 4 10 3 0 8 -4 11 -10z m-61 -26 c5 -14 4
-15 -9 -4 -17 14 -19 20 -6 20 5 0 12 -7 15 -16z m-1904 -105 c0 -18 -2 -19
-15 -9 -15 12 -12 30 6 30 5 0 9 -10 9 -21z m81 -49 c5 0 9 -5 9 -11 0 -8 -5
-8 -15 1 -8 7 -14 22 -14 34 2 20 2 20 6 -1 2 -13 9 -23 14 -23z m-1081 1 c0
-24 -18 -37 -32 -23 -8 8 -7 16 2 27 17 21 30 19 30 -4z m940 -46 c0 -8 -4
-15 -10 -15 -5 0 -10 7 -10 15 0 8 5 15 10 15 6 0 10 -7 10 -15z m-2777 -2 c4
-3 2 -12 -4 -20 -9 -10 -6 -13 14 -13 35 0 83 -26 62 -33 -8 -4 -15 -2 -15 3
0 4 -14 12 -32 15 -41 9 -68 26 -68 42 0 14 32 18 43 6z m1777 -21 c0 -15 -2
-15 -10 -2 -13 20 -13 33 0 25 6 -3 10 -14 10 -23z m-490 -27 c0 -8 -2 -15 -4
-15 -2 0 -6 7 -10 15 -3 8 -1 15 4 15 6 0 10 -7 10 -15z m690 5 c0 -5 7 -10
15 -10 8 0 15 4 15 10 0 9 11 7 50 -7 8 -4 21 -7 29 -7 8 -1 16 -7 18 -14 4
-9 -1 -10 -21 -2 -32 12 -65 -5 -67 -35 -2 -17 -2 -17 -6 3 -2 12 -8 22 -12
22 -5 0 -26 7 -47 17 -38 16 -38 16 -14 24 36 10 40 10 40 -1z m1090 -6 c0 -8
-19 -13 -24 -6 -3 5 1 9 9 9 8 0 15 -2 15 -3z m-313 -26 c-3 -8 -6 -5 -6 6 -1
11 2 17 5 13 3 -3 4 -12 1 -19z m2443 7 c0 -8 -2 -15 -4 -15 -2 0 -6 7 -10 15
-3 8 -1 15 4 15 6 0 10 -7 10 -15z m-2422 -44 c3 -8 -1 -12 -9 -9 -7 2 -15 10
-17 17 -3 8 1 12 9 9 7 -2 15 -10 17 -17z m2382 4 c0 -8 -2 -15 -4 -15 -2 0
-6 7 -10 15 -3 8 -1 15 4 15 6 0 10 -7 10 -15z m-4733 -32 c-9 -9 -19 -14 -22
-11 -3 3 2 13 11 22 9 9 19 14 22 11 3 -3 -2 -13 -11 -22z m1227 12 c-4 -8 -8
-15 -10 -15 -2 0 -4 7 -4 15 0 8 4 15 10 15 5 0 7 -7 4 -15z m-1689 -5 c-3 -5
-12 -10 -20 -10 -8 0 -17 5 -20 10 -4 6 5 10 20 10 15 0 24 -4 20 -10z m421
-47 c-2 -2 -18 3 -36 12 -18 9 -34 14 -37 11 -7 -6 -32 17 -27 26 2 3 27 -5
55 -19 27 -14 48 -27 45 -30z m257 35 c20 -7 37 -16 37 -20 0 -10 0 -10 -66 7
-68 18 -99 40 -44 32 19 -3 52 -11 73 -19z m657 -44 c0 -19 -10 -22 -35 -10
-14 6 -25 18 -25 28 0 14 4 15 30 5 17 -6 30 -16 30 -23z m-764 5 c21 -24 -1
-36 -26 -14 -12 11 -20 13 -25 5 -4 -7 6 -16 24 -23 17 -6 31 -17 31 -24 0 -6
8 -17 18 -22 14 -9 13 -10 -11 -11 -21 0 -30 6 -34 21 -4 12 -11 18 -20 15
-22 -9 -53 12 -46 31 4 10 -1 21 -12 30 -17 12 -13 13 33 11 35 -2 58 -8 68
-19z m-1200 -50 c4 -8 -1 -9 -17 -4 -29 9 -49 24 -49 36 0 11 56 -16 66 -32z
m1284 25 c0 -2 -7 -4 -15 -4 -8 0 -15 4 -15 10 0 5 7 7 15 4 8 -4 15 -8 15
-10z m1478 -12 c28 -36 5 -57 -30 -25 -22 20 -24 1 -2 -22 13 -13 14 -18 4
-31 -10 -11 -10 -20 -1 -40 6 -14 11 -34 11 -45 0 -16 -5 -18 -25 -13 -15 4
-25 2 -25 -5 0 -6 0 -14 0 -18 0 -5 20 -9 45 -9 33 -1 45 2 45 13 0 12 3 12
16 -1 17 -18 44 -21 44 -6 0 6 -5 10 -11 10 -8 0 -7 5 2 16 8 10 15 12 17 5 2
-6 10 -11 17 -11 28 0 35 -34 13 -68 -20 -31 -38 -42 -38 -22 0 6 -17 10 -37
10 -20 0 -34 -3 -30 -6 3 -4 0 -13 -8 -21 -10 -10 -12 -20 -5 -38 6 -16 6 -25
0 -25 -6 0 -10 5 -10 10 0 15 -39 -12 -45 -30 -3 -9 -17 -17 -31 -18 -17 -1
-24 2 -21 11 2 6 9 11 15 10 12 -3 3 38 -13 54 -7 7 -17 8 -26 2 -18 -11 -21
-11 -39 1 -13 8 -12 11 5 24 17 13 18 18 8 35 -7 12 -17 29 -21 39 -5 9 -14
27 -21 40 -10 20 -8 24 21 42 18 11 37 20 42 20 4 0 5 7 2 16 -3 8 -2 13 3 10
10 -6 31 37 31 63 0 42 69 58 98 23z m-1414 -27 c11 -8 29 -15 40 -15 22 0 82
-20 104 -33 17 -11 5 -28 -15 -20 -12 5 -15 2 -10 -10 8 -21 -23 -11 -40 14
-7 9 -25 20 -40 24 -35 8 -73 32 -73 45 0 14 12 12 34 -5z m-1307 -1 c-3 -3
-12 -4 -19 -1 -8 3 -5 6 6 6 11 1 17 -2 13 -5z m1083 -4 c0 -5 -4 -10 -10 -10
-5 0 -10 5 -10 10 0 6 5 10 10 10 6 0 10 -4 10 -10z m-723 -16 c-3 -3 -12 -4
-19 -1 -8 3 -5 6 6 6 11 1 17 -2 13 -5z m48 -14 c8 -13 -5 -13 -25 0 -13 8
-13 10 2 10 9 0 20 -4 23 -10z m713 -16 c23 -10 41 -23 39 -27 -1 -5 -5 -7 -8
-5 -3 2 -13 -2 -21 -9 -28 -24 -108 11 -108 47 0 9 30 19 45 15 6 -1 29 -11
53 -21z m409 -36 c18 -7 33 -16 33 -20 0 -15 -38 -8 -61 12 -28 22 -19 25 28
8z m767 -13 c3 -8 1 -17 -4 -20 -6 -4 -10 1 -10 9 0 9 -4 16 -10 16 -5 0 -10
4 -10 10 0 13 27 1 34 -15z m-1617 -10 c9 -24 -1 -27 -15 -5 -8 13 -8 20 -2
20 6 0 13 -7 17 -15z m586 -1 c-4 -10 -10 -11 -24 -3 -24 13 -24 14 5 15 17 1
23 -2 19 -12z m-978 -22 c-3 -3 -11 0 -18 7 -9 10 -8 11 6 5 10 -3 15 -9 12
-12z m89 -1 c3 -5 -1 -12 -10 -15 -22 -9 -24 -8 -24 9 0 16 25 21 34 6z m806
-1 c13 -8 13 -10 -2 -10 -9 0 -20 5 -23 10 -8 13 5 13 25 0z m317 4 c-3 -3
-12 -4 -19 -1 -8 3 -5 6 6 6 11 1 17 -2 13 -5z m82 -48 c37 -28 21 -37 -17
-10 -12 8 -22 13 -22 10 0 -3 -8 2 -18 12 -11 9 -17 20 -15 25 5 8 25 -2 72
-37z m-1164 24 c3 -5 2 -10 -4 -10 -5 0 -13 5 -16 10 -3 6 -2 10 4 10 5 0 13
-4 16 -10z m835 -10 c0 -5 -4 -10 -9 -10 -6 0 -13 5 -16 10 -3 6 1 10 9 10 9
0 16 -4 16 -10z m86 -15 c9 -8 11 -15 6 -15 -5 0 -15 7 -22 15 -7 8 -9 15 -6
15 4 0 14 -7 22 -15z m-80 -30 c19 -8 41 -12 50 -8 8 3 24 -3 36 -13 19 -17
21 -17 15 -2 -5 15 1 17 49 15 46 -2 59 -7 74 -27 10 -14 17 -27 14 -29 -8 -8
-45 -8 -50 0 -2 5 -11 6 -18 3 -7 -3 -16 2 -19 10 -4 11 -1 13 10 9 11 -4 14
-2 9 5 -11 18 -56 15 -56 -3 0 -18 -12 -19 -28 -3 -8 8 -15 9 -20 3 -4 -6 -17
-18 -29 -29 -22 -18 -22 -18 -18 3 5 26 -26 45 -66 39 -15 -3 -26 -1 -23 4 3
4 0 8 -5 8 -6 0 -11 -4 -11 -10 0 -5 -4 -10 -10 -10 -21 0 -4 25 25 36 17 6
31 12 33 13 1 0 18 -6 38 -14z m-479 -2 c-15 -4 -16 -7 -5 -21 11 -13 11 -14
-2 -7 -13 7 -13 6 -2 -7 11 -13 8 -16 -18 -21 -33 -7 -80 7 -80 23 0 6 5 8 10
5 6 -3 10 -2 10 4 0 11 42 26 79 28 15 0 19 -1 8 -4z m787 -2 c3 -5 -1 -11 -9
-15 -15 -6 -29 7 -18 18 9 9 21 8 27 -3z m-744 -11 c0 -5 -2 -10 -4 -10 -3 0
-8 5 -11 10 -3 6 -1 10 4 10 6 0 11 -4 11 -10z m110 -10 c12 -8 11 -10 -7 -10
-13 0 -23 5 -23 10 0 13 11 13 30 0z m-533 -6 c-3 -3 -12 -4 -19 -1 -8 3 -5 6
6 6 11 1 17 -2 13 -5z m1190 0 c-3 -3 -12 -4 -19 -1 -8 3 -5 6 6 6 11 1 17 -2
13 -5z m633 -15 c0 -6 -4 -7 -10 -4 -5 3 -10 11 -10 16 0 6 5 7 10 4 6 -3 10
-11 10 -16z m-1193 -13 c24 -7 48 -17 54 -23 17 -17 -76 3 -106 23 -29 19 -33
30 -7 19 9 -5 36 -13 59 -19z m230 -9 c-2 -7 -14 -14 -26 -15 -14 -2 -21 0
-17 7 4 5 13 8 21 4 8 -3 15 0 15 6 0 15 -15 14 -53 -4 l-32 -16 29 25 c23 19
34 23 48 15 11 -6 17 -16 15 -22z m2723 23 c0 -5 -4 -10 -10 -10 -5 0 -10 5
-10 10 0 6 5 10 10 10 6 0 10 -4 10 -10z m1250 5 c0 -3 -5 -15 -12 -28 -6 -12
-14 -28 -18 -36 -10 -24 -30 -25 -30 -2 0 12 5 21 10 21 6 0 10 9 10 19 0 11
6 22 13 24 17 7 27 8 27 2z m-4630 -35 c0 -5 -7 -7 -15 -4 -8 4 -12 10 -9 15
6 11 24 2 24 -11z m280 4 c0 -2 -7 -4 -15 -4 -8 0 -15 4 -15 10 0 5 7 7 15 4
8 -4 15 -8 15 -10z m3130 6 c0 -5 -2 -10 -4 -10 -3 0 -8 5 -11 10 -3 6 -1 10
4 10 6 0 11 -4 11 -10z m-3224 -14 c10 -8 15 -18 11 -22 -4 -4 -17 2 -29 14
-25 25 -13 30 18 8z m827 -12 c-5 -13 -15 -15 -47 -10 -60 10 -63 22 -4 17 39
-2 49 0 43 9 -5 8 -4 11 3 6 6 -4 8 -14 5 -22z m677 5 c0 -14 -17 -10 -23 5
-4 10 -1 13 9 9 7 -3 14 -9 14 -14z m-1635 1 c3 -5 2 -10 -4 -10 -5 0 -13 5
-16 10 -3 6 -2 10 4 10 5 0 13 -4 16 -10z m2283 -1 c17 0 32 -4 32 -9 0 -6
-16 -10 -36 -10 -27 0 -35 -3 -31 -14 4 -10 1 -13 -8 -10 -8 3 -26 -4 -41 -15
l-27 -21 -15 21 c-26 37 21 76 73 62 11 -3 35 -5 53 -4z m2225 -81 c-3 -17 -1
-28 6 -28 6 0 11 -7 11 -15 0 -18 -16 -20 -23 -2 -4 8 -6 6 -6 -4 -1 -9 13
-28 29 -42 27 -25 44 -77 20 -62 -5 3 -10 2 -10 -4 0 -6 9 -15 20 -21 16 -9
18 -8 14 5 -7 17 21 21 31 5 4 -6 11 -8 16 -4 6 3 13 -3 16 -15 6 -25 11 -26
35 -4 25 22 23 2 -3 -31 -19 -24 -59 -36 -59 -18 0 5 -22 19 -50 32 -39 18
-52 31 -65 63 -21 51 -30 143 -16 151 7 4 7 15 1 31 -7 18 -5 28 8 41 16 16
17 15 24 -17 3 -19 4 -46 1 -61z m-4543 53 c0 -5 -11 -8 -25 -8 -23 0 -33 16
-19 30 8 8 44 -10 44 -22z m330 19 c8 -5 11 -10 5 -10 -5 0 -17 5 -25 10 -8 5
-10 10 -5 10 6 0 17 -5 25 -10z m-190 -22 c0 -6 -6 -5 -15 2 -8 7 -15 14 -15
16 0 2 7 1 15 -2 8 -4 15 -11 15 -16z m890 12 c0 -5 -7 -10 -16 -10 -8 0 -12
5 -9 10 3 6 10 10 16 10 5 0 9 -4 9 -10z m-1090 -20 c0 -5 -5 -10 -11 -10 -5
0 -7 5 -4 10 3 6 8 10 11 10 2 0 4 -4 4 -10z m790 6 c0 -3 -4 -8 -10 -11 -5
-3 -10 -1 -10 4 0 6 5 11 10 11 6 0 10 -2 10 -4z m-155 -16 c3 -5 2 -10 -4
-10 -5 0 -13 5 -16 10 -3 6 -2 10 4 10 5 0 13 -4 16 -10z m556 0 c6 0 7 -4 4
-10 -3 -5 -1 -10 6 -10 7 0 10 -2 7 -5 -6 -7 -58 18 -58 29 0 4 7 5 16 2 9 -3
20 -6 25 -6z m-52 -22 c14 -23 3 -23 -33 1 l-29 19 26 -1 c14 -1 30 -10 36
-19z m328 9 c11 -18 57 -36 79 -32 11 2 24 4 30 4 6 1 16 11 21 24 11 22 11
22 18 -6 11 -41 54 -67 109 -65 25 1 46 5 46 9 0 11 -31 20 -49 15 -9 -3 -23
5 -34 19 -13 18 -14 25 -5 26 25 2 43 -3 68 -21 17 -12 37 -16 64 -12 27 3 37
1 32 -7 -4 -6 -4 -11 1 -11 4 0 15 -13 24 -28 10 -18 31 -33 59 -42 23 -8 50
-21 58 -30 10 -9 34 -15 64 -15 29 0 50 -5 53 -12 3 -10 -17 -13 -80 -13 -47
0 -85 -3 -85 -6 0 -3 7 -12 15 -21 9 -8 14 -17 12 -20 -6 -5 -77 29 -77 38 0
4 -18 14 -40 23 -22 9 -40 20 -40 26 0 5 -6 10 -14 10 -8 0 -21 8 -28 18 -16
21 -24 23 -116 31 -57 5 -71 4 -68 -6 9 -23 -8 -14 -40 20 -17 19 -49 45 -72
59 -23 13 -39 28 -35 31 10 11 21 8 30 -6z m-1282 -15 c-3 -3 -11 0 -18 7 -9
10 -8 11 6 5 10 -3 15 -9 12 -12z m4465 4 c0 -16 -18 -31 -27 -22 -8 8 5 36
17 36 5 0 10 -6 10 -14z m-2740 -36 c0 -13 -1 -13 -10 0 -5 8 -10 11 -10 5 0
-5 -5 -3 -10 5 -16 24 -12 31 10 18 11 -7 20 -20 20 -28z m-1604 22 c5 -5 30
-16 56 -26 25 -9 52 -25 60 -34 12 -15 11 -15 -14 1 -38 24 -45 21 -18 -8 13
-14 19 -25 13 -25 -6 0 -16 7 -23 15 -7 8 -19 15 -26 15 -8 0 -13 6 -11 13 1
7 -8 11 -24 9 -21 -2 -28 3 -31 23 -5 26 1 31 18 17z m534 -23 c0 -5 -7 -9
-15 -9 -15 0 -20 12 -9 23 8 8 24 -1 24 -14z m4121 -55 c-6 -14 -9 -29 -6 -33
2 -5 -2 -16 -9 -27 -8 -10 -12 -24 -9 -31 3 -7 1 -13 -5 -13 -5 0 -10 16 -10
36 0 26 3 33 9 23 8 -12 7 19 -3 100 -2 21 5 20 23 -3 18 -23 20 -31 10 -52z
m-4331 50 c0 -2 -7 -4 -15 -4 -8 0 -15 4 -15 10 0 5 7 7 15 4 8 -4 15 -8 15
-10z m606 -4 c0 -21 -6 -23 -46 -10 -24 7 -24 7 10 18 19 5 35 11 35 11 1 1 1
-8 1 -19z m225 3 c11 -13 11 -15 1 -9 -8 5 -21 1 -32 -9 -13 -11 -20 -13 -25
-5 -4 7 2 14 14 17 12 3 21 9 21 14 0 13 6 11 21 -8z m639 -53 c-6 -11 -15
-20 -20 -20 -13 0 -13 27 0 35 5 3 6 13 3 23 -6 16 -6 16 11 0 13 -14 15 -22
6 -38z m-154 2 c-8 -7 -46 19 -41 28 3 5 14 2 25 -7 11 -9 18 -19 16 -21z
m611 -8 c-8 -8 -38 27 -31 38 3 5 13 0 21 -12 8 -12 13 -23 10 -26z m-2437 26
c8 -5 11 -12 8 -15 -4 -4 -17 0 -30 9 -24 17 -5 23 22 6z m70 -6 c0 -2 -7 -4
-15 -4 -8 0 -15 4 -15 10 0 5 7 7 15 4 8 -4 15 -8 15 -10z m1282 -8 c-5 -6
-12 -18 -15 -26 -3 -8 -4 -1 -4 16 1 21 6 30 15 27 8 -3 9 -10 4 -17z m566 6
c2 -8 -2 -10 -14 -5 -12 4 -15 3 -10 -5 4 -7 2 -12 -4 -12 -18 0 -51 20 -46
28 8 13 69 7 74 -6z m-1578 -20 c0 -15 -2 -15 -10 -2 -13 20 -13 33 0 25 6 -3
10 -14 10 -23z m400 24 c0 -3 -4 -8 -10 -11 -5 -3 -10 -1 -10 4 0 6 5 11 10
11 6 0 10 -2 10 -4z m-100 -20 c0 -11 -19 -15 -25 -6 -3 5 1 10 9 10 9 0 16
-2 16 -4z m50 -32 c0 -2 -9 0 -20 6 -11 6 -20 13 -20 16 0 2 9 0 20 -6 11 -6
20 -13 20 -16z m1723 19 c-7 -2 -19 -2 -25 0 -7 3 -2 5 12 5 14 0 19 -2 13 -5z
m2536 -35 c-7 -13 -14 -27 -15 -33 0 -5 -2 -17 -3 -25 -1 -13 -3 -13 -11 1 -6
11 -3 29 12 59 12 24 24 38 26 32 2 -6 -2 -21 -9 -34z m-4076 17 c-3 -9 -8
-14 -10 -11 -3 3 -2 9 2 15 9 16 15 13 8 -4z m-733 -5 c8 -5 11 -10 5 -10 -5
0 -17 5 -25 10 -8 5 -10 10 -5 10 6 0 17 -5 25 -10z m970 0 c0 -5 -4 -10 -10
-10 -5 0 -10 5 -10 10 0 6 5 10 10 10 6 0 10 -4 10 -10z m-193 -6 c-3 -3 -12
-4 -19 -1 -8 3 -5 6 6 6 11 1 17 -2 13 -5z m307 -9 c11 -8 15 -15 10 -15 -6 0
-19 7 -30 15 -10 8 -14 14 -9 14 6 0 19 -6 29 -14z m-1574 -11 c0 -8 -4 -12
-10 -9 -5 3 -10 10 -10 16 0 5 5 9 10 9 6 0 10 -7 10 -16z m514 5 c26 1 28 0
15 -16 -7 -10 -14 -19 -15 -21 -3 -5 -45 20 -64 37 -13 13 -12 14 10 7 14 -4
38 -7 54 -7z m-61 -29 c9 0 19 -4 22 -10 7 -11 -25 -13 -40 -2 -5 4 -17 16
-25 27 -14 19 -14 20 6 3 11 -10 28 -18 37 -18z m731 -9 c-2 -3 -12 3 -22 13
-16 17 -16 18 5 5 12 -7 20 -15 17 -18z m-596 -10 c12 -11 22 -25 22 -32 0 -8
-6 -7 -18 4 -23 21 -32 21 -32 3 0 -7 -9 -16 -20 -19 -25 -6 -26 1 -2 19 10 8
12 13 5 14 -7 0 -13 7 -13 15 0 21 30 18 58 -4z m1782 9 c0 -5 -2 -10 -4 -10
-3 0 -8 5 -11 10 -3 6 -1 10 4 10 6 0 11 -4 11 -10z m1850 -5 c0 -3 -6 -14
-12 -26 -11 -18 -10 -23 15 -45 15 -13 41 -24 56 -24 34 0 40 -6 34 -30 -6
-24 -55 -44 -87 -36 -25 6 -86 80 -86 104 0 18 46 62 66 62 7 0 14 -2 14 -5z
m-3210 -15 c0 -5 -2 -10 -4 -10 -3 0 -8 5 -11 10 -3 6 -1 10 4 10 6 0 11 -4
11 -10z m226 -12 l19 -21 -27 18 c-29 18 -34 25 -20 25 5 0 17 -10 28 -22z
m882 -4 c19 -8 32 -20 32 -30 0 -16 -1 -16 -15 2 -12 15 -16 16 -23 6 -8 -11
-10 -11 -15 2 -4 9 -13 16 -20 16 -8 0 -21 7 -28 16 -12 15 -11 16 11 9 14 -4
40 -13 58 -21z m3112 0 c0 -8 -4 -14 -10 -14 -5 0 -10 9 -10 21 0 11 5 17 10
14 6 -3 10 -13 10 -21z m-4745 6 c3 -6 -1 -7 -9 -4 -18 7 -21 14 -7 14 6 0 13
-4 16 -10z m170 0 c8 -13 -5 -13 -25 0 -13 8 -13 10 2 10 9 0 20 -4 23 -10z
m4506 -20 c5 0 9 -10 9 -23 0 -31 5 -35 36 -29 18 3 23 9 19 22 -3 11 1 20 10
24 8 3 15 13 15 21 0 9 5 13 10 10 17 -10 11 -61 -8 -78 -10 -10 -22 -14 -25
-11 -4 4 -9 -1 -13 -10 -4 -9 -19 -23 -35 -32 -26 -13 -34 -13 -72 0 -52 18
-105 44 -112 56 -8 14 16 23 28 11 7 -7 15 -7 25 2 12 9 16 9 19 0 7 -21 60
13 68 44 6 21 9 23 12 11 3 -10 9 -18 14 -18z m-5749 8 c-8 -8 -17 -8 -34 0
-22 10 -21 11 12 11 26 1 31 -2 22 -11z m2952 -3 c11 -8 17 -17 14 -21 -4 -3
-16 4 -27 15 -24 24 -15 28 13 6z m2749 -4 c3 -15 0 -17 -16 -13 -13 3 -18 1
-13 -6 5 -8 2 -10 -8 -6 -20 8 -21 24 -1 24 8 0 15 5 15 10 0 18 17 11 23 -9z
m-4388 -5 c19 -8 35 -17 35 -20 0 -3 -16 2 -35 10 -20 8 -41 12 -47 8 -7 -4
-8 -3 -4 4 9 15 10 15 51 -2z m1545 -3 c14 -9 44 -34 68 -55 23 -21 55 -41 71
-44 32 -7 91 -56 91 -76 0 -8 -3 -9 -8 -3 -21 30 -94 72 -77 45 13 -21 -18 -9
-48 20 -18 16 -38 30 -44 30 -7 0 -13 5 -13 10 0 6 -11 10 -24 10 -14 0 -28 5
-31 10 -3 6 -16 10 -28 11 -20 1 -20 2 3 9 21 6 22 8 8 14 -9 4 -19 14 -22 22
-7 20 24 18 54 -3z m-292 -2 c7 -4 14 -15 16 -24 1 -9 13 -28 26 -42 13 -14
20 -25 16 -25 -14 0 -66 61 -66 77 0 9 -6 13 -15 10 -8 -4 -17 -2 -20 3 -8 12
25 13 43 1z m100 -14 c2 -9 -1 -17 -7 -17 -6 0 -11 8 -12 18 0 14 -2 14 -9 -3
-5 -11 -9 -14 -9 -7 -1 6 -4 11 -8 11 -25 -4 -34 4 -13 11 35 12 54 7 58 -13z
m-965 -4 c-7 -2 -19 -2 -25 0 -7 3 -2 5 12 5 14 0 19 -2 13 -5z m-453 -19 c0
-2 -7 -4 -15 -4 -8 0 -15 4 -15 10 0 5 7 7 15 4 8 -4 15 -8 15 -10z m95 -13
c-6 -5 -25 10 -25 20 0 5 6 4 14 -3 8 -7 12 -15 11 -17z m1141 8 c19 -22 19
-22 -3 -10 -13 6 -23 16 -23 21 0 15 5 12 26 -11z m-1191 -9 c3 -6 -1 -7 -9
-4 -18 7 -21 14 -7 14 6 0 13 -4 16 -10z m4115 -5 c0 -8 -4 -15 -10 -15 -5 0
-7 7 -4 15 4 8 8 15 10 15 2 0 4 -7 4 -15z m-4050 -35 c12 -16 28 -30 36 -30
8 0 14 -4 14 -10 0 -18 -16 -10 -58 30 -22 22 -35 40 -27 40 7 0 23 -13 35
-30z m1666 15 c16 -12 16 -14 3 -15 -9 0 -22 7 -29 15 -16 19 0 19 26 0z
m-266 -55 c16 -18 31 -38 32 -44 0 -6 2 -18 2 -26 1 -8 9 -14 18 -14 9 1 21
-8 27 -20 7 -11 27 -31 46 -43 38 -25 78 -93 69 -116 -6 -17 -44 -30 -44 -16
0 5 6 9 14 9 20 0 15 20 -17 62 -35 46 -55 53 -80 31 -11 -10 -17 -12 -13 -6
14 25 -5 80 -32 93 -16 7 -22 15 -14 17 17 6 15 23 -5 45 -19 21 -35 24 -27 4
3 -8 1 -17 -5 -21 -6 -3 -11 1 -11 9 0 9 -7 16 -15 16 -8 0 -15 5 -15 12 0 6
-7 20 -16 29 -16 17 -15 18 20 16 26 -3 44 -12 66 -37z m-1315 -50 c-3 -5 -14
-10 -23 -9 -14 0 -13 2 3 9 27 11 27 11 20 0z m1412 -12 c-3 -8 -6 -5 -6 6 -1
11 2 17 5 13 3 -3 4 -12 1 -19z m43 -8 c0 -5 -2 -10 -4 -10 -3 0 -8 5 -11 10
-3 6 -1 10 4 10 6 0 11 -4 11 -10z m66 -27 c-8 -9 -37 18 -30 28 3 5 12 2 21
-6 8 -9 13 -19 9 -22z m-1452 -13 c-12 -12 -16 -12 -31 5 -13 14 -14 16 -2 7
19 -14 30 -6 21 16 -5 14 -4 15 10 2 14 -13 15 -17 2 -30z m1156 10 c0 -5 -7
-7 -15 -4 -8 4 -15 8 -15 10 0 2 7 4 15 4 8 0 15 -4 15 -10z m90 -55 c0 -8 -4
-15 -10 -15 -5 0 -10 7 -10 15 0 8 5 15 10 15 6 0 10 -7 10 -15z m-70 -4 c0
-18 -18 -21 -30 -6 -10 13 -9 15 9 15 11 0 21 -4 21 -9z m120 -1 c0 -5 -4 -10
-10 -10 -5 0 -10 5 -10 10 0 6 5 10 10 10 6 0 10 -4 10 -10z m200 -31 c0 -6
-4 -7 -10 -4 -5 3 -10 11 -10 16 0 6 5 7 10 4 6 -3 10 -11 10 -16z m150 0 c0
-6 -4 -7 -10 -4 -5 3 -10 11 -10 16 0 6 5 7 10 4 6 -3 10 -11 10 -16z m-269
-36 c5 -14 7 -28 4 -31 -3 -3 -5 -1 -5 5 0 6 -14 9 -32 7 -22 -3 -28 -1 -19 5
7 5 10 14 7 20 -10 16 0 13 18 -5 15 -14 16 -14 16 1 0 9 -9 19 -20 22 -11 3
-20 9 -20 15 0 18 41 -14 51 -39z m379 17 c8 -9 30 -23 48 -31 32 -14 47 -47
16 -35 -9 3 -22 6 -30 6 -8 0 -14 5 -14 11 0 5 5 7 10 4 6 -3 10 -4 10 -2 0 3
-20 17 -44 31 -25 15 -47 30 -50 35 -10 15 38 -1 54 -19z m-620 -40 c0 -5 -7
-7 -15 -4 -8 4 -15 8 -15 10 0 2 7 4 15 4 8 0 15 -4 15 -10z m-1010 -20 c8 -5
11 -10 5 -10 -5 0 -17 5 -25 10 -8 5 -10 10 -5 10 6 0 17 -5 25 -10z m1060 -5
c10 -12 10 -15 -3 -15 -8 0 -17 7 -21 15 -3 8 -2 15 3 15 5 0 14 -7 21 -15z
m-186 -11 c3 -8 2 -12 -4 -9 -6 3 -10 10 -10 16 0 14 7 11 14 -7z m-890 -24
c9 -17 27 -40 39 -51 l22 -21 -28 13 c-23 11 -32 10 -50 0 -18 -12 -22 -11
-34 5 -12 17 -11 20 12 27 31 11 32 30 3 45 -22 10 -22 11 -3 11 13 1 28 -11
39 -29z m1246 0 c8 -5 11 -10 5 -10 -5 0 -17 5 -25 10 -8 5 -10 10 -5 10 6 0
17 -5 25 -10z m-3044 -27 c-10 -10 -19 5 -10 18 6 11 8 11 12 0 2 -7 1 -15 -2
-18z m3117 2 c-7 -21 -12 -19 -10 4 0 11 5 18 9 15 4 -3 5 -11 1 -19z m-796 9
c-3 -3 -12 -4 -19 -1 -8 3 -5 6 6 6 11 1 17 -2 13 -5z m-2259 -39 c6 -26 -16
-43 -23 -19 -4 10 -11 27 -16 36 -7 15 -5 16 14 9 12 -5 24 -16 25 -26z m2732
25 c0 -5 -2 -10 -4 -10 -3 0 -8 5 -11 10 -3 6 -1 10 4 10 6 0 11 -4 11 -10z
m665 0 c3 -5 2 -10 -4 -10 -5 0 -13 5 -16 10 -3 6 -2 10 4 10 5 0 13 -4 16
-10z m-1975 -9 c0 -6 -4 -13 -10 -16 -5 -3 -10 1 -10 9 0 9 5 16 10 16 6 0 10
-4 10 -9z m1495 -1 c3 -6 -1 -7 -9 -4 -18 7 -21 14 -7 14 6 0 13 -4 16 -10z
m43 -18 c6 -18 -15 -14 -22 4 -4 10 -1 14 6 12 6 -2 14 -10 16 -16z m-892 -5
c4 -4 3 -8 -2 -8 -62 -8 -64 -8 -52 5 12 13 43 15 54 3z m449 3 c3 -5 2 -10
-4 -10 -5 0 -13 5 -16 10 -3 6 -2 10 4 10 5 0 13 -4 16 -10z m-2547 -32 c13
-13 16 -38 5 -38 -17 1 -45 29 -38 39 8 14 18 14 33 -1z m1888 -16 c-4 -3 -14
2 -24 12 -16 18 -16 18 6 6 13 -6 21 -14 18 -18z m1194 8 c13 -9 13 -10 0 -9
-8 0 -24 4 -35 9 l-20 9 20 0 c11 0 27 -4 35 -9z m-2590 -45 c0 -8 -4 -15 -10
-15 -5 0 -10 7 -10 15 0 8 5 15 10 15 6 0 10 -7 10 -15z m1205 -15 c3 -5 1
-10 -4 -10 -6 0 -11 5 -11 10 0 6 2 10 4 10 3 0 8 -4 11 -10z m1460 0 c3 -6
-1 -7 -9 -4 -18 7 -21 14 -7 14 6 0 13 -4 16 -10z m-1315 -60 c32 -28 30 -28
-20 6 -68 46 -84 61 -45 41 17 -9 46 -30 65 -47z m-1410 18 c0 -11 -5 -10 -34
3 -14 7 -23 15 -21 20 6 8 55 -12 55 -23z m615 21 c4 -5 19 -9 33 -8 50 4 64
0 58 -16 -3 -9 3 -19 15 -26 33 -17 15 -21 -22 -5 -19 8 -45 17 -59 20 -24 5
-60 46 -41 46 6 0 13 -5 16 -11z m705 -32 c14 -17 18 -27 10 -23 -25 15 -50
39 -50 48 0 16 15 7 40 -25z m1285 -15 c-3 -3 -11 0 -18 7 -9 10 -8 11 6 5 10
-3 15 -9 12 -12z m-660 -2 c3 -5 2 -10 -4 -10 -5 0 -13 5 -16 10 -3 6 -2 10 4
10 5 0 13 -4 16 -10z m-531 -48 c16 -12 24 -22 18 -22 -7 0 -26 14 -44 31 -34
32 -25 29 26 -9z m1226 34 c0 -11 -19 -15 -25 -6 -3 5 1 10 9 10 9 0 16 -2 16
-4z m-1060 -17 c0 -14 -30 -38 -47 -39 -20 0 -15 38 5 43 31 8 42 7 42 -4z
m394 -4 c3 -8 0 -15 -7 -15 -8 0 -6 -4 3 -10 18 -12 2 -12 -25 0 -11 5 -15 9
-8 9 7 1 10 8 7 16 -4 9 0 15 9 15 8 0 17 -7 21 -15z m890 0 c11 -8 15 -15 10
-15 -6 0 -19 7 -30 15 -10 8 -14 14 -9 14 6 0 19 -6 29 -14z m47 -2 c13 -16
12 -17 -3 -4 -17 13 -22 21 -14 21 2 0 10 -8 17 -17z m-215 -9 c18 -14 18 -14
-6 -3 -31 14 -36 19 -24 19 6 0 19 -7 30 -16z m-446 -5 c0 -5 -4 -7 -10 -4
-18 11 -11 -17 8 -31 9 -7 12 -14 5 -14 -13 0 -43 27 -43 40 0 8 16 17 33 19
4 1 7 -4 7 -10z"/>
<path d="M2915 3050 c3 -5 8 -10 11 -10 2 0 4 5 4 10 0 6 -5 10 -11 10 -5 0
-7 -4 -4 -10z"/>
<path d="M4065 2550 c-4 -6 1 -12 9 -15 9 -3 23 -7 31 -10 25 -7 17 11 -10 23
-15 7 -26 8 -30 2z"/>
<path d="M4020 2535 c-7 -8 -16 -13 -20 -10 -11 7 -22 -12 -26 -42 -2 -17 3
-23 19 -23 11 0 18 -3 14 -6 -3 -3 -2 -17 4 -30 7 -19 5 -26 -6 -30 -8 -4 -15
-10 -15 -16 0 -5 4 -7 9 -3 5 3 13 0 16 -5 5 -8 13 -6 25 5 18 16 18 16 13 -4
-3 -12 -1 -21 6 -21 6 0 11 5 11 10 0 6 7 10 15 10 17 0 20 16 4 26 -7 4 -2
11 13 18 19 10 26 9 41 -9 17 -20 17 -20 11 8 -4 17 -2 27 5 27 19 0 12 22 -9
27 -10 3 -26 16 -35 29 -9 13 -21 21 -29 18 -9 -3 -20 3 -28 15 -15 25 -21 26
-38 6z m45 -75 c3 -5 2 -10 -4 -10 -5 0 -13 5 -16 10 -3 6 -2 10 4 10 5 0 13
-4 16 -10z"/>
<path d="M3910 2505 c0 -9 9 -15 25 -15 16 0 25 6 25 15 0 9 -9 15 -25 15 -16
0 -25 -6 -25 -15z"/>
<path d="M4192 2508 c5 -15 28 -18 29 -3 0 6 -7 12 -17 13 -10 3 -15 -1 -12
-10z"/>
<path d="M4265 2490 c3 -5 11 -10 16 -10 6 0 7 5 4 10 -3 6 -11 10 -16 10 -6
0 -7 -4 -4 -10z"/>
<path d="M4320 2480 c0 -5 5 -10 11 -10 5 0 7 5 4 10 -3 6 -8 10 -11 10 -2 0
-4 -4 -4 -10z"/>
<path d="M3916 2462 c-11 -10 -6 -21 16 -42 33 -31 49 -27 35 9 -10 28 -39 46
-51 33z"/>
<path d="M4361 2424 c0 -11 3 -14 6 -6 3 7 2 16 -1 19 -3 4 -6 -2 -5 -13z"/>
<path d="M3905 2380 c-4 -6 -1 -17 5 -25 7 -8 9 -24 5 -36 -5 -15 -4 -19 4
-14 7 4 23 0 36 -9 20 -13 25 -13 35 -1 13 16 4 39 -11 29 -12 -7 -49 24 -49
42 0 17 -17 27 -25 14z"/>
<path d="M3950 2382 c0 -5 7 -13 16 -16 10 -4 14 -1 12 6 -5 15 -28 23 -28 10z"/>
<path d="M4110 2320 c0 -5 5 -10 10 -10 6 0 10 5 10 10 0 6 -4 10 -10 10 -5 0
-10 -4 -10 -10z"/>
<path d="M4070 2310 c0 -5 5 -10 10 -10 6 0 10 5 10 10 0 6 -4 10 -10 10 -5 0
-10 -4 -10 -10z"/>
<path d="M3930 2242 c0 -5 7 -16 16 -23 14 -12 16 -11 13 5 -4 20 -29 35 -29
18z"/>
<path d="M4342 2205 c0 -16 2 -22 5 -12 2 9 2 23 0 30 -3 6 -5 -1 -5 -18z"/>
<path d="M4360 2199 c0 -5 5 -7 10 -4 6 3 10 8 10 11 0 2 -4 4 -10 4 -5 0 -10
-5 -10 -11z"/>
<path d="M3365 2630 c-3 -5 -1 -10 4 -10 6 0 11 5 11 10 0 6 -2 10 -4 10 -3 0
-8 -4 -11 -10z"/>
<path d="M6101 2354 c0 -11 3 -14 6 -6 3 7 2 16 -1 19 -3 4 -6 -2 -5 -13z"/>
<path d="M6060 2335 c0 -8 2 -15 4 -15 2 0 6 7 10 15 3 8 1 15 -4 15 -6 0 -10
-7 -10 -15z"/>
<path d="M4930 2258 c0 -13 -4 -17 -12 -12 -9 5 -8 2 1 -9 13 -16 14 -16 27 0
18 24 17 40 -1 40 -8 0 -15 -9 -15 -19z"/>
<path d="M4843 2233 c-18 -7 -16 -48 2 -63 12 -10 15 -10 15 4 0 9 -4 16 -10
16 -5 0 -10 4 -10 10 0 6 9 6 25 0 29 -11 33 1 9 24 -8 9 -16 16 -17 15 -1 0
-8 -3 -14 -6z"/>
<path d="M6020 1836 c0 -9 5 -16 10 -16 6 0 10 4 10 9 0 6 -4 13 -10 16 -5 3
-10 -1 -10 -9z"/>
<path d="M5990 1820 c0 -5 5 -10 11 -10 5 0 7 5 4 10 -3 6 -8 10 -11 10 -2 0
-4 -4 -4 -10z"/>
<path d="M6110 1750 c0 -5 5 -10 11 -10 5 0 7 5 4 10 -3 6 -8 10 -11 10 -2 0
-4 -4 -4 -10z"/>
<path d="M6158 1602 c18 -6 4 -22 -20 -22 -16 0 -18 -3 -9 -14 9 -11 17 -11
36 -2 14 6 25 16 25 23 0 6 6 13 13 16 6 2 -4 4 -23 4 -19 0 -29 -2 -22 -5z"/>
<path d="M4838 1582 c-9 -2 -19 -10 -22 -18 -4 -11 0 -13 22 -7 24 5 25 4 14
-9 -10 -13 -10 -19 3 -31 8 -9 15 -18 15 -22 0 -3 9 -16 20 -27 16 -17 23 -19
32 -10 10 10 10 15 -1 21 -7 5 -11 14 -7 19 4 6 0 26 -8 45 -14 34 -35 46 -68
39z"/>
<path d="M6180 1552 c0 -10 22 -32 32 -32 5 0 3 9 -4 20 -13 20 -28 27 -28 12z"/>
<path d="M3180 1185 c0 -9 6 -12 15 -9 8 4 15 7 15 9 0 2 -7 5 -15 9 -9 3 -15
0 -15 -9z"/>
<path d="M1621 1334 c0 -11 3 -14 6 -6 3 7 2 16 -1 19 -3 4 -6 -2 -5 -13z"/>
<path d="M2890 980 c-13 -8 -13 -10 2 -10 9 0 20 5 23 10 8 13 -5 13 -25 0z"/>
<path d="M5985 740 c-3 -5 -1 -18 5 -27 10 -16 11 -16 6 -1 -3 9 0 18 7 21 8
2 8 5 0 10 -7 4 -14 3 -18 -3z"/>
<path d="M5038 3593 c7 -3 16 -2 19 1 4 3 -2 6 -13 5 -11 0 -14 -3 -6 -6z"/>
<path d="M2670 2084 c0 -2 9 -8 20 -14 11 -6 20 -7 20 -2 0 6 -9 12 -20 15
-11 3 -20 3 -20 1z"/>
<path d="M2832 2049 c2 -7 10 -15 17 -17 8 -3 12 1 9 9 -2 7 -10 15 -17 17 -8
3 -12 -1 -9 -9z"/>
<path d="M615 1791 c-3 -6 9 -18 29 -28 19 -9 33 -19 31 -23 -8 -13 34 -43 50
-36 11 4 15 1 13 -11 -4 -23 57 -48 74 -30 6 8 22 11 35 9 29 -6 31 18 3 43
-11 10 -20 24 -20 32 0 14 -12 17 -23 6 -4 -3 1 -12 11 -19 15 -11 12 -13 -23
-11 -37 2 -69 23 -59 39 3 4 -8 10 -23 13 -54 12 -58 13 -74 20 -10 3 -20 2
-24 -4z m195 -101 c0 -5 -5 -10 -11 -10 -5 0 -7 5 -4 10 3 6 8 10 11 10 2 0 4
-4 4 -10z"/>
<path d="M2520 1790 c0 -5 5 -10 11 -10 5 0 7 5 4 10 -3 6 -8 10 -11 10 -2 0
-4 -4 -4 -10z"/>
<path d="M2436 1774 c-4 -9 -4 -19 -1 -22 2 -3 7 3 11 12 4 9 4 19 1 22 -2 3
-7 -3 -11 -12z"/>
<path d="M570 1746 c0 -21 21 -31 31 -15 5 8 3 17 -4 21 -18 12 -27 10 -27 -6z"/>
<path d="M890 1746 c0 -18 6 -19 35 -6 11 5 15 9 8 9 -6 1 -18 4 -27 7 -11 4
-16 1 -16 -10z"/>
<path d="M630 1720 c-12 -7 -12 -12 -2 -22 14 -14 35 1 24 19 -5 8 -13 9 -22
3z"/>
<path d="M993 1723 c-7 -2 -13 -11 -13 -19 0 -16 -12 -18 -26 -4 -16 16 -43 1
-41 -21 1 -22 30 -52 53 -55 8 -1 20 10 27 24 6 15 19 39 30 55 18 26 18 27 0
26 -10 0 -24 -3 -30 -6z"/>
<path d="M2390 1680 c0 -5 5 -10 10 -10 6 0 10 5 10 10 0 6 -4 10 -10 10 -5 0
-10 -4 -10 -10z"/>
<path d="M2790 1661 c0 -10 29 -36 34 -30 1 2 -6 12 -16 22 -10 9 -18 13 -18
8z"/>
<path d="M874 1646 c-8 -9 -7 -15 3 -24 10 -10 13 -10 13 2 0 8 5 16 12 18 8
3 7 6 -3 10 -8 3 -19 0 -25 -6z"/>
<path d="M740 1635 c6 -8 9 -19 6 -24 -4 -6 8 -8 31 -4 46 7 52 11 27 18 -10
4 -27 11 -36 16 -28 14 -43 12 -28 -6z"/>
<path d="M791 1584 c0 -11 3 -14 6 -6 3 7 2 16 -1 19 -3 4 -6 -2 -5 -13z"/>
<path d="M1400 1596 c0 -2 7 -6 15 -10 8 -3 15 -1 15 4 0 6 -7 10 -15 10 -8 0
-15 -2 -15 -4z"/>
<path d="M820 1577 c0 -8 7 -17 15 -21 8 -3 15 -2 15 3 0 5 -7 14 -15 21 -12
10 -15 10 -15 -3z"/>
<path d="M2700 1570 c0 -5 7 -10 16 -10 8 0 12 5 9 10 -3 6 -10 10 -16 10 -5
0 -9 -4 -9 -10z"/>
<path d="M2853 1555 c11 -23 27 -34 27 -17 -1 9 -26 42 -33 42 -3 0 0 -11 6
-25z"/>
<path d="M745 1540 c-6 -10 -2 -12 46 -15 14 -1 31 -5 38 -9 16 -10 14 0 -5
19 -13 13 -19 13 -32 3 -12 -10 -16 -10 -19 0 -6 15 -19 16 -28 2z"/>
<path d="M1300 1522 c0 -12 19 -26 26 -19 2 2 -2 10 -11 17 -9 8 -15 8 -15 2z"/>
<path d="M345 1510 c4 -6 11 -8 16 -5 14 9 11 15 -7 15 -8 0 -12 -5 -9 -10z"/>
<path d="M1280 1460 c0 -5 12 -10 28 -10 21 0 24 2 12 10 -20 13 -40 13 -40 0z"/>
<path d="M1423 1355 c11 -23 36 -33 50 -19 7 7 -36 44 -51 44 -6 0 -6 -9 1
-25z"/>
<path d="M1450 1309 c0 -5 5 -7 10 -4 6 3 10 8 10 11 0 2 -4 4 -10 4 -5 0 -10
-5 -10 -11z"/>
<path d="M96 1179 c5 -8 1 -11 -13 -7 -11 3 -28 -1 -38 -8 -17 -13 -15 -14 21
-14 52 0 70 12 43 29 -16 9 -19 9 -13 0z"/>
<path d="M1648 1173 c7 -3 16 -2 19 1 4 3 -2 6 -13 5 -11 0 -14 -3 -6 -6z"/>
<path d="M438 1163 c7 -3 16 -2 19 1 4 3 -2 6 -13 5 -11 0 -14 -3 -6 -6z"/>
<path d="M1075 1021 c-3 -6 4 -15 15 -21 23 -12 26 -5 6 16 -9 8 -17 10 -21 5z"/>
<path d="M1225 1010 c27 -12 43 -12 25 0 -8 5 -22 9 -30 9 -10 0 -8 -3 5 -9z"/>
<path d="M3320 916 c0 -9 5 -16 10 -16 6 0 10 4 10 9 0 6 -4 13 -10 16 -5 3
-10 -1 -10 -9z"/>
<path d="M1090 915 c1 -5 14 -26 31 -45 20 -22 28 -28 24 -15 -5 17 -3 17 22
-5 15 -14 34 -31 40 -39 7 -8 16 -11 20 -7 4 4 -15 27 -42 51 -28 24 -52 39
-54 33 -2 -6 -12 0 -22 13 -10 13 -19 20 -19 14z"/>
<path d="M1006 881 c3 -16 0 -32 -6 -36 -13 -8 -4 -25 13 -25 7 1 23 10 36 20
l24 20 -27 25 c-35 33 -45 32 -40 -4z"/>
<path d="M1130 810 c0 -4 11 -11 25 -14 13 -3 36 -17 51 -31 15 -14 32 -25 38
-25 6 0 4 6 -5 13 -8 7 -23 24 -32 38 -12 18 -27 26 -47 27 -17 0 -30 -3 -30
-8z"/>
<path d="M50 740 c0 -5 5 -10 11 -10 5 0 7 5 4 10 -3 6 -8 10 -11 10 -2 0 -4
-4 -4 -10z"/>
<path d="M3330 741 c0 -10 19 -25 25 -20 1 2 -3 10 -11 17 -8 7 -14 8 -14 3z"/>
<path d="M1260 729 c0 -5 9 -9 20 -9 11 0 20 2 20 4 0 2 -9 6 -20 9 -11 3 -20
1 -20 -4z"/>
<path d="M3380 706 c0 -2 7 -7 16 -10 8 -3 12 -2 9 4 -6 10 -25 14 -25 6z"/>
<path d="M36 691 c-4 -5 -2 -12 3 -15 5 -4 12 -2 15 3 4 5 2 12 -3 15 -5 4
-12 2 -15 -3z"/>
<path d="M91 676 c-10 -12 -8 -13 8 -9 12 3 18 9 15 14 -7 12 -10 11 -23 -5z"/>
<path d="M1497 669 c7 -7 15 -10 18 -7 3 3 -2 9 -12 12 -14 6 -15 5 -6 -5z"/>
<path d="M150 651 c0 -5 5 -13 10 -16 6 -3 10 -2 10 4 0 5 -4 13 -10 16 -5 3
-10 2 -10 -4z"/>
<path d="M1565 610 c3 -5 11 -10 16 -10 6 0 7 5 4 10 -3 6 -11 10 -16 10 -6 0
-7 -4 -4 -10z"/>
<path d="M1515 600 c-3 -5 3 -10 15 -10 12 0 18 5 15 10 -3 6 -10 10 -15 10
-5 0 -12 -4 -15 -10z"/>
<path d="M1428 571 c17 -15 31 -19 53 -14 20 4 35 0 48 -11 11 -10 22 -13 25
-8 7 12 -47 35 -88 36 -17 1 -38 5 -46 10 -8 4 -5 -2 8 -13z"/>
<path d="M1571 463 c-12 -13 -11 -14 8 -8 13 4 28 2 36 -5 8 -7 22 -10 30 -6
8 3 15 1 15 -3 0 -5 8 -12 17 -16 11 -4 7 5 -11 24 -33 34 -72 40 -95 14z"/>
<path d="M3670 445 c7 -9 15 -13 17 -11 7 7 -7 26 -19 26 -6 0 -6 -6 2 -15z"/>
<path d="M125 439 c-11 -17 1 -21 37 -14 29 7 30 9 13 16 -29 11 -43 11 -50
-2z"/>
<path d="M1526 435 c4 -8 10 -12 15 -9 14 8 10 24 -6 24 -9 0 -12 -6 -9 -15z"/>
<path d="M3370 430 c0 -5 5 -10 10 -10 6 0 10 5 10 10 0 6 -4 10 -10 10 -5 0
-10 -4 -10 -10z"/>
<path d="M3737 394 c57 -54 84 -63 33 -10 -25 25 -51 46 -58 46 -7 0 4 -16 25
-36z"/>
<path d="M195 400 c3 -5 11 -10 16 -10 6 0 7 5 4 10 -3 6 -11 10 -16 10 -6 0
-7 -4 -4 -10z"/>
<path d="M3720 373 c0 -5 13 -17 28 -27 l27 -19 -24 26 c-26 28 -31 32 -31 20z"/>
<path d="M1707 363 c-14 -13 -6 -25 8 -13 12 10 15 10 15 -4 0 -9 5 -16 10
-16 16 0 11 27 -6 34 -19 7 -19 7 -27 -1z"/>
<path d="M3700 342 c0 -4 5 -13 12 -20 8 -8 8 -15 -2 -27 -8 -10 -9 -15 -1
-15 6 0 11 5 11 11 0 6 9 9 20 6 11 -3 20 0 20 6 1 7 10 1 20 -12 21 -25 27
-46 10 -36 -5 3 -10 2 -10 -4 0 -5 5 -13 10 -16 6 -4 8 -15 5 -25 -4 -13 0
-20 15 -25 15 -5 19 -12 15 -26 -4 -11 -1 -27 7 -36 11 -15 11 -16 -6 -10 -12
5 -23 3 -28 -5 -7 -10 -11 -9 -22 5 -12 16 -14 16 -20 1 -11 -28 -7 -46 9 -40
8 3 21 -4 30 -17 8 -12 15 -16 15 -9 0 19 18 14 25 -8 3 -11 13 -20 21 -20 8
0 14 -4 14 -10 0 -5 8 -10 18 -10 10 0 13 3 7 8 -15 10 -47 62 -39 62 9 0 54
-53 54 -62 0 -5 9 -8 20 -8 17 0 18 3 8 25 -6 13 -16 23 -21 22 -6 -1 -12 7
-14 18 -3 16 -2 17 6 5 7 -10 11 -11 11 -3 0 7 7 10 15 7 8 -4 15 -12 15 -20
0 -17 16 -19 25 -3 4 6 13 8 21 5 21 -8 29 16 10 30 -12 8 -16 19 -11 32 4 15
0 22 -14 27 -10 3 -22 12 -25 20 -3 8 -11 15 -17 15 -8 0 -6 -7 4 -18 20 -21
22 -42 6 -42 -18 0 -76 39 -83 55 -3 8 -11 15 -18 15 -7 0 -19 9 -26 20 -7 11
-10 20 -7 20 9 0 69 -44 81 -59 10 -12 13 -11 24 8 7 14 8 21 1 17 -13 -8 -51
15 -51 31 0 7 -6 10 -13 7 -8 -3 -24 10 -38 31 -13 20 -44 47 -68 60 -48 28
-51 29 -51 17z m230 -243 c0 -6 -4 -7 -10 -4 -5 3 -10 11 -10 16 0 6 5 7 10 4
6 -3 10 -11 10 -16z"/>
<path d="M1713 317 c5 -15 37 -22 37 -9 0 5 -9 12 -21 15 -13 3 -19 1 -16 -6z"/>
<path d="M3823 309 c-2 -23 3 -25 10 -4 4 8 3 16 -1 19 -4 3 -9 -4 -9 -15z"/>
<path d="M3490 297 c0 -20 28 -53 44 -51 33 5 35 23 3 28 -8 1 -22 8 -31 15
-9 7 -16 11 -16 8z"/>
<path d="M3472 270 c7 -11 17 -20 22 -20 5 0 1 9 -9 20 -10 11 -20 20 -22 20
-2 0 2 -9 9 -20z"/>
<path d="M3710 241 c0 -5 7 -11 14 -14 10 -4 13 -1 9 9 -6 15 -23 19 -23 5z"/>
<path d="M778 213 c7 -3 16 -2 19 1 4 3 -2 6 -13 5 -11 0 -14 -3 -6 -6z"/>
<path d="M3680 211 c0 -4 9 -16 20 -26 11 -10 20 -14 20 -9 0 5 -9 17 -20 27
-11 9 -20 13 -20 8z"/>
<path d="M3740 150 c0 -5 5 -10 10 -10 6 0 10 5 10 10 0 6 -4 10 -10 10 -5 0
-10 -4 -10 -10z"/>
<path d="M4015 100 c10 -11 25 -20 33 -20 9 0 6 7 -11 20 -14 11 -29 20 -33
20 -4 0 1 -9 11 -20z"/>
<path d="M1707 101 c-11 -4 -14 -10 -7 -21 5 -8 12 -11 16 -8 4 4 15 3 25 -3
24 -12 24 -4 1 19 -10 10 -26 16 -35 13z"/>
<path d="M1788 93 c7 -3 16 -2 19 1 4 3 -2 6 -13 5 -11 0 -14 -3 -6 -6z"/>
<path d="M1850 57 c0 -7 5 -18 12 -25 9 -9 8 -12 -4 -12 -9 0 -20 9 -23 20 -7
23 -40 27 -49 5 -3 -9 4 -21 20 -31 20 -14 30 -15 49 -6 15 7 25 8 25 2 0 -6
9 -10 21 -10 15 0 19 4 15 16 -3 9 -6 17 -6 20 0 2 -7 1 -16 -3 -10 -4 -17 1
-21 16 -6 23 -23 29 -23 8z"/>
<path d="M4074 43 c4 -9 1 -20 -6 -25 -9 -5 -4 -8 15 -8 15 0 27 5 27 10 0 6
-4 10 -10 10 -5 0 -10 7 -10 15 0 8 -5 15 -11 15 -6 0 -8 -7 -5 -17z"/>
</g>
</svg>
