<?xml version="1.0" standalone="no"?>
<!DOCTYPE svg PUBLIC "-//W3C//DTD SVG 20010904//EN"
 "http://www.w3.org/TR/2001/REC-SVG-20010904/DTD/svg10.dtd">
<svg version="1.0" xmlns="http://www.w3.org/2000/svg"
 width="564.000000pt" height="978.000000pt" viewBox="0 0 564.000000 978.000000"
 preserveAspectRatio="xMidYMid meet">

<g transform="translate(0.000000,978.000000) scale(0.100000,-0.100000)"
fill="#000000" stroke="none">
<path d="M2816 9049 c-84 -9 -162 -27 -197 -45 -15 -7 -29 -10 -33 -7 -3 4
-20 -6 -36 -22 -29 -27 -35 -29 -99 -27 -47 2 -73 -1 -82 -10 -8 -8 -35 -28
-60 -45 -104 -72 -162 -166 -172 -280 -1 -12 -5 -24 -9 -28 -12 -12 -21 43
-14 81 7 34 6 35 -21 32 -34 -4 -54 -48 -35 -78 14 -24 29 -22 -148 -21 -101
0 -129 -2 -110 -10 13 -5 39 -21 57 -35 30 -23 40 -25 115 -22 72 3 83 5 82
21 -2 24 4 22 37 -14 17 -18 39 -57 50 -88 11 -31 26 -70 32 -87 11 -30 12
-30 66 -26 89 7 127 32 162 105 16 34 29 68 29 74 0 7 14 20 31 28 19 10 29
22 25 31 -3 7 3 18 14 24 16 9 18 15 10 30 -6 11 -17 20 -25 20 -19 0 -28 17
-14 26 8 4 9 3 5 -4 -4 -7 -1 -12 8 -12 9 0 16 5 16 10 0 6 7 10 16 10 12 0
15 -7 12 -25 -3 -14 -2 -25 2 -25 9 0 40 -73 40 -94 0 -7 -23 -41 -50 -75 -28
-35 -59 -80 -70 -101 -11 -21 -28 -41 -37 -44 -69 -20 -204 -46 -213 -41 -5 3
-10 2 -10 -3 0 -5 11 -14 25 -20 14 -6 26 -17 26 -24 1 -7 2 -24 3 -38 0 -14
6 -24 13 -23 15 3 36 -34 28 -48 -4 -5 -2 -15 3 -22 5 -7 12 -28 15 -47 6 -39
77 -154 105 -169 33 -17 293 -103 298 -98 3 2 -21 14 -53 25 -32 11 -96 37
-143 56 -47 20 -87 35 -90 34 -10 -6 -109 202 -104 217 6 15 19 12 19 -3 0 -9
65 -102 71 -102 2 0 -6 19 -18 41 -33 60 -42 75 -57 92 -10 13 -8 18 18 31 53
28 65 22 144 -76 82 -103 97 -127 97 -157 0 -26 67 -93 166 -166 59 -44 101
-66 164 -86 47 -15 76 -28 65 -29 -19 -1 -18 -2 3 -10 30 -12 28 -19 -4 -17
-15 1 -29 -4 -31 -10 -3 -7 0 -13 7 -13 6 0 8 5 4 12 -5 8 -2 9 10 5 10 -4 21
-7 24 -7 4 0 0 -4 -8 -10 -11 -7 -9 -11 13 -19 15 -6 27 -13 27 -17 0 -10 -88
4 -113 18 -12 7 -31 13 -42 13 -11 1 -29 7 -41 13 -41 22 -236 92 -244 87 -4
-3 -10 1 -13 9 -3 7 -14 16 -25 18 -17 5 -20 1 -18 -32 l1 -38 -117 59 c-133
68 -265 159 -344 236 -62 61 -114 146 -114 185 0 19 -9 33 -27 45 -16 10 -31
21 -34 26 -3 5 -9 -1 -12 -12 -6 -26 -23 -27 -37 -2 -15 29 -50 16 -50 -19 0
-24 5 -28 33 -33 17 -2 38 0 45 6 9 7 11 6 6 -6 -4 -12 -1 -14 15 -10 19 5 21
1 21 -40 0 -41 -4 -49 -35 -73 -19 -14 -35 -33 -35 -41 0 -12 -6 -13 -27 -8
-25 7 -48 7 -130 2 -11 -1 -19 -5 -16 -9 2 -5 -3 -8 -11 -8 -8 0 -18 5 -22 11
-3 6 -15 8 -26 6 -19 -5 -20 -2 -14 46 4 29 8 83 11 121 3 50 9 74 22 86 10 9
71 29 136 44 100 24 122 26 142 16 13 -7 33 -10 44 -7 16 4 22 0 26 -16 2 -12
6 -31 8 -42 3 -12 5 -7 6 13 1 20 6 32 15 32 8 0 16 13 18 29 3 22 0 31 -13
34 -15 4 -16 1 -8 -20 12 -33 11 -37 -6 -19 -16 16 -20 82 -6 104 6 10 10 8
14 -9 4 -13 2 -26 -4 -30 -7 -4 -5 -9 5 -12 13 -5 16 0 16 26 -1 28 -29 97
-30 72 0 -5 -7 1 -16 13 -10 14 -22 21 -31 18 -11 -4 -13 -2 -10 9 7 18 -4 16
-216 -33 -97 -22 -151 -39 -140 -43 10 -4 25 -3 34 2 24 12 209 57 264 64 39
4 30 0 -40 -19 -298 -83 -287 -79 -311 -127 -16 -31 -22 -61 -22 -109 0 -36
-3 -95 -7 -132 l-7 -67 36 -6 c20 -4 33 -11 31 -16 -3 -4 -12 -6 -20 -2 -9 3
-28 0 -44 -7 -26 -10 -29 -17 -35 -78 -9 -101 -8 -119 9 -119 8 0 15 5 15 11
0 6 9 17 19 23 17 11 20 9 26 -19 5 -23 9 -27 16 -17 7 11 9 10 9 -5 0 -16 -5
-18 -37 -12 -21 3 -47 6 -58 6 -18 0 -20 6 -17 59 l4 60 -79 -29 c-85 -30
-106 -28 -123 13 l-9 22 0 -22 c-1 -12 4 -25 9 -28 15 -9 12 -27 -2 -19 -10 6
-10 4 0 -7 14 -16 16 -53 2 -44 -5 3 -10 1 -10 -4 0 -6 5 -11 12 -11 6 0 8 -3
4 -7 -8 -8 -14 -10 -46 -12 -19 -1 -21 -7 -18 -73 l3 -73 32 -3 33 -3 2 -402
c1 -221 4 -343 5 -272 4 182 3 179 63 171 47 -6 50 -5 56 19 4 14 4 48 2 76
-3 27 -1 49 3 49 5 0 9 5 9 11 0 5 -4 7 -10 4 -5 -3 -7 0 -4 9 8 21 32 28 55
15 11 -5 29 -7 41 -3 19 6 18 8 -13 21 -48 20 -69 42 -69 72 0 42 26 69 85 87
30 10 61 27 69 38 20 32 28 98 28 239 0 70 3 125 6 123 4 -2 20 13 37 33 29
36 45 44 144 66 13 3 37 3 52 0 27 -6 29 -10 29 -59 0 -65 27 -96 81 -96 20 0
57 -11 84 -24 42 -22 51 -23 73 -12 l25 13 -25 17 c-34 22 -44 46 -17 39 13
-4 19 0 19 11 0 12 -10 16 -48 16 -54 0 -70 10 -99 60 -22 38 -19 64 12 90 15
12 19 10 42 -21 15 -19 56 -63 92 -97 36 -35 56 -58 44 -51 -12 7 -25 10 -29
6 -11 -11 -2 -16 36 -20 50 -6 70 -17 63 -33 -3 -9 2 -14 16 -14 12 0 35 -13
52 -29 l30 -29 -98 -31 c-54 -17 -107 -38 -117 -46 -25 -19 -9 -19 24 0 14 8
32 14 41 15 27 0 117 -87 124 -120 9 -40 18 -44 43 -17 18 20 19 24 6 41 -13
19 -14 18 -14 -10 -1 -28 -1 -28 -15 -10 -8 11 -15 28 -15 37 0 10 -6 19 -12
22 -7 2 -10 8 -5 12 4 5 14 0 21 -11 8 -10 18 -19 23 -19 4 -1 22 -8 38 -16
17 -9 40 -13 53 -10 23 6 23 7 5 22 -10 9 -53 36 -96 60 l-78 44 48 12 c53 14
53 14 136 -74 25 -27 48 -43 63 -43 13 0 24 4 24 9 0 5 9 7 21 4 31 -8 12 -19
-71 -38 -111 -25 -113 -26 -102 -37 6 -6 30 -3 68 7 146 41 138 41 177 9 30
-23 34 -31 24 -43 -9 -12 -9 -13 0 -7 8 4 31 -10 60 -37 27 -24 65 -54 86 -66
20 -13 34 -27 31 -33 -4 -6 -2 -8 4 -4 16 10 61 -14 55 -30 -10 -26 5 -14 27
21 12 19 29 35 37 35 11 0 8 -6 -8 -19 l-24 -19 22 -31 c22 -29 22 -61 0 -61
-6 0 -21 10 -34 22 -34 32 -28 6 10 -40 23 -30 39 -40 57 -39 16 1 25 -4 28
-15 3 -16 -8 -18 -135 -18 -77 0 -143 4 -148 9 -6 6 -17 4 -29 -5 -11 -8 -16
-14 -12 -14 5 0 2 -8 -5 -17 -13 -17 -13 -17 7 0 16 13 39 17 103 17 45 0 91
-5 102 -11 11 -5 91 -13 177 -16 151 -5 158 -5 176 16 l19 21 -66 0 c-65 0
-67 1 -67 25 0 16 4 23 13 19 9 -3 23 13 39 46 27 53 24 68 -4 23 -15 -25 -17
-26 -18 -7 0 11 4 24 9 30 5 5 11 25 13 44 3 31 0 35 -22 38 -20 2 -22 1 -10
-7 19 -13 -124 -14 -155 -1 -12 5 12 7 60 5 79 -4 79 -4 17 4 -67 9 -94 21
-46 21 16 0 49 6 74 14 50 15 45 18 -50 31 -25 3 -56 13 -70 20 l-25 15 30 -5
c156 -27 209 -30 263 -17 23 5 42 8 42 6 0 -1 -21 -17 -46 -35 -36 -24 -43
-34 -33 -41 11 -7 11 -11 1 -15 -6 -2 -9 -10 -6 -15 4 -7 2 -8 -4 -4 -8 5 -12
-1 -12 -14 0 -20 1 -21 24 -3 13 10 22 21 19 26 -2 4 6 7 19 8 13 0 17 3 11 6
-7 2 -13 9 -13 15 0 6 7 8 15 4 8 -3 15 0 15 6 0 21 11 0 16 -29 10 -69 11
-123 3 -123 -17 0 -9 -25 11 -38 22 -13 27 -52 8 -53 -7 0 -4 -4 7 -9 29 -13
41 -12 27 2 -13 13 -17 58 -4 58 22 -1 34 -20 30 -49 -4 -25 0 -35 15 -43 13
-7 17 -7 13 0 -4 6 -3 36 2 66 5 31 6 56 2 56 -4 0 -7 12 -7 28 0 62 -16 188
-26 200 -8 10 -7 16 1 21 9 5 7 12 -8 26 -25 23 -25 37 0 60 11 10 20 25 20
33 0 9 3 12 8 8 4 -4 7 -13 7 -19 0 -6 14 -12 31 -13 55 -2 66 -10 60 -45 -2
-17 -7 -34 -11 -37 -3 -4 -4 5 -1 20 3 18 -1 28 -11 32 -19 8 -35 -2 -27 -16
4 -7 2 -8 -4 -4 -6 4 -8 14 -5 23 6 15 5 16 -9 3 -14 -13 -12 -18 14 -51 21
-26 28 -43 23 -58 -5 -17 -3 -20 11 -14 14 5 15 3 5 -15 -9 -17 -8 -22 9 -27
20 -6 20 -7 -2 -25 -15 -13 -18 -19 -9 -20 11 0 9 -5 -5 -22 l-19 -22 27 17
c15 9 34 17 42 17 19 0 28 27 16 50 -5 10 -7 26 -4 34 3 9 2 16 -4 16 -6 0
-14 30 -18 67 -7 70 -51 170 -73 166 -6 -2 -8 4 -4 15 12 31 -23 -5 -37 -38
-7 -16 -16 -27 -21 -24 -5 3 -6 -1 -4 -8 8 -21 -34 -62 -49 -49 -7 6 -17 7
-22 3 -5 -4 -31 -5 -59 -2 l-50 5 40 8 c56 11 96 28 89 38 -3 5 1 9 8 9 9 0 9
3 -2 10 -13 8 -12 10 3 10 9 0 39 21 66 48 55 52 71 94 71 182 0 30 5 62 10
70 8 11 9 7 5 -15 -4 -24 -3 -26 4 -10 13 27 13 75 1 75 -5 0 -10 -6 -10 -12
0 -7 -6 -4 -12 6 -8 14 -7 46 2 122 17 134 9 270 -20 349 -13 33 -47 96 -76
141 -30 44 -54 84 -54 88 0 3 10 1 22 -5 13 -7 39 -14 58 -16 41 -4 98 -62
125 -127 10 -23 21 -50 26 -61 4 -11 10 -29 12 -40 3 -11 5 -1 6 23 0 23 -3
42 -8 42 -5 0 -7 8 -4 18 2 11 -7 36 -21 57 -14 21 -26 43 -26 50 0 46 -163
138 -276 156 -79 13 -184 5 -184 -14 0 -8 -3 -7 -9 2 -5 7 -14 10 -20 7 -17
-11 -13 -26 8 -26 11 0 21 -6 23 -12 3 -7 22 -13 45 -13 26 0 39 -4 36 -11 -2
-6 3 -14 13 -18 21 -8 14 -47 -16 -99 -20 -34 -50 -50 -50 -27 0 6 -10 10 -22
10 -13 0 -36 7 -52 15 -15 8 -37 15 -47 15 -16 0 -18 6 -14 51 4 46 22 77 46
79 3 0 6 7 6 15 0 42 -208 -55 -293 -136 -39 -39 -41 -39 -58 -21 -16 19 -14
21 41 69 91 79 134 105 161 98 15 -4 31 0 41 8 27 24 188 41 329 34 154 -8
194 -19 236 -69 18 -21 36 -38 39 -38 4 0 7 23 7 50 0 36 -4 52 -15 56 -8 4
-13 10 -10 14 7 11 -95 104 -164 149 -121 78 -262 103 -455 80z m-117 -106
c28 -31 48 -59 46 -62 -6 -5 -115 100 -115 112 0 19 22 2 69 -50z m-99 -103
c35 -18 60 -40 45 -40 -10 0 -105 50 -105 55 0 10 22 4 60 -15z m-175 -60 c3
-5 1 -10 -4 -10 -6 0 -11 5 -11 10 0 6 2 10 4 10 3 0 8 -4 11 -10z m-15 -45
c0 -8 -4 -15 -10 -15 -5 0 -7 7 -4 15 4 8 8 15 10 15 2 0 4 -7 4 -15z m-15
-34 c3 -5 1 -12 -5 -16 -5 -3 -10 1 -10 9 0 18 6 21 15 7z m-269 -135 c18 6
18 6 2 -11 -18 -19 -32 -14 -49 18 -12 21 -11 22 8 4 13 -11 27 -15 39 -11z
m556 -186 c35 -52 48 -90 30 -90 -4 0 -15 12 -24 28 -9 15 -35 49 -59 75 l-42
49 29 -4 c22 -2 38 -16 66 -58z m72 -126 c8 -22 -4 -40 -15 -23 -11 18 -11 39
0 39 5 0 12 -7 15 -16z m-1246 -301 c-2 -22 1 -28 17 -28 13 0 21 8 23 23 2
12 7 22 12 22 12 0 0 -37 -16 -50 -21 -18 -47 -7 -55 22 -6 24 -2 31 19 37 1
1 1 -11 0 -26z m22 -57 c0 -3 -4 -8 -10 -11 -5 -3 -10 -1 -10 4 0 6 5 11 10
11 6 0 10 -2 10 -4z m-30 -27 c0 -5 4 -8 9 -5 5 4 7 -3 4 -14 -3 -11 -9 -17
-14 -14 -5 3 -7 9 -4 14 3 5 -3 13 -12 19 -17 10 -17 10 0 11 9 0 17 -5 17
-11z m520 -49 c0 -5 -2 -10 -4 -10 -3 0 -8 5 -11 10 -3 6 -1 10 4 10 6 0 11
-4 11 -10z m-680 -170 c0 -22 -7 -25 -29 -11 -16 10 -6 31 15 31 8 0 14 -9 14
-20z m1137 -10 c26 -16 43 -30 37 -30 -14 0 -111 60 -97 60 7 0 34 -13 60 -30z
m-246 3 c13 -16 12 -17 -3 -4 -10 7 -18 15 -18 17 0 8 8 3 21 -13z m593 -78
c18 -1 45 -9 61 -17 l28 -15 -24 -21 c-12 -12 -26 -22 -30 -22 -4 0 -10 -8
-13 -17 -3 -11 -4 -7 -3 7 1 18 -3 25 -15 24 -10 -1 -17 1 -16 5 1 3 -2 13 -6
21 -5 11 -20 14 -61 12 -30 -2 -55 0 -55 6 0 12 60 31 83 25 10 -2 33 -6 51
-8z m304 8 c-15 -2 -42 -2 -60 0 -18 2 -6 4 27 4 33 0 48 -2 33 -4z m-130 -40
c-5 -7 -6 -18 -2 -24 5 -9 2 -10 -10 -6 -10 4 -22 7 -27 7 -10 0 -13 43 -4 52
4 3 17 1 30 -6 17 -8 21 -14 13 -23z m252 13 c0 -2 -7 -7 -16 -10 -8 -3 -12
-2 -9 4 6 10 25 14 25 6z m40 -2 c0 -14 -22 -44 -33 -44 -7 0 -6 4 3 10 13 8
12 10 -4 10 -20 0 -20 0 0 15 20 15 34 19 34 9z m-1960 -35 c0 -18 -2 -19 -15
-9 -15 12 -12 30 6 30 5 0 9 -10 9 -21z m1871 8 c-6 -8 -8 -17 -4 -20 3 -4 2
-7 -4 -7 -19 0 -22 13 -5 26 22 17 27 17 13 1z m-71 -20 c8 -3 -9 -6 -38 -6
-34 -1 -51 3 -47 9 4 6 15 8 25 5 10 -3 22 -1 25 6 5 7 10 7 14 2 3 -6 13 -13
21 -16z m-390 -41 c0 -11 -19 -15 -25 -6 -3 5 1 10 9 10 9 0 16 -2 16 -4z
m149 -29 c11 -10 6 -13 -25 -18 -28 -5 -44 -3 -56 8 -10 9 -25 13 -34 9 -22
-8 -40 4 -23 16 18 11 119 0 138 -15z m431 13 c0 -5 -5 -10 -11 -10 -5 0 -7 5
-4 10 3 6 8 10 11 10 2 0 4 -4 4 -10z m-17 -37 c-23 -9 -14 -33 12 -33 15 0
25 -6 25 -14 0 -12 -6 -13 -30 -5 -37 13 -42 61 -6 58 6 0 5 -3 -1 -6z m-382
-24 c-18 -4 -37 -12 -40 -18 -5 -7 -15 -5 -31 7 l-25 17 30 5 c17 3 46 3 65 1
l35 -4 -34 -8z m549 -29 c0 -5 -5 -10 -11 -10 -5 0 -7 5 -4 10 3 6 8 10 11 10
2 0 4 -4 4 -10z m-160 -28 c0 -5 -7 -17 -15 -28 -14 -18 -14 -17 -4 9 12 27
19 34 19 19z m30 -47 c0 -8 -4 -15 -10 -15 -5 0 -10 7 -10 15 0 8 5 15 10 15
6 0 10 -7 10 -15z m-7 -62 c-7 -2 -19 -2 -25 0 -7 3 -2 5 12 5 14 0 19 -2 13
-5z"/>
<path d="M2185 8820 c3 -5 8 -10 11 -10 2 0 4 5 4 10 0 6 -5 10 -11 10 -5 0
-7 -4 -4 -10z"/>
<path d="M2500 8590 c-14 -9 -7 -14 13 -11 4 0 7 -3 7 -9 0 -5 7 -10 15 -10 8
0 15 7 15 16 0 8 -5 12 -11 8 -6 -3 -14 -2 -18 4 -4 7 -12 8 -21 2z"/>
<path d="M1458 8583 c12 -2 30 -2 40 0 9 3 -1 5 -23 4 -22 0 -30 -2 -17 -4z"/>
<path d="M1383 8573 c9 -2 23 -2 30 0 6 3 -1 5 -18 5 -16 0 -22 -2 -12 -5z"/>
<path d="M1220 8498 c-25 -33 -54 -76 -66 -95 -12 -19 -37 -45 -57 -59 -37
-25 -55 -63 -42 -84 5 -9 52 -11 169 -7 170 5 246 0 211 -14 -17 -7 -18 -8 -2
-8 9 -1 17 -5 17 -11 0 -6 -35 -10 -85 -10 -74 0 -84 2 -78 16 6 15 -5 16
-112 10 -64 -4 -125 -10 -134 -13 -14 -4 -14 -3 -1 6 13 9 13 11 -1 11 -24 0
-31 -28 -18 -67 l11 -33 93 0 c51 0 100 -3 108 -6 12 -4 14 -18 9 -67 -5 -58
-4 -61 12 -44 10 9 25 17 34 18 9 0 35 9 57 19 30 14 35 19 18 19 -12 1 -25 5
-28 11 -3 6 1 7 10 4 11 -5 14 -2 8 12 -6 15 -3 15 17 -4 22 -20 26 -21 47 -7
l23 15 -6 -44 c-7 -51 3 -136 16 -136 10 0 7 40 -4 58 -4 6 -4 35 0 64 5 39 9
48 15 33 4 -11 5 8 3 42 -6 74 10 169 31 193 27 30 22 102 -12 183 l-17 38
-105 -7 c-98 -7 -105 -6 -92 9 7 10 10 17 5 17 -5 0 -29 -28 -54 -62z m228
-313 c-2 -2 -24 -6 -48 -9 -25 -2 -54 -7 -65 -12 -14 -5 -17 -4 -10 4 6 5 19
12 30 14 27 6 98 8 93 3z m-141 -71 c-3 -3 -12 -4 -19 -1 -8 3 -5 6 6 6 11 1
17 -2 13 -5z"/>
<path d="M2475 8491 c-3 -5 -1 -12 5 -16 5 -3 10 1 10 9 0 18 -6 21 -15 7z"/>
<path d="M1936 8262 c-3 -5 1 -9 9 -9 8 0 12 4 9 9 -3 4 -7 8 -9 8 -2 0 -6 -4
-9 -8z"/>
<path d="M1645 8220 c-3 -6 1 -7 9 -4 18 7 21 14 7 14 -6 0 -13 -4 -16 -10z"/>
<path d="M2000 8168 c0 -8 10 -23 22 -34 l21 -19 -18 30 c-26 41 -25 40 -25
23z"/>
<path d="M1182 8110 c0 -14 2 -19 5 -12 2 6 2 18 0 25 -3 6 -5 1 -5 -13z"/>
<path d="M1888 8113 c7 -3 16 -2 19 1 4 3 -2 6 -13 5 -11 0 -14 -3 -6 -6z"/>
<path d="M1770 8100 c0 -5 5 -10 10 -10 6 0 10 5 10 10 0 6 -4 10 -10 10 -5 0
-10 -4 -10 -10z"/>
<path d="M2420 7991 c0 -6 4 -13 10 -16 6 -3 7 1 4 9 -7 18 -14 21 -14 7z"/>
<path d="M1164 7956 c-3 -21 -4 -39 -1 -42 2 -3 8 11 11 32 4 20 5 38 2 41 -2
3 -8 -11 -12 -31z"/>
<path d="M1233 7955 c0 -22 2 -30 4 -17 2 12 2 30 0 40 -3 9 -5 -1 -4 -23z"/>
<path d="M2446 7964 c-8 -21 17 -50 66 -75 58 -30 56 -23 -5 22 -32 22 -57 43
-57 46 0 3 7 0 15 -7 23 -19 28 -6 6 14 -17 16 -19 16 -25 0z"/>
<path d="M2630 7838 c3 -3 21 -13 40 -23 27 -13 32 -14 20 -2 -8 8 -26 18 -40
22 -14 4 -23 5 -20 3z"/>
<path d="M1839 7772 c-25 -23 -31 -35 -32 -77 -2 -45 -6 -53 -37 -75 -29 -20
-44 -24 -92 -21 -50 2 -58 0 -69 -20 -10 -20 -9 -25 14 -45 25 -22 25 -22 6
-40 -10 -9 -19 -23 -19 -31 0 -7 -8 -13 -17 -13 -10 0 -14 -3 -8 -8 6 -4 10
-68 10 -157 0 -132 3 -158 24 -218 12 -38 25 -66 28 -63 3 3 -1 25 -10 48 -23
60 -38 179 -31 246 14 144 18 157 66 207 21 22 38 43 38 47 0 4 9 12 20 18 17
9 28 7 58 -10 36 -21 36 -21 12 -1 -20 16 -22 23 -11 30 7 5 23 7 35 4 19 -4
18 -3 -4 10 l-25 15 38 7 c49 10 112 -14 174 -66 42 -34 75 -81 55 -78 -19 3
-30 -2 -36 -16 -5 -14 -2 -14 24 0 44 23 53 20 46 -17 -8 -39 24 -78 64 -78
17 0 33 -10 48 -29 20 -27 20 -32 7 -58 -8 -15 -15 -23 -15 -18 0 17 -20 -19
-20 -37 0 -12 5 -15 16 -11 13 5 13 7 2 14 -10 7 -9 9 3 9 10 0 20 12 24 27
l7 28 18 -25 c11 -14 25 -46 31 -72 7 -27 18 -48 25 -48 19 0 55 -63 41 -72
-8 -5 -3 -8 11 -8 12 0 25 -7 29 -16 3 -9 16 -27 29 -41 13 -14 20 -32 17 -41
-4 -15 -3 -15 6 -2 8 12 11 4 11 -32 0 -25 -4 -48 -10 -50 -5 -2 -6 -26 -1
-63 5 -33 8 -98 7 -145 l-1 -84 -45 -18 c-25 -9 -60 -17 -77 -17 -18 -1 -33
-5 -33 -9 0 -13 62 -6 102 12 48 21 58 20 58 -4 0 -11 5 -20 10 -20 6 0 10
-18 10 -40 0 -31 3 -38 15 -34 8 4 15 3 15 -1 0 -13 -25 -32 -38 -27 -18 6
-14 -16 6 -27 9 -6 14 -11 10 -11 -13 0 9 -45 22 -45 24 0 21 -23 -4 -29 -13
-3 -30 -8 -38 -11 -9 -4 -20 9 -32 35 -10 23 -20 39 -23 37 -2 -3 5 -24 17
-47 12 -23 20 -44 17 -46 -2 -2 -17 -7 -34 -10 -27 -5 -34 -2 -48 22 -9 16
-13 20 -10 9 11 -35 10 -39 -7 -43 -12 -2 -22 7 -33 30 l-15 33 5 -40 c5 -39
5 -39 -9 -15 -8 14 -12 28 -10 32 3 5 -6 8 -19 8 -19 0 -26 7 -31 28 -3 15 -8
36 -11 48 -5 15 0 23 19 32 23 10 24 15 16 37 -14 36 -12 48 4 42 25 -10 25
31 0 58 -13 14 -24 30 -24 36 0 16 0 18 -14 56 -14 41 -11 63 10 76 8 4 14 13
14 18 0 6 -5 7 -10 4 -7 -4 -8 3 -4 21 5 19 4 25 -5 20 -13 -8 -9 18 14 87 14
41 11 45 -17 20 -14 -13 -18 -13 -18 -2 0 8 7 23 15 33 17 23 20 40 5 31 -5
-3 -10 1 -10 9 0 9 -5 16 -11 16 -6 0 -8 -9 -4 -22 5 -19 3 -18 -10 5 -12 22
-14 35 -6 64 6 20 6 32 2 27 -11 -11 -51 -140 -51 -164 0 -10 -7 -20 -15 -23
-8 -4 -24 -25 -35 -48 -12 -23 -30 -44 -41 -46 -18 -5 -21 -9 -23 -35 -1 -7
-7 -19 -13 -26 -7 -7 -13 -19 -13 -25 0 -7 4 -6 10 3 5 8 10 11 10 5 0 -19
-18 -38 -29 -31 -7 5 -11 -4 -11 -24 0 -18 4 -29 10 -25 6 3 10 1 10 -5 0 -7
-8 -9 -20 -5 -16 5 -20 2 -20 -14 0 -11 -9 -25 -20 -31 -13 -7 -20 -7 -20 -1
0 6 -7 8 -15 5 -8 -4 -13 -10 -10 -14 3 -4 -2 -11 -11 -14 -8 -3 -12 -10 -9
-16 4 -6 -6 -11 -22 -11 l-28 -1 30 -7 c30 -7 30 -7 5 -14 -24 -6 -24 -7 -5
-21 12 -10 15 -15 7 -16 -9 0 -11 -7 -7 -22 5 -18 4 -20 -4 -8 -15 22 -13 5 4
-36 8 -20 13 -39 10 -43 -2 -4 2 -8 10 -8 10 0 11 5 4 18 -5 10 -6 26 -3 36 5
15 4 15 -5 3 -12 -17 -15 -1 -3 18 6 9 12 5 20 -13 7 -15 10 -31 6 -36 -3 -6
-1 -15 4 -22 15 -20 20 -53 9 -72 -7 -13 -6 -16 2 -11 6 4 11 2 11 -3 0 -6 -4
-11 -10 -11 -5 0 -10 -6 -10 -14 0 -8 -12 -17 -27 -19 -26 -4 -26 -4 5 -6 20
0 32 -6 32 -15 0 -8 5 -16 12 -18 9 -3 9 -13 2 -39 -9 -30 -14 -34 -44 -36
-19 -1 -47 -4 -62 -6 -25 -5 -217 -11 -246 -8 -7 0 -17 11 -22 24 -8 21 -9 21
-9 1 -1 -11 4 -25 11 -32 9 -9 8 -12 -6 -12 -11 0 -16 -5 -13 -14 3 -7 9 -34
12 -60 4 -26 14 -50 24 -56 9 -6 11 -10 4 -10 -7 0 -13 -3 -13 -7 0 -9 287 -6
301 3 16 10 40 -28 32 -51 -4 -11 -7 -63 -7 -115 0 -85 3 -114 20 -197 2 -13
10 -23 17 -23 15 0 57 -41 57 -56 0 -5 -5 -2 -10 6 -12 18 -12 20 -23 -157 -1
-17 -6 -29 -10 -26 -4 3 -15 2 -23 -1 -12 -5 -8 -15 21 -51 l37 -45 -29 0
c-17 0 -38 -9 -48 -20 -10 -11 -24 -20 -30 -20 -12 0 -31 45 -26 63 1 4 -6 15
-14 24 -9 9 -13 23 -10 34 4 10 2 19 -3 19 -5 0 -12 9 -15 19 -4 15 2 20 31
25 19 3 39 3 44 0 13 -9 9 -24 -7 -24 -8 0 -15 -5 -15 -10 0 -7 7 -7 21 0 16
9 19 18 15 36 -4 14 -2 24 4 24 5 0 10 20 10 45 0 45 28 92 46 77 5 -4 2 1 -5
11 -7 9 -19 17 -25 17 -7 0 -6 -3 2 -9 10 -6 9 -11 -4 -22 -16 -13 -17 -11
-12 14 5 28 -9 36 -28 17 -6 -6 -41 -12 -77 -13 -37 -1 -67 -5 -67 -8 0 -4
-48 -9 -107 -12 -60 -3 -119 -9 -133 -12 -24 -7 -24 -7 -5 8 11 9 16 17 10 17
-5 1 13 10 40 19 l50 18 -32 7 c-19 5 -33 14 -33 22 0 9 -4 12 -10 9 -5 -3
-10 -1 -10 4 0 6 6 11 13 11 22 0 -17 20 -40 20 -13 0 -23 3 -23 6 0 12 26 30
38 26 17 -5 11 22 -7 29 -9 3 1 12 28 22 23 10 44 24 47 32 4 8 10 12 15 9 5
-3 8 0 7 8 -2 7 2 12 8 11 7 -1 11 21 11 60 0 56 0 57 -4 12 -3 -39 -11 -57
-36 -82 -17 -18 -38 -33 -46 -33 -11 0 -10 4 5 16 16 13 16 15 2 10 -10 -3
-18 -2 -18 2 0 5 -22 13 -50 18 -27 6 -50 7 -50 3 0 -4 -7 -6 -16 -5 -9 0 -19
-6 -21 -14 -4 -13 -3 -13 6 -1 8 12 11 9 16 -15 4 -16 9 -35 11 -43 3 -9 -1
-11 -12 -7 -9 3 -27 -3 -41 -14 -16 -12 -35 -18 -51 -15 -47 8 -42 16 13 19
11 1 21 9 23 21 2 14 0 16 -5 8 -12 -17 -73 5 -74 27 0 10 -3 9 -9 -5 -8 -21
-13 -15 -23 30 -3 11 -6 0 -7 -25 -2 -25 -5 -35 -7 -23 -2 12 -11 24 -19 27
-12 4 -14 1 -9 -14 8 -25 -5 -26 -31 -2 -19 18 -19 18 -19 -30 0 -43 3 -50 32
-67 17 -11 34 -17 38 -13 3 3 3 -2 -1 -13 -4 -11 -4 -17 1 -13 4 4 14 1 21 -7
18 -18 18 -25 -1 -25 -8 0 -15 5 -15 11 0 5 -5 7 -10 4 -5 -3 -10 -2 -10 3 0
5 -9 12 -20 15 -11 3 -20 1 -20 -3 0 -26 64 -75 160 -125 94 -47 110 -59 110
-80 0 -13 8 -31 17 -41 9 -9 18 -24 19 -33 8 -56 27 -219 34 -291 4 -47 14
-103 22 -125 9 -22 19 -60 23 -84 8 -47 13 -53 171 -197 45 -41 87 -74 93 -74
6 0 32 -19 56 -41 37 -34 49 -40 71 -35 l27 7 -7 -98 -7 -98 38 -71 c21 -40
57 -103 81 -141 33 -55 42 -79 42 -115 0 -42 -5 -51 -74 -130 l-74 -84 -9
-108 c-5 -59 -5 -110 0 -113 4 -3 5 -19 2 -36 -5 -24 -4 -28 4 -17 9 12 11 11
11 -6 0 -14 -8 -24 -21 -27 -16 -4 -19 -2 -14 11 5 14 4 15 -7 4 -8 -8 -13
-41 -14 -85 -1 -40 0 -64 3 -54 4 16 24 25 22 10 -4 -25 2 -36 12 -26 16 16 2
66 -15 60 -9 -4 -13 3 -13 19 0 13 2 22 6 20 3 -2 17 2 31 10 15 8 19 13 10
14 -12 0 -13 2 -1 9 8 5 13 25 13 49 -1 35 2 41 26 47 16 4 21 9 15 13 -12 7
-22 46 -28 110 -3 29 3 40 56 90 33 31 72 63 85 70 39 20 95 6 145 -36 38 -32
143 -166 250 -319 l36 -52 15 47 c9 26 13 61 11 78 -4 26 -11 33 -43 43 -49
14 -70 56 -109 213 -44 175 -46 193 -22 217 33 33 62 26 113 -26 62 -65 98
-122 99 -158 1 -20 7 -5 20 45 21 87 23 104 9 95 -10 -6 -13 3 -13 37 0 10 -4
15 -8 12 -5 -3 -6 -11 -2 -17 4 -7 0 -6 -10 2 -9 7 -14 17 -11 22 3 5 1 8 -4
7 -6 -2 -34 18 -65 44 -72 62 -167 128 -247 171 -139 75 -225 128 -225 139 0
6 -7 13 -15 15 -13 4 -13 3 0 -6 25 -18 3 -12 -45 11 -37 18 -45 27 -45 50 0
15 4 28 10 28 5 0 9 3 9 8 -4 24 3 40 17 38 21 -1 54 60 54 102 0 32 1 33 30
27 40 -9 39 10 -2 35 l-32 19 35 -5 c59 -10 83 43 55 121 -8 22 -17 51 -19 65
l-4 25 -2 -26 c-1 -22 -7 -27 -33 -32 -18 -3 -41 -8 -50 -12 -23 -9 -48 42
-48 99 0 36 -7 52 -35 86 -45 54 -49 108 -8 139 28 23 54 21 86 -7 9 -8 17
-10 17 -5 0 6 -7 16 -15 23 -8 7 -15 18 -15 24 0 6 5 4 10 -4 8 -12 12 -11 32
7 13 11 33 26 46 32 12 6 22 18 22 25 0 8 21 31 48 52 26 21 50 42 53 47 11
16 83 17 106 1 28 -18 33 -18 33 2 0 8 -4 13 -8 10 -5 -3 -25 6 -45 19 -20 14
-39 25 -42 25 -17 0 -115 77 -115 91 0 16 33 164 47 212 l8 28 72 -37 c39 -20
82 -46 96 -58 l26 -21 -24 -114 c-26 -125 -27 -156 -2 -64 30 110 40 185 25
194 -7 5 -19 12 -26 17 -6 4 -15 28 -18 53 -3 24 -10 49 -15 55 -5 6 -7 19 -3
27 5 15 8 15 21 2 8 -8 19 -15 24 -15 15 0 -33 44 -71 64 -19 10 -45 27 -57
39 -27 24 -88 141 -103 198 -15 54 -3 69 50 62 48 -7 82 3 60 17 -13 8 -13 10
1 10 9 0 22 7 29 15 7 8 15 13 19 11 4 -3 13 5 21 17 12 21 12 21 -6 7 -17
-14 -18 -14 -6 2 8 9 20 14 28 11 8 -3 14 -1 14 5 0 6 -5 12 -12 14 -6 2 4 10
23 17 19 7 54 21 79 31 25 10 63 25 85 34 39 15 260 36 382 36 45 0 62 -4 67
-15 3 -8 12 -15 21 -15 19 0 21 -56 3 -63 -7 -3 -1 -6 13 -6 15 -1 40 6 55 15
28 15 28 16 4 10 -23 -5 -26 -2 -25 22 0 22 -6 28 -30 33 -17 4 8 7 60 6 50 0
80 -2 68 -4 -22 -4 -39 -35 -29 -52 4 -5 0 -11 -6 -14 -7 -2 1 -6 17 -8 29 -5
31 -3 27 24 -3 20 0 33 12 39 9 5 16 15 16 22 0 10 35 15 137 19 140 7 152 5
153 -32 0 -11 -3 -11 -17 0 -15 12 -16 12 -8 -1 20 -33 29 -38 42 -21 10 13
12 5 13 -47 0 -34 7 -79 15 -99 8 -19 14 -61 14 -92 l-2 -56 -7 67 c-10 103
-52 148 -106 113 -14 -9 -23 -19 -20 -22 3 -3 12 0 21 7 21 17 20 -4 -1 -29
-10 -11 -23 -17 -30 -14 -8 3 -14 -1 -14 -8 0 -12 -2 -12 -9 0 -9 13 -6 -44 5
-116 6 -43 49 -93 79 -93 27 0 65 43 65 73 0 31 9 16 16 -27 3 -21 2 -36 -3
-33 -10 6 -9 -89 1 -122 6 -16 5 -21 -3 -17 -6 4 -11 16 -11 27 0 11 -4 17
-10 14 -19 -12 -10 -42 15 -53 32 -15 35 -66 5 -82 -16 -8 -19 -17 -14 -33 21
-65 56 -226 56 -254 0 -18 3 -33 7 -33 4 0 7 -17 7 -37 1 -21 9 -103 18 -182
14 -115 16 -156 7 -199 -14 -70 -15 -242 -1 -242 6 0 10 5 10 12 0 6 3 8 6 5
4 -4 -1 -18 -10 -31 -12 -19 -17 -56 -20 -143 -2 -66 0 -107 4 -93 4 14 8 46
9 72 1 42 4 48 37 67 32 19 40 20 75 9 39 -11 41 -10 77 25 21 20 46 51 56 69
l18 33 -28 -34 -27 -33 -12 22 c-16 30 -9 52 25 85 25 24 27 30 18 58 -8 22
-8 43 1 78 9 34 10 53 2 68 -6 11 -11 41 -11 68 0 27 -10 68 -21 93 -17 37
-48 147 -49 171 0 4 6 6 13 5 22 -2 22 19 0 29 -25 11 -32 41 -8 31 23 -8 18
22 -5 34 -24 13 -18 30 11 30 10 0 19 5 19 11 0 5 5 7 10 4 6 -3 15 4 20 17 8
20 9 17 8 -17 -1 -22 1 -46 6 -53 4 -7 5 -15 2 -20 -2 -4 3 -16 11 -27 14 -19
14 -18 7 15 -10 47 -7 124 6 128 11 4 13 44 4 91 -5 22 -12 31 -26 31 -10 0
-18 6 -17 13 4 26 -14 77 -25 70 -6 -3 0 6 13 20 30 33 42 36 15 5 l-19 -23
22 18 c13 11 19 25 16 35 -4 10 -2 13 5 8 8 -5 12 2 12 21 l0 28 -31 -38 c-17
-20 -35 -34 -41 -31 -7 4 -1 14 13 26 13 11 17 16 9 12 -11 -5 -10 -2 3 13 18
21 14 35 -8 27 -8 -3 -18 4 -25 15 -6 12 -7 21 -3 21 4 0 2 5 -5 12 -7 7 -12
27 -12 46 0 61 -20 111 -52 124 -28 13 -37 41 -17 53 6 4 16 1 22 -7 13 -16
105 -53 113 -45 3 2 -19 17 -47 32 -58 30 -81 49 -72 59 4 3 1 6 -5 6 -6 0
-17 -19 -23 -42 -7 -24 -16 -47 -20 -52 -11 -13 19 103 37 142 9 19 14 36 11
38 -8 8 -24 -20 -41 -73 -9 -28 -23 -54 -31 -57 -8 -3 -12 -12 -9 -20 3 -8 1
-17 -4 -20 -6 -3 -8 -16 -5 -29 3 -12 2 -19 -2 -15 -5 4 -14 3 -22 -4 -11 -8
-12 -7 -7 5 3 9 1 24 -5 34 -10 17 -10 17 -12 -2 -2 -39 -17 27 -18 83 -1 47
1 52 22 52 12 1 33 7 47 15 l25 15 -29 -6 c-22 -5 -27 -4 -21 6 6 10 3 12 -12
8 -16 -4 -20 -1 -20 18 0 13 3 21 8 18 5 -3 6 2 2 12 -5 15 -7 14 -17 -2 -9
-16 -12 -12 -16 26 -6 48 5 87 30 107 20 17 0 16 -170 -2 -87 -9 -242 -15
-437 -15 -263 0 -303 2 -303 15 0 8 -4 15 -10 15 -5 0 -10 -6 -10 -14 0 -18
-52 -15 -58 3 -4 13 -12 12 123 20 125 7 113 -7 100 114 l-6 57 -115 -1 c-63
-1 -117 1 -120 4 -3 3 2 21 11 41 12 25 15 47 10 78 -9 60 -15 78 -25 78 -5 0
-11 -8 -13 -17 -2 -10 -3 -7 -1 7 1 14 -4 32 -12 41 -8 9 -17 45 -20 80 -3 35
-10 69 -15 75 -5 6 -6 14 -2 17 3 4 -1 7 -10 7 -9 0 -19 -5 -23 -11 -4 -8 -12
-2 -21 16 -19 35 -13 40 75 70 40 13 84 31 99 39 50 27 5 17 -84 -19 -92 -37
-124 -38 -141 -2 -15 34 -13 67 5 67 9 0 14 -3 10 -6 -7 -8 42 -54 57 -54 6 0
5 4 -3 9 -14 9 -1 16 50 26 12 3 44 12 71 21 27 9 52 13 55 10 4 -3 13 3 20
14 8 11 19 18 24 15 5 -4 9 -1 9 5 0 7 6 10 13 7 9 -3 12 4 11 22 -2 37 -3 38
-15 19 -20 -34 -45 -21 -66 34 -20 52 -21 53 -58 49 -74 -6 -76 -9 -50 -71 13
-30 21 -58 19 -61 -2 -4 -16 -10 -31 -14 -16 -3 -38 -18 -50 -33 l-22 -27 -22
53 c-19 45 -23 50 -34 36 -9 -13 -14 -14 -20 -4 -5 8 -2 16 8 21 12 7 13 14 4
38 -10 28 -12 28 -34 14 -21 -14 -23 -14 -23 1 0 9 9 20 19 24 18 7 18 10 -9
69 l-28 61 24 23 c24 23 32 49 15 49 -5 0 -11 -5 -13 -11 -2 -5 -10 -11 -18
-12 -8 -1 -26 -11 -40 -21 -25 -18 -25 -18 -2 -13 15 4 22 1 19 -6 -4 -14 -28
-17 -44 -4 -6 4 -20 7 -31 5 -20 -3 -52 18 -52 35 0 5 10 2 23 -9 l22 -19 -19
22 c-10 13 -22 20 -26 18 -9 -5 -95 103 -95 119 0 6 -5 11 -12 11 -7 0 -18 7
-25 15 -11 12 -11 12 5 1 9 -8 17 -9 17 -3 0 12 -62 53 -70 46 -3 -3 4 -12 14
-20 34 -24 9 -15 -30 11 -40 27 -101 34 -122 13 -9 -9 -12 -6 -12 14 0 16 12
39 31 57 38 38 30 41 -12 3z m426 -352 c3 -5 1 -10 -4 -10 -6 0 -11 5 -11 10
0 6 2 10 4 10 3 0 8 -4 11 -10z m23 -40 c7 -12 17 -18 22 -15 6 3 10 1 10 -4
0 -17 -30 -13 -36 4 -4 8 -10 15 -16 15 -5 0 -7 -4 -3 -9 3 -5 1 -12 -4 -15
-5 -4 -8 2 -6 11 2 10 4 21 4 26 2 14 16 7 29 -13z m226 -589 c-7 -42 -24 -65
-25 -35 0 10 -2 39 -4 63 -4 43 -4 43 16 26 15 -15 18 -26 13 -54z m-42 -25
c2 -19 0 -32 -4 -30 -8 5 -12 64 -4 64 2 0 6 -15 8 -34z m-336 -121 c-3 -9 0
-15 8 -15 15 0 46 -42 46 -62 0 -10 -2 -10 -9 1 -11 17 -15 5 -31 -97 -7 -40
-15 -71 -18 -67 -9 9 -2 91 12 139 13 42 7 82 -8 57 -6 -9 -24 -143 -27 -191
0 -8 -5 -4 -10 10 -10 23 -7 85 7 179 4 25 3 32 -8 26 -7 -4 -2 3 12 14 30 25
34 26 26 6z m383 -22 c9 -18 9 -23 -1 -23 -8 0 -15 12 -16 27 -2 29 0 29 17
-4z m-42 -15 c-3 -7 -5 -2 -5 12 0 14 2 19 5 13 2 -7 2 -19 0 -25z m-10 -40
c-3 -8 -6 -5 -6 6 -1 11 2 17 5 13 3 -3 4 -12 1 -19z m-394 -105 c-5 -65 -7
-139 -6 -165 1 -27 0 -48 -2 -48 -2 0 -21 11 -41 25 -20 14 -42 25 -49 25 -7
0 -16 16 -20 36 -5 29 -1 43 18 73 14 20 28 46 32 59 4 13 17 27 30 32 17 6
26 20 31 45 12 64 14 36 7 -82z m187 77 c0 -5 -2 -10 -4 -10 -3 0 -8 5 -11 10
-3 6 -1 10 4 10 6 0 11 -4 11 -10z m-103 -202 c-3 -7 -5 -2 -5 12 0 14 2 19 5
13 2 -7 2 -19 0 -25z m113 -61 c0 -5 -4 -5 -10 -2 -5 3 -10 14 -10 23 0 15 2
15 10 2 5 -8 10 -19 10 -23z m-214 -48 c19 -22 19 -22 -5 -9 -21 11 -23 10
-18 -4 22 -53 22 -52 3 -36 -20 16 -36 51 -29 63 8 13 30 7 49 -14z m-136 1
c0 -5 -2 -10 -4 -10 -3 0 -8 5 -11 10 -3 6 -1 10 4 10 6 0 11 -4 11 -10z
m1647 -26 c-3 -3 -12 -4 -19 -1 -8 3 -5 6 6 6 11 1 17 -2 13 -5z m-1591 -46
c9 -17 25 -39 36 -47 12 -11 20 -32 23 -63 4 -53 -11 -76 -35 -50 -13 14 -12
15 3 9 19 -7 21 5 8 68 -7 33 -9 35 -10 12 0 -16 -5 -26 -10 -22 -5 3 -12 1
-16 -5 -3 -5 2 -10 12 -10 14 -1 13 -4 -7 -15 -16 -9 -20 -15 -10 -15 10 -1
11 -3 2 -7 -6 -2 -9 -10 -5 -16 12 -19 9 -41 -6 -53 -11 -9 -11 -11 3 -11 9 0
16 4 16 8 0 11 58 29 62 19 5 -15 152 -140 165 -140 14 0 33 -31 33 -53 0 -22
-29 -29 -46 -12 -8 8 -22 11 -31 8 -10 -4 -14 -2 -10 4 5 7 0 9 -12 6 -10 -3
-22 1 -27 8 -5 9 -2 10 10 6 11 -4 15 -3 11 4 -4 6 -13 8 -21 5 -16 -6 -47 22
-41 38 5 13 -18 38 -27 29 -3 -4 -20 3 -36 15 -34 25 -40 27 -40 9 0 -7 14
-18 32 -25 30 -11 31 -12 14 -30 -9 -11 -21 -43 -26 -73 -5 -30 -16 -74 -24
-98 -11 -30 -13 -48 -6 -55 13 -13 13 -29 0 -21 -5 3 -10 1 -10 -5 0 -6 -10
-10 -22 -8 -22 3 -23 8 -23 78 1 41 7 109 13 150 7 41 18 146 24 233 6 86 12
157 14 157 2 0 11 -14 20 -32z m1489 12 c3 -5 1 -10 -4 -10 -6 0 -11 5 -11 10
0 6 2 10 4 10 3 0 8 -4 11 -10z m-4 -47 c12 -16 12 -17 -1 -7 -8 6 -22 14 -30
17 -13 5 -12 6 1 6 9 1 23 -7 30 -16z m4 -61 c-4 -13 -12 -19 -21 -15 -17 6
-18 25 -2 41 16 16 32 -1 23 -26z m-20 -52 c3 -5 1 -10 -4 -10 -6 0 -11 5 -11
10 0 6 2 10 4 10 3 0 8 -4 11 -10z m237 -22 c-5 -21 -6 -21 -12 -2 -8 21 -3
37 10 29 4 -3 6 -15 2 -27z m-1564 0 c-2 -7 2 -12 7 -11 6 1 12 -8 12 -19 l2
-21 -21 20 c-11 12 -17 26 -14 32 10 15 17 14 14 -1z m1602 -40 c0 -6 -7 -5
-15 2 -8 7 -15 17 -15 22 0 6 7 5 15 -2 8 -7 15 -17 15 -22z m-20 -43 c0 -7 4
-15 9 -17 4 -1 5 -12 1 -22 -5 -16 -9 -11 -17 22 -6 23 -7 39 -2 36 5 -3 9
-11 9 -19z m55 -66 c-4 -5 -12 -3 -21 5 -20 21 -17 28 6 16 11 -6 18 -15 15
-21z m5 -83 c0 -6 -9 3 -19 20 -11 18 -24 35 -30 38 -6 4 -11 12 -11 18 0 6
14 -6 30 -27 17 -21 30 -43 30 -49z m-1610 -11 c27 -14 29 -18 19 -38 -21 -41
-30 -47 -49 -37 -38 20 -51 40 -39 62 12 23 2 39 -11 18 -11 -17 -13 -9 -4 14
6 16 24 12 84 -19z m114 -31 c3 -8 3 -14 0 -14 -7 0 -34 27 -34 34 0 11 29 -6
34 -20z m1496 -18 c-6 -6 -5 -15 1 -23 8 -9 8 -13 0 -13 -6 0 -11 -4 -11 -10
0 -5 6 -7 13 -4 16 6 55 -22 44 -32 -4 -5 -12 -2 -17 5 -5 9 -18 12 -39 8 -16
-4 -33 -2 -36 3 -3 6 2 11 12 11 17 1 17 2 1 6 -22 6 -23 26 -3 43 8 7 15 22
15 33 0 20 0 20 14 1 9 -11 11 -23 6 -28z m-1612 -51 c1 -1 -5 -37 -14 -79
-16 -71 -18 -75 -32 -55 -9 13 -23 19 -40 17 -24 -3 -27 0 -25 27 1 17 7 53
14 82 l12 51 41 -21 c22 -11 42 -21 44 -22z m-785 4 c-4 -16 -8 -17 -14 -7 -7
10 -9 9 -9 -4 0 -10 -5 -18 -10 -18 -6 0 -4 13 5 30 17 33 36 33 28 -1z m2181
-26 c4 -32 9 -76 11 -98 3 -23 -4 -8 -15 35 -21 82 -25 120 -11 120 4 0 11
-26 15 -57z m257 40 c13 -16 12 -17 -3 -4 -10 7 -18 15 -18 17 0 8 8 3 21 -13z
m-2419 -15 c-7 -7 -12 -8 -12 -2 0 14 12 26 19 19 2 -3 -1 -11 -7 -17z m5 -60
c-3 -8 -6 -5 -6 6 -1 11 2 17 5 13 3 -3 4 -12 1 -19z m2420 -4 c-3 -3 -12 -4
-19 -1 -8 3 -5 6 6 6 11 1 17 -2 13 -5z m-2334 -51 c-7 -2 -21 -2 -30 0 -10 3
-4 5 12 5 17 0 24 -2 18 -5z m533 -77 c-6 -25 -36 -38 -36 -16 0 6 5 10 10 10
6 0 10 6 9 13 -4 30 1 41 12 30 7 -7 9 -23 5 -37z m54 29 c0 -12 -24 -55 -32
-55 -11 0 -10 4 4 35 9 21 28 35 28 20z m1629 -62 c1 -8 -13 -13 -36 -13 -25
0 -33 3 -24 9 11 7 11 9 0 14 -8 3 -4 6 9 6 12 1 26 9 29 18 6 15 7 15 14 -3
4 -10 8 -25 8 -31z m-1969 16 c-7 -11 -14 -19 -16 -16 -7 7 7 37 17 37 6 0 5
-9 -1 -21z m403 -3 c3 -7 -12 -30 -34 -52 -21 -21 -39 -33 -39 -26 0 7 5 12
11 12 5 0 7 5 4 10 -4 6 -3 10 2 9 18 -3 27 2 16 9 -10 6 -9 13 3 30 17 25 30
28 37 8z m1564 -49 c-3 -7 1 -21 9 -32 21 -28 18 -85 -3 -84 -11 0 -13 3 -5 6
14 6 16 59 2 68 -6 4 -7 -6 -4 -25 6 -29 6 -30 -33 -30 -38 0 -40 1 -36 28 3
15 19 39 36 55 35 30 41 33 34 14z m-1933 -90 c12 -29 28 -84 35 -122 7 -39
17 -91 22 -116 13 -57 2 -129 -19 -129 -10 0 -7 -8 12 -25 21 -19 26 -33 26
-69 0 -70 27 -191 52 -234 19 -34 20 -42 9 -56 -7 -9 -27 -16 -43 -16 -24 0
-28 3 -19 13 11 14 9 18 -46 87 -12 15 -20 30 -17 33 3 3 -9 4 -27 4 -27 -2
-37 4 -53 30 -12 18 -25 32 -30 33 -5 0 -3 -7 4 -15 20 -24 -3 -17 -32 10 -15
14 -32 25 -37 25 -13 0 -31 34 -37 68 -3 15 -16 46 -30 69 -21 37 -24 53 -22
115 1 40 -1 81 -6 90 -6 13 -2 19 17 23 19 5 24 11 19 23 -5 15 -4 16 14 2 10
-8 24 -22 31 -30 15 -20 27 -7 15 17 -5 10 -17 35 -25 55 -14 33 -14 36 -1 31
12 -5 12 0 -3 28 -10 19 -17 44 -15 57 3 19 10 22 50 23 26 0 63 6 82 13 19 8
38 14 43 15 4 0 18 -23 31 -52z m377 26 c-12 -20 -14 -14 -5 12 4 9 9 14 11
11 3 -2 0 -13 -6 -23z m-582 -148 c0 -5 -6 -2 -13 7 -7 10 -16 15 -19 11 -4
-3 -7 0 -7 9 0 26 14 29 27 6 7 -13 12 -27 12 -33z m2175 -7 c10 -17 14 -55
13 -145 -1 -120 -3 -128 -34 -124 -7 1 -21 -3 -32 -8 -16 -9 -19 -6 -25 21 -3
17 -6 49 -6 72 0 22 -7 53 -14 69 -11 20 -12 27 -3 28 9 0 9 2 0 6 -20 7 -15
57 7 81 28 29 75 29 94 0z m-1800 -325 c8 -17 15 -70 18 -135 3 -102 -4 -135
-15 -66 -3 18 -12 51 -20 74 -11 28 -14 58 -10 97 3 32 7 57 9 57 2 0 10 -12
18 -27z m1789 -128 c-15 -19 -29 -32 -31 -30 -6 5 41 64 51 64 4 1 -5 -15 -20
-34z m-1746 -157 c-3 -8 -6 -5 -6 6 -1 11 2 17 5 13 3 -3 4 -12 1 -19z m103
-743 c-13 -14 -26 -23 -28 -20 -4 4 38 44 47 45 3 0 -6 -11 -19 -25z"/>
<path d="M1990 5915 c0 -2 7 -8 15 -15 12 -10 15 -10 15 2 0 8 -7 15 -15 15
-8 0 -15 -1 -15 -2z"/>
<path d="M1710 5309 c0 -5 5 -7 10 -4 6 3 10 8 10 11 0 2 -4 4 -10 4 -5 0 -10
-5 -10 -11z"/>
<path d="M1543 5093 c-12 -24 -11 -45 4 -50 7 -3 10 4 7 19 -2 13 -2 17 2 11
3 -7 10 -13 15 -13 14 0 11 26 -5 39 -12 10 -16 9 -23 -6z"/>
<path d="M1596 5015 c4 -8 11 -15 16 -15 6 0 5 6 -2 15 -7 8 -14 15 -16 15 -2
0 -1 -7 2 -15z"/>
<path d="M1590 4831 c0 -5 5 -13 10 -16 6 -3 10 -15 10 -26 0 -11 5 -29 10
-40 9 -15 13 -17 24 -7 14 13 11 32 -3 23 -5 -2 -8 7 -8 20 0 14 3 28 8 31 5
3 6 -2 3 -10 -5 -13 2 -16 42 -15 l49 1 -35 15 c-19 8 -46 16 -60 17 -14 1
-31 5 -37 9 -7 5 -13 4 -13 -2z"/>
<path d="M3653 5148 c-14 -18 4 -78 22 -78 18 0 20 16 3 23 -8 3 -7 6 4 6 18
1 33 34 23 51 -9 14 -41 13 -52 -2z"/>
<path d="M3711 5052 c-6 -12 -11 -27 -11 -34 1 -7 8 0 16 15 9 16 13 31 11 34
-3 2 -10 -4 -16 -15z"/>
<path d="M3650 4980 c0 -6 7 -10 15 -10 8 0 15 2 15 4 0 2 -7 6 -15 10 -8 3
-15 1 -15 -4z"/>
<path d="M1142 7720 c0 -14 2 -19 5 -12 2 6 2 18 0 25 -3 6 -5 1 -5 -13z"/>
<path d="M1061 7708 c-1 -25 2 -28 32 -27 29 2 29 2 5 6 -18 3 -28 12 -31 26
-4 18 -5 17 -6 -5z"/>
<path d="M2090 7586 c0 -2 8 -10 18 -17 15 -13 16 -12 3 4 -13 16 -21 21 -21
13z"/>
<path d="M3495 7512 c18 -13 62 -76 69 -100 5 -13 10 -21 12 -19 16 15 -55
127 -80 127 -7 0 -8 -3 -1 -8z"/>
<path d="M2535 7505 c-5 -2 -29 -9 -52 -15 -46 -12 -50 -17 -30 -44 13 -17 16
-17 78 0 35 9 65 18 67 20 2 1 -3 11 -10 23 -12 20 -29 25 -53 16z m41 -16
c10 -17 -17 -29 -56 -24 -27 4 -30 3 -15 -4 17 -8 15 -9 -12 -8 -45 3 -36 19
18 33 58 16 57 16 65 3z"/>
<path d="M3366 7502 c-3 -4 4 -9 15 -9 23 -2 25 3 4 10 -8 4 -16 3 -19 -1z"/>
<path d="M1558 7484 c-5 -4 -8 -21 -8 -38 0 -21 3 -27 11 -19 6 6 9 23 7 38
-2 15 -6 23 -10 19z"/>
<path d="M3355 7470 c-16 -7 -17 -9 -3 -9 9 -1 20 4 23 9 7 11 7 11 -20 0z"/>
<path d="M3389 7463 c-13 -16 -12 -17 4 -4 16 13 21 21 13 21 -2 0 -10 -8 -17
-17z"/>
<path d="M1936 7429 c4 -7 44 0 44 7 0 2 -11 3 -24 2 -14 -1 -23 -5 -20 -9z"/>
<path d="M1577 7417 c-4 -10 -7 -26 -7 -35 1 -15 2 -15 11 1 6 10 9 25 7 35
-3 16 -4 15 -11 -1z"/>
<path d="M2630 7427 c0 -15 43 -97 51 -97 5 0 2 11 -6 24 -18 27 -12 33 24 30
24 -1 24 -1 6 12 -11 8 -25 12 -32 10 -7 -3 -19 2 -28 10 -8 9 -15 13 -15 11z"/>
<path d="M1439 7394 c-11 -13 -11 -20 2 -42 22 -40 67 -37 92 6 14 24 15 31 5
27 -8 -3 -21 1 -28 10 -16 20 -54 19 -71 -1z"/>
<path d="M1060 7343 c0 -32 -3 -102 -6 -155 l-7 -96 49 -7 c27 -4 67 -11 89
-16 22 -4 43 -5 46 -1 4 4 9 73 13 154 l6 146 -28 6 c-15 3 -49 8 -77 11 -27
4 -58 9 -67 12 -16 4 -18 -3 -18 -54z m164 -1 c-1 -7 -2 -67 -2 -135 l-2 -123
-72 11 -73 11 -3 84 c-2 47 -1 108 3 136 l6 50 72 -11 c45 -7 72 -15 71 -23z"/>
<path d="M1100 7285 c0 -47 0 -47 30 -41 26 5 30 3 29 -17 0 -12 -4 -31 -9
-42 -8 -18 -9 -17 -9 8 -1 22 -6 27 -26 27 -46 0 -25 -55 28 -73 36 -13 57 10
57 63 0 50 -18 74 -47 63 -7 -3 -13 2 -13 9 0 10 9 13 30 10 23 -3 30 0 30 12
0 9 -8 16 -19 16 -10 0 -33 3 -50 6 l-31 7 0 -48z"/>
<path d="M1859 7383 c-13 -17 -13 -17 6 -3 11 8 22 16 24 17 2 2 0 3 -6 3 -6
0 -17 -8 -24 -17z"/>
<path d="M1913 7345 c-73 -31 -50 -137 30 -139 22 -1 32 -5 27 -10 -18 -18
-84 7 -98 37 -16 34 -27 30 -13 -4 14 -37 80 -66 112 -49 10 6 19 8 19 6 0 -3
-9 -10 -20 -16 -14 -7 -30 -6 -60 4 -47 16 -52 13 -10 -9 46 -24 84 -17 92 15
2 8 10 21 20 30 9 8 19 26 23 40 6 21 4 20 -14 -7 -11 -18 -23 -33 -26 -33 -3
0 1 10 9 23 16 26 30 90 17 83 -5 -3 -11 0 -14 8 -9 24 -60 35 -94 21z m67
-64 c0 -10 -7 -24 -15 -31 -29 -24 -65 11 -49 48 4 9 6 23 5 31 -2 9 8 6 28
-8 17 -13 31 -31 31 -40z m-60 -41 c0 -5 -4 -10 -10 -10 -5 0 -10 5 -10 10 0
6 5 10 10 10 6 0 10 -4 10 -10z"/>
<path d="M1950 7291 c0 -5 5 -13 10 -16 6 -3 10 -2 10 4 0 5 -4 13 -10 16 -5
3 -10 2 -10 -4z"/>
<path d="M2701 7344 c0 -11 3 -14 6 -6 3 7 2 16 -1 19 -3 4 -6 -2 -5 -13z"/>
<path d="M3241 7334 c0 -11 3 -14 6 -6 3 7 2 16 -1 19 -3 4 -6 -2 -5 -13z"/>
<path d="M1790 7321 c-5 -11 -10 -46 -10 -79 0 -46 5 -65 20 -83 l21 -24 -16
32 c-17 36 -20 125 -5 154 6 10 8 19 6 19 -3 0 -10 -9 -16 -19z"/>
<path d="M3520 7335 c1 -5 12 -30 26 -55 13 -25 22 -34 18 -21 -7 28 -44 92
-44 76z"/>
<path d="M3473 7313 c-7 -2 -13 -9 -13 -14 0 -6 5 -7 10 -4 6 3 10 1 10 -4 0
-6 -6 -11 -12 -12 -7 0 -4 -4 7 -9 31 -13 34 -12 31 17 -3 28 -12 35 -33 26z"/>
<path d="M3602 7285 c0 -16 2 -22 5 -12 2 9 2 23 0 30 -3 6 -5 -1 -5 -18z"/>
<path d="M3466 7243 c-4 -9 -2 -19 3 -22 7 -4 6 -24 -3 -56 -11 -46 -15 -51
-47 -56 -19 -4 -29 -7 -24 -8 6 -1 3 -5 -5 -11 -13 -8 -13 -9 0 -13 8 -2 39
-11 68 -20 28 -8 52 -11 52 -6 0 5 -4 9 -10 9 -16 0 -12 19 10 42 20 22 27 44
11 34 -5 -3 -9 0 -8 7 2 65 -4 96 -18 91 -11 -5 -13 -2 -9 10 3 9 2 16 -4 16
-5 0 -13 -8 -16 -17z"/>
<path d="M1456 7232 c-2 -4 -1 -14 3 -21 6 -9 10 -7 14 8 5 20 -7 29 -17 13z"/>
<path d="M1405 7190 c3 -5 8 -10 11 -10 2 0 4 5 4 10 0 6 -5 10 -11 10 -5 0
-7 -4 -4 -10z"/>
<path d="M1560 7178 c0 -14 7 -31 15 -38 12 -10 13 -7 5 21 -12 42 -20 49 -20
17z"/>
<path d="M2056 7160 c-44 -46 -67 -54 -141 -48 -30 3 -52 1 -49 -4 3 -4 23 -8
45 -8 28 0 38 -4 33 -11 -11 -18 43 -2 93 27 23 13 45 33 48 44 3 11 11 20 16
20 5 0 9 5 9 10 0 19 -16 10 -54 -30z"/>
<path d="M3592 7165 c0 -16 2 -22 5 -12 2 9 2 23 0 30 -3 6 -5 -1 -5 -18z"/>
<path d="M3415 7149 c-4 -6 -5 -13 -2 -16 7 -7 27 6 27 18 0 12 -17 12 -25 -2z"/>
<path d="M1400 7027 c1 -57 2 -60 15 -43 8 11 15 27 15 35 0 9 3 26 6 37 4 16
0 23 -15 27 -20 5 -21 1 -21 -56z"/>
<path d="M3168 7013 c23 -2 61 -2 85 0 23 2 4 4 -43 4 -47 0 -66 -2 -42 -4z"/>
<path d="M2631 6996 c-8 -9 -11 -52 -8 -127 l3 -114 2 116 c1 73 6 119 14 127
7 7 9 12 6 12 -3 0 -11 -6 -17 -14z"/>
<path d="M1511 6971 c-6 -10 -21 -21 -35 -25 -13 -3 -34 -22 -46 -42 -19 -30
-22 -45 -17 -96 6 -65 36 -112 65 -101 10 4 13 2 8 -5 -5 -8 2 -12 21 -12 102
0 140 166 55 243 -15 14 -21 15 -30 4 -6 -7 -9 -22 -8 -32 2 -11 -1 -26 -7
-32 -6 -9 -5 -18 3 -28 7 -8 8 -15 2 -15 -5 0 -15 -21 -21 -47 -9 -34 -15 -43
-21 -33 -5 9 -5 19 1 26 5 7 12 32 15 56 8 67 11 93 14 98 1 3 2 8 1 13 0 4 6
7 14 7 8 0 15 9 15 20 0 25 -16 26 -29 1z m-49 -61 c-12 -12 -22 -26 -22 -32
0 -6 -3 -8 -6 -5 -9 9 24 57 38 57 7 0 2 -9 -10 -20z m118 -20 c6 -11 8 -20 6
-20 -3 0 -10 9 -16 20 -6 11 -8 20 -6 20 3 0 10 -9 16 -20z m-136 -146 c3 -8
2 -12 -4 -9 -6 3 -10 10 -10 16 0 14 7 11 14 -7z m101 -34 c-3 -5 -11 -10 -16
-10 -6 0 -7 5 -4 10 3 6 11 10 16 10 6 0 7 -4 4 -10z"/>
<path d="M1651 6980 c0 -8 4 -22 9 -30 12 -18 12 -2 0 25 -6 13 -9 15 -9 5z"/>
<path d="M2421 6934 c0 -11 3 -14 6 -6 3 7 2 16 -1 19 -3 4 -6 -2 -5 -13z"/>
<path d="M1664 6900 c16 -110 18 -154 6 -195 -33 -117 -158 -154 -236 -70 -19
21 -34 42 -34 48 0 6 -2 8 -5 5 -12 -11 28 -75 60 -96 19 -14 35 -35 38 -51 3
-15 14 -38 25 -51 17 -21 19 -21 25 -5 6 13 3 16 -8 11 -9 -3 -13 -2 -10 4 8
13 35 13 35 -1 0 -5 4 -7 10 -4 5 3 7 0 4 -8 -4 -10 2 -14 18 -13 32 2 38 14
22 51 -10 24 -10 32 -1 32 7 0 23 3 37 6 14 4 19 4 12 1 -19 -9 5 -34 32 -34
21 1 21 1 1 17 l-20 16 20 -8 c46 -17 47 -14 2 9 -26 13 -50 26 -54 29 -6 7
47 -2 59 -9 4 -3 8 0 8 6 0 6 -11 15 -24 20 l-23 9 20 58 c17 50 18 65 8 114
-6 30 -11 68 -11 85 0 16 -5 36 -11 44 -8 11 -9 6 -5 -20z"/>
<path d="M3226 6895 c-3 -9 11 -13 45 -14 36 0 49 3 49 13 0 18 -87 19 -94 1z"/>
<path d="M3340 6895 c0 -8 6 -15 14 -15 8 0 16 7 20 15 4 10 -1 15 -14 15 -11
0 -20 -7 -20 -15z"/>
<path d="M3402 6903 c-21 -8 -3 -23 29 -23 19 0 29 5 29 15 0 15 -31 19 -58 8z"/>
<path d="M3477 6896 c-4 -10 3 -14 29 -14 29 0 33 2 23 14 -6 8 -19 14 -29 14
-10 0 -20 -6 -23 -14z"/>
<path d="M3140 6891 c0 -5 7 -11 15 -15 9 -3 15 0 15 9 0 8 -7 15 -15 15 -8 0
-15 -4 -15 -9z"/>
<path d="M3180 6884 c0 -9 5 -14 12 -12 18 6 21 28 4 28 -9 0 -16 -7 -16 -16z"/>
<path d="M2800 6868 c0 -4 16 -8 35 -8 19 0 35 2 35 4 0 2 -16 6 -35 8 -19 2
-35 0 -35 -4z"/>
<path d="M2880 6868 c0 -4 16 -8 35 -8 19 0 35 2 35 4 0 2 -16 6 -35 8 -19 2
-35 0 -35 -4z"/>
<path d="M2978 6863 c12 -2 30 -2 40 0 9 3 -1 5 -23 4 -22 0 -30 -2 -17 -4z"/>
<path d="M3398 6863 c7 -3 16 -2 19 1 4 3 -2 6 -13 5 -11 0 -14 -3 -6 -6z"/>
<path d="M3458 6863 c17 -2 47 -2 65 0 17 2 3 4 -33 4 -36 0 -50 -2 -32 -4z"/>
<path d="M3178 6853 c29 -2 74 -2 100 0 26 2 2 3 -53 3 -55 0 -76 -1 -47 -3z"/>
<path d="M3338 6853 c6 -2 18 -2 25 0 6 3 1 5 -13 5 -14 0 -19 -2 -12 -5z"/>
<path d="M3170 6829 c0 -5 5 -7 10 -4 6 3 10 8 10 11 0 2 -4 4 -10 4 -5 0 -10
-5 -10 -11z"/>
<path d="M3215 6830 c4 -6 11 -8 16 -5 14 9 11 15 -7 15 -8 0 -12 -5 -9 -10z"/>
<path d="M3263 6833 c9 -2 25 -2 35 0 9 3 1 5 -18 5 -19 0 -27 -2 -17 -5z"/>
<path d="M3621 6784 c0 -11 3 -14 6 -6 3 7 2 16 -1 19 -3 4 -6 -2 -5 -13z"/>
<path d="M1947 6693 c-4 -3 -7 -13 -7 -22 1 -13 3 -13 11 2 11 19 8 33 -4 20z"/>
<path d="M1386 6626 c6 -15 4 -17 -6 -11 -9 6 -11 4 -5 -4 5 -9 10 -10 18 -2
8 8 7 14 -2 24 -10 10 -11 8 -5 -7z"/>
<path d="M1894 6622 c-9 -5 -8 -11 2 -20 8 -7 14 -8 14 -2 0 5 5 9 11 8 6 -2
14 3 16 10 5 13 -25 16 -43 4z"/>
<path d="M3553 6602 c-30 -3 -31 -5 -35 -59 -1 -30 -1 -59 2 -63 9 -14 75 4
75 20 1 8 6 14 13 13 7 -2 12 2 12 8 0 5 5 7 10 4 6 -3 10 -1 10 4 0 6 -6 11
-12 11 -9 0 -8 4 2 11 12 8 9 10 -13 6 -26 -4 -28 -2 -24 19 5 29 2 31 -40 26z"/>
<path d="M1155 6547 c-8 -65 -4 -99 13 -105 9 -3 12 17 12 77 0 92 -15 108
-25 28z"/>
<path d="M2340 6521 c0 -6 4 -13 10 -16 6 -3 7 1 4 9 -7 18 -14 21 -14 7z"/>
<path d="M3630 6500 c0 -5 5 -10 11 -10 5 0 7 5 4 10 -3 6 -8 10 -11 10 -2 0
-4 -4 -4 -10z"/>
<path d="M2271 6485 c0 -5 6 -19 14 -29 8 -11 15 -15 15 -10 0 6 -7 19 -15 30
-8 10 -14 15 -14 9z"/>
<path d="M1510 6456 c0 -18 36 -40 44 -27 3 5 -5 16 -19 25 -21 14 -25 14 -25
2z"/>
<path d="M1797 6455 c-3 -7 0 -12 8 -11 22 3 27 13 11 19 -8 3 -17 0 -19 -8z"/>
<path d="M1569 6396 c5 -64 8 -60 13 15 2 26 -1 46 -7 46 -6 0 -8 -24 -6 -61z"/>
<path d="M3580 6426 c0 -8 -7 -21 -15 -30 -8 -8 -11 -17 -6 -20 5 -4 17 1 25
10 18 17 22 54 6 54 -5 0 -10 -6 -10 -14z"/>
<path d="M1490 6395 c0 -22 2 -24 19 -13 15 9 17 15 9 25 -16 20 -28 15 -28
-12z"/>
<path d="M3646 6407 c3 -10 9 -15 12 -12 3 3 0 11 -7 18 -10 9 -11 8 -5 -6z"/>
<path d="M3649 6359 c-8 -16 -8 -24 2 -33 9 -8 10 -8 5 1 -4 7 -2 22 4 33 6
11 8 20 6 20 -3 0 -10 -9 -17 -21z"/>
<path d="M1514 6356 c-10 -8 -16 -17 -12 -21 7 -7 48 16 48 27 0 12 -14 9 -36
-6z"/>
<path d="M3393 6353 c9 -2 23 -2 30 0 6 3 -1 5 -18 5 -16 0 -22 -2 -12 -5z"/>
<path d="M3670 6353 c0 -4 5 -15 10 -23 8 -13 10 -13 10 2 0 9 -4 20 -10 23
-5 3 -10 3 -10 -2z"/>
<path d="M3586 6335 c3 -6 11 -12 18 -12 8 0 12 6 10 12 -3 6 -11 12 -18 12
-8 0 -12 -6 -10 -12z"/>
<path d="M3550 6321 c0 -5 5 -13 10 -16 6 -3 10 -2 10 4 0 5 -4 13 -10 16 -5
3 -10 2 -10 -4z"/>
<path d="M1510 6286 c0 -30 -4 -35 -27 -39 l-28 -4 28 -2 c16 0 36 -8 45 -17
15 -15 14 -16 -6 -10 -13 5 -22 3 -22 -3 0 -12 22 -13 59 -2 l23 6 -26 14
c-25 14 -28 21 -29 69 -1 36 -17 25 -17 -12z"/>
<path d="M3576 6293 c-6 -14 -5 -15 5 -6 7 7 10 15 7 18 -3 3 -9 -2 -12 -12z"/>
<path d="M3650 6261 c-22 -21 -23 -22 -3 -12 30 16 38 14 22 -6 -13 -15 -12
-15 9 -2 12 8 22 17 22 22 0 4 -4 6 -9 2 -5 -3 -11 0 -13 7 -2 9 -11 5 -28
-11z"/>
<path d="M1292 6245 c0 -16 2 -22 5 -12 2 9 2 23 0 30 -3 6 -5 -1 -5 -18z"/>
<path d="M3393 6248 c-13 -6 -23 -15 -23 -20 0 -5 9 -4 20 2 11 6 25 8 30 5 6
-3 7 1 4 9 -3 9 -7 16 -8 15 0 0 -11 -5 -23 -11z"/>
<path d="M3050 6240 c0 -5 9 -10 20 -10 11 0 20 5 20 10 0 6 -9 10 -20 10 -11
0 -20 -4 -20 -10z"/>
<path d="M1323 6205 c-14 -16 -16 -50 -3 -80 6 -17 9 -14 15 18 4 21 5 41 1
44 -3 3 -1 12 5 20 15 18 -3 16 -18 -2z"/>
<path d="M1598 6213 c7 -3 16 -2 19 1 4 3 -2 6 -13 5 -11 0 -14 -3 -6 -6z"/>
<path d="M2625 6210 c27 -12 43 -12 25 0 -8 5 -22 9 -30 9 -10 0 -8 -3 5 -9z"/>
<path d="M2997 6213 c-3 -5 -10 -172 -16 -373 -6 -201 -13 -407 -15 -457 l-4
-93 41 1 c53 1 159 16 130 18 -22 1 -23 5 -23 74 0 114 19 653 26 750 l6 87
-70 0 c-39 0 -73 -3 -75 -7z"/>
<path d="M1370 6195 c-7 -9 -8 -15 -2 -15 5 0 12 7 16 15 3 8 4 15 2 15 -2 0
-9 -7 -16 -15z"/>
<path d="M1392 6187 c-26 -27 -28 -39 -7 -31 8 4 15 12 15 20 0 13 14 19 70
27 15 3 9 5 -16 6 -31 1 -46 -5 -62 -22z"/>
<path d="M1830 6196 c0 -2 7 -6 15 -10 8 -3 15 -1 15 4 0 6 -7 10 -15 10 -8 0
-15 -2 -15 -4z"/>
<path d="M1185 6180 c-3 -5 -1 -10 4 -10 6 0 11 5 11 10 0 6 -2 10 -4 10 -3 0
-8 -4 -11 -10z"/>
<path d="M2543 6171 c-18 -12 -33 -26 -33 -31 0 -6 -4 -9 -9 -5 -5 3 -13 0
-17 -6 -4 -7 -3 -9 4 -6 6 5 9 -7 8 -35 -2 -35 3 -46 28 -71 17 -16 24 -25 16
-21 -10 5 -12 4 -5 -4 6 -6 28 -7 59 -2 60 9 92 43 99 104 3 32 0 46 -17 63
-31 33 -93 39 -133 14z m104 -103 c-3 -7 -5 -2 -5 12 0 14 2 19 5 13 2 -7 2
-19 0 -25z"/>
<path d="M1218 6163 c7 -3 16 -2 19 1 4 3 -2 6 -13 5 -11 0 -14 -3 -6 -6z"/>
<path d="M3272 6140 c0 -19 2 -27 5 -17 2 9 2 25 0 35 -3 9 -5 1 -5 -18z"/>
<path d="M3760 6136 c0 -2 8 -10 18 -17 15 -13 16 -12 3 4 -13 16 -21 21 -21
13z"/>
<path d="M1880 6120 c0 -5 5 -10 11 -10 5 0 7 5 4 10 -3 6 -8 10 -11 10 -2 0
-4 -4 -4 -10z"/>
<path d="M2450 6120 c-11 -7 -12 -12 -4 -20 8 -8 13 -6 17 9 3 12 4 21 4 21
-1 0 -9 -5 -17 -10z"/>
<path d="M1305 6092 c-11 -7 -18 -32 -10 -32 2 0 22 6 42 14 21 8 47 17 58 19
11 3 -2 5 -30 6 -27 0 -54 -3 -60 -7z"/>
<path d="M1343 6039 c-60 -19 -63 -21 -62 -52 0 -38 14 -125 20 -132 3 -2 23
0 44 5 22 5 52 11 68 15 16 3 27 12 28 23 0 14 2 14 8 -3 6 -15 10 -5 15 37 6
46 4 63 -10 88 -13 20 -20 26 -26 17 -5 -8 -8 -7 -8 6 0 21 0 21 -77 -4z"/>
<path d="M2506 6017 c3 -10 9 -15 12 -12 3 3 0 11 -7 18 -10 9 -11 8 -5 -6z"/>
<path d="M3778 5998 c-3 -7 -1 -35 4 -63 7 -47 31 -81 49 -70 7 5 4 58 -7 105
-8 35 -38 53 -46 28z"/>
<path d="M3281 5965 c0 -21 28 -78 29 -59 0 7 -7 27 -15 45 -10 24 -14 28 -14
14z"/>
<path d="M3372 5895 c9 -10 21 -16 28 -13 7 2 -1 10 -16 17 -27 12 -28 11 -12
-4z"/>
<path d="M1222 5870 c0 -19 2 -27 5 -17 2 9 2 25 0 35 -3 9 -5 1 -5 -18z"/>
<path d="M1181 5874 c0 -11 3 -14 6 -6 3 7 2 16 -1 19 -3 4 -6 -2 -5 -13z"/>
<path d="M1260 5856 c0 -20 2 -36 4 -36 8 0 12 61 4 66 -4 3 -8 -11 -8 -30z"/>
<path d="M3331 5853 c7 -12 15 -20 18 -17 3 2 -3 12 -13 22 -17 16 -18 16 -5
-5z"/>
<path d="M1410 5834 c-25 -7 -57 -14 -72 -14 -42 0 -42 -17 1 -27 42 -11 117
-10 129 1 10 11 -21 26 -43 21 -11 -3 -6 2 10 9 24 12 33 12 45 2 30 -26 44
-27 17 -2 -32 30 -28 29 -87 10z"/>
<path d="M3310 5800 c0 -5 -7 -10 -15 -10 -8 0 -15 -4 -15 -10 0 -5 13 -7 28
-4 21 4 36 -1 60 -21 18 -15 32 -32 32 -38 0 -6 -7 -1 -16 11 -36 52 -98 47
-135 -10 -29 -47 -20 -104 21 -140 38 -35 60 -35 99 -2 25 21 30 22 25 7 -5
-17 -4 -16 10 1 9 11 16 37 15 60 0 34 -2 37 -10 21 -7 -15 -8 -9 -5 22 3 32
-1 49 -16 68 -23 29 -78 61 -78 45z m5 -60 c-3 -5 -13 -10 -21 -10 -8 0 -14
-4 -14 -10 0 -13 13 -13 26 0 8 8 18 4 35 -10 l24 -20 -27 11 c-35 15 -58 -2
-58 -41 0 -57 60 -63 78 -7 8 27 10 28 11 9 2 -39 -17 -62 -49 -62 -37 0 -51
25 -47 82 3 50 12 68 33 68 8 0 12 -4 9 -10z"/>
<path d="M3254 5762 c-11 -7 -38 -52 -31 -52 2 0 13 14 25 30 24 31 24 35 6
22z"/>
<path d="M1277 5744 c-4 -4 -7 -14 -7 -23 0 -11 3 -12 11 -4 6 6 10 16 7 23
-2 6 -7 8 -11 4z"/>
<path d="M1681 5663 c-10 -23 -9 -30 8 -54 12 -16 21 -40 21 -54 0 -15 4 -24
10 -20 6 3 7 18 4 32 -6 21 -4 25 9 20 34 -13 64 62 35 91 -7 7 -26 12 -43 12
-25 0 -35 -6 -44 -27z"/>
<path d="M1528 5573 c7 -3 16 -2 19 1 4 3 -2 6 -13 5 -11 0 -14 -3 -6 -6z"/>
<path d="M3491 5544 c0 -11 3 -14 6 -6 3 7 2 16 -1 19 -3 4 -6 -2 -5 -13z"/>
<path d="M3397 5379 c7 -7 15 -10 18 -7 3 3 -2 9 -12 12 -14 6 -15 5 -6 -5z"/>
<path d="M3245 5368 c-4 -10 -13 -18 -20 -18 -7 0 -15 -6 -18 -14 -3 -8 -16
-17 -29 -20 -13 -2 -1 -3 26 -1 36 3 46 1 38 -7 -8 -8 -7 -15 4 -25 12 -12 12
-18 2 -30 -9 -11 -9 -16 0 -22 8 -5 5 -15 -9 -36 -11 -17 -36 -61 -56 -99 -43
-85 -79 -141 -115 -181 -25 -27 -27 -28 -23 -7 2 12 7 27 11 33 8 13 1 9 -63
-34 -41 -28 -118 -54 -107 -36 3 5 0 9 -6 9 -6 0 -9 4 -6 9 4 5 -3 7 -14 4
-11 -3 -20 -10 -20 -15 0 -5 -12 -8 -27 -6 -22 2 -29 9 -31 31 -2 15 -7 27
-11 27 -5 0 -14 28 -21 63 -7 34 -22 93 -33 130 -20 65 -21 70 -4 82 10 7 15
19 11 29 -4 10 0 18 10 22 21 8 20 27 -2 47 -33 30 -60 17 -79 -38 -8 -24 -6
-36 8 -60 10 -16 18 -42 18 -56 1 -15 8 -29 16 -33 8 -3 15 -13 15 -22 0 -13
-3 -14 -15 -4 -11 9 -15 9 -15 1 0 -7 -4 -10 -9 -7 -5 4 -20 2 -33 -4 -18 -8
-19 -9 -3 -7 11 1 25 -4 31 -12 10 -13 15 -13 27 -2 9 7 21 10 27 6 13 -8 13
-42 1 -50 -6 -3 -6 -17 0 -35 8 -23 7 -34 -5 -52 -18 -25 -22 -88 -6 -88 5 0
13 12 16 26 7 26 7 25 20 -12 18 -51 17 -57 -5 -83 -27 -31 -37 -81 -20 -92
10 -6 19 2 32 31 10 22 22 40 27 40 15 0 12 -130 -5 -210 -8 -39 -30 -135 -49
-213 -19 -78 -38 -163 -41 -189 -4 -27 -11 -48 -15 -48 -4 0 -7 -13 -6 -29 1
-16 3 -27 6 -25 7 7 39 114 56 188 14 59 18 67 27 50 18 -30 39 -87 41 -111 2
-13 5 -26 9 -29 4 -4 4 -18 1 -30 -4 -15 -2 -24 5 -24 6 0 11 -5 11 -11 0 -6
13 -29 29 -52 l29 -42 -24 -18 c-22 -16 -24 -16 -24 -1 0 13 -3 14 -14 5 -11
-9 -14 -7 -15 11 -1 63 -14 148 -22 148 -5 0 -9 -6 -9 -12 0 -17 28 -228 40
-303 5 -33 9 -139 8 -235 0 -119 3 -183 11 -198 7 -12 9 -27 5 -33 -4 -6 0
-15 7 -20 23 -14 32 -10 18 8 -12 14 -12 16 1 11 8 -2 21 -15 27 -29 7 -13 13
-20 13 -16 0 5 16 -8 35 -29 19 -20 35 -32 35 -25 0 8 5 9 19 1 29 -15 38 -12
15 6 -18 14 -18 15 4 4 12 -6 22 -15 22 -20 0 -18 81 -69 133 -84 75 -21 165
-22 209 -3 21 10 41 17 45 17 17 0 64 53 59 66 -6 17 19 87 45 124 10 14 20
36 23 50 5 19 2 17 -13 -10 -11 -19 -26 -47 -34 -63 -7 -15 -17 -24 -21 -20
-4 5 -7 4 -6 -2 1 -5 2 -21 1 -35 -1 -20 -3 -22 -11 -10 -9 15 -25 7 -25 -13
0 -6 -15 -16 -33 -21 -20 -5 -39 -20 -47 -37 -8 -15 -28 -32 -45 -38 -24 -8
-29 -7 -24 2 5 9 4 9 -6 0 -17 -15 -79 -5 -109 19 -13 10 -32 18 -43 18 -11 0
-17 4 -14 8 6 10 -4 24 -29 38 -11 6 -22 23 -25 37 -3 15 -13 36 -22 47 -14
16 -15 20 -4 20 8 0 16 -6 19 -12 6 -19 14 -8 22 31 7 33 6 34 -9 18 -16 -16
-46 -24 -46 -12 0 9 55 32 68 28 7 -3 12 3 12 14 0 11 -6 25 -12 32 -11 10 -9
11 6 5 12 -5 17 -4 13 3 -9 15 56 82 93 94 47 17 134 78 143 101 5 14 13 19
27 15 11 -3 18 -1 15 3 -9 14 46 59 107 88 l58 27 -3 74 c-1 49 -6 76 -15 79
-8 2 -10 -3 -6 -15 5 -15 4 -15 -5 -3 -21 29 -13 84 36 249 20 66 23 89 14
103 -6 10 -11 26 -12 35 0 16 -1 15 -9 -2 -5 -13 -32 -29 -76 -44 -38 -13
-130 -57 -204 -97 -242 -129 -275 -146 -250 -125 30 25 21 27 -23 6 -24 -12
-28 -12 -14 -2 22 18 22 23 -4 30 -16 4 -19 11 -14 26 3 12 -3 40 -16 67 -12
27 -23 65 -25 85 -2 20 -10 56 -18 78 -12 35 -12 40 0 30 8 -6 14 -17 14 -24
0 -7 8 -16 18 -19 30 -11 62 -32 93 -62 16 -15 31 -25 34 -22 4 3 -7 16 -22
28 -15 12 -28 26 -28 31 0 5 -12 21 -26 36 -38 41 -53 73 -40 86 16 16 13 27
-6 27 -22 -1 -48 -20 -55 -40 -3 -10 -6 -8 -10 8 -4 14 -2 22 7 22 7 0 21 12
31 26 17 23 50 44 79 50 48 9 64 22 48 38 -5 4 -8 11 -9 14 0 4 -4 14 -7 22
-7 14 -42 116 -54 154 -8 24 15 38 41 24 19 -10 20 -10 6 7 -14 16 -13 17 5
12 96 -27 105 -16 27 33 l-47 29 36 -5 c35 -6 36 -5 32 19 -4 19 4 35 36 67
22 23 38 46 36 51 -3 4 -2 16 3 26 25 51 61 130 66 146 5 14 10 16 25 7 25
-13 31 -13 31 0 0 6 -7 10 -15 10 -8 0 -15 5 -15 10 0 6 4 10 9 10 5 0 13 9
16 20 4 11 10 18 15 15 7 -4 55 94 48 99 -2 1 -22 8 -45 16 -34 10 -40 16 -32
26 6 7 9 19 6 26 -3 9 -7 8 -12 -4z m31 -77 c-4 -5 -1 -12 4 -14 6 -3 5 -4 -2
-3 -15 3 -23 26 -8 26 6 0 9 -4 6 -9z m-572 -26 c-8 -13 -12 -30 -8 -37 5 -10
4 -10 -5 -2 -16 14 -4 64 15 64 12 0 12 -4 -2 -25z m316 -390 c-7 -9 -15 -13
-17 -11 -6 6 20 36 26 30 2 -2 -2 -10 -9 -19z m-87 -746 c-6 -6 -9 -18 -6 -25
6 -15 -12 -19 -22 -5 -5 9 20 41 33 41 3 0 1 -5 -5 -11z m441 -49 c49 -18 43
-69 -31 -295 -43 -132 -53 -148 -110 -182 -37 -21 -53 -25 -99 -21 -67 6 -101
29 -132 89 -22 44 -22 47 -7 124 18 95 22 100 175 196 172 108 164 105 204 89z
m-384 -75 c0 -2 -10 -9 -22 -15 -22 -11 -22 -10 -4 4 21 17 26 19 26 11z m-50
-30 c0 -2 -13 -11 -30 -20 -38 -19 -40 -11 -2 9 31 17 32 18 32 11z m-70 -39
c0 -2 -7 -7 -16 -10 -8 -3 -12 -2 -9 4 6 10 25 14 25 6z m105 -406 c13 -6 15
-9 5 -9 -8 0 -22 4 -30 9 -18 12 -2 12 25 0z m42 -142 c-3 -8 -6 -5 -6 6 -1
11 2 17 5 13 3 -3 4 -12 1 -19z"/>
<path d="M3290 4005 c-10 -12 -10 -18 0 -30 20 -25 55 -15 55 15 0 30 -35 40
-55 15z"/>
<path d="M3087 3802 c-44 -46 -34 -108 24 -137 93 -48 180 95 90 148 -43 25
-83 22 -114 -11z"/>
<path d="M2560 5359 c0 -5 5 -7 10 -4 6 3 10 8 10 11 0 2 -4 4 -10 4 -5 0 -10
-5 -10 -11z"/>
<path d="M3283 5355 c0 -8 4 -12 9 -9 5 3 6 10 3 15 -9 13 -12 11 -12 -6z"/>
<path d="M3402 5332 c-10 -7 -8 -12 6 -25 16 -15 19 -15 19 -2 0 8 -4 15 -9
15 -5 0 -6 5 -3 10 7 12 4 12 -13 2z"/>
<path d="M2844 5319 c-4 -6 -19 -9 -38 -5 -20 4 -26 3 -16 -3 8 -5 49 -11 90
-14 64 -5 69 -5 33 4 -24 6 -43 14 -43 20 0 13 -17 11 -26 -2z"/>
<path d="M3505 5320 c-3 -5 -2 -10 4 -10 5 0 13 5 16 10 3 6 2 10 -4 10 -5 0
-13 -4 -16 -10z"/>
<path d="M3860 5315 c1 -6 7 -21 16 -35 l15 -25 -7 25 c-7 26 -24 52 -24 35z"/>
<path d="M2208 5303 c-26 -7 -22 -25 5 -22 12 2 28 0 35 -5 11 -7 11 -4 0 13
-7 12 -15 20 -18 20 -3 -1 -13 -3 -22 -6z"/>
<path d="M2546 5295 c-9 -9 -16 -22 -16 -28 0 -6 10 -2 22 11 12 12 19 24 16
27 -3 3 -13 -1 -22 -10z"/>
<path d="M2445 5290 c3 -5 8 -10 11 -10 2 0 4 5 4 10 0 6 -5 10 -11 10 -5 0
-7 -4 -4 -10z"/>
<path d="M2576 5283 c-6 -14 -5 -15 5 -6 7 7 10 15 7 18 -3 3 -9 -2 -12 -12z"/>
<path d="M3340 5298 c0 -4 9 -22 19 -40 11 -17 18 -35 15 -40 -3 -4 0 -8 5 -8
20 0 11 38 -14 67 -13 15 -25 25 -25 21z"/>
<path d="M2606 5264 c-14 -15 -26 -30 -26 -35 0 -4 -3 -16 -7 -26 -6 -16 -5
-16 8 -3 8 8 20 27 26 43 7 15 19 27 28 27 8 0 15 5 15 10 0 17 -16 11 -44
-16z"/>
<path d="M3547 5248 c-8 -13 -27 -36 -41 -52 -14 -16 -24 -31 -22 -34 7 -6 60
48 75 76 17 32 8 39 -12 10z"/>
<path d="M3320 5241 c0 -5 5 -13 10 -16 6 -3 10 -2 10 4 0 5 -4 13 -10 16 -5
3 -10 2 -10 -4z"/>
<path d="M3881 5234 c0 -11 3 -14 6 -6 3 7 2 16 -1 19 -3 4 -6 -2 -5 -13z"/>
<path d="M3486 5098 l-17 -33 20 24 c18 20 27 41 18 41 -1 0 -11 -15 -21 -32z"/>
<path d="M3425 5074 c-9 -14 -14 -28 -12 -31 3 -3 13 9 22 26 19 38 14 41 -10
5z"/>
<path d="M1964 5076 c-8 -22 14 -56 37 -56 17 0 20 5 17 33 -2 24 -8 33 -26
35 -13 2 -24 -3 -28 -12z"/>
<path d="M2030 5081 c0 -6 4 -13 10 -16 6 -3 7 1 4 9 -7 18 -14 21 -14 7z"/>
<path d="M3898 5055 c-3 -14 -1 -28 3 -31 5 -3 9 9 9 25 0 38 -6 40 -12 6z"/>
<path d="M2490 5055 c0 -5 5 -17 10 -25 5 -8 10 -10 10 -5 0 6 -5 17 -10 25
-5 8 -10 11 -10 5z"/>
<path d="M2050 5014 c0 -8 5 -12 10 -9 6 4 8 11 5 16 -9 14 -15 11 -15 -7z"/>
<path d="M3385 4999 c-9 -17 -14 -33 -11 -36 3 -3 10 7 16 22 6 15 13 32 16
36 3 5 3 9 0 9 -3 0 -13 -14 -21 -31z"/>
<path d="M1940 5014 c0 -5 7 -18 15 -28 8 -11 15 -16 15 -10 0 5 -7 18 -15 28
-8 11 -15 16 -15 10z"/>
<path d="M2701 4961 c-8 -6 -9 -11 -3 -15 6 -3 14 -1 17 5 9 14 2 20 -14 10z"/>
<path d="M1982 4944 c10 -10 20 -16 22 -13 3 3 -5 11 -17 18 -21 13 -21 12 -5
-5z"/>
<path d="M3890 4953 c-1 -17 -29 -169 -35 -188 -4 -11 2 -7 13 10 13 20 22 56
26 108 4 42 4 77 1 77 -3 0 -5 -3 -5 -7z"/>
<path d="M2497 4918 c-3 -11 1 -30 9 -42 13 -19 14 -19 14 16 0 42 -15 59 -23
26z"/>
<path d="M3527 4917 c-19 -29 -22 -47 -7 -47 13 0 32 38 28 58 -2 12 -7 10
-21 -11z"/>
<path d="M2625 4785 c-20 -9 -24 -14 -12 -14 9 -1 17 -8 17 -16 0 -12 5 -13
27 -4 33 12 46 31 30 41 -16 11 -27 9 -62 -7z"/>
<path d="M3497 4730 c-13 -16 -14 -20 -2 -30 18 -15 35 -5 35 20 0 27 -14 32
-33 10z"/>
<path d="M2506 4725 c4 -8 8 -15 10 -15 2 0 4 7 4 15 0 8 -4 15 -10 15 -5 0
-7 -7 -4 -15z"/>
<path d="M3328 4666 c-3 -15 0 -27 8 -30 16 -6 19 21 5 42 -6 10 -10 7 -13
-12z"/>
<path d="M2970 4454 c0 -8 5 -12 10 -9 6 3 10 10 10 16 0 5 -4 9 -10 9 -5 0
-10 -7 -10 -16z"/>
<path d="M3561 4414 c0 -11 3 -14 6 -6 3 7 2 16 -1 19 -3 4 -6 -2 -5 -13z"/>
<path d="M1951 4407 c2 -2 18 -11 34 -21 l30 -17 -24 20 c-13 12 -28 21 -34
21 -6 0 -8 -1 -6 -3z"/>
<path d="M2941 4274 c0 -11 3 -14 6 -6 3 7 2 16 -1 19 -3 4 -6 -2 -5 -13z"/>
<path d="M1896 4258 c-8 -18 26 -93 55 -121 11 -10 17 -22 14 -28 -4 -5 -1 -9
4 -9 16 0 14 8 -23 74 -19 34 -36 70 -38 81 -4 17 -6 18 -12 3z"/>
<path d="M2970 4080 c0 -5 5 -10 11 -10 5 0 7 5 4 10 -3 6 -8 10 -11 10 -2 0
-4 -4 -4 -10z"/>
<path d="M2637 4063 c-2 -4 -7 -21 -10 -38 -6 -30 -6 -30 9 4 8 18 13 35 11
38 -3 2 -7 1 -10 -4z"/>
<path d="M2820 4002 c0 -5 7 -15 15 -22 8 -7 15 -8 15 -2 0 5 -7 15 -15 22 -8
7 -15 8 -15 2z"/>
<path d="M2410 3946 c-27 -33 18 -72 48 -42 13 13 14 20 6 34 -15 23 -38 26
-54 8z"/>
<path d="M2048 3943 c7 -3 16 -2 19 1 4 3 -2 6 -13 5 -11 0 -14 -3 -6 -6z"/>
<path d="M2010 3860 c0 -5 5 -10 10 -10 6 0 10 5 10 10 0 6 -4 10 -10 10 -5 0
-10 -4 -10 -10z"/>
<path d="M1987 3833 c-4 -3 -7 -11 -7 -17 0 -6 5 -5 12 2 6 6 9 14 7 17 -3 3
-9 2 -12 -2z"/>
<path d="M2536 3758 c-32 -45 -11 -148 29 -148 19 0 46 65 43 104 -3 33 -25
66 -45 66 -6 0 -19 -10 -27 -22z"/>
<path d="M1967 3382 c-4 -6 -14 -9 -21 -6 -18 7 -29 -12 -19 -30 7 -13 12 -12
32 3 13 10 22 24 19 32 -3 9 -6 10 -11 1z"/>
<path d="M1960 3301 c0 -25 6 -27 13 -6 4 8 2 17 -3 20 -6 4 -10 -3 -10 -14z"/>
<path d="M2826 3277 c-3 -12 -6 -33 -6 -47 l0 -25 15 29 c17 32 19 52 6 60 -5
3 -11 -4 -15 -17z"/>
<path d="M1871 3255 c0 -11 11 -31 24 -44 14 -13 25 -29 25 -37 0 -8 4 -14 9
-14 6 0 24 -28 41 -62 54 -108 60 -117 91 -139 17 -11 32 -19 35 -17 2 3 -7
11 -21 18 -40 22 -29 32 13 11 44 -23 138 -38 127 -22 -4 7 5 11 24 11 48 0
37 -17 -16 -25 -34 -5 -43 -9 -32 -16 17 -9 119 18 131 36 4 5 8 0 8 -12 0
-13 4 -23 9 -23 14 0 121 104 121 118 0 7 7 27 16 43 23 45 12 45 -34 1 -64
-61 -131 -102 -169 -102 -26 0 -33 4 -33 19 0 26 -18 37 -73 45 -38 6 -48 4
-53 -8 -10 -25 -27 -19 -73 24 -34 32 -39 41 -27 46 16 6 23 34 8 34 -5 0 -14
12 -20 26 -7 14 -17 22 -23 18 -8 -4 -10 7 -6 37 3 24 4 36 1 26 -4 -11 -12
-16 -20 -13 -9 3 -14 -1 -14 -14 0 -11 -4 -20 -8 -20 -11 0 -48 41 -55 60 -4
11 -6 9 -6 -5z m116 -117 c-3 -8 -6 -5 -6 6 -1 11 2 17 5 13 3 -3 4 -12 1 -19z"/>
<path d="M2893 3255 c-6 -7 -9 -16 -6 -19 4 -3 1 -6 -5 -6 -7 0 -12 5 -12 10
0 6 -4 10 -10 10 -19 0 -10 -22 11 -27 15 -4 17 -8 8 -14 -9 -5 -6 -13 12 -28
34 -30 167 -92 165 -77 -2 16 -103 116 -117 116 -5 0 -7 5 -3 11 4 7 1 10 -7
7 -8 -3 -13 -12 -11 -19 3 -12 1 -12 -10 -1 -11 11 -10 16 5 26 13 10 14 15 5
19 -7 2 -18 -1 -25 -8z"/>
<path d="M3178 3213 c12 -2 30 -2 40 0 9 3 -1 5 -23 4 -22 0 -30 -2 -17 -4z"/>
<path d="M2792 3183 c-28 -24 -48 -152 -45 -297 1 -103 3 -111 30 -150 29 -41
29 -42 21 -133 l-9 -92 30 -41 c16 -23 32 -41 35 -41 3 1 9 0 14 0 4 -1 14 -1
24 0 9 1 19 -2 22 -8 3 -5 -4 -7 -16 -5 -13 2 -18 2 -11 -2 7 -3 9 -12 6 -20
-3 -9 5 -18 26 -25 33 -12 42 -29 15 -29 -8 0 -12 5 -9 10 11 17 -17 11 -32
-7 -8 -11 -11 -12 -7 -3 7 13 5 13 -9 1 -9 -7 -18 -11 -18 -7 -3 12 -6 21 -14
39 -5 11 -3 23 5 30 10 9 11 9 6 -1 -8 -13 9 -42 24 -42 11 0 -1 48 -15 60
-18 15 -39 -14 -32 -46 5 -27 -3 -28 -60 -7 -10 3 -15 3 -11 -2 4 -4 4 -13 -1
-19 -4 -6 -11 -45 -15 -86 -21 -248 -27 -278 -62 -318 -66 -74 -77 -83 -85
-70 -6 10 -12 8 -23 -7 -9 -11 -16 -25 -16 -31 0 -5 -6 -22 -12 -37 -10 -20
-18 -25 -33 -20 -17 5 -18 4 -6 -11 7 -9 9 -16 3 -16 -5 0 -15 7 -22 15 -7 8
-16 13 -20 10 -4 -2 -16 5 -26 18 -10 12 -12 16 -4 10 24 -22 27 -15 15 35 -8
31 -19 50 -33 57 -22 10 -24 16 -24 63 0 20 -1 20 -5 2 -8 -38 -26 -21 -20 20
5 42 -5 52 -22 23 -15 -27 -16 -12 -7 112 4 44 11 107 16 140 7 38 7 77 1 105
l-9 45 0 -45 c0 -25 -7 -76 -16 -115 -9 -38 -16 -89 -16 -112 0 -29 -4 -42
-12 -40 -8 1 -13 -8 -13 -24 0 -14 -8 -33 -17 -43 -11 -10 -17 -30 -16 -49 1
-18 -9 -68 -21 -112 -12 -44 -22 -103 -22 -131 1 -39 -5 -59 -21 -80 -14 -19
-16 -24 -5 -15 16 13 17 7 17 -76 0 -49 -4 -93 -9 -99 -5 -5 -5 -19 2 -34 9
-22 12 -17 19 45 5 39 10 116 12 172 2 73 7 108 17 120 32 38 49 74 49 103 0
16 5 30 10 30 16 0 60 -31 60 -41 0 -21 96 -126 136 -149 30 -17 42 -30 39
-41 -7 -20 59 -74 77 -63 6 4 8 3 4 -4 -3 -6 29 -29 80 -56 72 -39 111 -51
236 -77 83 -17 218 -51 302 -76 142 -42 163 -45 336 -55 204 -12 272 -5 332
35 30 20 33 28 36 76 2 30 1 60 -3 69 -5 13 -8 13 -24 -2 -21 -20 -111 -36
-197 -36 l-61 0 -12 -40 c-14 -47 -20 -52 -60 -44 -28 6 -31 10 -31 45 0 33
-4 40 -25 45 -20 5 -30 0 -46 -20 -25 -32 -66 -37 -49 -7 7 14 7 22 -2 27 -7
4 -8 3 -4 -4 9 -15 1 -15 -24 -2 -10 5 -33 12 -51 14 -19 3 -45 8 -59 11 -19
4 -16 1 8 -10 18 -9 38 -12 45 -9 9 5 9 4 1 -5 -8 -9 -22 -7 -60 8 -27 11 -45
20 -40 20 5 1 3 8 -4 16 -7 9 -20 13 -29 10 -11 -3 -32 11 -60 39 -32 33 -39
43 -23 40 14 -4 24 1 32 15 14 27 8 37 -26 45 -32 8 -49 -10 -31 -34 9 -12 9
-13 -3 -3 -15 14 -22 56 -8 47 15 -10 8 2 -13 19 -20 18 -21 18 -15 -5 4 -13
-5 1 -19 30 -13 30 -29 51 -34 48 -5 -4 -13 -1 -17 5 -4 7 -3 9 3 6 6 -4 14 0
17 9 3 8 2 12 -4 9 -20 -13 -9 9 18 33 25 24 27 31 30 126 4 116 0 124 -73
164 -33 18 -49 34 -52 50 -2 13 1 21 5 18 5 -3 23 4 41 15 18 11 36 17 41 14
5 -3 11 -1 15 5 4 6 16 5 34 -4 46 -24 78 -13 66 23 -6 19 -8 19 -21 6 -19
-19 -38 -19 -54 0 -6 8 -15 13 -19 12 -9 -2 -61 57 -61 69 0 4 5 3 12 -4 7 -7
20 -12 30 -12 10 0 18 -4 18 -10 0 -8 51 -40 64 -40 3 0 3 7 0 15 -6 14 7 20
31 15 35 -7 145 -7 145 0 0 4 -39 13 -87 20 -92 13 -183 38 -183 52 0 11 18
10 25 -2 3 -5 12 -10 18 -10 7 0 -1 9 -18 20 -16 11 -38 20 -47 20 -10 0 -18
5 -18 10 0 6 12 10 26 10 17 0 28 6 31 20 3 11 10 20 15 20 5 0 6 -4 3 -10 -3
-5 1 -10 9 -10 9 0 16 -4 16 -10 0 -5 5 -10 11 -10 6 0 8 7 5 16 -5 14 -1 16
26 11 18 -3 47 1 63 8 l30 13 -25 9 c-14 6 -63 13 -110 17 -96 7 -126 13 -155
33 -16 11 -17 13 -3 13 9 0 18 -5 20 -11 2 -7 16 -5 40 8 25 14 34 24 28 33
-4 7 -13 9 -20 5 -9 -5 -11 -4 -6 3 4 7 2 12 -4 12 -6 0 -13 -7 -16 -15 -7
-17 -64 -21 -64 -4 0 6 9 8 21 4 21 -7 69 27 69 50 0 6 12 12 28 13 15 1 29 7
30 12 2 6 8 8 13 4 5 -3 14 -2 20 2 6 4 82 7 168 7 l157 1 -4 28 c-2 16 3 39
12 53 22 34 20 36 -14 18 -24 -12 -60 -14 -170 -11 -83 2 -143 7 -150 14 -12
12 36 54 92 80 l33 15 -48 -6 c-37 -5 -48 -3 -46 7 2 7 0 37 -4 66 -10 69 3
87 63 88 25 0 61 8 80 16 34 15 32 16 -62 12 -90 -4 -97 -3 -91 13 5 14 3 15
-6 7 -7 -7 -21 -61 -32 -120 -10 -60 -19 -111 -19 -114 -1 -3 -5 4 -10 15 -6
14 -9 -5 -9 -57 l-1 -78 -44 0 c-26 0 -46 -5 -49 -12 -3 -7 -6 -1 -6 14 -1 15
-5 29 -9 32 -4 2 -8 17 -7 33 0 15 -4 31 -10 35 -6 5 -6 8 2 8 6 0 2 10 -9 23
-12 13 -29 44 -38 68 -11 28 -27 49 -44 57 -19 10 -26 20 -24 35 2 12 9 21 16
20 17 -4 15 12 -3 31 -13 13 -13 18 3 45 9 17 20 31 25 31 4 0 7 5 7 11 0 6
-8 8 -18 5 -24 -8 -26 24 -3 41 9 7 13 13 10 13 -4 0 -16 -8 -27 -17z m63
-343 c3 -5 1 -10 -4 -10 -6 0 -11 5 -11 10 0 6 2 10 4 10 3 0 8 -4 11 -10z m9
-35 c3 -8 1 -15 -4 -15 -6 0 -10 7 -10 15 0 8 2 15 4 15 2 0 6 -7 10 -15z
m185 -17 c-1 -18 -5 -46 -9 -63 -6 -24 -8 -17 -9 33 0 35 3 62 9 62 6 0 9 -15
9 -32z m-264 -18 c7 -22 6 -23 -9 -11 -9 7 -16 23 -16 34 0 26 15 12 25 -23z
m521 -60 c24 -8 39 -8 54 0 19 10 21 9 18 -7 -5 -27 -95 -39 -186 -23 -39 6
-72 16 -72 20 0 5 14 6 30 4 17 -3 30 -1 30 4 0 13 88 14 126 2z m-176 -30
c20 -6 21 -8 5 -8 -11 0 -29 3 -40 8 -25 11 1 11 35 0z m-215 -41 c9 -14 -4
-27 -13 -13 -4 6 -14 14 -22 17 -10 4 -8 6 7 6 12 1 25 -4 28 -10z m-45 -90
c0 -5 -6 -9 -12 -9 -7 0 -23 -3 -35 -6 -29 -8 -32 20 -6 49 17 18 18 18 35 -3
10 -12 18 -26 18 -31z m-36 -65 c5 -14 4 -15 -9 -4 -17 14 -19 20 -6 20 5 0
12 -7 15 -16z m136 -84 c0 -5 -2 -10 -4 -10 -3 0 -8 5 -11 10 -3 6 -1 10 4 10
6 0 11 -4 11 -10z m-190 -281 c0 -18 -2 -19 -15 -5 -8 8 -15 17 -15 20 0 3 7
6 15 6 9 0 15 -9 15 -21z m48 -34 c-3 -3 -9 2 -12 12 -6 14 -5 15 5 6 7 -7 10
-15 7 -18z m159 -41 c-3 -3 -12 -4 -19 -1 -8 3 -5 6 6 6 11 1 17 -2 13 -5z
m-190 -116 c-3 -8 -6 -5 -6 6 -1 11 2 17 5 13 3 -3 4 -12 1 -19z m26 -8 c-3
-11 -7 -20 -9 -20 -2 0 -4 9 -4 20 0 11 4 20 9 20 5 0 7 -9 4 -20z m-438 0
c-3 -5 -12 -10 -18 -10 -7 0 -6 4 3 10 19 12 23 12 15 0z m470 -30 c3 -5 1
-10 -4 -10 -6 0 -11 5 -11 10 0 6 2 10 4 10 3 0 8 -4 11 -10z m-48 -14 c-4
-10 1 -13 16 -10 12 2 16 2 10 -2 -7 -3 -13 -15 -14 -27 0 -12 -3 -16 -6 -9
-4 9 -8 10 -18 2 -11 -9 -12 -6 -8 12 8 38 12 48 19 48 3 0 4 -6 1 -14z m71
-14 c-12 -5 -15 -11 -8 -22 5 -8 14 -16 20 -16 5 -1 20 -3 33 -4 19 -2 18 -3
-8 -10 -24 -6 -26 -8 -7 -9 12 0 22 -5 22 -9 0 -19 -14 -20 -38 -4 -14 9 -29
15 -32 12 -3 -3 -6 12 -8 33 -3 33 -1 37 20 36 18 0 20 -2 6 -7z m29 -18 c-3
-3 -12 -4 -19 -1 -8 3 -5 6 6 6 11 1 17 -2 13 -5z m58 -14 c3 -5 -4 -6 -15 -3
-11 3 -22 9 -25 13 -3 5 4 6 15 3 11 -3 22 -9 25 -13z m29 -16 c4 -10 2 -13
-6 -8 -8 5 -9 1 -4 -12 6 -15 5 -16 -5 -7 -10 10 -15 9 -26 -5 -9 -11 -12 -12
-7 -2 6 12 34 47 40 49 1 1 5 -6 8 -15z m-520 -55 c-2 -4 2 -9 8 -12 7 -2 10
-7 7 -11 -3 -3 -13 2 -22 12 -14 15 -15 19 -2 19 8 0 12 -4 9 -8z m766 -239
c0 -5 -4 -10 -10 -10 -5 0 -10 5 -10 10 0 6 5 10 10 10 6 0 10 -4 10 -10z
m-160 -22 c10 -6 6 -7 -15 -3 -16 4 -34 11 -40 17 -12 12 31 1 55 -14z m320
-38 c18 -12 2 -12 -25 0 -13 6 -15 9 -5 9 8 0 22 -4 30 -9z"/>
<path d="M3311 3184 c-7 -8 -11 -17 -9 -20 3 -2 13 5 23 16 10 11 14 20 9 20
-5 -1 -15 -8 -23 -16z"/>
<path d="M3469 3147 c-9 -12 -20 -33 -24 -47 -4 -14 -13 -31 -19 -39 -8 -11
-8 -13 1 -7 17 10 66 93 61 105 -1 5 -10 -1 -19 -12z"/>
<path d="M3090 3102 c0 -5 21 -15 46 -21 53 -14 73 -7 22 7 -18 5 -41 13 -50
17 -10 4 -18 3 -18 -3z"/>
<path d="M1868 3043 c-4 -37 -8 -35 -23 13 -5 15 -9 14 -30 -6 l-25 -23 23
-16 c12 -9 40 -15 62 -14 28 1 47 -5 63 -20 12 -11 22 -17 22 -12 0 18 -52 95
-70 105 -17 9 -19 6 -22 -27z"/>
<path d="M3054 3045 c-3 -8 -4 -20 -2 -27 3 -7 7 -1 10 15 6 29 1 36 -8 12z"/>
<path d="M3115 2991 c-3 -7 -3 -11 2 -10 4 1 11 0 16 -1 4 -1 10 -3 15 -4 4
-1 18 -8 30 -15 30 -16 38 -9 15 12 -24 21 -69 31 -78 18z"/>
<path d="M3042 2970 c0 -14 2 -19 5 -12 2 6 2 18 0 25 -3 6 -5 1 -5 -13z"/>
<path d="M1810 2945 c-13 -14 -26 -23 -28 -20 -3 3 -13 -12 -22 -33 -14 -32
-17 -65 -15 -183 3 -198 2 -188 30 -199 30 -12 36 -51 6 -45 -14 2 -18 -3 -18
-20 0 -18 4 -21 20 -17 14 3 18 1 13 -7 -4 -6 -11 -9 -16 -6 -5 3 -11 1 -14
-3 -8 -14 -9 -75 -1 -97 5 -16 5 -17 -4 -5 -14 20 -18 13 -26 -50 -7 -60 -15
-79 -15 -37 0 14 -4 28 -8 31 -5 3 -6 -9 -4 -26 3 -20 1 -29 -6 -24 -7 4 -13
-13 -17 -47 -7 -58 -19 -86 -32 -74 -4 5 -1 12 7 17 11 7 11 10 2 10 -7 0 -17
-12 -23 -27 -6 -15 -13 -30 -17 -33 -4 -3 -17 -27 -30 -54 -13 -27 -34 -58
-48 -68 -13 -11 -24 -26 -24 -34 0 -8 -5 -14 -11 -14 -6 0 -9 -7 -6 -14 4 -11
1 -13 -11 -9 -9 3 -14 3 -10 -2 4 -4 3 -14 -3 -21 -7 -8 -7 -14 1 -19 5 -3 10
-12 10 -18 0 -7 -4 -6 -10 3 -5 8 -12 11 -16 8 -3 -4 3 -19 15 -34 25 -31 26
-52 6 -78 -9 -12 -15 -40 -14 -70 1 -41 3 -46 9 -26 8 25 8 25 9 2 1 -13 5
-21 10 -18 4 3 17 -10 27 -29 10 -19 21 -35 25 -35 4 0 10 -8 13 -17 4 -10 15
-34 26 -53 29 -53 23 -59 -16 -15 l-36 40 41 -60 c28 -43 41 -73 43 -105 3
-39 6 -45 25 -43 23 3 24 -12 8 -138 -12 -95 37 -163 160 -220 33 -15 85 -31
115 -34 30 -4 59 -9 63 -12 14 -8 139 18 183 39 22 10 55 33 72 51 32 33 32
34 35 148 2 110 1 115 -25 154 -33 47 -35 43 -8 -16 11 -24 20 -66 20 -93 0
-42 -2 -47 -15 -36 -20 17 -29 -8 -21 -54 8 -43 -1 -83 -20 -90 -9 -3 -12 -1
-9 4 3 6 0 10 -7 10 -8 0 -19 14 -25 31 l-12 31 -63 -6 c-35 -3 -103 -2 -152
3 -49 5 -97 6 -107 4 -10 -3 -23 -20 -29 -39 l-12 -34 -29 17 c-17 10 -27 23
-24 31 3 8 0 10 -6 6 -9 -5 -10 6 -5 39 7 47 -4 68 -27 48 -10 -8 -12 -2 -9
24 2 19 8 35 13 35 6 0 6 8 0 19 -6 10 -11 44 -12 74 -1 31 -5 54 -10 52 -8
-6 -9 112 -1 134 7 20 31 -14 26 -37 -2 -9 0 -24 6 -32 9 -13 12 -13 24 3 7 9
11 28 9 40 -3 13 5 41 16 63 12 21 21 53 21 71 0 18 6 36 13 40 8 4 29 31 48
58 19 28 44 60 56 72 12 12 25 34 29 48 4 15 16 28 29 31 38 10 40 34 2 36
-61 3 -102 -3 -113 -18 -6 -7 -17 -14 -25 -14 -11 0 -11 -2 1 -10 12 -8 11
-10 -5 -10 -14 0 -21 7 -21 20 0 10 2 17 4 15 3 -2 16 5 30 15 13 11 31 20 39
20 9 0 56 8 107 17 l91 18 -70 5 c-55 5 -76 11 -98 30 -15 13 -25 30 -22 38 2
7 0 10 -5 7 -6 -3 -10 1 -10 10 0 10 6 15 13 12 7 -3 37 6 66 20 30 13 76 28
103 33 47 9 95 29 72 30 -32 1 -131 -24 -179 -45 -58 -26 -76 -30 -73 -17 1 4
-2 23 -6 42 -4 20 -3 47 3 63 16 40 4 33 -19 -14 -17 -32 -19 -44 -9 -55 10
-12 9 -13 -4 -8 -10 3 -16 -1 -19 -13 -2 -14 -9 -9 -27 21 -22 36 -23 40 -8
51 9 7 17 18 17 25 0 7 6 10 14 7 8 -3 17 1 20 9 3 8 2 13 -3 9 -5 -3 -13 9
-16 27 -4 18 -14 45 -21 60 -17 33 1 51 23 23 7 -11 13 -13 13 -7 0 8 9 5 22
-7 25 -24 46 -17 24 8 -9 10 -14 20 -10 23 3 3 -6 17 -20 31 -29 29 -34 50
-11 41 13 -5 14 -2 5 21 -14 36 -13 38 10 15 20 -20 39 -24 94 -20 18 1 26 -2
22 -9 -4 -6 -14 -11 -22 -11 -8 0 -13 -4 -10 -9 4 -5 0 -12 -6 -14 -8 -3 -5
-6 5 -6 21 -1 41 17 45 41 3 18 -54 41 -99 40 -15 0 -33 6 -39 14 -7 7 -16 11
-21 8 -16 -9 -10 44 7 60 20 21 48 21 40 1 -3 -8 -1 -15 5 -15 6 0 9 -7 5 -15
-3 -8 -1 -15 4 -15 6 0 10 5 10 11 0 6 9 9 20 6 29 -7 25 2 -6 14 -15 5 -25
12 -22 15 3 2 18 0 34 -6 15 -6 60 -12 99 -13 54 -2 80 3 115 20 25 12 73 29
108 39 34 9 65 21 69 27 4 6 -4 7 -23 2 -96 -25 -179 -38 -254 -39 -70 -1 -93
3 -133 23 -26 13 -55 33 -63 46 -16 24 -9 59 11 51 8 -3 11 2 8 13 -3 11 2 17
15 17 11 0 18 -5 15 -12 -5 -15 35 -26 44 -12 3 6 1 8 -5 4 -6 -3 -13 -2 -17
4 -3 5 2 10 12 10 17 1 17 1 1 14 -10 7 -18 18 -18 24 0 5 -15 33 -34 60 -30
46 -35 49 -40 29 -3 -12 -6 -38 -7 -57 -1 -21 -5 -9 -9 30 -6 50 -4 70 7 87 9
13 17 40 20 60 3 21 9 40 14 41 5 2 9 8 9 13 0 17 -27 9 -50 -16z m-41 -247
c-1 -13 -5 -36 -9 -53 -7 -26 -8 -22 -9 23 0 29 3 52 9 52 6 0 9 -10 9 -22z
m48 -40 c-3 -8 -6 -5 -6 6 -1 11 2 17 5 13 3 -3 4 -12 1 -19z m3 -28 c0 -5 -5
-10 -11 -10 -5 0 -7 5 -4 10 3 6 8 10 11 10 2 0 4 -4 4 -10z m37 -622 c-3 -8
-6 -5 -6 6 -1 11 2 17 5 13 3 -3 4 -12 1 -19z m-37 -25 c12 3 20 -2 23 -14 3
-11 1 -17 -4 -13 -41 25 -75 -2 -44 -36 16 -18 16 -19 -4 -17 -16 1 -21 8 -21
29 0 15 5 30 10 33 6 3 11 16 11 28 1 18 2 19 6 4 3 -12 11 -17 23 -14z m47
-45 c-3 -8 -6 -5 -6 6 -1 11 2 17 5 13 3 -3 4 -12 1 -19z m58 -48 c-3 -5 -16
-10 -28 -9 -20 1 -20 2 3 9 14 4 26 8 28 9 2 1 0 -3 -3 -9z m-134 -39 c5 8 9
9 9 3 0 -7 -8 -22 -18 -34 l-18 -23 5 39 c3 23 6 31 9 20 3 -15 6 -16 13 -5z
m57 -156 c-3 -3 -9 2 -12 12 -6 14 -5 15 5 6 7 -7 10 -15 7 -18z m-88 -45 c0
-5 -5 -10 -11 -10 -5 0 -7 5 -4 10 3 6 8 10 11 10 2 0 4 -4 4 -10z m-15 -29
c-6 -5 -25 10 -25 20 0 5 6 4 14 -3 8 -7 12 -15 11 -17z m25 -108 c-11 -17
-11 -17 -6 0 3 10 7 28 7 40 2 22 2 22 6 0 2 -12 -1 -30 -7 -40z m-20 2 c0
-14 -4 -25 -9 -25 -5 0 -11 -10 -15 -22 -5 -21 -7 -22 -22 -6 -15 15 -15 18 5
47 27 38 41 40 41 6z m-16 -121 c3 -8 2 -12 -4 -9 -6 3 -10 10 -10 16 0 14 7
11 14 -7z"/>
<path d="M2418 2939 c-20 -11 -24 -39 -7 -56 8 -8 6 -19 -5 -41 -20 -38 -20
-43 -2 -36 21 8 29 -12 15 -38 -6 -12 -13 -40 -14 -61 -2 -22 -9 -44 -17 -49
-10 -7 -10 -10 4 -18 25 -15 11 -45 -28 -60 -19 -8 -34 -18 -34 -22 0 -5 5 -6
11 -2 7 4 10 1 7 -7 -3 -8 -1 -22 4 -32 5 -9 5 -17 1 -16 -19 3 -30 -2 -31
-13 0 -7 -3 -25 -6 -40 -5 -23 -4 -26 11 -21 10 3 24 10 31 16 9 7 12 -3 12
-43 0 -70 6 -61 14 20 8 80 13 112 26 146 6 14 7 30 4 36 -4 6 -2 8 4 4 6 -3
14 -1 18 5 4 8 3 9 -5 5 -8 -6 -10 -1 -5 18 3 14 7 37 8 50 0 13 4 22 8 20 8
-5 29 31 22 38 -2 3 1 17 7 32 11 23 9 29 -9 49 -26 27 -28 45 -8 61 10 7 13
21 9 39 -6 29 -17 33 -45 16z m42 -203 c0 -3 -4 -8 -10 -11 -5 -3 -10 -1 -10
4 0 6 5 11 10 11 6 0 10 -2 10 -4z"/>
<path d="M2930 2839 c0 -5 5 -9 10 -9 6 0 10 -4 10 -10 0 -5 -6 -7 -14 -4 -8
3 -16 -3 -19 -15 -3 -13 -1 -19 5 -15 5 4 8 -4 6 -17 -2 -18 2 -24 17 -24 11
0 19 6 18 13 -2 7 8 12 25 12 l27 0 -25 13 c-16 9 -24 21 -23 34 2 13 -5 23
-17 26 -11 3 -20 1 -20 -4z"/>
<path d="M1850 2800 c0 -5 5 -10 10 -10 6 0 10 5 10 10 0 6 -4 10 -10 10 -5 0
-10 -4 -10 -10z"/>
<path d="M2195 2800 c-13 -6 -15 -9 -5 -9 8 0 22 4 30 9 18 12 2 12 -25 0z"/>
<path d="M1955 2710 c19 -8 83 -14 74 -6 -2 2 -24 6 -49 9 -30 4 -38 3 -25 -3z"/>
<path d="M3396 2635 c-3 -8 -1 -15 3 -15 5 0 11 7 15 15 3 8 1 15 -3 15 -5 0
-11 -7 -15 -15z"/>
<path d="M3362 2578 c-20 -20 -14 -36 13 -34 23 1 37 16 15 16 -5 0 -7 7 -4
15 7 18 -7 20 -24 3z"/>
<path d="M3350 2495 c-6 -8 -9 -19 -5 -25 3 -5 2 -10 -3 -10 -5 0 -12 -11 -14
-25 -4 -16 -1 -25 8 -25 7 0 16 16 20 35 6 35 24 59 24 33 0 -10 3 -9 9 2 19
29 -16 43 -39 15z"/>
<path d="M3357 2403 c-4 -3 -7 -11 -7 -17 0 -6 5 -5 12 2 6 6 9 14 7 17 -3 3
-9 2 -12 -2z"/>
<path d="M2235 2370 c-3 -5 -1 -10 4 -10 6 0 11 5 11 10 0 6 -2 10 -4 10 -3 0
-8 -4 -11 -10z"/>
<path d="M2321 2364 c0 -11 3 -14 6 -6 3 7 2 16 -1 19 -3 4 -6 -2 -5 -13z"/>
<path d="M1847 2329 c7 -7 15 -10 18 -7 3 3 -2 9 -12 12 -14 6 -15 5 -6 -5z"/>
<path d="M3363 2315 c-3 -9 -3 -18 -1 -21 3 -3 8 4 11 16 6 23 -1 27 -10 5z"/>
<path d="M2300 2311 c0 -5 -16 -15 -35 -22 -41 -15 -44 -25 -12 -33 12 -3 32
-14 44 -25 l21 -20 0 55 c-1 29 -5 54 -9 54 -5 0 -9 -4 -9 -9z"/>
<path d="M2130 2280 c0 -5 6 -7 14 -4 8 3 17 1 21 -5 8 -14 25 -14 25 0 0 5
-4 8 -9 4 -5 -3 -12 -1 -16 5 -8 13 -35 13 -35 0z"/>
<path d="M3380 2281 c0 -6 4 -13 10 -16 6 -3 7 1 4 9 -7 18 -14 21 -14 7z"/>
<path d="M2270 2221 c0 -6 5 -13 10 -16 6 -3 10 1 10 9 0 9 -4 16 -10 16 -5 0
-10 -4 -10 -9z"/>
<path d="M1874 2194 c3 -9 6 -18 6 -20 0 -3 5 -2 10 1 16 10 12 35 -6 35 -11
0 -14 -5 -10 -16z"/>
<path d="M2047 2204 c-10 -10 39 -44 62 -44 l21 0 -20 20 c-12 12 -25 18 -30
15 -6 -4 -10 -1 -10 4 0 12 -13 15 -23 5z"/>
<path d="M3147 2203 c-4 -3 -7 -13 -7 -21 0 -18 13 -7 16 13 2 17 1 18 -9 8z"/>
<path d="M1910 2180 c0 -6 7 -10 15 -10 8 0 15 2 15 4 0 2 -7 6 -15 10 -8 3
-15 1 -15 -4z"/>
<path d="M1855 2169 c-4 -6 -5 -12 -2 -15 2 -3 7 2 10 11 7 17 1 20 -8 4z"/>
<path d="M2960 2160 c8 -6 24 -15 35 -21 16 -8 15 -6 -4 10 -13 12 -28 21 -35
21 -6 0 -4 -5 4 -10z"/>
<path d="M1920 2140 c0 -5 5 -10 10 -10 6 0 10 5 10 10 0 6 -4 10 -10 10 -5 0
-10 -4 -10 -10z"/>
<path d="M2185 2118 c2 -9 -2 -19 -9 -22 -6 -2 -3 -5 7 -5 9 -1 17 -6 17 -12
0 -5 -4 -7 -10 -4 -5 3 -11 3 -11 -2 -4 -26 -6 -53 -3 -53 2 0 17 20 34 45
l31 45 -25 0 c-13 0 -26 6 -29 13 -2 6 -3 4 -2 -5z"/>
<path d="M3151 2124 c0 -11 3 -14 6 -6 3 7 2 16 -1 19 -3 4 -6 -2 -5 -13z"/>
<path d="M2237 2083 c-15 -20 -24 -39 -21 -42 3 -3 11 2 18 12 7 9 19 17 26
17 10 0 9 -4 -1 -17 -12 -15 -12 -16 4 -10 10 4 21 7 24 7 3 0 0 7 -7 15 -7 8
-10 24 -7 35 8 31 -7 24 -36 -17z"/>
<path d="M3129 2078 c-8 -14 -14 -18 -17 -10 -6 18 -22 4 -22 -19 0 -10 2 -19
4 -19 2 0 11 -3 19 -6 10 -4 16 5 21 30 4 19 12 37 19 39 9 4 9 6 0 6 -7 1
-18 -9 -24 -21z"/>
<path d="M3405 2030 c-5 -8 62 -79 75 -80 3 0 6 9 7 19 3 33 -67 85 -82 61z"/>
<path d="M3113 1988 c-29 -14 -31 -42 -4 -35 14 3 18 1 14 -9 -8 -21 5 -17 33
11 14 14 34 25 44 25 11 0 20 5 20 11 0 13 -52 8 -62 -6 -5 -6 -8 -5 -8 3 0
14 -7 14 -37 0z"/>
<path d="M2181 1907 c-1 -10 -6 -15 -11 -12 -7 4 -8 -3 -4 -22 7 -26 7 -27
-10 -10 -10 9 -22 17 -27 17 -6 0 3 -11 19 -25 31 -26 52 -32 52 -15 0 6 -5
10 -11 10 -8 0 -8 4 0 14 8 9 8 21 2 37 -8 19 -10 20 -10 6z"/>
<path d="M3110 1880 c0 -13 49 -44 57 -36 3 3 1 6 -5 6 -7 0 -21 9 -32 20 -11
11 -20 16 -20 10z"/>
<path d="M1453 1853 c4 -3 1 -13 -6 -21 -10 -13 -9 -14 3 -10 19 6 26 38 9 38
-7 0 -9 -3 -6 -7z"/>
<path d="M3205 1850 c-16 -7 -13 -9 15 -8 19 1 44 -2 55 -6 20 -8 20 -7 1 8
-22 18 -41 19 -71 6z"/>
<path d="M3061 1754 c0 -11 3 -14 6 -6 3 7 2 16 -1 19 -3 4 -6 -2 -5 -13z"/>
<path d="M3330 1704 c0 -8 62 -35 72 -32 6 2 -8 11 -31 20 -22 9 -41 15 -41
12z"/>
<path d="M3435 1690 c-13 -6 -15 -9 -5 -9 8 0 22 4 30 9 18 12 2 12 -25 0z"/>
<path d="M2172 1595 c0 -16 2 -22 5 -12 2 9 2 23 0 30 -3 6 -5 -1 -5 -18z"/>
<path d="M3165 1580 c3 -5 8 -10 11 -10 2 0 4 5 4 10 0 6 -5 10 -11 10 -5 0
-7 -4 -4 -10z"/>
<path d="M1481 1559 c-1 -9 7 -23 17 -30 15 -12 16 -12 6 1 -6 8 -14 22 -17
30 -5 13 -6 12 -6 -1z"/>
<path d="M3270 1529 c0 -5 10 -9 23 -9 12 0 33 -3 47 -7 14 -3 23 -3 20 0 -10
11 -90 25 -90 16z"/>
<path d="M3462 1464 c-7 -8 -8 -14 -3 -14 10 0 25 19 20 25 -2 1 -10 -3 -17
-11z"/>
<path d="M2222 1360 c0 -19 2 -27 5 -17 2 9 2 25 0 35 -3 9 -5 1 -5 -18z"/>
<path d="M2055 1050 c-8 -13 5 -13 25 0 13 8 13 10 -2 10 -9 0 -20 -4 -23 -10z"/>
</g>
</svg>
