<?xml version="1.0" standalone="no"?>
<!DOCTYPE svg PUBLIC "-//W3C//DTD SVG 20010904//EN"
 "http://www.w3.org/TR/2001/REC-SVG-20010904/DTD/svg10.dtd">
<svg version="1.0" xmlns="http://www.w3.org/2000/svg"
 width="512.000000pt" height="384.000000pt" viewBox="0 0 512.000000 384.000000"
 preserveAspectRatio="xMidYMid meet">

<g transform="translate(0.000000,384.000000) scale(0.100000,-0.100000)"
fill="#000000" stroke="none">
<path d="M0 2578 l0 -1263 84 -3 c46 -2 109 -7 139 -11 52 -7 97 2 97 21 0 4
8 8 18 9 14 0 14 2 -3 9 -11 5 20 6 73 3 84 -5 92 -4 86 11 -5 14 -9 14 -22 4
-13 -11 -14 -11 -7 2 6 12 5 13 -6 3 -7 -7 -31 -13 -53 -13 -46 0 -45 8 3 12
18 1 35 6 37 10 2 3 -15 4 -38 1 -51 -6 -64 -6 -142 3 -45 5 -57 4 -51 -6 6
-9 3 -10 -13 -1 -11 6 -27 9 -34 7 -7 -2 -26 -7 -43 -10 -22 -5 -26 -4 -15 4
11 7 4 10 -30 11 -30 1 -37 3 -20 7 l25 5 -25 8 c-14 4 13 5 60 2 158 -10 529
-5 475 7 -16 4 -91 5 -165 4 -74 -2 -124 0 -111 2 17 4 21 8 11 14 -7 4 28 8
79 8 51 0 95 3 99 6 3 3 -25 6 -63 6 -38 0 -66 2 -64 5 4 4 71 14 122 18 18 1
22 9 10 20 -3 4 -12 2 -20 -5 -11 -8 -12 -7 -7 6 7 18 29 21 39 6 4 -7 13 -7
26 0 14 8 19 7 19 -2 0 -20 29 25 30 47 1 19 1 19 14 2 9 -12 15 -14 18 -6 4
12 85 14 178 5 19 -2 67 -7 105 -10 39 -4 90 -9 115 -12 88 -11 101 -10 111 5
9 14 10 14 5 -1 -5 -16 1 -18 42 -17 38 0 43 2 25 9 -29 12 -29 17 0 14 12 -1
38 -3 58 -3 27 -1 39 -7 48 -23 6 -13 9 -15 7 -5 -5 15 0 17 32 13 20 -3 51
-5 69 -5 27 -1 31 -4 26 -19 -6 -16 -6 -16 10 0 10 10 27 15 40 12 12 -2 38
-7 57 -9 19 -3 44 -7 55 -9 38 -6 127 -18 153 -21 140 -15 214 -26 402 -61 74
-14 174 -32 223 -40 96 -16 288 -55 412 -84 44 -11 150 -35 235 -55 254 -60
562 -144 765 -210 22 -7 94 -30 160 -50 66 -21 273 -87 460 -147 187 -61 367
-119 400 -129 33 -10 103 -34 155 -52 52 -19 105 -37 118 -41 l22 -7 0 1625 0
1626 -2560 0 -2560 0 0 -1262z m2242 696 c32 -9 55 -20 53 -24 -3 -4 2 -11 11
-14 10 -4 13 -2 8 7 -3 6 7 -2 22 -19 16 -17 48 -42 72 -54 23 -13 42 -26 43
-29 0 -3 2 -14 4 -25 2 -10 -7 -44 -21 -74 -23 -53 -24 -57 -7 -71 15 -15 16
-15 5 1 -11 14 -8 18 17 31 16 8 32 12 35 9 18 -17 79 -11 120 13 l44 26 44
-41 c23 -22 51 -42 61 -46 9 -3 15 -10 12 -15 -4 -5 1 -9 9 -9 9 0 28 -13 43
-30 14 -16 33 -30 40 -30 8 0 34 16 57 35 51 41 87 47 79 13 -3 -13 -7 -30
-10 -38 -3 -8 -7 -30 -9 -48 -4 -44 -8 -49 -44 -50 -22 0 -30 3 -27 12 5 14
-10 36 -25 36 -4 0 -6 -6 -4 -12 1 -7 1 -10 -1 -5 -3 4 -10 4 -16 0 -7 -4 -6
1 2 10 9 11 21 15 37 11 16 -4 24 -2 25 7 1 8 3 24 4 37 2 19 0 20 -14 10 -9
-7 -18 -15 -21 -18 -3 -3 -29 -25 -58 -49 -29 -24 -50 -46 -47 -49 3 -3 16 5
30 18 14 13 25 19 25 14 0 -16 -41 -46 -55 -40 -17 6 -55 -21 -64 -47 -5 -13
-17 -21 -34 -21 -24 -2 -25 -1 -9 15 16 15 18 15 24 0 6 -14 7 -14 7 1 1 17
38 56 109 114 23 18 30 30 23 37 -12 12 -44 -10 -36 -23 3 -5 1 -11 -4 -14 -5
-4 -12 -2 -15 3 -3 5 -15 7 -26 4 -11 -3 -20 0 -20 6 0 6 6 11 14 11 15 0 16
24 1 37 -4 4 -5 3 -1 -4 9 -17 -12 -27 -29 -13 -11 9 -15 9 -15 1 0 -6 -9 -11
-19 -11 -11 0 -27 -10 -35 -22 -8 -11 -27 -22 -41 -24 -22 -2 -25 0 -20 17 10
31 -3 22 -20 -15 -9 -19 -14 -39 -11 -45 4 -5 -2 -18 -12 -28 -10 -10 -34 -53
-52 -95 -19 -43 -37 -78 -41 -78 -4 0 -6 -8 -5 -17 1 -11 -11 -20 -37 -28 -21
-6 -43 -17 -48 -25 -8 -11 -9 -10 -4 7 5 18 3 22 -9 17 -9 -3 -16 -1 -16 5 0
7 8 15 18 18 20 8 33 24 26 35 -9 15 -32 -4 -49 -42 -16 -35 -23 -40 -71 -51
-47 -11 -54 -15 -54 -36 0 -17 -6 -23 -21 -23 -12 0 -19 5 -17 13 2 6 24 78
49 159 l44 146 38 13 c34 11 43 21 68 77 17 35 31 81 32 101 2 35 1 36 -43 42
-92 14 -148 44 -253 139 -22 19 -43 34 -47 33 -11 -3 -32 52 -28 74 4 25 64
53 112 53 22 0 66 -7 98 -16z m2053 -34 c-3 -5 -8 -22 -10 -37 -2 -16 -10 -64
-19 -108 -19 -100 -35 -190 -33 -192 1 0 52 8 112 18 227 41 235 35 15 -10
-80 -17 -235 -49 -345 -71 -110 -23 -211 -44 -225 -46 -14 -3 -108 -23 -209
-45 -101 -21 -191 -39 -200 -38 -20 1 58 20 224 55 72 15 131 28 133 30 2 1
18 77 37 169 18 92 38 172 45 178 10 9 11 8 7 -8 -4 -11 -18 -83 -32 -160 -14
-77 -28 -148 -31 -158 -5 -14 -1 -17 18 -12 145 33 182 41 230 49 20 3 48 10
64 16 16 6 31 11 34 11 23 -4 100 14 101 23 0 6 2 18 4 26 6 28 25 135 30 165
6 36 26 135 31 153 2 7 8 10 14 7 6 -4 8 -10 5 -15z m472 -47 c-3 -10 -5 -4
-5 12 0 17 2 24 5 18 2 -7 2 -21 0 -30z m-1371 -160 c-3 -10 -10 -40 -16 -68
-5 -27 -12 -61 -15 -75 -2 -14 -9 -48 -14 -75 -5 -28 -13 -63 -16 -78 -6 -22
-4 -27 11 -28 18 0 17 -1 -1 -9 -11 -5 -31 -8 -45 -8 -14 0 -18 2 -9 5 15 4
35 74 75 271 10 45 21 82 26 82 5 0 7 -8 4 -17z m-596 -83 c0 -5 -2 -10 -4
-10 -3 0 -8 5 -11 10 -3 6 -1 10 4 10 6 0 11 -4 11 -10z m1757 4 c-3 -3 -12
-4 -19 -1 -8 3 -5 6 6 6 11 1 17 -2 13 -5z m-1791 -136 c-10 -6 -22 -6 -26 -2
-5 5 3 10 18 11 22 1 24 0 8 -9z m-131 -8 c3 -5 2 -10 -4 -10 -5 0 -13 5 -16
10 -3 6 -2 10 4 10 5 0 13 -4 16 -10z m225 -51 c0 -14 -17 -10 -23 5 -4 10 -1
13 9 9 7 -3 14 -9 14 -14z m60 1 c0 -5 -5 -10 -11 -10 -5 0 -7 5 -4 10 3 6 8
10 11 10 2 0 4 -4 4 -10z m-141 -3 c-2 -1 -13 -9 -24 -17 -19 -14 -19 -14 -6
3 7 9 18 17 24 17 6 0 8 -1 6 -3z m151 -72 c0 -9 -6 -12 -16 -8 -13 5 -13 7
-2 14 17 11 18 11 18 -6z m-147 -15 c15 -7 27 -17 27 -22 0 -14 -14 -8 -45 18
-31 27 -29 28 18 4z m484 14 c-3 -3 -12 -4 -19 -1 -8 3 -5 6 6 6 11 1 17 -2
13 -5z m-380 -16 c4 -7 6 -20 5 -28 -3 -16 69 -44 78 -31 3 5 20 12 37 15 29
7 40 2 95 -40 70 -54 82 -65 85 -79 1 -6 2 -14 3 -20 11 -53 -20 -75 -108 -75
-71 0 -121 22 -207 91 -53 43 -64 56 -58 73 4 12 7 30 7 40 0 19 34 65 48 66
4 0 10 -6 15 -12z m-937 -12 c0 -14 -94 -293 -101 -300 -8 -9 24 104 63 219
11 33 21 66 21 73 0 11 17 19 17 8z m592 -38 c-9 -9 -15 -9 -24 0 -9 9 -7 12
12 12 19 0 21 -3 12 -12z m-939 -171 c-20 -59 -38 -105 -41 -103 -3 4 23 89
64 205 2 8 7 12 9 9 3 -3 -11 -53 -32 -111z m846 56 c16 -17 -10 -18 -27 -1
-9 9 -12 7 -12 -12 0 -30 -39 -86 -40 -57 0 10 -4 15 -10 12 -5 -3 -10 1 -10
10 0 11 5 15 14 12 10 -4 17 3 21 23 5 23 12 29 29 28 12 -1 28 -8 35 -15z
m330 -32 c-6 -18 -13 -30 -15 -28 -2 2 1 18 7 36 6 18 13 30 15 28 2 -2 -1
-18 -7 -36z m-1443 -42 c-18 -41 -21 -26 -4 22 6 18 13 29 15 23 2 -6 -3 -26
-11 -45z m908 36 c-4 -8 -1 -15 6 -15 7 0 19 -8 26 -17 7 -10 14 -13 14 -6 0
8 9 8 34 1 36 -11 39 -33 5 -35 -25 -2 -107 59 -101 75 2 7 8 12 13 12 4 0 6
-7 3 -15z m48 -7 c-9 -9 -15 -9 -24 0 -9 9 -7 12 12 12 19 0 21 -3 12 -12z
m156 -23 c-5 -41 16 -49 26 -10 6 25 20 33 30 16 3 -5 -3 -20 -14 -34 -25 -32
-25 -37 1 -37 11 0 17 5 14 10 -3 6 -2 10 4 10 5 0 13 -4 16 -10 3 -5 1 -10
-4 -10 -7 0 -7 -7 1 -20 7 -11 18 -20 24 -20 13 0 36 -48 29 -60 -3 -5 -21 1
-40 13 -25 16 -34 28 -32 46 1 13 -4 25 -11 27 -7 1 -8 0 -2 -3 6 -3 4 -10 -4
-19 -20 -20 -24 -18 -21 11 2 13 -3 29 -11 36 -12 9 -14 6 -14 -20 0 -33 -15
-37 -55 -14 -19 11 -19 12 -2 25 10 7 19 27 20 43 2 34 16 54 36 55 9 0 12
-10 9 -35z m292 15 c0 -5 -4 -10 -10 -10 -5 0 -10 5 -10 10 0 6 5 10 10 10 6
0 10 -4 10 -10z m-184 -57 c-10 -10 -19 5 -10 18 6 11 8 11 12 0 2 -7 1 -15
-2 -18z m64 -9 c0 -2 -9 0 -20 6 -11 6 -20 13 -20 16 0 2 9 0 20 -6 11 -6 20
-13 20 -16z m121 -1 c-12 -20 -14 -14 -5 12 4 9 9 14 11 11 3 -2 0 -13 -6 -23z
m-161 -28 c14 -16 10 -18 -14 -9 -9 3 -16 10 -16 15 0 14 16 11 30 -6z m-1030
-62 c-11 -17 -11 -17 -6 0 3 10 6 24 7 30 0 9 2 9 5 0 3 -7 0 -20 -6 -30z
m1067 21 c-3 -3 -12 -4 -19 -1 -8 3 -5 6 6 6 11 1 17 -2 13 -5z m-282 -54 c3
-5 2 -10 -4 -10 -5 0 -13 5 -16 10 -3 6 -2 10 4 10 5 0 13 -4 16 -10z m104 -4
c7 -8 8 -17 3 -20 -6 -3 -12 3 -15 14 -6 24 -4 25 12 6z m62 -42 c14 -38 4
-41 -14 -5 -9 17 -11 31 -6 31 5 0 14 -12 20 -26z m-1911 -684 c0 -5 -5 -10
-11 -10 -5 0 -7 5 -4 10 3 6 8 10 11 10 2 0 4 -4 4 -10z m-251 -20 c-6 -5 -18
-6 -26 -3 -19 8 -16 11 13 11 17 0 22 -3 13 -8z m114 -7 c-7 -2 -19 -2 -25 0
-7 3 -2 5 12 5 14 0 19 -2 13 -5z m-380 -70 c-7 -2 -19 -2 -25 0 -7 3 -2 5 12
5 14 0 19 -2 13 -5z m4 -69 c-3 -3 -12 -4 -19 -1 -8 3 -5 6 6 6 11 1 17 -2 13
-5z m206 -1 c-7 -2 -19 -2 -25 0 -7 3 -2 5 12 5 14 0 19 -2 13 -5z m-13 -43
c0 -6 -50 -3 -110 7 -27 4 -31 7 -16 12 20 8 126 -8 126 -19z"/>
<path d="M2597 3003 c-4 -3 -7 -13 -7 -21 0 -12 3 -12 15 -2 8 7 15 16 15 21
0 11 -14 12 -23 2z"/>
<path d="M2523 2969 c-18 -18 -16 -30 2 -23 8 4 15 1 15 -5 0 -6 -6 -11 -14
-11 -8 0 -39 -10 -70 -21 -50 -20 -54 -23 -39 -35 22 -16 37 -18 27 -3 -4 7
-1 10 7 7 8 -3 13 -12 11 -21 -2 -14 1 -15 24 -7 22 9 29 7 44 -10 9 -11 20
-20 22 -20 9 0 32 63 31 83 -1 12 3 17 12 13 8 -3 17 0 21 6 4 6 3 8 -4 4 -6
-3 -15 1 -20 10 -11 20 -32 10 -32 -16 0 -10 -5 -22 -10 -25 -6 -4 -8 -11 -5
-16 4 -5 2 -9 -4 -9 -5 0 -12 6 -15 13 -5 10 -7 10 -12 0 -3 -7 -12 -13 -20
-13 -11 0 -10 4 3 20 14 15 20 17 32 7 12 -10 14 -9 8 6 -4 10 -3 16 2 13 5
-3 11 3 14 14 3 11 1 20 -3 20 -5 0 -10 7 -12 16 -2 12 -5 13 -15 3z"/>
<path d="M2430 2939 c0 -11 47 -12 53 -1 3 4 -8 7 -24 8 -16 1 -29 -3 -29 -7z"/>
<path d="M2631 2933 c8 -13 20 -23 28 -23 8 0 12 1 10 3 -2 1 -15 11 -28 22
l-24 20 14 -22z"/>
<path d="M2756 2922 c-3 -5 1 -9 9 -9 8 0 12 4 9 9 -3 4 -7 8 -9 8 -2 0 -6 -4
-9 -8z"/>
<path d="M2798 2908 c11 -14 10 -18 -5 -27 -10 -6 -13 -11 -7 -11 6 0 17 6 23
14 9 10 7 17 -6 27 -16 13 -17 12 -5 -3z"/>
<path d="M2601 2884 c0 -11 3 -14 6 -6 3 7 2 16 -1 19 -3 4 -6 -2 -5 -13z"/>
<path d="M2385 2850 c-3 -5 1 -10 9 -10 9 0 16 5 16 10 0 6 -4 10 -9 10 -6 0
-13 -4 -16 -10z"/>
<path d="M2521 2801 c6 -17 14 -33 19 -36 13 -8 -2 44 -16 56 -12 9 -12 6 -3
-20z"/>
<path d="M2468 2759 c-19 -10 -25 -39 -9 -39 20 0 42 13 52 31 8 15 6 19 -8
19 -10 0 -26 -5 -35 -11z"/>
<path d="M2305 2729 c-4 -6 -5 -12 -2 -15 2 -3 7 2 10 11 7 17 1 20 -8 4z"/>
<path d="M2345 2720 c-10 -11 -15 -23 -11 -27 9 -9 58 18 64 35 6 20 -33 14
-53 -8z"/>
<path d="M2441 2677 c-29 -15 -39 -37 -16 -37 25 0 55 19 55 35 0 18 -8 18
-39 2z"/>
<path d="M2318 2646 c-23 -17 -23 -36 0 -36 18 0 52 29 52 43 0 12 -34 7 -52
-7z"/>
<path d="M3080 2510 c0 -5 5 -10 10 -10 6 0 10 5 10 10 0 6 -4 10 -10 10 -5 0
-10 -4 -10 -10z"/>
<path d="M600 1505 c-10 -12 -10 -15 3 -15 19 0 31 16 18 24 -5 3 -14 -1 -21
-9z"/>
<path d="M1246 1509 c6 -11 41 -12 47 -1 3 4 -8 7 -24 8 -15 1 -26 -3 -23 -7z"/>
<path d="M680 1500 c0 -5 5 -10 10 -10 6 0 10 5 10 10 0 6 -4 10 -10 10 -5 0
-10 -4 -10 -10z"/>
<path d="M820 1491 c0 -6 4 -13 10 -16 6 -3 7 1 4 9 -7 18 -14 21 -14 7z"/>
<path d="M1378 1493 c7 -3 16 -2 19 1 4 3 -2 6 -13 5 -11 0 -14 -3 -6 -6z"/>
<path d="M1420 1490 c-9 -6 -10 -10 -3 -10 6 0 15 5 18 10 8 12 4 12 -15 0z"/>
<path d="M540 1441 c0 -4 33 -6 73 -4 102 6 106 11 10 12 -46 1 -83 -3 -83 -8z"/>
<path d="M778 1443 c6 -2 18 -2 25 0 6 3 1 5 -13 5 -14 0 -19 -2 -12 -5z"/>
<path d="M728 1433 c7 -3 16 -2 19 1 4 3 -2 6 -13 5 -11 0 -14 -3 -6 -6z"/>
<path d="M1128 1433 c7 -3 16 -2 19 1 4 3 -2 6 -13 5 -11 0 -14 -3 -6 -6z"/>
<path d="M778 1423 c7 -3 16 -2 19 1 4 3 -2 6 -13 5 -11 0 -14 -3 -6 -6z"/>
<path d="M830 1420 c-13 -8 -12 -10 3 -10 9 0 17 5 17 10 0 12 -1 12 -20 0z"/>
<path d="M958 1423 c7 -3 16 -2 19 1 4 3 -2 6 -13 5 -11 0 -14 -3 -6 -6z"/>
<path d="M870 1416 c0 -2 7 -7 16 -10 8 -3 12 -2 9 4 -6 10 -25 14 -25 6z"/>
<path d="M1008 1413 c7 -3 16 -2 19 1 4 3 -2 6 -13 5 -11 0 -14 -3 -6 -6z"/>
<path d="M631 1406 c2 -2 24 -6 48 -9 29 -4 40 -2 30 4 -13 8 -88 14 -78 5z"/>
<path d="M642 1374 c10 -10 20 -16 22 -13 3 3 -5 11 -17 18 -21 13 -21 12 -5
-5z"/>
<path d="M1585 1380 c-13 -6 -15 -9 -5 -9 8 0 22 4 30 9 18 12 2 12 -25 0z"/>
<path d="M514 1365 c24 -19 36 -18 60 0 16 12 17 15 4 15 -9 0 -18 -6 -20 -12
-4 -10 -11 -10 -34 0 -27 11 -27 11 -10 -3z"/>
<path d="M1280 1371 c0 -5 5 -13 10 -16 6 -3 10 -2 10 4 0 5 -4 13 -10 16 -5
3 -10 2 -10 -4z"/>
<path d="M1373 1325 c0 -8 6 -15 13 -15 8 0 11 6 8 15 -4 8 -9 15 -13 15 -4 0
-8 -7 -8 -15z"/>
<path d="M1810 1330 c-9 -6 -10 -10 -3 -10 6 0 15 5 18 10 8 12 4 12 -15 0z"/>
<path d="M468 1323 c6 -2 18 -2 25 0 6 3 1 5 -13 5 -14 0 -19 -2 -12 -5z"/>
<path d="M1840 1320 c-12 -7 -10 -9 8 -7 12 0 22 5 22 9 0 11 -12 10 -30 -2z"/>
<path d="M337 1309 c7 -7 15 -10 18 -7 3 3 -2 9 -12 12 -14 6 -15 5 -6 -5z"/>
<path d="M938 1313 c7 -3 16 -2 19 1 4 3 -2 6 -13 5 -11 0 -14 -3 -6 -6z"/>
<path d="M988 1313 c7 -3 16 -2 19 1 4 3 -2 6 -13 5 -11 0 -14 -3 -6 -6z"/>
<path d="M1207 1296 c4 -13 3 -17 -5 -12 -7 4 -12 1 -12 -6 0 -16 79 -12 95 4
7 7 -1 8 -23 3 -26 -5 -37 -3 -48 12 -14 17 -14 17 -7 -1z"/>
<path d="M303 1284 c0 -8 10 -14 24 -14 13 0 23 5 23 12 0 6 -3 8 -6 5 -4 -3
-14 -2 -24 3 -12 6 -17 5 -17 -6z"/>
<path d="M1370 1291 c0 -6 4 -13 10 -16 6 -3 7 1 4 9 -7 18 -14 21 -14 7z"/>
<path d="M635 1280 c4 -6 11 -8 16 -5 14 9 11 15 -7 15 -8 0 -12 -5 -9 -10z"/>
<path d="M1860 1281 c0 -9 -8 -11 -21 -8 -12 3 -18 2 -13 -2 5 -5 22 -12 38
-15 27 -7 28 -6 16 11 -8 10 -16 20 -17 22 -2 2 -3 -1 -3 -8z"/>
<path d="M172 1273 c16 -4 16 -6 4 -19 -8 -8 -21 -14 -30 -14 -30 0 -23 -15 7
-16 18 0 63 -3 100 -6 55 -5 66 -3 57 7 -6 8 -20 12 -30 10 -10 -2 -21 3 -24
11 -5 12 -1 14 16 8 19 -6 21 -5 10 8 -8 10 -31 15 -69 15 -32 1 -50 -1 -41
-4z"/>
<path d="M373 1273 c9 -2 23 -2 30 0 6 3 -1 5 -18 5 -16 0 -22 -2 -12 -5z"/>
<path d="M1475 1270 c-3 -5 -1 -10 4 -10 6 0 11 5 11 10 0 6 -2 10 -4 10 -3 0
-8 -4 -11 -10z"/>
<path d="M1895 1270 c3 -5 8 -10 11 -10 2 0 4 5 4 10 0 6 -5 10 -11 10 -5 0
-7 -4 -4 -10z"/>
<path d="M25 1260 c40 -10 105 -12 105 -2 0 4 -30 8 -68 8 -49 2 -59 0 -37 -6z"/>
<path d="M673 1251 c1 -16 5 -18 20 -9 16 8 17 12 6 19 -21 13 -28 11 -26 -10z"/>
<path d="M1510 1259 c0 -5 9 -9 20 -9 11 0 20 2 20 4 0 2 -9 6 -20 9 -11 3
-20 1 -20 -4z"/>
<path d="M548 1249 c-10 -6 -9 -9 2 -13 26 -9 110 -11 110 -4 0 5 -15 8 -32 8
-21 0 -28 3 -20 8 8 6 2 9 -17 9 -17 0 -36 -4 -43 -8z"/>
<path d="M1730 1231 c0 -11 9 -23 20 -26 11 -3 20 -11 20 -17 0 -7 -4 -7 -12
-1 -24 18 -58 22 -58 7 0 -17 38 -34 60 -27 10 3 11 2 4 -4 -8 -5 -3 -16 17
-34 16 -15 29 -23 29 -17 0 5 9 4 19 -2 11 -5 31 -11 45 -12 15 -1 26 -6 26
-12 0 -5 -21 -6 -47 -2 -45 6 -46 5 -26 -9 11 -8 29 -17 40 -19 59 -12 83 -19
83 -25 0 -12 -39 -31 -45 -21 -3 5 -18 8 -33 8 -28 -1 -102 22 -102 32 0 3
-11 6 -25 6 -20 2 -23 -1 -15 -11 6 -7 9 -19 8 -26 -2 -8 5 -13 14 -13 10 1
16 -2 13 -6 -3 -5 14 -15 37 -22 24 -8 43 -21 43 -29 0 -26 44 -52 79 -46 28
4 32 2 32 -16 -1 -14 9 -26 28 -35 39 -19 86 -22 86 -4 0 7 5 10 10 7 6 -3 10
-1 10 4 0 6 7 11 16 11 8 0 12 -4 9 -10 -4 -6 6 -10 24 -10 16 0 33 4 36 10 3
6 -2 8 -12 4 -16 -4 -17 -4 -1 7 15 12 14 14 -7 31 -13 10 -28 33 -35 51 -9
30 -15 34 -45 34 -42 0 -44 -13 -7 -45 18 -15 20 -20 7 -14 -11 5 -40 8 -65 7
-44 -3 -45 -2 -45 26 -1 20 5 31 18 35 22 7 36 -4 19 -15 -10 -6 -10 -11 3
-21 10 -8 15 -9 16 -1 1 6 3 16 4 21 1 6 3 15 4 20 0 6 8 10 16 10 19 0 19 9
-2 32 -15 17 -15 18 18 12 25 -4 30 -3 19 5 -8 6 -40 10 -70 9 -30 -1 -65 2
-77 6 -47 15 -20 24 60 21 45 -1 73 1 62 5 -11 4 -23 6 -27 4 -13 -8 -19 16
-6 29 8 9 24 11 48 7 20 -4 46 -3 58 1 13 5 22 4 22 -1 0 -6 18 -10 41 -10 24
0 38 -4 34 -10 -4 -6 5 -10 22 -9 17 1 21 3 11 6 -10 2 -18 10 -18 17 0 6 -10
13 -22 13 -29 3 -54 33 -36 44 7 4 15 6 18 4 3 -2 11 5 18 15 14 23 1 34 -27
25 -39 -12 -61 -14 -61 -4 0 5 -8 9 -17 9 -14 0 -15 -2 -4 -9 21 -13 3 -32
-25 -25 -14 4 -24 2 -24 -5 0 -6 11 -11 24 -11 30 0 56 -9 56 -21 0 -8 -46
-10 -87 -3 -13 3 -23 11 -23 18 0 8 -14 17 -31 21 -19 4 -33 15 -36 26 -3 10
-10 19 -15 19 -5 0 -7 -4 -4 -9 6 -9 -9 -11 -91 -12 -24 -1 -41 -5 -38 -9 2
-3 -2 -7 -10 -7 -8 0 -12 4 -9 9 5 7 -10 12 -28 9 -5 0 -8 4 -8 9 0 6 -7 10
-15 10 -8 0 -15 -9 -15 -19z m427 -43 c-3 -8 -6 -5 -6 6 -1 11 2 17 5 13 3 -3
4 -12 1 -19z m-187 -178 c0 -5 -5 -10 -11 -10 -5 0 -7 5 -4 10 3 6 8 10 11 10
2 0 4 -4 4 -10z m-20 -40 c0 -5 -4 -10 -10 -10 -5 0 -10 5 -10 10 0 6 5 10 10
10 6 0 10 -4 10 -10z m170 -34 c0 -3 -4 -8 -10 -11 -5 -3 -10 -1 -10 4 0 6 5
11 10 11 6 0 10 -2 10 -4z m-53 -52 c2 -5 -5 -10 -16 -10 -11 0 -17 5 -14 14
6 14 25 12 30 -4z m-80 0 c-3 -3 -12 -4 -19 -1 -8 3 -5 6 6 6 11 1 17 -2 13
-5z"/>
<path d="M2035 1240 c3 -5 8 -10 11 -10 2 0 4 5 4 10 0 6 -5 10 -11 10 -5 0
-7 -4 -4 -10z"/>
<path d="M725 1231 c18 -8 17 -9 -10 -13 -20 -4 -14 -5 18 -5 26 0 47 4 47 9
0 4 -3 8 -7 9 -5 0 -21 2 -38 4 -23 3 -26 2 -10 -4z"/>
<path d="M0 1171 c0 -48 3 -61 15 -61 9 0 30 -7 47 -16 25 -13 32 -14 39 -2 7
10 9 10 9 -2 0 -12 2 -12 9 -2 7 12 14 11 38 -2 17 -8 33 -12 37 -9 3 4 6 1 6
-5 0 -7 -15 -12 -32 -13 -31 0 -32 -1 -9 -10 17 -7 29 -6 40 4 9 7 30 11 46
10 17 -2 46 -3 65 -3 43 0 72 -9 65 -19 -2 -5 14 -13 35 -20 22 -6 40 -18 40
-25 0 -11 8 -11 40 -3 54 15 50 27 -7 28 -27 0 -57 4 -68 9 l-20 9 20 1 20 1
-20 9 c-17 7 -16 9 9 9 74 2 -36 24 -154 30 -11 1 -12 3 -3 9 7 4 40 5 73 2
33 -3 65 -3 71 1 6 3 -29 10 -77 15 -86 8 -88 8 -39 15 45 5 46 6 15 9 -19 1
-57 2 -84 0 -32 -1 -52 3 -57 11 -7 12 -11 11 -19 -1 -6 -9 -10 -10 -10 -3 0
18 13 23 64 24 25 1 46 6 46 10 0 6 -21 13 -120 35 -14 3 -49 8 -77 11 l-53 5
0 -61z m175 19 c3 -6 -1 -7 -9 -4 -18 7 -21 14 -7 14 6 0 13 -4 16 -10z m-60
-20 c-3 -5 -14 -10 -23 -9 -14 0 -13 2 3 9 27 11 27 11 20 0z m-12 -27 c-7 -2
-19 -2 -25 0 -7 3 -2 5 12 5 14 0 19 -2 13 -5z"/>
<path d="M2237 1218 c-17 -9 -17 -11 8 -24 33 -17 35 -17 35 -3 0 5 -4 8 -9 4
-5 -3 -11 4 -13 14 -2 16 -6 18 -21 9z"/>
<path d="M535 1200 c3 -5 19 -10 36 -10 16 0 29 5 29 10 0 6 -16 10 -36 10
-21 0 -33 -4 -29 -10z"/>
<path d="M878 1193 c6 -2 18 -2 25 0 6 3 1 5 -13 5 -14 0 -19 -2 -12 -5z"/>
<path d="M295 1180 c-3 -5 -4 -14 -1 -19 7 -11 86 -19 86 -9 0 5 8 8 18 8 14
0 15 2 2 10 -10 6 -16 6 -18 0 -2 -6 -22 -10 -44 -10 -32 0 -39 3 -34 15 6 17
0 20 -9 5z"/>
<path d="M2220 1180 c-13 -8 -12 -10 3 -10 9 0 17 5 17 10 0 12 -1 12 -20 0z"/>
<path d="M585 1170 c-13 -5 -14 -9 -5 -9 8 0 24 4 35 9 13 5 14 9 5 9 -8 0
-24 -4 -35 -9z"/>
<path d="M973 1173 c9 -2 23 -2 30 0 6 3 -1 5 -18 5 -16 0 -22 -2 -12 -5z"/>
<path d="M1105 1170 c-3 -5 -1 -10 4 -10 6 0 11 5 11 10 0 6 -2 10 -4 10 -3 0
-8 -4 -11 -10z"/>
<path d="M2683 1168 c-3 -7 -1 -8 5 -4 11 6 16 -5 13 -26 -1 -10 48 -22 57
-14 3 4 -4 9 -17 13 -12 3 -18 9 -13 12 6 3 0 11 -14 18 -17 8 -26 8 -31 1z"/>
<path d="M430 1166 c0 -2 7 -7 16 -10 8 -3 12 -2 9 4 -6 10 -25 14 -25 6z"/>
<path d="M530 1160 c-8 -5 -10 -10 -5 -10 6 0 17 5 25 10 8 5 11 10 5 10 -5 0
-17 -5 -25 -10z"/>
<path d="M2836 1155 c5 -12 -1 -14 -27 -10 l-34 5 33 -12 c34 -11 46 -34 13
-23 -13 4 -23 0 -29 -11 -8 -15 -15 -16 -58 -5 -84 22 -96 23 -91 9 2 -7 12
-12 22 -10 9 2 14 -1 11 -6 -3 -5 5 -12 19 -14 13 -3 22 -1 19 3 -3 5 1 9 9 9
8 0 17 -7 21 -15 3 -8 12 -12 19 -9 8 3 17 -2 20 -10 4 -9 14 -16 23 -16 10 0
15 -2 12 -5 -9 -9 -58 6 -52 16 3 5 -2 6 -10 3 -9 -3 -16 -10 -16 -14 0 -9 39
-23 55 -20 6 1 4 -4 -2 -11 -17 -17 -16 -29 1 -29 8 0 17 -4 20 -9 5 -8 -14
-11 -67 -12 -9 0 -16 -3 -13 -7 2 -4 -34 -6 -80 -5 -50 1 -82 -3 -78 -8 3 -5
10 -6 16 -3 7 5 8 2 4 -5 -5 -7 -15 -10 -23 -7 -8 3 -12 2 -9 -3 10 -16 -21
-33 -41 -23 -10 6 -31 15 -46 21 -18 7 -26 15 -21 24 6 9 5 9 -7 0 -9 -8 -20
-9 -29 -3 -8 6 -11 10 -6 10 13 0 -26 29 -39 30 -5 0 -4 -4 4 -9 12 -8 12 -11
-1 -25 -14 -14 -18 -13 -34 9 -10 13 -21 22 -26 19 -4 -3 -8 2 -8 10 0 9 -6
13 -14 10 -8 -3 -17 -1 -21 5 -3 6 -11 11 -18 11 -6 0 -1 -7 11 -16 12 -8 19
-20 16 -26 -4 -7 -9 -7 -13 1 -4 6 -21 14 -39 17 -27 6 -33 3 -41 -17 -8 -20
-5 -28 21 -50 18 -15 28 -31 24 -37 -5 -8 -1 -10 11 -5 10 3 15 3 11 -2 -4 -4
-3 -16 3 -26 7 -13 6 -26 -1 -40 -11 -20 -11 -20 14 -4 16 11 26 13 26 6 0 -6
-5 -11 -10 -11 -6 0 -9 -5 -8 -11 5 -18 -31 -19 -42 -1 -10 18 -10 18 -14 -15
-2 -17 0 -20 10 -12 9 7 14 5 17 -8 4 -17 5 -17 6 0 0 10 6 15 11 12 6 -4 8
-11 5 -16 -4 -5 -1 -9 6 -9 6 0 9 -8 6 -20 -3 -11 -1 -18 4 -14 5 3 9 12 9 20
0 8 3 13 8 12 4 -2 8 0 10 5 5 16 1 19 -12 8 -23 -19 -26 10 -4 44 19 28 20
29 14 5 -4 -22 -4 -23 8 -8 10 14 15 15 26 5 9 -9 11 -9 6 0 -3 6 1 16 10 21
12 6 15 18 12 36 -4 21 -3 24 8 15 16 -13 43 8 36 29 -5 15 3 15 29 2 10 -6
19 -18 19 -26 0 -9 5 -13 13 -9 6 4 1 -3 -13 -14 -14 -11 -20 -21 -15 -21 6 0
21 -10 35 -21 14 -11 19 -18 12 -14 -10 5 -13 2 -10 -11 2 -11 10 -20 18 -20
8 -1 23 -2 33 -3 11 -1 15 -6 11 -13 -5 -7 -3 -8 6 -3 10 6 11 2 6 -18 -4 -19
-1 -29 11 -36 16 -9 14 -10 -8 -11 -15 0 -29 7 -33 16 -4 10 -2 13 7 8 8 -5 7
-2 -2 9 -14 17 -37 24 -27 8 7 -11 -29 -21 -59 -15 -21 4 -23 1 -20 -26 5 -36
12 -50 26 -50 6 0 7 6 3 13 -6 8 -3 8 9 -1 9 -8 21 -11 27 -7 5 3 13 0 16 -9
3 -8 12 -12 20 -9 14 5 20 24 7 22 -21 -3 -33 3 -44 22 -6 12 -7 19 -2 16 5
-3 36 -9 69 -12 32 -4 62 -12 66 -18 11 -17 -20 -21 -39 -5 -12 9 -15 9 -9 1
5 -9 2 -11 -8 -7 -20 8 -21 -13 -1 -32 8 -9 15 -11 15 -5 0 6 11 6 33 -1 17
-5 37 -10 44 -11 7 0 10 -4 7 -9 -3 -5 -9 -6 -13 -4 -4 3 -13 1 -21 -5 -15 -8
-12 -9 35 -9 3 0 14 -9 25 -20 29 -29 43 -25 38 10 -4 28 -3 30 30 30 20 0 32
3 29 6 -9 9 -86 11 -81 2 3 -4 -2 -5 -10 -2 -8 3 -17 12 -20 20 -3 8 -2 13 2
11 4 -3 16 -1 26 3 16 5 9 10 -30 20 l-49 14 47 5 c50 6 53 18 10 40 -13 7
-21 15 -18 18 3 3 12 0 21 -7 12 -10 18 -10 30 0 31 26 8 64 -31 50 -15 -6
-26 -5 -30 1 -3 6 -12 8 -20 5 -7 -3 -11 0 -8 7 3 8 -5 13 -17 14 -25 2 -42
16 -45 36 -1 11 7 12 38 7 47 -9 61 -20 27 -21 -17 -1 -19 -3 -6 -6 9 -2 17
-8 17 -12 0 -4 17 -8 37 -9 20 -1 39 -6 42 -11 4 -5 18 -11 33 -13 28 -4 51
-18 29 -18 -6 0 -23 -7 -37 -16 l-25 -17 28 -18 c27 -18 53 -26 40 -12 -11 10
44 43 73 44 20 0 16 3 -15 13 l-40 13 47 1 c49 1 71 -13 47 -30 -11 -8 -10 -9
3 -5 9 4 19 -1 22 -10 9 -22 1 -27 -21 -15 -15 9 -19 7 -19 -9 0 -12 7 -19 16
-18 27 2 35 -1 21 -10 -7 -5 -9 -11 -5 -14 5 -3 15 1 22 9 8 9 9 14 2 14 -7 0
-7 6 0 21 9 16 18 19 37 14 16 -4 22 -2 18 5 -3 6 3 10 15 10 13 0 18 -4 15
-11 -4 -6 2 -17 14 -25 12 -8 21 -20 21 -26 0 -6 -9 -3 -20 7 -18 17 -21 17
-46 1 -14 -10 -23 -20 -19 -24 3 -4 10 0 15 8 6 8 10 11 10 5 0 -5 5 -3 10 5
9 13 11 13 20 0 7 -11 5 -16 -10 -18 -18 -3 -18 -4 2 -28 12 -13 28 -24 35
-24 7 0 13 -4 13 -9 0 -17 113 -81 125 -71 7 6 16 5 23 -2 6 -6 22 -13 34 -15
18 -2 20 -1 8 6 -8 6 -11 13 -8 16 4 4 16 1 27 -7 12 -8 18 -17 15 -20 -6 -7
56 -32 74 -29 6 1 12 -2 12 -7 0 -5 10 -13 23 -17 12 -4 24 -8 27 -9 3 -1 15
-7 26 -14 12 -6 24 -9 27 -6 2 3 22 -2 42 -10 21 -9 47 -16 58 -16 15 0 18 -3
10 -11 -8 -8 -17 -8 -32 1 -12 6 -31 8 -43 4 -15 -5 -19 -3 -13 7 5 8 -4 3
-18 -10 -15 -14 -27 -19 -27 -13 0 7 5 12 12 12 6 0 9 3 5 6 -9 10 -48 -7 -41
-18 4 -6 -3 -8 -17 -7 -13 2 -29 0 -35 -4 -7 -4 -14 0 -18 8 -3 9 -12 12 -22
8 -14 -5 -16 -3 -11 12 6 13 4 15 -5 8 -9 -7 -21 -5 -38 3 -15 8 -19 14 -10
14 12 1 12 3 -2 11 -23 13 -12 42 13 36 11 -3 21 -1 24 3 3 5 -11 14 -32 19
-34 10 -40 8 -54 -10 -13 -18 -18 -19 -42 -8 -28 13 -36 29 -15 29 9 0 9 3 0
12 -8 8 -15 9 -20 3 -9 -13 -52 -18 -52 -6 0 5 -10 12 -22 15 -13 2 -4 3 20 2
53 -4 55 10 1 24 -22 6 -43 18 -46 26 -3 7 -12 14 -20 14 -8 0 -12 4 -8 9 9
16 -9 20 -23 5 -7 -8 -9 -14 -5 -14 4 0 1 -5 -7 -10 -13 -8 -12 -10 4 -10 11
0 16 -3 13 -7 -4 -3 -25 0 -47 7 -34 11 -43 11 -53 0 -10 -10 -8 -12 7 -6 13
4 26 -2 42 -19 27 -29 39 -32 30 -9 -5 14 -4 15 9 4 8 -7 12 -17 8 -23 -4 -7
0 -8 11 -4 23 9 118 -24 112 -39 -2 -6 5 -10 17 -9 36 3 98 -25 131 -57 21
-22 25 -30 12 -25 -16 6 -17 5 -6 -8 16 -20 2 -19 -50 1 -33 13 -44 14 -53 4
-9 -10 -8 -11 9 -6 13 4 26 1 34 -9 7 -8 18 -15 26 -15 7 0 16 -5 20 -11 4 -8
-1 -9 -17 -5 -13 3 -18 3 -11 0 6 -3 10 -9 7 -14 -3 -5 11 -7 32 -5 20 2 53
-3 72 -10 20 -8 56 -16 81 -19 25 -3 46 -5 48 -5 1 -1 0 -12 -4 -26 -5 -19 -2
-25 10 -25 10 0 13 -5 9 -17 -5 -12 -1 -11 15 5 12 12 31 22 43 22 13 0 18 4
13 13 -6 9 -4 9 7 1 8 -6 31 -14 51 -18 20 -4 50 -13 65 -21 15 -8 30 -11 33
-7 10 13 60 12 60 -2 0 -14 29 -30 38 -21 3 3 -3 14 -13 25 -11 12 -13 20 -6
20 7 0 9 5 6 11 -4 6 -13 8 -21 5 -8 -3 -14 -1 -14 3 0 13 34 24 38 12 2 -6
11 -11 20 -11 15 -1 15 -2 0 -11 -10 -5 -18 -15 -18 -21 0 -7 5 -6 15 2 9 7
15 8 15 2 0 -6 20 -8 50 -5 36 3 50 0 50 -9 0 -10 2 -10 9 0 7 11 17 9 50 -12
43 -28 53 -40 24 -29 -10 3 -15 2 -10 -2 4 -5 17 -9 30 -10 12 -2 21 -8 19
-14 -1 -6 5 -11 13 -11 8 0 15 -4 15 -9 0 -10 95 -22 115 -14 33 12 11 40 -27
34 -5 0 -8 6 -8 15 0 11 -6 14 -22 10 -13 -3 -17 -3 -10 0 6 3 10 10 6 15 -14
22 41 9 134 -34 l23 -11 -21 -8 c-12 -4 -18 -12 -15 -18 4 -6 11 -7 17 -4 7 4
8 2 4 -5 -4 -6 0 -14 8 -17 9 -3 16 -10 16 -14 0 -12 -62 -6 -87 8 -15 8 -23
9 -23 2 0 -6 7 -13 16 -17 15 -6 15 -8 -2 -20 -16 -12 -14 -13 20 -13 25 0 35
4 30 12 -5 7 -3 8 6 3 7 -4 40 -10 73 -11 53 -3 58 -2 41 10 -10 7 -29 17 -42
21 -13 4 -21 9 -19 12 3 2 31 -7 62 -20 55 -23 124 -27 93 -5 -10 7 -8 8 5 4
10 -3 23 -6 28 -6 6 0 8 -4 5 -9 -4 -6 115 -10 294 -10 l300 -1 0 96 c0 80 -3
99 -17 110 -17 13 -17 13 0 14 26 0 21 30 -5 31 -13 1 -27 1 -33 0 -5 -1 -2 5
8 13 11 8 25 12 33 9 11 -4 14 8 14 56 0 34 -3 60 -7 59 -5 -2 -8 2 -8 7 0 6
3 9 8 7 4 -1 7 9 7 23 0 26 -42 75 -63 75 -21 0 -291 92 -351 119 -34 16 -79
34 -101 41 -22 7 -44 16 -49 21 -13 12 -26 12 -26 0 0 -5 14 -14 30 -21 28
-11 29 -14 13 -25 -9 -7 -23 -11 -30 -8 -7 3 -13 2 -13 -1 0 -12 65 -35 71
-25 3 5 16 -2 29 -16 18 -19 20 -24 7 -19 -9 3 -17 11 -17 17 0 6 -6 2 -14 -8
-13 -18 -11 -21 26 -42 22 -13 44 -23 48 -23 5 0 26 -10 47 -22 41 -25 67 -32
57 -16 -3 5 4 12 16 15 16 4 18 8 8 14 -10 7 -10 9 2 9 13 0 13 2 0 11 -13 9
-12 10 2 5 10 -3 20 -1 23 4 3 5 12 7 20 4 8 -4 13 -10 10 -15 -3 -4 -12 -6
-20 -2 -10 3 -15 -1 -15 -12 0 -12 5 -15 18 -10 12 4 14 3 6 -5 -6 -6 -20 -13
-30 -14 -21 -3 -32 -26 -11 -26 7 0 14 -7 14 -15 0 -9 -4 -11 -11 -6 -6 5 -26
12 -44 16 -40 8 -92 34 -92 44 0 5 -19 11 -42 14 -24 3 -44 10 -46 16 -2 5
-10 7 -18 4 -8 -3 -20 -1 -27 4 -6 5 -43 22 -82 37 -38 15 -81 33 -95 39 -14
6 -27 11 -30 11 -3 1 -30 13 -60 27 -67 32 -118 52 -122 48 -2 -1 -14 4 -28
11 l-25 13 20 -23 20 -23 -22 12 c-30 15 -38 14 -23 -4 7 -8 16 -13 20 -10 5
3 28 -10 52 -29 25 -18 58 -38 74 -44 16 -6 22 -11 14 -11 -8 -1 -26 5 -40 12
-14 7 -47 19 -74 27 -28 7 -44 16 -37 18 13 4 -15 31 -34 32 -5 0 -3 -4 5 -10
8 -5 12 -11 9 -15 -7 -6 -79 22 -79 31 0 3 5 2 10 -1 6 -3 10 -1 10 6 0 6 -8
9 -20 6 -12 -3 -20 0 -20 7 0 8 -10 11 -29 8 -16 -2 -32 1 -35 7 -4 6 -1 11 6
11 7 0 -6 9 -29 21 -24 12 -43 27 -43 34 0 16 -38 26 -44 11 -3 -8 -7 -7 -14
3 -6 9 -12 10 -16 2 -7 -11 -56 6 -56 19 0 4 -20 13 -45 20 -25 7 -45 17 -45
21 0 12 13 11 45 -1 17 -6 24 -6 20 0 -3 5 -30 17 -60 25 -47 14 -93 44 -69
45 5 1 -4 8 -21 17 -24 14 -26 18 -12 21 19 4 21 11 7 32 -7 11 -10 11 -10 2
0 -7 -5 -10 -11 -7 -6 4 -8 13 -5 20 3 10 -4 13 -30 10 -21 -2 -43 4 -56 14
-13 9 -33 16 -45 15 -13 -1 -23 3 -23 8 0 6 -7 8 -15 5 -8 -4 -17 -1 -21 5 -5
7 -2 8 7 3 8 -5 11 -4 6 0 -4 5 -16 9 -27 10 -16 1 -18 -1 -7 -13 10 -13 9
-14 -8 -5 -11 6 -30 9 -42 8 -17 -1 -20 1 -12 11 6 8 6 14 0 18 -5 4 -13 2
-16 -4 -5 -8 -11 -7 -22 1 -17 14 -62 19 -69 7 -3 -5 -10 -6 -15 -2 -5 3 -17
0 -25 -7 -13 -11 -20 -8 -41 19 -13 18 -29 30 -34 26 -5 -3 -7 -10 -4 -15 9
-13 -7 -10 -29 6 -11 8 -32 12 -52 9 -24 -3 -34 0 -34 10 0 14 -29 26 -62 26
-11 0 -15 -5 -12 -15z m64 -17 c0 -6 -6 -5 -15 2 -8 7 -15 14 -15 16 0 2 7 1
15 -2 8 -4 15 -11 15 -16z m160 -40 c0 -5 -4 -7 -9 -4 -5 4 -12 0 -14 -6 -3
-7 -5 -1 -4 14 1 21 4 24 14 16 7 -6 13 -15 13 -20z m-57 8 c4 -10 1 -13 -8
-9 -8 3 -12 9 -9 14 7 12 11 11 17 -5z m150 -21 c-3 -9 -8 -14 -10 -11 -3 3
-2 9 2 15 9 16 15 13 8 -4z m37 -10 c-13 -15 -35 -11 -24 6 3 5 10 7 15 4 5
-4 9 -1 9 6 0 7 3 9 6 6 4 -4 1 -13 -6 -22z m-173 -11 c-3 -3 -12 -4 -19 -1
-8 3 -5 6 6 6 11 1 17 -2 13 -5z m88 -20 l30 -14 -35 5 c-19 3 -39 10 -44 15
-15 15 14 12 49 -6z m-232 -1 c-7 -2 -21 -2 -30 0 -10 3 -4 5 12 5 17 0 24 -2
18 -5z m551 -11 c3 -5 -1 -9 -9 -9 -8 0 -12 4 -9 9 3 4 7 8 9 8 2 0 6 -4 9 -8z
m-414 -12 c0 -5 -4 -10 -10 -10 -5 0 -10 5 -10 10 0 6 5 10 10 10 6 0 10 -4
10 -10z m490 -20 c0 -5 -2 -10 -4 -10 -3 0 -8 5 -11 10 -3 6 -1 10 4 10 6 0
11 -4 11 -10z m-450 -10 c0 -5 -7 -7 -15 -4 -8 4 -15 8 -15 10 0 2 7 4 15 4 8
0 15 -4 15 -10z m45 -1 c6 -4 36 -14 68 -24 31 -10 57 -22 57 -26 0 -5 -12 -4
-26 2 -15 5 -29 7 -32 5 -5 -5 -102 41 -102 48 0 6 22 2 35 -5z m420 -19 c-3
-5 -12 -10 -18 -10 -7 0 -6 4 3 10 19 12 23 12 15 0z m-1171 -61 c13 -26 13
-29 1 -19 -11 9 -15 9 -15 1 0 -6 -5 -11 -11 -11 -5 0 -8 4 -5 9 3 5 -1 14 -9
21 -10 9 -15 9 -15 1 0 -14 -30 -14 -50 -1 -13 9 -13 11 0 20 8 5 32 10 52 10
31 0 39 -5 52 -31z m437 5 c27 -9 49 -22 49 -30 0 -8 7 -14 16 -14 8 0 12 -4
9 -10 -3 -5 -13 -10 -21 -10 -8 0 -12 5 -9 11 4 6 -2 13 -14 16 -12 3 -21 10
-21 15 0 5 -10 8 -22 7 -13 -2 -32 0 -43 3 -55 17 -69 20 -63 13 4 -5 2 -15
-5 -23 -10 -13 -9 -15 5 -10 17 7 53 -24 41 -35 -3 -4 -2 -7 4 -7 6 0 14 7 17
16 4 10 2 13 -7 8 -9 -5 -9 -4 0 6 9 10 14 10 25 -1 16 -17 23 -54 9 -44 -6 3
-11 -2 -12 -12 0 -10 -3 -13 -5 -6 -3 7 -12 9 -21 6 -11 -4 -14 -2 -9 5 5 8 0
12 -13 12 -12 0 -21 5 -21 10 0 10 -44 33 -65 34 -5 1 -15 6 -21 11 -9 7 -4
15 15 27 33 23 116 23 182 2z m434 -4 c8 -13 -15 -13 -35 0 -12 8 -11 10 7 10
12 0 25 -4 28 -10z m350 -18 c-3 -3 -11 0 -18 7 -9 10 -8 11 6 5 10 -3 15 -9
12 -12z m-1044 -25 c-1 -12 -15 -9 -19 4 -3 6 1 10 8 8 6 -3 11 -8 11 -12z
m286 -3 c-3 -3 -12 -4 -19 -1 -8 3 -5 6 6 6 11 1 17 -2 13 -5z m305 -18 c7 4
8 2 4 -4 -10 -16 16 -15 34 1 12 10 12 9 0 -6 -17 -23 -54 -18 -57 8 -2 11 0
14 3 7 3 -6 11 -9 16 -6z m88 0 c0 -3 -4 -8 -10 -11 -5 -3 -10 -1 -10 4 0 6 5
11 10 11 6 0 10 -2 10 -4z m-370 -16 c13 -8 12 -10 -3 -10 -10 0 -15 -4 -12
-10 8 -14 52 -13 57 1 3 8 16 8 48 -1 62 -15 74 -20 68 -25 -3 -3 -27 2 -54
10 -63 19 -64 19 -34 -6 21 -17 22 -20 5 -15 -11 3 -38 6 -60 7 -30 2 -39 0
-37 -11 2 -11 -1 -10 -11 2 -8 10 -16 15 -19 12 -3 -2 -8 2 -11 11 -5 10 0 15
13 15 11 0 19 3 19 8 -4 24 6 28 31 12z m381 -24 c28 -9 51 -11 60 -5 19 12
29 11 29 -2 0 -5 -4 -8 -9 -4 -5 3 -12 1 -16 -5 -8 -13 11 -13 35 0 16 8 18 7
14 -4 -6 -16 14 -23 76 -28 19 -2 33 -7 30 -12 -3 -4 11 -13 30 -20 25 -8 35
-17 35 -31 0 -16 -6 -20 -28 -18 -15 1 -25 -2 -22 -8 8 -12 -12 -11 -37 2 -17
9 -18 13 -7 20 11 7 9 9 -8 9 -12 0 -25 5 -28 10 -4 6 -3 10 2 9 4 -1 17 -1
27 0 20 1 20 1 0 16 -10 8 -30 14 -44 15 -19 0 -22 -2 -10 -10 23 -14 2 -25
-23 -11 -13 7 -39 13 -57 13 -19 1 -46 9 -59 19 -29 23 -18 24 39 4 52 -18 55
-18 41 -2 -6 8 -36 20 -66 27 -30 7 -55 17 -55 22 0 10 -4 10 51 -6z m-645
-27 c3 -6 14 -9 23 -6 11 3 17 -2 18 -14 1 -15 -2 -17 -15 -10 -32 18 -57 40
-45 41 6 0 15 -5 19 -11z m591 -11 c-3 -8 -6 -5 -6 6 -1 11 2 17 5 13 3 -3 4
-12 1 -19z m-99 3 c11 -6 9 -9 -5 -13 -11 -3 -28 1 -38 8 -18 13 -17 14 6 14
13 0 30 -4 37 -9z m-16 -29 c15 3 26 0 25 -6 -1 -6 9 -12 23 -13 21 -2 22 -1
6 5 -24 11 -9 20 24 17 36 -5 36 -5 22 -14 -10 -6 0 -12 31 -22 25 -7 44 -16
41 -20 -2 -4 0 -10 6 -14 5 -3 10 -1 10 4 0 6 7 11 16 11 9 0 14 -7 12 -17 -4
-21 -34 -19 -60 4 -9 8 -21 12 -27 9 -5 -4 -36 2 -68 13 -53 18 -120 34 -140
33 -5 0 -14 4 -20 10 -25 21 -12 25 29 11 24 -8 55 -13 70 -11z m153 8 c3 -6
-1 -7 -9 -4 -18 7 -21 14 -7 14 6 0 13 -4 16 -10z m-530 -10 c4 -6 -6 -10 -22
-9 -25 0 -26 1 -8 9 11 5 21 9 22 9 1 1 5 -3 8 -9z m148 -19 c5 -1 5 -5 2 -11
-5 -8 -22 -8 -53 -1 -2 1 -1 5 2 10 4 5 14 8 24 6 9 -2 21 -4 25 -4z m-205
-18 c16 -16 16 -16 -1 -10 -10 4 -23 7 -28 7 -5 0 -9 5 -9 10 0 15 20 12 38
-7z m-143 -42 c-6 -5 -25 10 -25 20 0 5 6 4 14 -3 8 -7 12 -15 11 -17z m230
19 c3 -5 -1 -10 -9 -10 -9 0 -16 5 -16 10 0 6 4 10 9 10 6 0 13 -4 16 -10z
m655 -20 c-13 -9 -13 -10 0 -10 13 0 13 -1 0 -10 -8 -5 -12 -10 -7 -11 4 -1
10 -2 15 -3 4 -1 16 -7 27 -14 19 -12 18 -13 -5 -6 -43 11 -52 25 -41 62 1 1
7 2 14 2 8 0 7 -4 -3 -10z m-218 -21 c-2 -8 0 -11 3 -7 4 4 22 0 39 -9 28 -15
44 -20 83 -25 7 -1 14 -7 17 -15 3 -7 12 -13 21 -13 8 0 15 -4 15 -10 0 -12
-2 -12 -37 1 -15 6 -30 10 -32 9 -2 -1 -7 3 -10 8 -9 15 -61 26 -61 14 0 -5 9
-12 20 -15 11 -3 20 -10 20 -16 0 -7 -8 -7 -25 1 -14 6 -25 15 -25 19 0 5 -8
6 -17 3 -10 -2 -8 1 5 7 12 7 22 16 22 21 0 5 -7 5 -17 0 -12 -7 -24 -5 -40 5
-21 14 -25 14 -42 -1 -20 -18 -31 -21 -31 -7 0 11 71 49 85 46 6 -1 9 -9 7
-16z m295 6 c14 -14 13 -15 -13 -9 -39 9 -54 24 -25 24 12 0 29 -7 38 -15z
m231 -24 c12 -6 22 -14 22 -17 0 -3 -4 -3 -8 0 -5 3 -19 7 -33 10 -13 2 -37 7
-53 11 -22 6 -27 5 -21 -5 6 -9 3 -10 -13 -1 -11 6 -22 16 -25 24 -4 11 5 11
52 1 32 -6 67 -17 79 -23z m-335 4 c26 -29 107 -49 92 -24 -6 11 -5 12 6 2 7
-7 27 -13 44 -13 35 0 55 -15 55 -42 0 -25 -22 -22 -50 7 -22 24 -47 35 -36
16 4 -5 0 -11 -6 -14 -14 -4 43 -37 65 -37 21 0 41 -26 27 -35 -8 -5 -6 -14 5
-31 15 -23 15 -23 -10 -14 -14 5 -25 6 -25 2 0 -4 -5 1 -11 11 -7 12 -17 16
-30 12 -15 -5 -19 -2 -18 17 0 13 3 17 6 11 2 -7 12 -13 21 -13 13 0 12 3 -4
15 -23 17 -34 19 -34 5 0 -20 -24 -36 -47 -32 -29 5 -38 18 -18 26 8 3 15 1
15 -5 0 -6 8 -9 17 -7 21 4 14 22 -11 25 -29 5 -30 9 -9 31 27 28 25 37 -10
37 -21 0 -31 5 -29 13 1 7 -9 17 -23 22 -16 6 -23 14 -19 25 8 20 9 19 37 -10z
m927 10 c0 -12 -19 -12 -23 0 -4 9 -1 12 9 8 7 -3 14 -7 14 -8z m-1580 -15 c0
-5 -5 -10 -11 -10 -5 0 -7 5 -4 10 3 6 8 10 11 10 2 0 4 -4 4 -10z m1080 -35
c0 -4 -23 -2 -48 4 -2 1 0 6 3 11 6 10 45 -4 45 -15z m-120 -5 c0 -5 -2 -10
-4 -10 -3 0 -8 5 -11 10 -3 6 -1 10 4 10 6 0 11 -4 11 -10z m1148 -6 c18 -8
34 -20 38 -25 3 -6 -7 -4 -22 5 -63 34 -75 50 -16 20z m-366 -32 c-10 -3 -72
24 -72 32 0 3 19 -3 41 -12 23 -9 37 -18 31 -20z m278 23 c0 -9 6 -12 15 -9
10 4 13 2 10 -8 -4 -10 7 -20 35 -31 28 -11 39 -20 34 -28 -5 -9 -11 -7 -20 5
-7 10 -17 15 -23 11 -6 -3 -11 -1 -11 4 0 6 -5 11 -11 11 -5 0 -7 -6 -3 -12 6
-9 3 -9 -9 0 -9 8 -16 17 -15 20 3 16 -15 41 -25 35 -6 -3 -7 -1 -3 5 10 17
26 15 26 -3z m-1344 -32 c-7 -7 -26 7 -26 19 0 6 6 6 15 -2 9 -7 13 -15 11
-17z m114 17 c0 -5 -2 -10 -4 -10 -3 0 -8 5 -11 10 -3 6 -1 10 4 10 6 0 11 -4
11 -10z m150 -8 c0 10 82 -22 95 -36 13 -15 95 -46 122 -46 42 0 156 -42 178
-66 14 -16 33 -24 54 -24 17 0 39 -4 49 -9 9 -5 29 -14 45 -22 15 -7 27 -16
27 -21 0 -16 -45 -8 -95 17 -27 13 -55 25 -62 25 -7 0 -17 8 -22 18 -10 16
-10 15 -11 -3 -1 -18 -2 -18 -10 -3 -6 10 -18 14 -31 11 -19 -5 -19 -7 11 -34
17 -16 37 -30 43 -30 24 -2 33 -5 80 -27 27 -12 53 -22 58 -22 5 0 9 -5 9 -10
0 -6 3 -9 8 -8 4 1 25 -9 47 -23 22 -13 44 -23 48 -21 5 1 6 -2 2 -8 -4 -7
-12 -7 -24 0 -10 5 -21 7 -23 4 -8 -7 -58 18 -53 26 3 4 -9 6 -25 4 -16 -2
-32 1 -35 6 -3 6 2 10 12 11 14 0 12 3 -6 10 -14 5 -31 7 -39 4 -9 -3 -12 0
-9 9 4 9 -9 19 -41 31 -26 9 -55 26 -64 37 -10 11 -29 21 -42 22 -13 0 -22 4
-20 8 6 9 -47 49 -57 42 -5 -3 -14 -2 -20 2 -8 4 -7 9 2 15 11 7 10 9 -3 9
-10 0 -18 -4 -18 -8 0 -5 -7 -9 -15 -9 -8 0 -12 4 -9 9 3 4 -13 8 -34 8 -23 0
-45 6 -52 15 -7 8 -19 15 -26 15 -19 0 -18 16 2 24 8 3 12 2 9 -4 -3 -6 3 -10
15 -10 19 0 20 2 6 15 -20 21 -97 47 -118 41 -10 -2 -18 0 -18 4 0 13 44 17
52 5 4 -5 8 -7 8 -3z m95 8 c3 -5 1 -10 -4 -10 -6 0 -11 5 -11 10 0 6 2 10 4
10 3 0 8 -4 11 -10z m730 -36 c28 -7 68 -16 90 -20 37 -6 38 -8 15 -14 -28 -9
-27 -10 15 -15 17 -2 48 -8 70 -14 l40 -11 -45 6 c-25 3 -59 6 -76 7 l-31 2
26 -27 c27 -30 42 -38 21 -13 -13 16 -10 18 14 9 8 -3 12 -12 9 -20 -4 -10 0
-12 13 -7 13 5 15 3 9 -8 -7 -11 -6 -12 6 -2 17 14 45 1 35 -16 -5 -7 1 -11
14 -11 12 0 18 4 15 10 -3 6 1 7 10 3 13 -4 14 -8 4 -14 -8 -5 -1 -7 19 -7 19
1 38 -6 45 -15 9 -11 22 -13 47 -9 33 5 34 6 10 13 l-25 7 28 1 c37 1 34 -16
-5 -33 -22 -8 -39 -10 -51 -4 -9 5 -23 6 -29 2 -7 -5 -8 -3 -3 6 6 10 4 12 -8
7 -10 -4 -17 -2 -17 4 0 6 -6 9 -13 6 -26 -10 -243 108 -294 159 -26 26 -38
44 -28 40 11 -5 43 -14 70 -22z m492 -10 c-3 -3 -12 -4 -19 -1 -8 3 -5 6 6 6
11 1 17 -2 13 -5z m-260 -20 c-3 -3 -12 -4 -19 -1 -8 3 -5 6 6 6 11 1 17 -2
13 -5z m-1107 -19 c34 -18 38 -25 13 -20 -10 2 -23 4 -29 4 -11 1 -29 31 -18
31 3 0 18 -7 34 -15z m1363 -4 c4 -4 0 -14 -9 -22 -13 -10 -16 -10 -10 -1 6
10 2 11 -17 7 -15 -4 -28 -2 -32 6 -6 8 -4 10 5 4 10 -6 12 -4 7 8 -5 12 0 14
21 11 15 -3 31 -9 35 -13z m31 -16 c3 -8 1 -15 -4 -15 -6 0 -10 7 -10 15 0 8
2 15 4 15 2 0 6 -7 10 -15z m-216 -16 c24 -1 23 -2 -8 -9 -36 -9 -50 -6 -50
12 0 5 7 7 16 4 9 -3 28 -6 42 -7z m276 2 c-8 -8 -34 -10 -38 -2 -3 4 6 7 19
7 14 0 22 -2 19 -5z m-112 -18 c21 -9 38 -21 38 -26 0 -4 5 -5 10 -2 6 3 10 1
10 -5 0 -7 -7 -9 -16 -6 -9 3 -20 6 -25 6 -6 0 -7 5 -3 12 5 8 2 9 -9 5 -9 -3
-19 -2 -22 3 -4 6 -15 10 -26 10 -11 0 -17 5 -14 10 8 13 12 13 57 -7z m178
-2 c0 -13 -29 -8 -34 5 -3 7 2 10 15 7 10 -3 19 -9 19 -12z m-1496 3 c9 -3 13
-10 10 -15 -5 -8 10 -13 29 -10 5 1 6 -3 3 -8 -9 -14 -45 -1 -57 20 -11 21 -9
22 15 13z m271 -42 c-3 -3 -11 0 -18 7 -9 10 -8 11 6 5 10 -3 15 -9 12 -12z
m949 6 c-3 -4 -9 -8 -15 -8 -5 0 -9 4 -9 8 0 5 7 9 15 9 8 0 12 -4 9 -9z m234
-14 c7 -2 10 -9 7 -14 -5 -8 -11 -7 -21 1 -12 10 -13 9 -8 -6 6 -15 5 -16 -14
-4 -46 29 -25 42 36 23z m-1408 -14 c-12 -12 -18 -25 -15 -30 3 -5 -4 -8 -15
-7 -11 1 -20 7 -20 14 0 7 -5 13 -12 13 -6 0 -9 3 -6 6 4 3 16 0 28 -6 13 -7
20 -8 16 -2 -4 6 2 15 11 21 29 17 35 13 13 -9z m1217 14 c-3 -3 -12 -4 -19
-1 -8 3 -5 6 6 6 11 1 17 -2 13 -5z m98 -4 c23 -6 17 -7 -27 -7 -32 1 -58 5
-58 9 0 10 44 8 85 -2z m-1261 -9 c10 -16 -5 -43 -18 -32 -6 5 -15 9 -21 9 -5
0 -11 6 -13 12 -3 8 3 10 18 5 15 -5 20 -4 16 4 -4 6 -3 11 3 11 5 0 12 -4 15
-9z m188 0 c3 -1 4 -10 1 -21 -3 -11 -9 -17 -14 -15 -4 3 -5 13 -2 22 4 10 2
14 -5 9 -6 -3 -13 -2 -16 3 -4 5 2 8 11 6 10 -2 21 -4 25 -4z m788 -45 c31
-18 64 -32 73 -30 9 1 15 -1 14 -4 -1 -4 1 -8 6 -9 16 -6 27 -3 27 8 0 17 28
40 35 29 3 -5 2 -10 -3 -10 -6 0 -12 -7 -16 -15 -5 -13 -2 -14 15 -4 15 8 19
8 15 0 -4 -6 -2 -11 3 -11 6 0 11 5 11 10 0 6 4 10 10 10 5 0 7 -7 4 -15 -6
-13 11 -20 38 -16 4 0 4 -7 1 -16 -5 -12 -2 -15 10 -10 9 3 17 2 17 -3 0 -6
-16 -9 -35 -7 -19 1 -35 6 -35 10 0 5 -4 5 -10 2 -5 -3 -10 2 -10 12 0 15 -2
16 -10 3 -6 -9 -10 -11 -10 -3 0 7 -7 10 -15 6 -18 -6 -123 24 -145 42 -8 7
-37 25 -65 40 -48 26 -48 27 -15 21 19 -4 60 -21 90 -40z m432 32 c-9 -9 -15
-9 -24 0 -9 9 -7 12 12 12 19 0 21 -3 12 -12z m-1744 -7 c11 -7 10 -9 -3 -14
-9 -4 -14 -3 -10 2 3 5 -1 12 -7 14 -7 3 -8 6 -3 6 6 0 16 -3 23 -8z m382 0
c0 -6 -4 -12 -8 -15 -5 -3 -9 1 -9 9 0 8 4 15 9 15 4 0 8 -4 8 -9z m1240 -11
c0 -5 -2 -10 -4 -10 -3 0 -8 5 -11 10 -3 6 -1 10 4 10 6 0 11 -4 11 -10z m79
-20 c11 0 23 -5 27 -11 4 -7 0 -9 -12 -6 -11 4 -31 9 -46 12 -15 4 -29 14 -32
22 -6 14 -3 13 18 -1 14 -9 34 -16 45 -16z m-1486 -4 c21 -9 51 -19 68 -23 35
-7 46 -20 29 -36 -10 -9 -11 -9 -6 0 4 8 -5 14 -29 19 -19 3 -35 11 -35 16 0
6 -13 8 -32 4 -21 -4 -28 -3 -19 3 16 10 4 18 -26 16 -12 -1 -24 4 -27 12 -7
17 23 13 77 -11z m250 4 c-4 -16 -9 -18 -25 -9 -17 9 -18 13 -7 20 24 15 37
10 32 -11z m-136 -6 c-3 -3 -12 -4 -19 -1 -8 3 -5 6 6 6 11 1 17 -2 13 -5z
m343 -4 c8 -5 11 -10 5 -10 -5 0 -17 5 -25 10 -8 5 -10 10 -5 10 6 0 17 -5 25
-10z m-276 -6 c23 -9 20 -23 -4 -17 -11 3 -20 9 -20 14 0 11 3 11 24 3z m-46
-49 c-3 -3 -9 2 -12 12 -6 14 -5 15 5 6 7 -7 10 -15 7 -18z m102 13 c0 -6 -3
-8 -7 -4 -4 3 -13 -4 -20 -16 -7 -13 -12 -17 -13 -10 0 7 -4 10 -10 7 -15 -9
-12 2 6 19 18 19 44 21 44 4z m1160 -40 c0 -4 -4 -8 -9 -8 -6 0 -12 4 -15 8
-3 5 1 9 9 9 8 0 15 -4 15 -9z m-862 -22 c17 -15 20 -15 25 -1 8 19 43 20 50
1 8 -21 -63 -33 -75 -13 -4 9 -16 13 -27 10 -10 -2 -21 1 -24 9 -7 20 27 16
51 -6z m185 -3 c-17 -14 -17 -14 2 -8 14 4 17 3 9 -5 -6 -6 -18 -8 -27 -4 -13
5 -14 9 -5 24 6 10 18 16 25 13 11 -4 10 -9 -4 -20z m634 11 c-3 -3 -12 -4
-19 -1 -8 3 -5 6 6 6 11 1 17 -2 13 -5z m-541 -24 c9 0 13 -4 10 -9 -7 -11
-56 -2 -56 11 0 6 7 7 16 4 9 -3 22 -6 30 -6z m-61 -10 c-3 -5 -2 -10 2 -10 5
0 18 -7 29 -15 17 -14 17 -14 -11 -3 -16 7 -32 13 -34 14 -4 3 9 24 15 24 3 0
2 -4 -1 -10z m204 -44 c19 -7 31 -15 25 -18 -5 -3 -25 2 -44 13 -40 21 -31 23
19 5z m195 -81 c26 -19 2 -19 -39 0 -29 13 -29 13 -5 14 14 0 34 -6 44 -14z"/>
<path d="M2665 860 c3 -5 11 -10 16 -10 6 0 7 5 4 10 -3 6 -11 10 -16 10 -6 0
-7 -4 -4 -10z"/>
<path d="M3435 710 c3 -5 8 -10 11 -10 2 0 4 5 4 10 0 6 -5 10 -11 10 -5 0 -7
-4 -4 -10z"/>
<path d="M3467 689 c7 -7 15 -10 18 -7 3 3 -2 9 -12 12 -14 6 -15 5 -6 -5z"/>
<path d="M3386 535 c-11 -8 -15 -15 -9 -15 6 0 16 7 23 15 16 19 11 19 -14 0z"/>
<path d="M3493 495 c0 -7 6 -11 14 -8 7 3 13 6 13 8 0 2 -6 5 -13 8 -8 3 -14
-1 -14 -8z"/>
<path d="M3726 465 c4 -8 8 -15 10 -15 2 0 4 7 4 15 0 8 -4 15 -10 15 -5 0 -7
-7 -4 -15z"/>
<path d="M3688 463 c7 -3 16 -2 19 1 4 3 -2 6 -13 5 -11 0 -14 -3 -6 -6z"/>
<path d="M3873 433 c9 -2 15 -8 13 -12 -3 -4 1 -8 9 -8 11 0 12 4 4 14 -6 7
-19 12 -28 12 -13 -1 -13 -2 2 -6z"/>
<path d="M188 1153 c6 -2 18 -2 25 0 6 3 1 5 -13 5 -14 0 -19 -2 -12 -5z"/>
<path d="M1720 1130 c0 -6 11 -15 24 -20 13 -5 26 -15 29 -22 3 -9 7 -8 12 5
5 12 1 23 -11 32 -22 17 -54 20 -54 5z"/>
<path d="M3083 1115 c0 -7 6 -11 14 -8 7 3 13 6 13 8 0 2 -6 5 -13 8 -8 3 -14
-1 -14 -8z"/>
<path d="M2358 1113 c7 -3 16 -2 19 1 4 3 -2 6 -13 5 -11 0 -14 -3 -6 -6z"/>
<path d="M465 1100 c-3 -6 1 -7 9 -4 18 7 21 14 7 14 -6 0 -13 -4 -16 -10z"/>
<path d="M593 1096 c-28 -13 -29 -21 -3 -23 11 -1 18 2 15 7 -3 4 1 10 7 13 7
2 11 6 8 9 -3 2 -15 -1 -27 -6z"/>
<path d="M1225 1100 c3 -5 16 -10 28 -10 18 0 19 2 7 10 -20 13 -43 13 -35 0z"/>
<path d="M520 1086 c0 -9 -9 -13 -25 -11 -25 2 -31 -10 -17 -31 4 -6 27 -14
52 -18 45 -7 45 -7 17 9 -15 9 -33 13 -39 9 -7 -4 -8 -3 -4 4 4 7 14 12 22 12
9 0 12 5 8 11 -3 6 0 15 7 20 11 7 10 9 -3 9 -10 0 -18 -6 -18 -14z"/>
<path d="M1495 1090 c-3 -5 -1 -10 4 -10 6 0 11 5 11 10 0 6 -2 10 -4 10 -3 0
-8 -4 -11 -10z"/>
<path d="M38 1083 c7 -3 16 -2 19 1 4 3 -2 6 -13 5 -11 0 -14 -3 -6 -6z"/>
<path d="M648 1083 c7 -3 16 -2 19 1 4 3 -2 6 -13 5 -11 0 -14 -3 -6 -6z"/>
<path d="M52 1063 c-22 -3 -30 -8 -25 -16 4 -7 0 -6 -10 2 -15 12 -17 11 -17
-3 0 -18 25 -22 36 -5 4 7 21 9 40 6 25 -4 34 -2 34 9 0 8 -6 13 -12 12 -7 0
-28 -3 -46 -5z"/>
<path d="M1400 1061 c0 -6 4 -13 10 -16 6 -3 7 1 4 9 -7 18 -14 21 -14 7z"/>
<path d="M2375 1061 c-9 -16 9 -20 23 -5 10 12 10 14 -2 14 -8 0 -17 -4 -21
-9z"/>
<path d="M2488 1053 c7 -3 16 -2 19 1 4 3 -2 6 -13 5 -11 0 -14 -3 -6 -6z"/>
<path d="M314 1036 c23 -19 32 -20 41 -6 3 6 0 10 -9 10 -8 0 -23 3 -33 6 -16
5 -16 4 1 -10z"/>
<path d="M2198 1043 c6 -2 18 -2 25 0 6 3 1 5 -13 5 -14 0 -19 -2 -12 -5z"/>
<path d="M2400 1041 c0 -5 10 -11 23 -15 38 -10 43 -7 13 9 -33 17 -36 18 -36
6z"/>
<path d="M208 1034 c6 -3 10 -10 6 -15 -3 -5 5 -9 18 -9 20 -1 21 -2 6 -10
-11 -7 -25 -6 -42 2 -20 8 -32 8 -51 0 -32 -15 -38 -15 -30 -2 3 6 -3 10 -15
10 -12 0 -18 5 -15 10 8 13 -14 13 -54 -1 -38 -13 -42 -39 -5 -39 16 0 23 -4
18 -11 -5 -9 1 -10 22 -5 20 4 24 4 15 -3 -11 -7 -6 -11 22 -16 21 -4 47 -5
60 -2 21 6 21 5 4 -8 -16 -11 -26 -11 -70 2 -29 8 -56 16 -62 17 -5 1 -15 5
-22 9 -9 6 -12 -12 -11 -72 1 -64 4 -81 17 -84 13 -4 13 -5 -1 -6 -10 0 -18
-5 -18 -10 0 -5 7 -8 16 -7 9 0 19 -6 21 -14 4 -12 3 -13 -5 -1 -5 7 -15 10
-21 7 -16 -10 -4 -26 20 -26 31 0 23 -30 -8 -31 -27 -2 -27 -2 -3 -6 31 -6 45
-19 31 -27 -6 -4 -11 -3 -11 2 0 6 -9 8 -20 5 -17 -5 -20 -14 -20 -63 0 -37 5
-62 14 -69 11 -9 15 -7 19 10 4 16 11 20 23 15 10 -4 21 -1 26 6 7 10 9 9 5
-2 -2 -8 -14 -21 -28 -27 -24 -13 -24 -13 -1 -13 12 0 22 5 22 11 0 7 10 9 26
5 17 -5 23 -3 19 4 -6 9 8 15 28 11 5 -1 6 3 2 9 -3 6 -10 8 -13 6 -4 -2 -18
2 -32 10 l-25 14 25 -4 c14 -3 30 -5 36 -5 5 -1 21 -11 33 -22 16 -15 19 -24
11 -29 -8 -5 -8 -9 3 -13 19 -7 89 17 80 28 -5 4 3 5 17 0 14 -4 42 -10 64
-12 47 -6 42 11 -6 22 -72 15 -145 12 -118 -5 9 -5 9 -9 1 -14 -6 -4 -11 -2
-11 4 0 6 -6 8 -12 4 -7 -4 -4 3 7 16 17 20 18 23 3 17 -10 -4 -18 -2 -18 3 0
6 -7 10 -16 10 -8 0 -12 5 -9 10 4 7 12 7 24 0 10 -5 21 -6 25 -2 4 3 11 0 16
-8 7 -11 10 -11 10 -2 0 8 8 10 24 6 14 -3 33 -1 43 6 15 10 16 11 1 6 -10 -3
-20 -1 -22 3 -3 5 -22 7 -43 5 -29 -2 -34 0 -20 7 9 6 21 8 26 5 12 -8 27 15
29 44 1 18 -1 21 -8 10 -5 -8 -6 -18 -4 -22 6 -9 -46 -31 -54 -24 -9 9 20 36
31 29 6 -3 7 -1 3 5 -4 7 -13 12 -20 12 -24 0 -69 27 -54 33 8 3 4 9 -12 16
l-25 12 25 -7 c14 -3 42 -5 62 -4 46 1 80 -15 76 -37 -2 -9 2 -18 9 -20 8 -3
10 5 7 24 -3 21 -2 24 5 13 9 -13 12 -12 26 5 9 11 14 14 10 8 -8 -17 3 -16
53 1 22 8 50 12 61 9 12 -3 28 0 36 7 8 6 18 9 22 7 5 -3 19 1 33 9 24 13 24
13 -10 7 -19 -3 -41 -11 -49 -17 -10 -8 -17 -6 -27 8 -10 14 -17 16 -26 9 -19
-15 -64 -10 -60 7 3 11 0 11 -12 0 -9 -7 -16 -9 -16 -4 0 5 -11 14 -25 21 -14
6 -25 7 -25 3 0 -15 -39 -22 -57 -10 -16 10 -15 11 6 6 21 -4 22 -3 10 9 -8 8
-43 17 -79 20 -46 4 -61 3 -50 -5 22 -14 7 -12 -24 4 -26 13 -26 13 21 19 53
7 64 6 108 -12 17 -7 46 -14 65 -16 19 -1 44 -6 55 -10 11 -4 7 2 -10 14 -16
11 -37 21 -45 21 -11 1 -10 4 4 15 11 8 18 15 15 16 -2 0 -12 2 -21 4 -10 2
-18 -3 -18 -11 0 -8 -4 -14 -10 -14 -5 0 -7 6 -4 13 3 8 -5 19 -18 25 -19 9
-13 10 32 6 39 -3 51 -2 40 5 -8 6 -21 11 -28 11 -7 0 -20 6 -27 14 -21 20 4
39 35 28 27 -10 120 6 120 20 0 6 -8 7 -17 3 -10 -4 -28 -9 -40 -10 -12 -2
-25 -5 -30 -8 -4 -2 -17 -1 -28 4 -18 7 -18 8 5 8 14 1 32 6 40 12 12 9 11 10
-7 6 -12 -3 -30 1 -40 8 -10 7 -43 15 -73 19 -30 3 -49 3 -42 0z m79 -20 c-3
-3 -12 -4 -19 -1 -8 3 -5 6 6 6 11 1 17 -2 13 -5z m-244 -21 c-7 -2 -19 -2
-25 0 -7 3 -2 5 12 5 14 0 19 -2 13 -5z m247 0 c-8 -4 -20 -13 -26 -21 -6 -9
-25 -15 -44 -14 -47 1 -50 12 -3 12 27 0 43 5 47 15 3 8 13 15 23 14 14 0 15
-2 3 -6z m-107 -110 c-7 -2 -19 -2 -25 0 -7 3 -2 5 12 5 14 0 19 -2 13 -5z
m-58 -74 c-9 -13 12 -20 65 -21 71 -2 51 -13 -25 -13 -38 0 -69 -6 -79 -14 -9
-8 -19 -11 -23 -7 -3 3 0 6 8 6 10 1 8 5 -5 15 -11 8 -14 15 -7 15 7 0 10 4 7
9 -7 11 10 18 41 18 13 0 20 -3 18 -8z m42 -5 c-3 -3 -12 -4 -19 -1 -8 3 -5 6
6 6 11 1 17 -2 13 -5z m184 -17 c-5 -5 -17 -5 -28 2 -16 9 -15 10 9 9 16 -2
24 -6 19 -11z m-241 -61 c0 -3 -4 -8 -10 -11 -5 -3 -10 -1 -10 4 0 6 5 11 10
11 6 0 10 -2 10 -4z m110 -36 c0 -5 -9 -8 -20 -7 -22 1 -27 13 -7 20 14 5 27
-1 27 -13z m-10 -30 c0 -10 -101 -33 -108 -25 -3 3 9 11 26 17 18 7 32 15 32
19 0 3 11 4 25 1 14 -2 25 -8 25 -12z"/>
<path d="M82 793 c-6 -2 -10 -9 -7 -13 7 -11 35 -2 35 11 0 10 -8 10 -28 2z"/>
<path d="M2555 1029 c-4 -6 -23 -8 -44 -5 -27 3 -38 1 -38 -8 0 -9 12 -10 46
-5 25 4 52 8 59 8 17 1 15 21 -2 21 -8 0 -18 -5 -21 -11z"/>
<path d="M2090 1015 c0 -9 9 -15 21 -15 18 0 19 2 5 15 -8 8 -17 15 -20 15 -3
0 -6 -7 -6 -15z"/>
<path d="M1150 1016 c0 -2 7 -6 15 -10 8 -3 15 -1 15 4 0 6 -7 10 -15 10 -8 0
-15 -2 -15 -4z"/>
<path d="M609 997 c5 -5 19 -7 32 -5 20 3 19 5 -9 9 -20 3 -29 2 -23 -4z"/>
<path d="M2138 993 c-24 -6 -23 -19 2 -26 11 -3 18 -1 14 4 -3 5 0 9 5 9 6 0
11 5 11 10 0 10 -3 11 -32 3z"/>
<path d="M3566 992 c-9 -15 12 -35 32 -30 10 3 27 1 37 -5 12 -6 16 -6 11 1
-5 9 -62 42 -72 42 -2 0 -5 -4 -8 -8z m29 -12 c3 -6 -1 -7 -9 -4 -18 7 -21 14
-7 14 6 0 13 -4 16 -10z"/>
<path d="M790 985 c0 -3 8 -14 17 -23 12 -12 18 -13 21 -4 2 8 13 10 30 6 19
-5 24 -3 17 4 -12 12 -85 27 -85 17z"/>
<path d="M1687 971 c-17 -6 -17 -8 3 -26 21 -19 23 -19 35 -2 6 9 20 17 30 17
26 0 16 6 -20 12 -16 3 -38 3 -48 -1z"/>
<path d="M2485 969 c-31 -7 -24 -10 32 -15 18 -1 36 3 40 9 3 7 3 9 -2 5 -4
-4 -15 -4 -24 1 -9 4 -29 4 -46 0z"/>
<path d="M615 950 c-7 -12 22 -12 50 0 17 7 15 9 -12 9 -17 1 -35 -3 -38 -9z"/>
<path d="M700 941 c0 -6 -8 -11 -17 -11 -14 0 -15 -2 -4 -9 17 -11 -50 -21
-149 -22 -103 0 -127 -3 -137 -13 -5 -5 9 -6 32 -3 23 4 58 2 79 -4 21 -6 42
-7 45 -2 10 13 111 15 181 3 61 -11 84 -12 153 -6 18 1 26 -2 23 -10 -3 -7 12
-3 35 9 34 18 41 19 49 7 8 -13 10 -12 10 3 0 10 8 17 18 17 27 0 34 -11 19
-29 -11 -14 -10 -14 5 -3 17 13 17 15 0 38 -17 24 -32 31 -32 15 0 -18 -134
-15 -163 3 -29 19 -147 32 -147 17z"/>
<path d="M1794 935 c-4 -8 -12 -15 -19 -15 -8 0 -17 -5 -21 -12 -4 -6 -3 -8 4
-4 6 3 13 2 17 -4 8 -13 45 -13 45 -1 0 6 -4 12 -10 16 -5 3 -7 12 -3 20 3 8
2 15 -1 15 -4 0 -9 -7 -12 -15z"/>
<path d="M1080 910 c0 -5 5 -10 11 -10 5 0 7 5 4 10 -3 6 -8 10 -11 10 -2 0
-4 -4 -4 -10z"/>
<path d="M1158 873 c6 -2 18 -2 25 0 6 3 1 5 -13 5 -14 0 -19 -2 -12 -5z"/>
<path d="M2242 840 c0 -14 2 -19 5 -12 2 6 2 18 0 25 -3 6 -5 1 -5 -13z"/>
<path d="M426 838 c3 -4 17 -8 31 -8 15 0 23 3 19 8 -10 10 -56 10 -50 0z"/>
<path d="M1877 839 c7 -7 15 -10 18 -7 3 3 -2 9 -12 12 -14 6 -15 5 -6 -5z"/>
<path d="M1940 828 c0 -7 10 -19 21 -27 19 -11 21 -11 16 4 -4 9 -3 14 3 10 6
-3 10 -13 10 -21 0 -8 4 -13 9 -10 13 8 1 46 -14 46 -8 0 -20 3 -29 6 -10 4
-16 1 -16 -8z"/>
<path d="M2192 820 c9 -14 14 -16 20 -7 4 7 8 17 8 22 0 6 -5 3 -10 -5 -6 -10
-10 -11 -10 -2 0 6 -5 12 -10 12 -6 0 -5 -8 2 -20z"/>
<path d="M2426 823 c-9 -23 -8 -25 15 -18 16 5 19 4 14 -5 -5 -9 -4 -11 3 -6
15 9 15 9 -7 28 -17 14 -20 15 -25 1z"/>
<path d="M3730 830 c8 -5 20 -10 25 -10 6 0 3 5 -5 10 -8 5 -19 10 -25 10 -5
0 -3 -5 5 -10z"/>
<path d="M2160 812 c0 -5 7 -9 15 -9 8 0 12 4 9 9 -3 4 -9 8 -15 8 -5 0 -9 -4
-9 -8z"/>
<path d="M3765 810 c-3 -5 -1 -10 4 -10 6 0 11 5 11 10 0 6 -2 10 -4 10 -3 0
-8 -4 -11 -10z"/>
<path d="M418 803 c6 -2 18 -2 25 0 6 3 1 5 -13 5 -14 0 -19 -2 -12 -5z"/>
<path d="M2013 795 c0 -8 5 -15 11 -16 6 0 24 -3 39 -5 24 -4 27 -3 16 9 -8 8
-21 12 -31 9 -10 -2 -18 1 -18 7 0 6 -4 11 -8 11 -5 0 -9 -7 -9 -15z"/>
<path d="M4200 800 c-18 -12 -2 -12 25 0 13 6 15 9 5 9 -8 0 -22 -4 -30 -9z"/>
<path d="M4262 803 c4 -2 4 -11 1 -19 -3 -8 1 -14 10 -14 9 0 22 -7 31 -15 8
-9 19 -16 23 -17 10 -1 15 -2 93 -24 36 -10 68 -22 71 -27 4 -5 13 -7 20 -5 9
4 5 10 -13 18 -16 7 -28 17 -28 23 0 5 -7 7 -15 4 -8 -4 -17 -2 -20 2 -3 5
-14 7 -24 4 -10 -3 -22 0 -25 6 -5 7 2 11 15 11 34 0 18 9 -52 29 -35 11 -71
21 -79 23 -8 3 -12 3 -8 1z"/>
<path d="M1510 781 c0 -5 7 -12 16 -15 14 -5 15 -4 4 9 -14 17 -20 19 -20 6z"/>
<path d="M2115 770 c3 -5 11 -10 16 -10 6 0 7 5 4 10 -3 6 -11 10 -16 10 -6 0
-7 -4 -4 -10z"/>
<path d="M2027 759 c7 -7 15 -10 18 -7 3 3 -2 9 -12 12 -14 6 -15 5 -6 -5z"/>
<path d="M3895 760 c3 -5 11 -10 16 -10 6 0 7 5 4 10 -3 6 -11 10 -16 10 -6 0
-7 -4 -4 -10z"/>
<path d="M4235 760 c-3 -5 -1 -10 4 -10 6 0 11 5 11 10 0 6 -2 10 -4 10 -3 0
-8 -4 -11 -10z"/>
<path d="M4065 749 c4 -5 12 -9 18 -9 7 0 34 -11 60 -25 27 -13 58 -25 70 -27
12 -2 25 -7 29 -13 5 -6 8 -5 8 3 0 7 -8 15 -17 18 -69 23 -101 39 -90 47 8 6
6 7 -5 3 -9 -2 -31 -1 -48 4 -19 5 -28 5 -25 -1z"/>
<path d="M255 740 c3 -5 10 -10 16 -10 5 0 9 5 9 10 0 6 -7 10 -16 10 -8 0
-12 -4 -9 -10z"/>
<path d="M540 736 c0 -2 8 -10 18 -17 15 -13 16 -12 3 4 -13 16 -21 21 -21 13z"/>
<path d="M2350 733 c0 -7 -7 -13 -15 -13 -8 0 -15 -4 -15 -10 0 -5 7 -6 17 -3
11 4 14 3 9 -5 -10 -16 7 -15 23 1 10 10 11 9 6 -5 -4 -11 -2 -18 4 -18 6 0
11 7 11 16 0 8 4 13 9 10 5 -4 7 2 4 12 -5 20 -33 26 -33 8 0 -6 -5 -4 -10 4
-6 10 -10 11 -10 3z"/>
<path d="M350 704 c0 -15 -8 -24 -25 -28 -27 -7 -34 -23 -10 -23 8 0 15 4 15
8 0 4 9 11 21 14 12 4 18 12 15 21 -3 8 -1 14 4 14 6 0 10 4 10 8 0 5 -7 9
-15 9 -9 0 -15 -9 -15 -23z"/>
<path d="M451 713 c7 -10 15 -20 16 -22 2 -2 3 3 3 11 0 9 -7 19 -16 22 -15 6
-15 4 -3 -11z"/>
<path d="M1620 723 c0 -5 13 -17 28 -27 l27 -19 -24 26 c-26 28 -31 32 -31 20z"/>
<path d="M2105 710 c10 -11 19 -20 21 -20 1 0 0 9 -3 20 -3 11 -12 20 -21 20
-13 0 -12 -3 3 -20z"/>
<path d="M2255 710 c3 -5 8 -10 11 -10 2 0 4 5 4 10 0 6 -5 10 -11 10 -5 0 -7
-4 -4 -10z"/>
<path d="M477 675 c-17 -24 -17 -25 1 -25 14 0 20 7 20 25 0 14 -1 25 -2 25 0
0 -9 -12 -19 -25z"/>
<path d="M2830 686 c0 -2 7 -6 15 -10 8 -3 15 -1 15 4 0 6 -7 10 -15 10 -8 0
-15 -2 -15 -4z"/>
<path d="M4325 680 c3 -5 14 -10 23 -10 15 0 15 2 2 10 -20 13 -33 13 -25 0z"/>
<path d="M2083 673 c4 -6 2 -13 -5 -15 -8 -3 -6 -6 4 -10 17 -7 19 15 3 29 -4
4 -5 3 -2 -4z"/>
<path d="M2172 660 c0 -14 2 -19 5 -12 2 6 2 18 0 25 -3 6 -5 1 -5 -13z"/>
<path d="M2397 674 c-4 -4 -7 -14 -7 -23 0 -11 3 -12 11 -4 6 6 10 16 7 23 -2
6 -7 8 -11 4z"/>
<path d="M4265 669 c4 -5 15 -9 25 -9 10 0 21 -4 24 -9 8 -12 66 -22 80 -14 6
5 -6 11 -29 14 -22 4 -55 11 -73 17 -18 6 -30 7 -27 1z"/>
<path d="M4380 675 c0 -3 9 -14 20 -25 15 -15 25 -18 37 -12 13 8 10 12 -17
26 -36 17 -40 19 -40 11z"/>
<path d="M2041 654 c0 -11 3 -14 6 -6 3 7 2 16 -1 19 -3 4 -6 -2 -5 -13z"/>
<path d="M4485 660 c4 -6 11 -8 16 -5 14 9 11 15 -7 15 -8 0 -12 -5 -9 -10z"/>
<path d="M1290 650 c0 -5 14 -10 31 -10 17 0 28 4 24 10 -3 6 -17 10 -31 10
-13 0 -24 -4 -24 -10z"/>
<path d="M1670 653 c0 -10 40 -36 46 -30 3 2 -7 12 -21 21 -14 9 -25 13 -25 9z"/>
<path d="M370 646 c0 -2 9 -6 20 -9 11 -3 18 -1 14 4 -5 9 -34 13 -34 5z"/>
<path d="M2870 637 c0 -8 9 -17 21 -20 15 -4 19 -1 17 11 -4 21 -38 29 -38 9z"/>
<path d="M4546 638 c3 -5 10 -6 15 -3 13 9 11 12 -6 12 -8 0 -12 -4 -9 -9z"/>
<path d="M1090 627 c-46 -8 -51 -11 -33 -18 16 -6 21 -13 16 -25 -5 -14 -2
-16 14 -12 28 7 212 -10 232 -22 14 -8 13 -9 -5 -10 -11 0 -24 -3 -27 -7 -10
-9 43 -34 78 -37 31 -3 58 -11 88 -27 13 -7 17 -5 17 7 0 12 5 14 18 9 9 -4
35 -9 58 -11 31 -2 41 1 41 12 0 9 -6 13 -14 10 -8 -3 -11 -1 -8 4 3 6 -2 11
-12 11 -38 3 -83 19 -83 30 0 14 -45 39 -78 43 -17 2 -38 11 -47 20 -18 18
-28 20 -39 9 -11 -12 -40 -9 -51 4 -13 16 -97 21 -165 10z"/>
<path d="M1778 628 c5 -5 16 -8 23 -6 8 3 3 7 -10 11 -17 4 -21 3 -13 -5z"/>
<path d="M2820 630 c0 -6 7 -10 15 -10 8 0 15 2 15 4 0 2 -7 6 -15 10 -8 3
-15 1 -15 -4z"/>
<path d="M4456 631 c-3 -5 5 -8 19 -7 14 0 25 4 25 9 0 10 -38 9 -44 -2z"/>
<path d="M4738 633 c7 -3 16 -2 19 1 4 3 -2 6 -13 5 -11 0 -14 -3 -6 -6z"/>
<path d="M430 620 c0 -5 4 -10 9 -10 6 0 13 5 16 10 3 6 -1 10 -9 10 -9 0 -16
-4 -16 -10z"/>
<path d="M1540 615 c7 -9 15 -13 17 -11 7 7 -7 26 -19 26 -6 0 -6 -6 2 -15z"/>
<path d="M2092 609 c-7 -11 -16 -18 -19 -15 -3 3 -15 1 -27 -5 -19 -9 -20 -9
-3 4 15 12 15 16 3 20 -9 4 -21 -4 -31 -20 -14 -20 -22 -24 -46 -19 -19 3 -28
2 -24 -4 3 -6 15 -10 25 -10 11 0 35 -8 55 -17 28 -13 34 -21 29 -37 -6 -19
-6 -19 11 -3 10 10 20 14 24 10 3 -4 11 -12 16 -16 6 -5 3 -7 -7 -3 -10 3 -18
1 -18 -4 0 -6 7 -10 16 -10 8 0 13 -4 9 -9 -3 -6 16 -13 42 -17 57 -8 86 -21
77 -35 -16 -26 56 -67 166 -94 36 -9 80 -25 99 -36 27 -16 36 -17 42 -7 6 9 9
9 9 1 0 -6 32 -19 70 -29 39 -10 70 -22 70 -26 0 -4 6 -5 14 -2 7 3 29 -2 47
-10 l34 -15 -34 6 c-30 5 -33 4 -28 -11 4 -10 7 -22 7 -27 0 -5 7 -9 16 -9 14
0 14 3 4 15 -11 14 -10 14 14 6 21 -9 26 -8 26 5 0 11 7 14 28 11 15 -2 21 -2
15 0 -30 10 -11 25 25 20 64 -9 112 -25 112 -38 0 -12 -2 -12 -36 5 -52 25
-75 29 -68 13 3 -9 17 -18 32 -22 15 -4 21 -10 15 -12 -7 -3 -13 -9 -13 -14 0
-6 8 -5 20 1 11 6 20 8 20 6 0 -14 -57 -33 -75 -25 -32 13 -53 9 -22 -5 15 -7
25 -15 21 -19 -4 -3 -15 -2 -26 4 -10 5 -23 7 -28 4 -5 -3 -17 -2 -27 3 -10 6
-30 15 -45 23 -18 8 -28 20 -28 34 0 12 -8 29 -17 37 -18 16 -76 35 -103 33
-8 0 -18 4 -22 9 -4 6 -11 7 -15 2 -4 -5 -2 -11 5 -13 7 -3 18 -11 26 -18 7
-8 17 -11 21 -7 5 4 5 -1 2 -11 -5 -13 -1 -17 15 -17 38 0 14 -9 -34 -13 -34
-2 -45 0 -41 10 3 7 10 10 16 6 6 -3 2 5 -9 20 -10 14 -30 31 -44 38 -14 7
-39 23 -56 36 -27 19 -95 42 -128 43 -5 0 12 -14 38 -31 27 -18 45 -37 42 -44
-4 -11 26 -29 46 -26 3 0 8 -6 11 -13 5 -12 -10 -15 -33 -6 -3 1 -9 3 -15 4
-29 5 -85 42 -85 56 0 9 -11 27 -25 40 -13 12 -22 27 -19 31 3 5 1 9 -5 9 -5
0 -11 -5 -13 -12 -3 -8 -12 -5 -26 8 -17 16 -34 21 -70 19 -36 -1 -51 3 -65
19 -10 12 -15 15 -11 7 5 -10 3 -13 -8 -8 -9 3 -20 1 -26 -5 -18 -18 -42 -1
-42 31 0 16 -4 32 -9 35 -5 3 -11 15 -14 26 -4 18 -2 20 16 14 12 -3 19 -3 15
1 -4 4 -31 10 -59 12 -29 2 -75 12 -103 22 -50 17 -81 18 -71 1 3 -5 17 -7 30
-4 14 2 25 0 25 -5 0 -9 31 -22 98 -40 23 -7 42 -14 42 -16 0 -15 -25 -53 -31
-49 -5 3 -9 0 -9 -6 0 -7 -6 -8 -19 0 -11 5 -29 10 -41 10 -12 0 -18 4 -15 10
3 5 21 9 40 7 18 -1 31 -5 29 -9 -3 -4 2 -5 10 -2 29 11 -7 30 -54 28 -57 -1
-73 4 -66 25 5 12 2 11 -9 -3 -8 -10 -16 -23 -17 -28 -2 -5 -11 -10 -20 -12
-26 -3 -34 -16 -10 -16 30 0 52 -10 52 -25 0 -7 14 -16 30 -20 25 -6 29 -9 19
-21 -9 -11 -6 -13 20 -10 18 2 30 1 27 -2 -3 -2 11 -13 32 -24 43 -23 142 -31
135 -11 -3 7 -10 13 -17 13 -6 0 -17 9 -24 20 -10 17 -10 20 5 19 26 -2 80
-16 66 -18 -7 0 -13 -6 -13 -12 0 -5 4 -8 9 -5 5 4 8 0 7 -8 -3 -22 -37 -56
-55 -57 -12 0 -11 -2 4 -8 11 -5 38 -25 59 -45 22 -20 41 -36 42 -36 1 0 24
-4 53 -10 49 -9 85 -5 77 9 -2 3 7 11 20 18 24 11 34 1 12 -13 -15 -10 19 -34
49 -34 27 0 32 -18 6 -20 -10 0 -33 -1 -50 -2 -18 -1 -33 -6 -33 -11 0 -5 7
-7 15 -4 8 4 17 2 20 -3 4 -6 15 -10 26 -10 17 0 18 -3 9 -20 -9 -16 -8 -18 5
-14 8 4 15 1 15 -5 0 -16 42 -31 56 -20 6 5 14 6 18 2 23 -24 156 -20 156 4 0
7 -9 17 -19 22 -14 8 -20 7 -25 -4 -5 -13 -9 -13 -26 -3 -24 15 -37 43 -16 35
8 -3 17 1 20 10 6 14 8 14 24 -1 10 -9 24 -16 30 -16 7 0 12 -4 12 -8 0 -5 10
-14 23 -21 12 -6 14 -9 5 -7 -21 6 -24 -7 -5 -22 16 -14 80 -12 90 2 5 8 9 8
15 0 4 -7 71 -12 197 -13 l189 -2 -23 20 c-13 12 -22 23 -20 26 3 2 17 -7 32
-20 24 -23 33 -25 131 -25 96 0 105 2 99 17 -7 17 -6 17 20 0 30 -19 134 -25
107 -6 -12 9 -10 10 8 5 12 -3 32 -8 45 -11 l22 -6 -22 12 c-13 7 -23 15 -23
19 0 4 -25 6 -55 5 -55 -2 -72 5 -60 25 5 8 11 7 21 -1 10 -8 14 -8 14 0 0 6
-6 11 -12 11 -9 0 -8 3 2 9 19 13 31 4 23 -17 -5 -14 -3 -15 8 -4 18 16 30 15
23 -3 -4 -10 0 -13 17 -10 13 3 26 1 29 -3 22 -31 123 -60 104 -30 -5 7 -3 8
7 2 8 -4 42 -9 77 -10 47 -1 62 2 62 12 0 8 5 14 10 14 14 0 12 27 -2 33 -7 3
-8 6 -2 6 5 1 19 -6 30 -14 19 -15 19 -15 -2 -33 -19 -16 -12 -17 178 -20 168
-3 201 -1 220 12 15 11 18 16 7 16 -8 0 -20 -5 -26 -11 -9 -9 -11 -5 -9 14 2
18 -1 24 -10 20 -8 -3 -14 0 -14 7 0 9 -4 9 -17 -1 -13 -11 -17 -11 -20 -1 -3
6 -15 12 -28 12 -13 0 -27 4 -30 10 -4 6 1 7 11 3 12 -4 15 -3 10 5 -4 7 -18
12 -32 12 -14 0 -23 4 -20 9 4 5 -3 7 -13 4 -11 -3 -18 -10 -15 -16 2 -7 -6
-13 -20 -13 -14 -1 -27 5 -30 13 -5 13 -9 13 -23 2 -14 -12 -15 -11 -9 9 6 17
3 22 -10 22 -14 0 -14 2 -3 16 11 13 15 13 24 2 5 -7 17 -14 25 -16 12 -3 11
1 -3 15 -22 22 -78 24 -94 3 -8 -11 -8 -17 0 -22 27 -16 -1 -15 -38 2 -40 18
-40 18 -52 -3 -7 -12 -12 -16 -13 -9 0 6 -5 12 -11 12 -5 0 -7 -4 -4 -10 3 -5
2 -10 -4 -10 -5 0 -13 -9 -16 -20 -4 -11 -11 -18 -16 -14 -6 3 -8 12 -5 20 3
8 -1 14 -9 14 -9 0 -12 -6 -9 -17 5 -15 4 -16 -5 -3 -9 13 -12 13 -20 1 -5 -8
-16 -11 -25 -8 -9 4 -16 2 -16 -3 0 -6 -6 -9 -12 -7 -7 1 -13 -5 -13 -13 0 -8
9 -16 20 -18 19 -4 19 -3 2 10 -16 12 -15 13 12 14 20 1 28 -3 25 -11 -6 -14
-54 -39 -54 -27 0 4 -12 16 -27 26 -16 9 -21 15 -12 13 8 -3 25 6 38 19 25 25
41 31 41 13 0 -5 5 -7 11 -3 8 4 8 9 0 17 -11 11 -91 -9 -91 -22 0 -4 -9 -7
-20 -8 -11 -1 -18 2 -15 8 4 5 1 9 -4 9 -6 0 -11 7 -11 15 0 8 -4 15 -9 15 -5
0 -8 14 -6 30 2 17 -1 30 -6 30 -6 0 -8 -4 -5 -9 6 -9 -31 -47 -43 -44 -3 1
-5 -5 -3 -14 2 -8 -1 -12 -7 -8 -6 3 -11 1 -11 -4 0 -6 6 -11 12 -11 7 0 1 -8
-12 -17 -14 -10 -28 -17 -32 -15 -5 1 -8 -3 -8 -8 0 -6 -5 -10 -12 -10 -6 0
-9 3 -5 6 10 11 -17 31 -35 26 -10 -2 -24 1 -32 7 -8 7 -18 11 -22 10 -15 -2
-54 13 -54 21 0 4 -9 10 -20 13 -13 3 -18 11 -14 21 5 13 9 12 27 -4 16 -15
23 -17 29 -8 5 9 8 7 8 -6 0 -14 5 -17 25 -12 14 4 25 2 25 -3 0 -6 7 -8 15
-5 8 4 15 14 14 23 0 10 -2 11 -6 4 -6 -16 -24 -17 -20 -1 1 6 -9 12 -23 12
-14 1 -24 6 -23 13 3 15 -24 25 -33 12 -4 -6 -11 -6 -20 2 -11 9 -16 6 -25
-15 -11 -23 -17 -25 -53 -21 -23 2 -43 5 -46 6 -3 1 -9 1 -13 0 -5 -1 -6 3 -2
9 3 6 10 8 15 5 13 -8 20 9 9 25 -6 10 -9 11 -9 3 0 -7 -9 -13 -21 -13 -13 0
-18 -4 -13 -12 4 -6 3 -8 -4 -4 -5 3 -12 2 -14 -4 -5 -14 -48 0 -48 16 0 17 5
17 31 4 15 -8 21 -7 25 5 3 8 10 12 15 9 5 -3 9 0 9 6 0 7 -6 10 -12 7 -7 -2
-21 0 -30 5 -12 5 -18 5 -18 -2 0 -5 -5 -10 -11 -10 -5 0 -7 5 -4 10 4 7 -7 9
-31 7 -43 -5 -94 12 -94 30 0 7 8 13 18 14 9 0 12 3 5 5 -7 3 -10 11 -7 18 3
8 -2 16 -11 20 -9 3 -13 10 -10 16 4 6 -1 7 -12 3 -15 -6 -16 -4 -5 9 10 13
10 17 -3 22 -9 3 -13 2 -10 -4 4 -6 -6 -10 -22 -10 -15 0 -36 -7 -46 -14 -18
-14 -18 -14 0 -18 16 -3 15 -5 -6 -17 -14 -8 -21 -9 -17 -2 4 6 0 11 -11 11
-10 0 -25 5 -33 11 -12 8 -9 10 13 6 15 -2 27 0 27 4 0 5 -7 9 -15 9 -17 0
-39 36 -27 44 5 3 17 -1 28 -8 10 -8 24 -12 31 -9 9 4 11 0 6 -13 -6 -18 -6
-19 15 -1 12 12 26 16 34 11 9 -5 9 -2 -2 10 -9 12 -16 14 -18 6 -3 -7 -10 -6
-23 6 -13 12 -19 13 -19 4 0 -9 -7 -8 -25 4 -14 9 -25 13 -25 8 0 -5 -19 8
-41 29 -23 21 -45 37 -48 35 -3 -2 -5 13 -5 35 1 21 -2 37 -6 34 -5 -3 -11 -1
-15 5 -10 16 -25 2 -25 -23 0 -17 2 -19 10 -7 5 8 12 11 17 7 17 -18 -22 -26
-41 -9 -11 9 -16 11 -12 5 11 -19 -12 -16 -48 6 -33 20 -34 21 -66 21 -14 0
-18 5 -13 18 5 14 3 13 -10 -3 -14 -17 -16 -18 -17 -3 0 11 -12 21 -32 26 -18
6 -41 13 -51 17 -13 6 -16 3 -11 -9 3 -8 9 -15 12 -14 19 2 32 -3 32 -13 0 -8
-5 -8 -15 1 -10 9 -15 9 -15 1 0 -6 -4 -11 -10 -11 -5 0 -10 6 -10 14 0 9 -9
13 -25 12 -14 -2 -30 3 -37 11 -7 9 -13 10 -18 3 -4 -7 -14 -4 -28 8 -12 11
-18 23 -14 28 4 4 0 3 -10 -4 -13 -11 -17 -10 -20 3 -2 13 -5 12 -16 -6z m253
-71 c6 -4 2 -8 -7 -8 -10 0 -18 7 -18 17 0 9 3 12 8 7 4 -5 12 -12 17 -16z
m-71 -53 c3 -8 1 -15 -4 -15 -6 0 -10 7 -10 15 0 8 2 15 4 15 2 0 6 -7 10 -15z
m-86 -7 c17 -1 32 -6 32 -11 0 -5 8 -3 17 4 11 10 14 10 9 2 -5 -9 -1 -13 11
-14 26 -1 52 -6 71 -15 9 -4 19 -8 22 -9 25 -8 40 -19 40 -26 0 -6 -9 -5 -21
1 -11 7 -27 9 -35 6 -8 -3 -12 -2 -9 3 3 5 1 12 -5 16 -5 3 -10 0 -11 -7 0 -7
-4 -4 -9 7 -5 11 -9 15 -9 9 -1 -13 -60 -6 -79 9 -7 5 -23 11 -35 11 -12 1
-31 7 -42 14 l-20 13 20 -5 c11 -3 35 -7 53 -8z m222 -9 c0 -4 -7 -12 -15 -19
-12 -10 -15 -9 -15 6 0 16 -2 16 -10 4 -5 -8 -12 -11 -17 -7 -4 5 -2 11 4 15
15 10 53 10 53 1z m39 -12 c8 -10 7 -14 -2 -14 -8 0 -14 6 -14 14 0 7 1 13 2
13 2 0 8 -6 14 -13z m-42 -59 c-3 -8 -6 -5 -6 6 -1 11 2 17 5 13 3 -3 4 -12 1
-19z m20 0 c-3 -8 -6 -5 -6 6 -1 11 2 17 5 13 3 -3 4 -12 1 -19z m178 -18 c-3
-5 -11 -10 -16 -10 -6 0 -7 5 -4 10 3 6 11 10 16 10 6 0 7 -4 4 -10z m59 -15
c-3 -7 -12 -11 -20 -8 -11 4 -12 9 -3 19 14 17 30 9 23 -11z m-439 -45 c6 -4
27 -13 48 -19 20 -7 37 -17 37 -22 0 -13 -22 -10 -44 6 -11 8 -33 15 -49 15
-30 0 -30 0 -12 -20 17 -18 17 -20 2 -14 -9 3 -17 10 -17 14 0 5 -7 16 -16 24
-8 9 -13 20 -10 25 6 9 43 4 61 -9z m-58 -35 c0 -8 -4 -12 -9 -9 -5 3 -6 10
-3 15 9 13 12 11 12 -6z m172 -69 c10 -6 12 -5 7 2 -4 7 -3 12 3 12 5 0 14 -6
18 -14 4 -7 15 -16 23 -20 8 -3 -3 -4 -24 -1 -22 2 -46 11 -54 19 -12 12 -13
14 -1 13 8 -2 20 -7 28 -11z m166 -34 c-9 -9 -35 8 -35 23 0 13 3 12 20 -2 11
-9 17 -19 15 -21z m-250 -2 c4 -6 11 -8 16 -5 5 4 9 1 9 -4 0 -16 -23 -13 -46
4 -17 13 -17 14 -2 15 9 0 20 -5 23 -10z m761 -51 c42 -20 48 -27 37 -37 -11
-11 -14 -10 -20 3 -5 13 -7 14 -14 3 -7 -10 -9 -9 -9 4 0 10 -14 21 -35 28
-19 6 -35 15 -35 20 0 12 17 7 76 -21z m-425 -10 c23 -23 21 -33 -5 -23 -9 3
-13 10 -10 15 9 15 -13 10 -26 -6 -14 -17 -30 -20 -30 -5 0 6 6 10 14 10 8 0
16 7 20 15 7 20 12 19 37 -6z m69 11 c0 -5 -2 -10 -4 -10 -3 0 -8 5 -11 10 -3
6 -1 10 4 10 6 0 11 -4 11 -10z m465 0 c3 -5 1 -10 -4 -10 -6 0 -11 5 -11 10
0 6 2 10 4 10 3 0 8 -4 11 -10z m-385 -25 c10 -13 11 -18 1 -28 -9 -8 -11 -9
-9 0 2 6 0 11 -4 12 -22 3 -28 0 -22 -11 5 -8 2 -9 -10 -5 -10 4 -24 7 -32 7
-8 0 -14 7 -14 15 0 17 12 19 26 5 12 -12 47 -2 38 11 -9 15 13 10 26 -6z
m165 -6 c4 -13 12 -18 21 -15 8 3 13 2 10 -3 -3 -5 6 -12 21 -16 24 -6 26 -8
10 -16 -12 -7 -22 -6 -33 5 -14 14 -19 14 -51 1 -33 -14 -38 -14 -55 1 -12 11
-18 13 -18 5 0 -7 -5 -9 -11 -5 -20 12 7 27 29 15 11 -6 28 -11 37 -11 13 0
14 4 4 21 -9 17 -8 23 2 30 21 13 27 11 34 -12z m578 -12 c-5 -8 -8 -7 -11 1
-2 7 -8 10 -13 6 -12 -7 -31 5 -24 16 3 5 16 4 30 -2 13 -6 21 -16 18 -21z
m345 3 c-7 -11 -16 -20 -20 -20 -5 0 -3 9 4 20 7 11 16 20 20 20 5 0 3 -9 -4
-20z m-691 -2 c15 -6 31 -12 35 -12 4 -1 12 -6 19 -13 9 -9 6 -11 -12 -6 -13
3 -29 10 -35 14 -6 5 -14 6 -17 2 -4 -3 -7 -1 -7 6 0 7 -4 9 -10 6 -5 -3 -10
-1 -10 4 0 14 2 14 37 -1z m620 4 c9 -6 7 -11 -7 -20 -20 -12 -36 -1 -25 18 7
12 16 12 32 2z m-693 -38 c3 -8 2 -12 -4 -9 -6 3 -10 10 -10 16 0 14 7 11 14
-7z m-597 0 c-3 -3 -12 -4 -19 -1 -8 3 -5 6 6 6 11 1 17 -2 13 -5z m799 -7
c34 -10 39 -14 28 -24 -8 -8 -15 -9 -19 -3 -3 5 -13 7 -23 4 -13 -5 -14 -4 -3
4 10 7 7 12 -15 20 -41 15 -17 14 32 -1z m-732 -6 c6 -9 -35 -24 -43 -15 -6 5
18 24 31 24 4 0 9 -4 12 -9z m166 -6 c7 -8 8 -15 2 -15 -5 0 -15 7 -22 15 -7
8 -8 15 -2 15 5 0 15 -7 22 -15z m635 -5 c3 -5 1 -10 -4 -10 -6 0 -11 5 -11
10 0 6 2 10 4 10 3 0 8 -4 11 -10z"/>
<path d="M380 605 c0 -8 4 -15 8 -15 5 0 9 7 9 15 0 8 -4 15 -9 15 -4 0 -8 -7
-8 -15z"/>
<path d="M1395 610 c3 -5 14 -10 23 -10 15 0 15 2 2 10 -20 13 -33 13 -25 0z"/>
<path d="M1750 610 c0 -5 5 -10 11 -10 5 0 7 5 4 10 -3 6 -8 10 -11 10 -2 0
-4 -4 -4 -10z"/>
<path d="M2150 610 c0 -5 5 -10 10 -10 6 0 10 5 10 10 0 6 -4 10 -10 10 -5 0
-10 -4 -10 -10z"/>
<path d="M4417 609 c7 -7 15 -10 18 -7 3 3 -2 9 -12 12 -14 6 -15 5 -6 -5z"/>
<path d="M2430 603 c0 -15 18 -35 23 -27 3 5 -1 15 -9 22 -8 7 -14 9 -14 5z"/>
<path d="M4450 600 c0 -5 4 -10 9 -10 6 0 13 5 16 10 3 6 -1 10 -9 10 -9 0
-16 -4 -16 -10z"/>
<path d="M2818 593 c7 -3 16 -2 19 1 4 3 -2 6 -13 5 -11 0 -14 -3 -6 -6z"/>
<path d="M4486 591 c-7 -11 82 -56 91 -47 4 3 -1 6 -10 6 -9 0 -17 4 -17 9 0
5 -14 13 -31 16 -23 5 -28 9 -18 16 9 6 10 9 2 9 -6 0 -14 -4 -17 -9z"/>
<path d="M4564 586 c11 -9 24 -16 30 -16 12 0 7 5 -24 19 -24 11 -24 11 -6 -3z"/>
<path d="M1473 569 c22 -11 41 -18 44 -15 5 5 -62 36 -76 36 -3 -1 11 -10 32
-21z"/>
<path d="M1580 586 c0 -2 11 -6 25 -8 13 -3 22 -1 19 3 -5 9 -44 13 -44 5z"/>
<path d="M2830 572 c0 -4 13 -12 29 -18 22 -9 34 -8 52 3 23 13 23 14 -10 7
-23 -4 -31 -3 -27 5 5 7 -2 11 -18 11 -14 0 -26 -4 -26 -8z"/>
<path d="M150 560 c0 -5 5 -10 10 -10 6 0 10 5 10 10 0 6 -4 10 -10 10 -5 0
-10 -4 -10 -10z"/>
<path d="M2482 558 c5 -14 58 -22 58 -9 0 5 -10 11 -22 15 -34 9 -40 7 -36 -6z"/>
<path d="M1530 541 c0 -11 47 -31 73 -31 21 -1 21 -1 4 -14 -13 -10 -15 -16
-7 -21 9 -6 9 -10 -1 -16 -10 -6 -8 -9 9 -9 12 0 22 6 22 14 0 16 75 30 112
21 21 -5 24 -3 22 22 -2 38 -3 40 -13 24 -5 -8 -25 -13 -50 -13 -23 1 -39 -3
-36 -9 4 -5 -1 -9 -9 -9 -9 0 -16 5 -16 10 0 6 -12 10 -27 10 -16 0 -40 7 -55
14 -16 8 -28 11 -28 7z"/>
<path d="M118 533 c7 -3 16 -2 19 1 4 3 -2 6 -13 5 -11 0 -14 -3 -6 -6z"/>
<path d="M3217 470 c3 -11 9 -17 15 -14 5 3 4 12 -3 20 -16 19 -18 18 -12 -6z"/>
<path d="M2042 466 c7 -7 19 -11 27 -8 11 4 10 7 -5 13 -29 12 -36 10 -22 -5z"/>
<path d="M1647 459 c7 -7 15 -10 18 -7 3 3 -2 9 -12 12 -14 6 -15 5 -6 -5z"/>
<path d="M1775 460 c-3 -5 -2 -10 4 -10 5 0 13 5 16 10 3 6 2 10 -4 10 -5 0
-13 -4 -16 -10z"/>
<path d="M2980 459 c0 -5 5 -7 10 -4 6 3 10 8 10 11 0 2 -4 4 -10 4 -5 0 -10
-5 -10 -11z"/>
<path d="M1738 453 c7 -3 16 -2 19 1 4 3 -2 6 -13 5 -11 0 -14 -3 -6 -6z"/>
<path d="M3050 440 c11 -21 35 -27 45 -10 6 9 -8 14 -27 11 -5 0 -8 4 -8 9 0
6 -5 10 -10 10 -7 0 -7 -6 0 -20z"/>
<path d="M3083 413 c-23 -9 -14 -23 15 -23 37 0 60 15 37 24 -19 7 -34 7 -52
-1z"/>
<path d="M2975 400 c-3 -5 -1 -10 4 -10 6 0 11 5 11 10 0 6 -2 10 -4 10 -3 0
-8 -4 -11 -10z"/>
<path d="M3190 399 c0 -5 5 -7 10 -4 6 3 10 8 10 11 0 2 -4 4 -10 4 -5 0 -10
-5 -10 -11z"/>
<path d="M3377 397 c-3 -9 -2 -19 4 -23 15 -9 18 -2 9 20 -6 17 -7 18 -13 3z"/>
<path d="M1758 388 c6 -6 18 -8 28 -6 14 3 12 5 -9 10 -19 3 -25 2 -19 -4z"/>
<path d="M2020 396 c0 -2 7 -6 15 -10 8 -3 15 -1 15 4 0 6 -7 10 -15 10 -8 0
-15 -2 -15 -4z"/>
<path d="M2163 393 c9 -2 23 -2 30 0 6 3 -1 5 -18 5 -16 0 -22 -2 -12 -5z"/>
<path d="M3235 380 c-3 -5 -1 -10 4 -10 6 0 11 5 11 10 0 6 -2 10 -4 10 -3 0
-8 -4 -11 -10z"/>
<path d="M2917 369 c7 -7 15 -10 18 -7 3 3 -2 9 -12 12 -14 6 -15 5 -6 -5z"/>
<path d="M3007 360 c-16 -5 -35 -6 -43 -3 -8 3 -14 1 -14 -5 0 -6 12 -15 28
-21 18 -8 20 -10 5 -7 -15 3 -20 0 -16 -10 4 -10 10 -11 25 -3 15 8 17 13 7
25 -8 10 -8 14 0 14 6 0 14 -6 17 -14 7 -17 37 -26 55 -16 17 11 20 40 4 40
-7 0 -19 2 -27 4 -7 2 -26 0 -41 -4z"/>
<path d="M3100 360 c0 -5 7 -10 15 -10 8 0 15 5 15 10 0 6 -7 10 -15 10 -8 0
-15 -4 -15 -10z"/>
<path d="M3140 358 c0 -4 7 -8 15 -8 8 0 15 4 15 8 0 5 -7 9 -15 9 -8 0 -15
-4 -15 -9z"/>
<path d="M2863 327 c5 -26 57 -31 57 -6 0 6 -4 7 -10 4 -5 -3 -10 -2 -10 2 0
5 -9 9 -20 10 -11 1 -19 -4 -17 -10z"/>
<path d="M3145 310 c-3 -5 6 -12 20 -16 19 -5 24 -11 20 -24 -4 -13 0 -20 12
-22 15 -3 16 -5 3 -10 -9 -3 -32 2 -52 12 -32 16 -37 16 -43 2 -3 -8 -3 -17 0
-20 3 -3 5 0 5 8 0 9 3 10 13 1 8 -6 17 -8 20 -5 3 4 22 -3 42 -15 20 -11 42
-21 48 -20 7 0 2 4 -11 10 -24 9 -22 29 4 29 8 0 13 -4 10 -9 -4 -5 3 -7 15
-4 19 5 20 4 10 -18 -11 -21 -11 -22 2 -6 8 9 20 17 28 17 11 0 11 -2 -1 -11
-13 -9 -13 -10 1 -6 9 3 22 0 28 -6 8 -8 14 -8 22 0 9 9 6 13 -13 18 -15 4
-25 13 -24 23 0 9 -7 17 -17 18 -12 1 -13 0 -2 -3 16 -5 21 -23 6 -23 -4 0
-23 5 -40 11 -25 9 -31 16 -28 30 3 12 1 17 -6 12 -7 -4 -8 0 -4 11 6 14 3 16
-14 11 -15 -5 -19 -4 -15 4 4 7 -1 11 -13 11 -11 0 -23 -4 -26 -10z m65 -40
c0 -5 -5 -10 -11 -10 -5 0 -7 5 -4 10 3 6 8 10 11 10 2 0 4 -4 4 -10z"/>
<path d="M2944 295 c11 -8 27 -15 35 -15 11 0 10 4 -5 15 -10 8 -26 14 -34 14
-11 0 -10 -3 4 -14z"/>
<path d="M3363 215 c-3 -9 -3 -19 1 -22 3 -3 -2 -12 -12 -20 -9 -8 -11 -12 -4
-8 20 10 42 -2 36 -20 -3 -8 -10 -12 -15 -9 -15 9 -10 -33 6 -46 12 -10 16 -9
21 3 3 9 3 20 0 26 -3 5 0 11 6 14 10 3 10 7 1 18 -15 18 -13 31 4 44 12 9 10
13 -11 23 -22 10 -28 9 -33 -3z m32 -15 c-3 -5 -10 -10 -16 -10 -5 0 -9 5 -9
10 0 6 7 10 16 10 8 0 12 -4 9 -10z m-5 -90 c0 -5 -5 -10 -11 -10 -5 0 -7 5
-4 10 3 6 8 10 11 10 2 0 4 -4 4 -10z"/>
<path d="M475 210 c4 -6 11 -8 16 -5 14 9 11 15 -7 15 -8 0 -12 -5 -9 -10z"/>
<path d="M741 208 c-29 -6 -40 -13 -33 -20 7 -7 16 -6 30 1 16 8 25 6 45 -9
13 -11 27 -17 31 -13 3 3 33 5 65 4 33 -1 62 2 65 7 8 14 -91 25 -113 12 -22
-11 -54 -3 -45 12 3 5 12 7 20 4 7 -3 16 -1 19 4 7 12 -25 11 -84 -2z"/>
<path d="M890 210 c0 -5 5 -10 10 -10 6 0 10 5 10 10 0 6 -4 10 -10 10 -5 0
-10 -4 -10 -10z"/>
<path d="M3435 210 c3 -5 11 -10 16 -10 6 0 7 5 4 10 -3 6 -11 10 -16 10 -6 0
-7 -4 -4 -10z"/>
<path d="M240 206 c0 -2 7 -7 16 -10 8 -3 12 -2 9 4 -6 10 -25 14 -25 6z"/>
<path d="M3096 195 c4 -8 10 -15 16 -15 5 0 6 -4 3 -10 -7 -11 8 -14 18 -4 9
9 -4 35 -14 28 -5 -3 -9 0 -9 5 0 6 -4 11 -10 11 -5 0 -7 -7 -4 -15z"/>
<path d="M3150 200 c-1 -3 -3 -16 -6 -30 -3 -21 -2 -22 7 -7 6 10 8 23 5 30
-2 7 -5 10 -6 7z"/>
<path d="M1434 182 c5 -8 66 -4 66 4 0 2 -16 4 -36 4 -19 0 -33 -4 -30 -8z"/>
<path d="M3445 179 c-4 -6 -14 -8 -22 -5 -8 3 -11 2 -8 -3 8 -14 42 -9 42 6 0
16 -4 16 -12 2z"/>
<path d="M3526 173 c-2 -3 -2 -12 1 -21 4 -10 2 -13 -5 -8 -20 12 -21 -10 -1
-27 17 -15 23 -14 21 4 -1 4 8 5 18 2 27 -7 25 11 -2 26 l-23 12 23 -5 c12 -2
20 -1 17 4 -6 10 -42 19 -49 13z"/>
<path d="M169 158 c-13 -5 -42 -6 -66 -2 -26 4 -43 2 -43 -4 0 -5 21 -13 48
-17 26 -4 53 -12 61 -18 12 -9 13 -9 7 1 -4 6 -2 12 3 12 6 0 11 -5 11 -10 0
-6 6 -5 14 2 12 11 12 14 -2 19 -11 4 -12 8 -4 12 6 4 17 1 24 -6 9 -11 20
-12 43 -5 16 5 45 9 64 9 19 0 31 3 27 7 -10 10 -160 10 -187 0z"/>
<path d="M3587 156 c-8 -19 1 -24 36 -20 15 1 25 -1 22 -7 -7 -10 30 -7 41 3
8 9 -35 31 -67 36 -17 2 -29 -3 -32 -12z m38 -6 c3 -5 1 -10 -4 -10 -6 0 -11
5 -11 10 0 6 2 10 4 10 3 0 8 -4 11 -10z"/>
<path d="M3340 145 c-8 -45 -8 -47 2 -37 5 5 8 18 5 28 -3 11 -6 15 -7 9z"/>
<path d="M285 124 c-8 -9 -21 -14 -28 -11 -8 3 -19 -4 -26 -15 -12 -19 -11
-20 11 -14 28 9 31 9 85 3 28 -4 47 -1 60 10 17 14 17 14 -6 9 -37 -8 -83 4
-77 20 7 18 1 18 -19 -2z"/>
<path d="M392 134 c4 -3 21 -7 40 -10 26 -3 29 -2 13 5 -22 11 -62 14 -53 5z"/>
<path d="M4200 129 c0 -5 4 -8 9 -4 5 3 19 -8 31 -25 14 -20 17 -30 9 -30 -10
0 -10 -3 -2 -11 15 -15 37 -1 24 15 -6 7 -6 17 -1 26 7 11 0 17 -28 27 -45 15
-42 15 -42 2z"/>
<path d="M3950 110 c0 -5 5 -10 11 -10 5 0 7 5 4 10 -3 6 -8 10 -11 10 -2 0
-4 -4 -4 -10z"/>
<path d="M93 87 c0 -8 6 -14 14 -14 9 0 10 4 2 14 -6 7 -12 13 -14 13 -1 0 -2
-6 -2 -13z"/>
<path d="M933 79 c-18 -9 -30 -19 -27 -22 3 -3 -1 -4 -8 -4 -7 1 -33 -5 -57
-13 -33 -10 -46 -11 -48 -3 -3 7 -10 10 -18 7 -11 -5 -10 -9 3 -25 16 -18 29
-20 181 -18 112 1 158 5 146 11 -9 6 -34 7 -55 4 -37 -6 -37 -5 -35 24 2 24
-3 32 -24 43 -22 10 -31 10 -58 -4z"/>
<path d="M200 83 c0 -6 -11 -10 -24 -9 -12 2 -31 -3 -41 -10 -16 -12 -15 -14
9 -20 14 -3 26 -10 26 -15 0 -14 -51 -23 -69 -12 -9 5 -27 6 -41 3 -23 -7 -23
-8 12 -14 39 -8 130 -2 149 10 8 4 9 3 5 -4 -5 -9 6 -12 36 -12 31 0 39 3 28
10 -11 7 -6 10 20 10 27 1 31 3 19 10 -9 5 -25 11 -35 13 -27 5 -78 30 -86 42
-5 6 -8 6 -8 -2z"/>
<path d="M2175 60 c3 -5 1 -10 -5 -10 -7 0 -10 -6 -7 -14 4 -10 -3 -14 -26
-15 -18 0 -48 -5 -67 -10 -26 -7 2 -9 107 -9 118 1 141 3 132 14 -6 8 -16 11
-23 8 -6 -3 -2 2 8 10 11 9 25 16 30 17 6 0 2 4 -9 8 -11 5 -38 3 -62 -4 -35
-11 -43 -10 -47 1 -3 8 -13 14 -21 14 -9 0 -13 -4 -10 -10z"/>
<path d="M647 17 c-16 -11 -12 -13 40 -12 32 0 60 5 63 10 8 16 -82 18 -103 2z"/>
<path d="M2346 15 c-4 -11 1 -15 21 -15 14 0 24 1 22 3 -2 1 -11 8 -20 15 -14
10 -18 10 -23 -3z"/>
</g>
</svg>
