<?xml version="1.0" standalone="no"?>
<!DOCTYPE svg PUBLIC "-//W3C//DTD SVG 20010904//EN"
 "http://www.w3.org/TR/2001/REC-SVG-20010904/DTD/svg10.dtd">
<svg version="1.0" xmlns="http://www.w3.org/2000/svg"
 width="940.000000pt" height="585.000000pt" viewBox="0 0 940.000000 585.000000"
 preserveAspectRatio="xMidYMid meet">

<g transform="translate(0.000000,585.000000) scale(0.100000,-0.100000)"
fill="#000000" stroke="none">
<path d="M3302 5822 c50 -50 68 -72 68 -80 0 -5 10 -17 21 -28 19 -16 48 -55
84 -113 6 -8 15 -20 21 -26 6 -5 46 -62 89 -125 43 -63 82 -116 86 -118 11 -4
69 -90 69 -101 0 -5 7 -15 16 -22 9 -7 20 -22 25 -34 5 -11 23 -38 39 -60 17
-22 65 -92 107 -155 41 -63 86 -126 98 -140 12 -14 34 -47 50 -75 16 -27 48
-76 72 -107 23 -31 43 -61 43 -66 0 -5 7 -13 16 -16 11 -4 15 -14 12 -31 -3
-13 -1 -22 3 -19 5 3 9 1 9 -5 0 -5 -4 -13 -10 -16 -5 -3 -10 -14 -10 -23 0
-10 -15 -40 -33 -67 -36 -54 -73 -143 -88 -215 -6 -25 -19 -83 -30 -130 -11
-47 -22 -95 -24 -107 -5 -21 -2 -22 27 -17 25 4 29 3 18 -5 -8 -6 -28 -11 -43
-11 -16 0 -26 -4 -22 -10 6 -10 -15 -14 -44 -11 -8 2 -10 -2 -5 -11 5 -9 2 -8
-11 2 -15 12 -17 12 -10 1 6 -11 4 -13 -10 -7 -15 5 -16 4 -5 -9 7 -8 17 -12
23 -8 6 3 7 1 3 -6 -7 -11 -11 -10 -55 18 l-24 16 34 8 c19 4 49 11 68 15 19
4 36 14 39 22 3 8 1 12 -3 8 -9 -8 -52 37 -60 63 -4 11 -10 17 -15 14 -4 -3
-13 2 -20 10 -9 10 -9 15 -1 15 6 0 11 5 11 11 0 6 -6 9 -14 6 -14 -6 -36 10
-36 26 0 5 9 7 20 4 27 -7 26 16 -1 54 -17 24 -24 28 -35 18 -12 -10 -13 -9
-8 5 3 9 1 16 -5 16 -17 0 -50 60 -43 78 4 11 1 14 -11 9 -10 -4 -16 -2 -14 6
1 7 -4 11 -10 10 -7 -2 -19 13 -27 32 -8 19 -17 35 -20 35 -10 0 4 -41 22 -68
11 -15 20 -30 21 -35 1 -9 52 -80 66 -89 5 -4 7 -10 3 -13 -6 -6 -48 35 -155
149 -24 25 -43 47 -43 49 0 6 -81 87 -87 87 -11 0 -31 28 -25 34 3 4 -1 4 -11
0 -11 -4 -17 -1 -17 8 0 21 -127 151 -133 136 -5 -12 -11 16 -8 35 2 11 -6 8
-25 -10 -13 -13 -19 -14 -22 -5 -2 6 -8 12 -14 12 -6 0 -7 -8 -4 -17 5 -15 4
-15 -9 1 -8 11 -15 25 -15 30 0 6 4 5 9 -3 6 -10 10 -10 16 -1 6 9 9 9 16 -1
4 -7 11 -10 15 -7 3 4 -3 20 -15 36 -12 17 -21 35 -21 41 0 6 -5 11 -10 11 -7
0 -7 -6 0 -19 12 -24 13 -44 1 -37 -16 11 -21 -25 -7 -53 8 -14 43 -58 79 -97
36 -38 66 -78 68 -88 2 -11 10 -21 18 -24 10 -3 12 0 8 12 -13 32 9 14 53 -45
41 -54 46 -58 51 -37 5 22 6 22 11 -4 3 -15 1 -25 -3 -22 -5 3 -9 -1 -9 -8 -1
-8 -8 -4 -19 9 -10 12 -22 19 -26 15 -5 -4 -5 -2 -1 5 4 7 -7 26 -24 45 l-31
33 17 -30 18 -30 -31 29 c-17 15 -36 25 -42 22 -18 -12 -34 4 -20 20 9 11 8
19 -6 34 -17 19 -19 19 -39 3 -21 -18 -21 -18 -3 3 20 24 12 38 -13 22 -14 -9
-22 -9 -34 1 -9 8 -16 18 -16 23 0 5 7 2 16 -6 8 -9 19 -14 24 -11 5 3 -8 21
-27 40 -20 19 -39 33 -41 30 -3 -3 0 -11 6 -17 17 -17 15 -45 -4 -52 -22 -8
-22 -9 -16 20 3 19 -2 32 -22 50 -18 18 -26 21 -26 10 0 -8 5 -16 12 -18 7 -3
8 -9 3 -18 -6 -9 -12 -6 -22 14 -9 17 -20 25 -29 22 -11 -4 -13 1 -9 22 6 26
6 26 -7 5 -10 -16 -17 -20 -28 -13 -19 13 -30 12 -30 0 0 -5 7 -10 15 -10 8 0
19 -9 25 -20 7 -14 7 -20 0 -20 -5 0 -10 7 -10 15 0 18 -26 20 -33 3 -3 -7 -6
-4 -7 7 0 11 -7 31 -14 44 l-13 24 -7 -27 c-4 -15 -4 -31 -1 -36 4 -6 1 -10
-4 -10 -6 0 -11 6 -11 14 0 8 -7 16 -15 20 -8 3 -16 18 -16 33 -1 17 -3 21 -6
11 -2 -10 -6 -18 -9 -18 -10 0 -40 37 -37 47 2 6 -4 13 -14 16 -10 2 -27 8
-38 13 -18 7 -18 6 -6 -9 7 -9 21 -17 30 -18 10 0 11 -3 4 -6 -8 -3 -3 -13 15
-28 22 -20 24 -24 10 -25 -10 0 -27 9 -39 21 -13 13 -27 18 -42 14 -16 -5 -18
-4 -8 3 11 8 10 11 -6 16 -11 4 -26 18 -33 31 -7 14 -20 25 -28 25 -8 0 -12 6
-8 15 6 17 -9 21 -19 4 -4 -6 -13 -8 -20 -5 -7 2 -18 -1 -25 -7 -9 -9 -11 -8
-8 8 2 12 13 21 26 23 12 2 22 8 22 14 0 5 -7 8 -15 4 -8 -3 -15 -1 -15 4 0 6
-6 10 -14 10 -7 0 -19 7 -27 16 -14 17 -51 37 -86 48 -19 6 -22 4 -16 -10 4
-12 3 -15 -5 -10 -7 4 -12 18 -12 32 0 14 -6 24 -14 24 -8 0 -13 -7 -12 -16 2
-25 -20 -28 -43 -5 -14 14 -32 20 -56 19 -50 -2 -53 -14 -3 -14 25 1 43 -4 45
-12 3 -8 -2 -10 -14 -6 -10 3 -3 -3 15 -15 18 -12 35 -28 38 -36 4 -8 14 -15
23 -15 10 0 21 -3 25 -7 9 -9 46 -11 46 -3 0 12 -26 30 -33 23 -4 -3 -7 -1 -7
5 0 15 6 15 33 0 20 -10 21 -10 8 5 -17 22 2 22 23 1 16 -16 12 -39 -5 -29 -5
4 -9 -1 -9 -9 0 -9 7 -16 15 -16 13 0 14 -2 3 -14 -7 -8 -14 -10 -16 -5 -6 16
-23 9 -20 -8 5 -29 -35 -22 -43 7 -4 14 -7 19 -8 13 -1 -7 -5 -13 -11 -13 -5
0 -7 7 -4 15 4 9 1 15 -7 15 -8 0 -34 18 -57 41 -43 40 -67 47 -42 12 7 -10
-6 1 -28 24 l-41 41 -3 -26 c-2 -19 -8 -26 -20 -24 -25 4 -22 -11 7 -38 14
-13 25 -18 25 -12 0 6 -5 14 -10 17 -6 4 -7 11 -4 17 6 10 14 -2 49 -69 10
-18 24 -33 31 -33 8 0 14 -5 14 -11 0 -6 -7 -9 -15 -5 -8 3 -15 1 -15 -3 0 -5
6 -11 12 -13 9 -3 8 -9 -5 -22 -18 -19 -19 -17 -19 29 1 20 -1 24 -5 10 -6
-25 -23 -44 -23 -27 0 7 -12 11 -29 10 -16 -1 -41 4 -55 12 -21 11 -24 16 -13
29 9 12 9 13 0 7 -7 -4 -13 -2 -13 3 0 6 -7 11 -15 11 -8 0 -15 5 -15 11 0 5
-5 7 -10 4 -6 -3 -13 1 -17 11 -6 15 -7 15 -21 -2 -14 -18 -14 -18 -9 4 4 15
1 22 -10 22 -9 0 -13 6 -9 15 3 8 1 15 -4 15 -6 0 -10 -7 -10 -15 0 -22 -12
-19 -48 14 -17 16 -40 32 -49 34 -14 4 -13 5 4 6 22 1 22 2 6 21 -10 11 -21
20 -25 20 -7 0 -25 18 -88 85 -36 39 -28 39 26 -1 l31 -23 -1 22 c-1 16 -7 21
-23 20 -11 -1 -27 4 -33 12 -7 8 -16 15 -21 15 -4 0 -27 18 -51 40 -45 42 -45
51 0 23 24 -15 25 -15 12 0 -8 9 -35 27 -60 40 -25 13 -50 33 -56 45 -19 38
-27 39 -20 3 l6 -34 -22 19 c-26 22 -34 30 -108 119 -58 69 -76 80 -66 40 5
-18 2 -25 -9 -25 -8 0 -15 4 -15 9 0 10 -25 9 -36 -2 -3 -3 -23 5 -43 18 -19
14 -43 25 -51 25 -9 0 -21 5 -28 12 -9 9 -18 9 -37 0 -15 -7 -24 -8 -20 -2 3
5 2 10 -4 10 -5 0 -15 -8 -20 -17 -6 -10 -11 -13 -11 -6 0 6 4 15 10 18 19 12
10 26 -12 20 -17 -6 -20 -4 -15 9 4 9 2 16 -3 16 -6 0 -10 -6 -10 -14 0 -8 -5
-18 -10 -21 -7 -4 -9 5 -5 24 3 18 1 31 -5 31 -5 0 -10 -11 -10 -25 0 -30 -20
-33 -45 -5 -10 11 -25 20 -34 20 -14 0 -14 2 -1 11 13 9 13 10 0 8 -30 -3 -41
1 -34 13 5 7 3 8 -6 3 -9 -5 -4 -14 16 -31 16 -13 34 -23 40 -24 11 0 44 -32
44 -42 0 -3 -11 -3 -24 -1 -16 3 -23 10 -19 19 6 17 -9 18 -26 2 -10 -11 -12
-10 -9 2 4 17 -85 65 -144 76 -17 4 -17 3 0 -14 9 -11 20 -17 24 -15 4 2 19 1
33 -3 18 -4 23 -9 15 -14 -9 -6 -5 -13 13 -25 14 -9 31 -14 37 -10 6 3 10 -3
10 -14 0 -12 3 -21 7 -20 5 1 19 -2 31 -6 18 -6 23 -13 19 -31 -2 -13 0 -24 4
-24 5 0 9 5 9 11 0 5 4 7 10 4 15 -9 -10 -32 -34 -30 -13 1 -22 10 -24 23 -4
24 -17 29 -28 11 -4 -8 -9 -7 -15 2 -7 11 -9 10 -9 -5 0 -13 5 -17 19 -13 14
3 17 0 14 -14 -3 -11 0 -19 8 -19 7 0 9 -3 6 -6 -4 -4 -14 -1 -23 6 -13 11
-17 11 -24 1 -5 -9 -7 -5 -7 12 0 34 -32 63 -78 70 -34 6 -36 5 -19 -8 11 -8
27 -15 37 -15 11 0 17 -5 14 -12 -2 -7 2 -21 11 -31 8 -9 12 -20 7 -25 -4 -4
-10 -2 -12 5 -2 7 -12 9 -21 6 -13 -4 -14 -3 -3 5 11 8 9 12 -9 22 -12 6 -24
9 -27 6 -3 -3 -14 -1 -24 5 -26 13 -24 1 4 -22 20 -17 20 -18 2 -13 -13 4 -7
-6 18 -30 27 -26 45 -35 58 -31 11 4 19 2 19 -5 0 -7 8 -10 19 -7 12 3 18 -1
17 -11 -1 -14 12 -18 69 -25 11 -1 35 -13 53 -25 18 -13 39 -21 48 -18 8 3 17
-1 20 -9 4 -8 12 -15 18 -15 7 0 26 -14 43 -30 17 -17 37 -28 45 -25 8 3 23
-7 36 -25 13 -16 18 -30 13 -30 -6 0 -14 7 -19 16 -5 9 -13 16 -18 16 -5 0
-27 9 -49 20 -24 13 -41 16 -43 10 -4 -14 -94 17 -124 44 -13 11 -46 31 -73
44 -62 30 -118 67 -128 86 -4 8 -14 14 -21 14 -16 0 -29 27 -20 41 3 5 0 9 -5
9 -6 0 -11 -5 -11 -11 0 -8 -5 -8 -15 1 -8 7 -15 9 -15 5 0 -4 -8 -1 -17 6
-15 12 -16 12 -10 -3 10 -29 -23 -22 -62 12 -38 34 -46 37 -37 15 3 -8 1 -15
-4 -15 -6 0 -10 12 -10 26 0 18 -4 23 -13 17 -6 -4 -21 -6 -32 -5 -17 2 -17 1
-5 -7 8 -6 10 -11 4 -11 -17 0 -25 12 -14 24 5 7 5 17 0 26 -6 8 -10 10 -10 4
0 -23 -29 -23 -44 0 -21 33 -10 67 20 62 13 -3 29 -8 36 -12 7 -4 6 1 -3 10
-31 33 -60 28 -74 -14 -1 -3 -6 -14 -10 -24 -6 -15 -3 -23 13 -34 26 -17 28
-28 6 -36 -8 -3 -13 -2 -10 3 7 10 -20 34 -41 37 -8 1 -22 6 -31 10 -9 4 -20
8 -24 8 -3 1 -10 4 -14 9 -12 12 -26 8 -18 -5 6 -10 4 -10 -7 0 -7 6 -20 12
-29 12 -9 0 -34 17 -56 38 -37 35 -42 37 -87 32 -37 -5 -46 -3 -43 7 3 7 1 14
-4 14 -19 3 -25 5 -48 17 -12 7 -22 17 -22 22 0 6 -10 21 -22 35 -18 20 -24
23 -37 12 -14 -10 -14 -10 -3 4 7 9 11 23 10 30 -4 18 -36 42 -47 35 -5 -3
-30 15 -55 41 -25 25 -46 42 -46 37 0 -6 5 -15 12 -22 9 -9 9 -12 0 -12 -27 0
-11 -49 26 -81 20 -17 32 -29 26 -25 -7 3 -17 -1 -24 -10 -7 -8 -19 -13 -27
-10 -11 5 -13 -455 -13 -2774 l0 -2780 4700 0 4700 0 0 2925 0 2925 -3063 0
-3062 0 27 -28z m-3258 -158 c5 -14 4 -15 -9 -4 -17 14 -19 20 -6 20 5 0 12
-7 15 -16z m63 -63 c10 -15 9 -22 -2 -31 -11 -9 -15 -9 -15 -1 0 6 5 11 11 11
8 0 8 5 -1 15 -7 8 -16 12 -21 9 -5 -3 -9 0 -9 5 0 18 24 12 37 -8z m30 -70
c1 -14 -3 -18 -13 -14 -10 4 -12 0 -8 -11 3 -9 10 -14 14 -11 5 3 11 1 14 -4
8 -13 -47 -21 -62 -9 -7 6 -10 13 -7 16 2 3 11 -1 19 -7 12 -10 14 -9 9 7 -2
10 3 26 12 36 21 20 20 20 22 -3z m9123 -11 c0 -5 -7 -10 -15 -10 -8 0 -15 5
-15 10 0 6 7 10 15 10 8 0 15 -4 15 -10z m-9202 -66 c5 -9 12 -15 15 -15 24 3
29 -1 14 -10 -14 -8 -23 -7 -38 7 -10 9 -19 21 -19 26 0 14 18 9 28 -8z m249
-26 c-3 -8 -6 -5 -6 6 -1 11 2 17 5 13 3 -3 4 -12 1 -19z m-72 -7 c-3 -6 -11
-11 -17 -11 -6 0 -6 6 2 15 14 17 26 13 15 -4z m105 15 c0 -3 -4 -8 -10 -11
-5 -3 -10 -1 -10 4 0 6 5 11 10 11 6 0 10 -2 10 -4z m7930 -20 c0 -3 -4 -8
-10 -11 -5 -3 -10 -1 -10 4 0 6 5 11 10 11 6 0 10 -2 10 -4z m-8100 -41 c7 -8
8 -15 2 -15 -5 0 -15 7 -22 15 -7 8 -8 15 -2 15 5 0 15 -7 22 -15z m225 -15
c8 -13 -5 -13 -25 0 -13 8 -13 10 2 10 9 0 20 -4 23 -10z m855 2 c0 -7 95 -54
106 -52 4 1 10 -3 13 -8 3 -5 29 -22 56 -37 28 -15 59 -35 70 -44 47 -38 86
-62 95 -56 6 3 7 -1 4 -9 -4 -11 -14 -14 -33 -10 -22 5 -21 3 9 -13 23 -13 39
-16 48 -10 8 6 12 5 12 -2 0 -6 -5 -11 -11 -11 -5 0 -7 -6 -3 -12 6 -10 4 -10
-7 -2 -8 6 -25 15 -39 19 -14 4 0 -9 30 -29 70 -46 52 -47 -23 -2 -32 19 -54
30 -51 24 4 -6 -7 0 -25 13 -17 12 -31 27 -31 32 0 4 7 1 16 -7 22 -22 45 -20
41 4 -2 11 -7 23 -12 27 -4 5 -5 3 -1 -4 3 -6 2 -14 -3 -17 -8 -5 -26 21 -23
35 1 3 -11 4 -25 1 -18 -3 -24 -1 -19 7 4 6 -5 22 -20 36 -28 26 -40 32 -29
15 3 -6 -1 -13 -9 -16 -16 -6 -12 -24 5 -24 6 0 7 5 4 10 -10 16 11 12 25 -5
11 -13 10 -14 -5 -9 -12 5 -16 4 -11 -4 3 -6 1 -14 -5 -18 -8 -5 -9 -3 -4 6 6
10 4 12 -8 7 -9 -3 -16 -3 -16 1 1 4 -2 18 -6 30 -6 18 -10 20 -16 10 -7 -10
-9 -9 -9 5 0 9 -7 17 -15 17 -8 0 -15 7 -15 15 0 8 -4 15 -10 15 -5 0 -10 6
-10 13 0 7 -16 19 -35 27 -35 14 -48 40 -20 40 8 0 15 -3 15 -8z m-820 -12 c0
-5 -2 -10 -4 -10 -3 0 -8 5 -11 10 -3 6 -1 10 4 10 6 0 11 -4 11 -10z m104
-25 c10 -8 22 -12 27 -10 4 3 11 1 14 -5 5 -8 11 -7 21 1 10 8 14 8 14 0 0 -6
-6 -11 -12 -11 -14 -1 29 -40 43 -40 5 0 6 7 3 15 -4 11 -2 13 9 9 12 -4 14
-1 10 15 -3 12 -1 21 6 21 6 0 11 -4 11 -9 0 -5 15 -14 33 -22 17 -7 34 -16
37 -19 3 -3 39 -23 80 -44 41 -21 80 -42 87 -48 7 -5 27 -12 45 -15 32 -4 75
-33 51 -33 -7 0 -14 4 -17 9 -4 5 -14 8 -24 6 -9 -1 -29 4 -44 12 -15 7 -30
13 -33 13 -3 0 -25 12 -50 25 -25 14 -45 21 -45 15 0 -5 -5 -10 -11 -10 -5 0
-7 5 -4 10 4 6 -5 10 -19 10 -14 0 -26 5 -26 11 0 5 -4 7 -10 4 -5 -3 -10 -2
-10 4 0 7 -8 7 -26 1 -19 -7 -31 -7 -40 1 -17 14 -19 -2 -2 -19 9 -9 4 -9 -22
-2 -19 5 -45 21 -59 34 -22 22 -23 27 -10 42 8 10 9 15 2 11 -13 -8 -63 12
-63 25 0 12 12 9 34 -7z m930 -31 c5 -11 32 -37 59 -57 27 -21 42 -37 33 -37
-9 0 -25 9 -36 20 -10 10 -42 31 -70 45 -27 14 -50 29 -50 34 0 29 51 25 64
-5z m7193 0 c-9 -9 -28 6 -21 18 4 6 10 6 17 -1 6 -6 8 -13 4 -17z m-7907 6
c0 -5 -2 -10 -4 -10 -3 0 -8 5 -11 10 -3 6 -1 10 4 10 6 0 11 -4 11 -10z
m-464 -22 l19 -21 -27 18 c-29 18 -34 25 -20 25 5 0 17 -10 28 -22z m189 2 c3
-5 1 -10 -4 -10 -6 0 -11 5 -11 10 0 6 2 10 4 10 3 0 8 -4 11 -10z m523 -15
c-3 -3 -9 2 -12 12 -6 14 -5 15 5 6 7 -7 10 -15 7 -18z m245 -37 c6 -4 8 -10
4 -15 -12 -12 -27 19 -25 52 l1 30 4 -30 c3 -16 10 -33 16 -37z m-1073 36 c0
5 7 3 15 -4 8 -7 13 -16 10 -20 -3 -5 3 -11 12 -15 21 -7 59 -55 43 -55 -6 0
-22 12 -35 26 -14 15 -25 23 -25 18 0 -5 -9 6 -20 24 -20 32 -29 61 -10 32 5
-8 10 -11 10 -6z m-31 -12 c6 -12 6 -23 -1 -33 -8 -11 -9 -11 -4 4 3 11 0 17
-9 17 -7 0 -17 4 -20 10 -4 6 1 7 11 3 12 -4 15 -3 10 5 -4 7 -5 12 -2 12 3 0
10 -8 15 -18z m681 8 c0 -5 -2 -10 -4 -10 -3 0 -8 5 -11 10 -3 6 -1 10 4 10 6
0 11 -4 11 -10z m95 -11 c11 -17 -1 -21 -15 -4 -8 9 -8 15 -2 15 6 0 14 -5 17
-11z m7995 1 c0 -5 -2 -10 -4 -10 -3 0 -8 5 -11 10 -3 6 -1 10 4 10 6 0 11 -4
11 -10z m-8404 -16 c18 -14 18 -14 -6 -3 -31 14 -36 19 -24 19 6 0 19 -7 30
-16z m534 -9 c0 -12 -29 -3 -34 10 -4 13 -2 14 14 5 11 -6 20 -13 20 -15z
m7300 15 c0 -5 -4 -10 -10 -10 -5 0 -10 5 -10 10 0 6 5 10 10 10 6 0 10 -4 10
-10z m-8260 -10 c0 -5 7 -10 15 -10 8 0 19 -10 26 -22 l11 -21 -31 22 c-35 25
-47 41 -32 41 6 0 11 -4 11 -10z m1005 0 c-3 -5 -10 -10 -16 -10 -5 0 -9 5 -9
10 0 6 7 10 16 10 8 0 12 -4 9 -10z m-135 -20 c0 -5 -4 -10 -9 -10 -6 0 -13 5
-16 10 -3 6 1 10 9 10 9 0 16 -4 16 -10z m40 -34 c0 -5 -7 -1 -15 10 -8 10
-14 24 -14 29 0 6 6 1 14 -9 8 -11 15 -24 15 -30z m-340 14 c0 -5 -7 -7 -15
-4 -8 4 -12 10 -9 15 6 11 24 2 24 -11z m506 -2 c0 -21 -1 -21 -27 -7 -23 12
-19 25 8 25 11 0 19 -7 19 -18z m7444 2 c0 -5 -2 -10 -4 -10 -3 0 -8 5 -11 10
-3 6 -1 10 4 10 6 0 11 -4 11 -10z m-7885 -10 c3 -5 1 -10 -4 -10 -6 0 -11 5
-11 10 0 6 2 10 4 10 3 0 8 -4 11 -10z m605 -22 c0 -12 -6 -9 -26 13 -19 22
-19 22 4 8 12 -8 22 -17 22 -21z m121 15 c13 -16 12 -17 -3 -4 -17 13 -22 21
-14 21 2 0 10 -8 17 -17z m7820 -56 c-10 -9 -11 -8 -5 6 3 10 9 15 12 12 3 -3
0 -11 -7 -18z m-8211 -2 c7 -9 8 -15 2 -15 -5 0 -12 7 -16 15 -3 8 -4 15 -2
15 2 0 9 -7 16 -15z m345 -15 c12 -19 -12 -10 -31 11 -19 22 -19 22 3 10 12
-6 25 -16 28 -21z m-300 10 c3 -5 1 -10 -4 -10 -6 0 -11 5 -11 10 0 6 2 10 4
10 3 0 8 -4 11 -10z m-448 -22 c-3 -8 -6 -5 -6 6 -1 11 2 17 5 13 3 -3 4 -12
1 -19z m1023 -24 c0 -2 -9 0 -20 6 -11 6 -20 13 -20 16 0 2 9 0 20 -6 11 -6
20 -13 20 -16z m-813 10 c-3 -3 -12 -4 -19 -1 -8 3 -5 6 6 6 11 1 17 -2 13 -5z
m243 -4 c0 -5 -2 -10 -4 -10 -3 0 -8 5 -11 10 -3 6 -1 10 4 10 6 0 11 -4 11
-10z m-189 -26 c13 -14 17 -23 9 -19 -13 5 -46 45 -37 45 2 0 14 -11 28 -26z
m251 -2 c11 -13 8 -12 -19 2 -18 9 -33 18 -33 20 0 9 41 -8 52 -22z m73 -42
c3 -5 1 -10 -4 -10 -6 0 -11 5 -11 10 0 6 2 10 4 10 3 0 8 -4 11 -10z m-245
-10 c0 -5 -2 -10 -4 -10 -3 0 -8 5 -11 10 -3 6 -1 10 4 10 6 0 11 -4 11 -10z
m-599 -17 c13 -17 13 -17 -6 -3 -11 8 -22 16 -24 17 -2 2 0 3 6 3 6 0 17 -8
24 -17z m629 7 c0 -5 -2 -10 -4 -10 -3 0 -8 5 -11 10 -3 6 -1 10 4 10 6 0 11
-4 11 -10z m474 -16 c3 -8 2 -12 -4 -9 -6 3 -10 10 -10 16 0 14 7 11 14 -7z
m277 -21 c13 -16 12 -17 -3 -4 -10 7 -18 15 -18 17 0 8 8 3 21 -13z m-1271 -8
c7 -9 8 -15 2 -15 -5 0 -12 7 -16 15 -3 8 -4 15 -2 15 2 0 9 -7 16 -15z m1080
-3 c0 -5 -7 -9 -15 -9 -8 0 -15 4 -15 9 0 4 7 8 15 8 8 0 15 -4 15 -8z m-1129
-19 c13 -16 12 -17 -3 -4 -10 7 -18 15 -18 17 0 8 8 3 21 -13z m303 -18 c3 -8
1 -15 -4 -15 -6 0 -10 7 -10 15 0 8 2 15 4 15 2 0 6 -7 10 -15z m907 -32 c13
-16 12 -17 -3 -4 -17 13 -22 21 -14 21 2 0 10 -8 17 -17z m-831 -3 c0 -5 -2
-10 -4 -10 -3 0 -8 5 -11 10 -3 6 -1 10 4 10 6 0 11 -4 11 -10z m7400 0 c0 -5
-4 -10 -10 -10 -5 0 -10 5 -10 10 0 6 5 10 10 10 6 0 10 -4 10 -10z m696 -16
c-4 -9 -9 -15 -11 -12 -3 3 -3 13 1 22 4 9 9 15 11 12 3 -3 3 -13 -1 -22z
m-8038 -4 c12 -12 22 -25 22 -31 0 -6 5 -7 10 -4 6 3 10 1 10 -4 0 -28 -50 3
-74 47 -11 19 8 14 32 -8z m4287 -139 c110 -39 209 -76 220 -80 11 -5 51 -20
88 -33 55 -19 67 -27 66 -43 -3 -47 1 -67 15 -62 17 7 141 -26 161 -43 32 -27
55 -80 75 -179 13 -59 19 -114 15 -130 -4 -14 -9 -52 -11 -83 -5 -77 -38 -208
-73 -288 -15 -36 -38 -99 -50 -140 -13 -41 -33 -93 -45 -115 -44 -76 -42 -90
12 -153 69 -81 133 -178 127 -194 -4 -9 5 -18 21 -23 l27 -10 -36 -38 c-25
-28 -42 -38 -59 -35 -13 2 -22 9 -20 16 3 17 -9 15 -24 -5 -13 -17 -14 -17 -8
0 6 17 -11 25 -18 8 -1 -4 -12 -5 -23 0 -18 7 -18 8 -2 8 11 1 15 6 11 12 -4
8 1 9 16 4 15 -5 20 -4 16 4 -4 6 0 11 10 11 42 0 -2 14 -64 20 l-67 8 70 0
c39 1 86 6 105 11 l35 9 -47 1 c-27 1 -48 5 -48 10 0 4 -12 24 -27 44 -16 20
-39 53 -53 73 -14 20 -36 47 -49 60 -20 20 -25 21 -37 10 -14 -15 -50 -11 -60
6 -4 6 1 8 13 4 13 -4 20 -2 20 7 0 15 -33 12 -43 -4 -8 -14 -21 -11 -21 6 0
8 18 21 41 29 23 8 33 15 23 15 -10 1 -15 6 -12 11 10 16 -6 12 -68 -19 l-59
-28 49 50 c26 27 42 46 34 42 -7 -4 -16 -2 -21 4 -5 9 -10 8 -20 -4 -11 -13
-10 -15 6 -9 20 7 19 7 -29 -36 -21 -19 -26 -20 -21 -7 3 10 3 17 -2 16 -20
-3 -26 2 -16 14 6 6 10 16 10 22 0 5 6 11 14 13 9 2 8 0 -2 -7 -8 -6 -10 -11
-5 -11 15 0 37 16 35 26 -1 5 9 12 22 16 16 5 11 6 -17 5 -48 -2 -55 -7 -167
-118 -49 -47 -88 -82 -88 -79 0 3 5 11 12 18 17 17 2 28 -17 12 -10 -8 -15 -9
-15 -1 0 6 0 14 0 18 0 4 7 8 16 9 10 2 21 10 26 18 5 9 16 16 23 16 8 0 16 8
17 18 0 9 2 22 3 27 2 6 3 16 4 23 0 6 9 12 18 12 15 0 14 -2 -3 -15 -20 -15
-16 -19 10 -9 9 3 16 12 16 20 0 8 7 14 15 14 8 0 15 -5 15 -12 0 -9 3 -9 12
0 10 10 10 15 -1 21 -8 5 -19 7 -26 5 -16 -7 -39 22 -29 37 5 8 3 9 -7 4 -12
-8 -12 -6 0 8 17 21 35 21 66 1 22 -14 24 -14 34 5 20 36 13 55 -24 67 -25 8
-36 8 -39 0 -2 -6 -5 -3 -5 6 -1 18 32 33 50 23 13 -8 38 23 39 48 0 10 5 15
10 12 6 -4 8 -11 4 -16 -3 -5 0 -17 8 -26 11 -15 11 -16 -4 -10 -21 7 -36 -12
-18 -23 9 -5 11 -19 6 -40 -5 -27 -4 -31 8 -21 11 9 15 9 19 -1 4 -8 6 -7 6 5
2 39 89 7 121 -46 11 -18 20 -25 20 -17 -1 8 -7 24 -15 34 -8 11 -15 30 -15
43 0 13 -4 23 -10 23 -15 0 -12 14 8 36 25 27 41 73 40 119 0 22 3 69 6 104 6
54 4 66 -11 78 -17 14 -17 14 1 9 16 -6 17 -4 6 9 -16 20 -1 19 28 -1 27 -18
29 -4 4 19 -10 10 -23 14 -27 10 -5 -5 -3 0 4 10 7 9 10 17 5 18 -5 0 -17 2
-26 4 -10 2 -18 0 -18 -3 0 -4 -14 -8 -31 -9 -18 -1 -29 0 -26 3 3 3 7 4 9 2
3 -1 12 5 22 15 12 12 33 17 71 17 30 0 57 5 60 10 3 6 1 10 -4 10 -6 0 -2 9
9 20 11 11 20 28 20 38 0 9 -4 13 -8 7 -13 -18 -73 -47 -87 -41 -24 9 -14 44
14 44 l24 0 -24 -19 c-29 -22 -13 -25 19 -3 25 18 29 46 7 64 -17 14 -21 35
-5 25 20 -12 2 22 -36 74 -2 2 -15 5 -30 7 -14 1 -39 8 -56 15 -35 14 -34 44
2 44 14 0 25 5 25 10 0 6 -3 9 -7 8 -8 -3 -228 73 -236 81 -3 4 0 6 6 6 5 0
19 3 29 6 15 5 16 4 3 -6 -13 -10 -12 -11 3 -6 11 3 16 2 12 -4 -3 -6 -2 -10
4 -10 5 0 12 4 15 8 8 13 -53 45 -75 39 -10 -3 -17 -1 -14 3 5 7 -26 23 -47
25 -13 0 -21 15 -9 15 14 0 215 -69 295 -101 27 -10 51 -18 53 -16 10 10 -86
60 -114 60 -18 -1 -31 3 -28 8 9 13 -55 41 -79 35 -29 -7 -67 4 -59 17 3 6 1
7 -5 3 -7 -4 -12 -3 -12 2 0 13 -63 42 -87 41 -11 0 -6 -5 14 -12 17 -7 35
-16 40 -21 10 -11 -31 1 -77 23 -19 9 -37 16 -40 17 -26 4 -112 33 -194 66
-54 21 -105 37 -112 34 -8 -3 -20 7 -29 24 -19 37 -51 39 -67 5 -6 -14 -15
-25 -20 -25 -5 0 -7 -4 -4 -8 2 -4 1 -13 -3 -20 -8 -13 -51 -5 -51 10 0 5 5 6
10 3 6 -3 10 0 11 7 0 10 2 10 6 1 2 -7 9 -13 14 -13 4 0 6 7 2 16 -3 8 -11
13 -17 11 -53 -22 -53 -22 -31 2 l19 22 -46 -3 c-25 -2 -44 -6 -41 -10 2 -5
-2 -9 -9 -9 -36 -3 -30 0 -105 -65 -44 -37 -61 -32 -20 7 l22 21 -22 -11 c-13
-6 -34 -23 -47 -36 -14 -14 -30 -25 -37 -25 -10 0 74 105 116 143 75 70 210
94 259 48 18 -17 37 -24 63 -24 60 1 62 1 78 32 l15 30 82 -28 c46 -16 173
-61 283 -100z m-3055 87 c0 -6 -6 -5 -15 2 -8 7 -15 14 -15 16 0 2 7 1 15 -2
8 -4 15 -11 15 -16z m3940 8 c0 -3 -4 -8 -10 -11 -5 -3 -10 -1 -10 4 0 6 5 11
10 11 6 0 10 -2 10 -4z m2271 -29 c-10 -9 -11 -8 -5 6 3 10 9 15 12 12 3 -3 0
-11 -7 -18z m-6169 -7 c7 -11 19 -20 26 -20 7 0 10 -4 7 -10 -10 -16 -20 -12
-43 20 -13 17 -18 30 -12 30 5 0 15 -9 22 -20z m7111 -5 c-7 -19 -19 -19 -26
-1 -3 8 -1 17 6 19 18 6 27 -2 20 -18z m-7969 -31 c5 -14 4 -15 -9 -4 -17 14
-19 20 -6 20 5 0 12 -7 15 -16z m1346 -19 c0 -8 -2 -15 -4 -15 -2 0 -6 7 -10
15 -3 8 -1 15 4 15 6 0 10 -7 10 -15z m2037 0 c9 -24 -1 -27 -20 -5 -14 17
-15 20 -2 20 9 0 18 -7 22 -15z m2090 -7 c-3 -8 -6 -5 -6 6 -1 11 2 17 5 13 3
-3 4 -12 1 -19z m1953 18 c0 -2 -7 -7 -16 -10 -8 -3 -12 -2 -9 4 6 10 25 14
25 6z m-6110 -26 c0 -5 -4 -10 -10 -10 -5 0 -10 5 -10 10 0 6 5 10 10 10 6 0
10 -4 10 -10z m2079 -31 c18 -6 30 -14 27 -17 -7 -6 -69 19 -78 32 -14 19 -8
31 6 13 7 -9 28 -22 45 -28z m-2439 15 c0 -7 6 -19 13 -26 7 -7 18 -20 23 -30
5 -9 26 -34 47 -57 20 -22 37 -45 37 -51 0 -9 -64 61 -146 160 -11 13 -10 16
6 16 11 0 20 -6 20 -12z m2288 6 c14 -8 13 -10 -8 -10 -15 -1 -19 -4 -10 -7 8
-3 33 -20 55 -38 22 -17 54 -35 70 -39 19 -4 25 -3 17 2 -11 7 -10 11 5 16 16
7 16 9 -7 21 -14 8 -19 14 -11 15 19 0 191 -83 191 -93 0 -4 -16 -1 -35 8 -20
8 -33 10 -30 5 8 -13 -17 -18 -47 -9 -43 12 -41 -2 4 -26 36 -19 53 -22 132
-18 112 5 203 -17 303 -73 37 -21 72 -37 76 -36 5 1 6 -2 3 -7 -8 -13 33 -41
61 -41 12 0 25 5 28 10 3 6 11 10 16 10 6 0 8 -4 4 -9 -3 -5 4 -12 15 -16 21
-7 26 -30 10 -55 -8 -13 -10 -12 -15 1 -3 9 -5 22 -3 30 2 10 -8 14 -37 14
-37 0 -105 30 -105 46 0 13 -96 67 -160 90 -53 18 -85 22 -173 22 -74 0 -112
-5 -120 -13 -8 -9 -8 -11 -1 -7 6 4 56 7 110 8 71 2 108 -2 129 -13 17 -8 38
-13 48 -11 9 3 17 0 17 -6 0 -6 6 -8 14 -5 7 3 16 -2 20 -11 3 -9 11 -15 18
-14 25 3 38 -1 56 -18 10 -10 39 -35 65 -56 26 -21 52 -48 59 -60 10 -20 10
-21 -5 -8 -18 15 -24 2 -6 -16 5 -5 12 -23 14 -39 2 -16 5 -29 6 -29 1 0 3 -9
4 -20 1 -11 8 -48 16 -82 10 -50 10 -71 0 -110 -7 -26 -15 -60 -18 -74 l-5
-27 -41 23 c-23 13 -78 38 -122 56 -43 18 -74 34 -67 37 7 2 9 9 5 15 -4 7 -6
28 -5 47 2 28 1 32 -8 20 -10 -12 -11 -11 -7 8 3 12 1 22 -4 22 -11 0 -29 43
-31 76 -1 13 -6 24 -11 24 -5 0 -7 7 -3 15 3 8 1 15 -4 15 -6 0 -10 5 -10 11
0 6 7 8 16 5 9 -3 12 -2 9 4 -4 6 -12 10 -18 9 -7 -1 -19 -1 -27 0 -13 1 -13
2 0 11 11 7 4 8 -22 6 -21 -2 -38 0 -38 5 0 5 -4 9 -9 9 -5 0 -22 5 -38 11
-22 8 -25 12 -13 20 12 8 10 9 -7 4 -12 -3 -24 -1 -28 5 -3 5 -17 10 -31 10
-14 0 -22 -4 -19 -10 4 -6 -9 -10 -32 -9 -21 1 -30 3 -20 6 9 2 15 9 12 14 -4
5 -15 5 -27 -2 -15 -8 -19 -8 -14 0 4 6 2 11 -5 11 -21 0 3 18 31 23 14 2 6 3
-18 2 l-43 -3 19 22 c10 11 17 29 15 39 -6 22 -23 22 -23 -1 0 -22 -27 -62
-42 -62 -7 0 -6 5 1 14 9 11 9 16 0 22 -8 4 -9 3 -5 -4 7 -12 -5 -16 -34 -12
-25 3 -32 17 -20 40 9 16 9 25 0 36 -7 8 -10 27 -6 46 8 42 8 47 -1 51 -5 1
-16 -25 -25 -58 l-18 -60 5 81 c6 88 2 94 -49 94 -16 0 -22 6 -22 23 0 12 3
24 7 27 14 10 61 10 77 0z m238 -9 c-2 -3 7 -7 20 -7 13 -1 52 -13 87 -27 54
-22 184 -70 226 -83 8 -3 12 -7 9 -10 -3 -2 -27 3 -52 11 -39 13 -50 14 -64 3
-9 -7 -14 -8 -10 -4 8 10 -9 36 -23 36 -5 0 -6 -7 -3 -15 4 -9 0 -15 -7 -16
-8 0 -5 -5 6 -10 l20 -9 -20 3 c-15 2 -19 9 -17 30 3 27 -4 31 -45 30 -7 -1
-13 3 -13 8 0 5 -7 9 -15 9 -11 0 -10 -5 6 -21 11 -11 18 -23 15 -26 -8 -8
-27 8 -21 18 4 5 1 9 -4 9 -6 0 -11 -4 -11 -9 0 -4 -29 3 -65 17 -36 14 -62
28 -57 31 4 3 7 12 8 19 2 28 5 31 19 26 8 -4 13 -9 11 -13z m-2429 -13 c-3
-8 -6 -5 -6 6 -1 11 2 17 5 13 3 -3 4 -12 1 -19z m286 -13 c-7 -21 -13 -19
-13 6 0 11 4 18 10 14 5 -3 7 -12 3 -20z m-178 5 c-3 -5 -14 -10 -23 -9 -14 0
-13 2 3 9 27 11 27 11 20 0z m1985 0 c-1 -3 -7 -16 -16 -30 -14 -24 -15 -24
-9 -2 6 21 3 20 -44 -13 -28 -20 -51 -33 -51 -28 0 4 18 19 40 32 21 13 39 27
38 30 -1 16 4 20 22 18 11 -1 20 -4 20 -7z m160 -10 c0 -5 -2 -10 -4 -10 -3 0
-8 5 -11 10 -3 6 -1 10 4 10 6 0 11 -4 11 -10z m3390 -30 c-6 -11 -13 -20 -16
-20 -2 0 0 9 6 20 6 11 13 20 16 20 2 0 0 -9 -6 -20z m-5490 -11 c0 -6 -4 -7
-10 -4 -5 3 -10 11 -10 16 0 6 5 7 10 4 6 -3 10 -11 10 -16z m175 11 c3 -5 1
-10 -4 -10 -6 0 -11 5 -11 10 0 6 2 10 4 10 3 0 8 -4 11 -10z m3880 0 c3 -5
-1 -10 -10 -10 -9 0 -13 5 -10 10 3 6 8 10 10 10 2 0 7 -4 10 -10z m-2155 -16
c0 -3 -9 -17 -20 -31 -11 -14 -20 -20 -20 -14 0 16 -33 -2 -93 -52 -26 -22
-50 -37 -52 -35 -8 7 89 85 129 104 20 10 36 21 36 26 0 4 5 8 10 8 6 0 10 -3
10 -6z m535 -25 c-10 -15 -22 -10 -28 11 -4 17 -2 18 14 9 11 -5 17 -14 14
-20z m4205 1 c-8 -5 -19 -10 -25 -10 -5 0 -3 5 5 10 8 5 20 10 25 10 6 0 3 -5
-5 -10z m-4896 -35 c-9 -14 -19 -23 -22 -20 -5 4 26 45 35 45 2 0 -4 -11 -13
-25z m556 5 c0 -5 -4 -10 -10 -10 -5 0 -10 5 -10 10 0 6 5 10 10 10 6 0 10 -4
10 -10z m37 -16 c-3 -3 -12 -4 -19 -1 -8 3 -5 6 6 6 11 1 17 -2 13 -5z m-2263
-33 c-2 -3 -12 3 -22 13 -16 17 -16 18 5 5 12 -7 20 -15 17 -18z m2751 9 c13
-6 15 -9 5 -9 -8 0 -22 4 -30 9 -18 12 -2 12 25 0z m3915 -10 c0 -5 -2 -10 -4
-10 -3 0 -8 5 -11 10 -3 6 -1 10 4 10 6 0 11 -4 11 -10z m-6110 -10 c0 -5 -4
-10 -10 -10 -5 0 -10 5 -10 10 0 6 5 10 10 10 6 0 10 -4 10 -10z m5880 -41 c0
-6 -4 -7 -10 -4 -5 3 -10 11 -10 16 0 6 5 7 10 4 6 -3 10 -11 10 -16z m-4665
-21 c-9 -6 -19 -7 -22 -4 -4 3 -1 6 6 6 7 0 9 4 6 10 -4 6 1 7 11 3 15 -6 15
-7 -1 -15z m145 2 c0 -11 -2 -20 -5 -20 -2 0 -9 9 -15 20 -9 16 -8 20 5 20 8
0 15 -9 15 -20z m4770 -15 c-7 -9 -15 -13 -18 -10 -3 2 1 11 8 20 7 9 15 13
18 10 3 -2 -1 -11 -8 -20z m-4729 -9 c14 8 11 -14 -7 -47 -19 -39 -22 -35 -16
21 3 25 7 39 9 32 3 -6 9 -10 14 -6z m47 -16 c3 -7 0 -10 -7 -6 -6 4 -11 1
-11 -8 0 -10 6 -13 15 -10 8 4 15 13 15 21 0 8 5 11 11 7 7 -4 -3 -19 -27 -40
-37 -33 -54 -39 -38 -12 9 13 10 18 12 51 2 21 23 19 30 -3z m2158 -7 c-10
-10 -19 5 -10 18 6 11 8 11 12 0 2 -7 1 -15 -2 -18z m-3346 7 c8 -5 11 -12 8
-16 -4 -3 -14 1 -23 10 -18 17 -9 21 15 6z m1069 0 c-6 -5 -18 -6 -26 -3 -19
8 -16 11 13 11 17 0 22 -3 13 -8z m3516 0 c3 -5 -1 -10 -9 -10 -9 0 -16 5 -16
10 0 6 4 10 9 10 6 0 13 -4 16 -10z m695 -31 c-7 -11 -14 -18 -17 -15 -3 3 0
12 7 21 18 21 23 19 10 -6z m-5223 4 c-3 -5 17 -24 44 -43 27 -19 49 -41 49
-48 0 -11 -2 -11 -13 0 -7 7 -30 24 -50 38 -20 14 -37 28 -37 32 0 4 -6 5 -14
2 -8 -3 -17 0 -22 7 -5 9 -2 10 9 6 9 -3 19 -2 22 3 7 12 18 14 12 3z m884
-20 c-12 -20 -14 -14 -5 12 4 9 9 14 11 11 3 -2 0 -13 -6 -23z m149 -3 c0 -11
5 -22 10 -25 6 -3 10 -11 10 -18 0 -6 -8 0 -17 13 -21 32 -34 40 -48 32 -5 -3
-4 2 3 10 16 20 42 13 42 -12z m340 -5 c10 -12 10 -15 -3 -15 -8 0 -17 7 -21
15 -3 8 -2 15 3 15 5 0 14 -7 21 -15z m-507 -35 c-3 -12 -8 -19 -11 -16 -5 6
5 36 12 36 2 0 2 -9 -1 -20z m412 0 c3 -6 -4 -10 -17 -10 -18 0 -20 2 -8 10
19 12 18 12 25 0z m770 -74 c-10 -37 -20 -64 -22 -62 -3 3 1 36 8 75 8 43 17
67 22 62 6 -6 3 -36 -8 -75z m-1100 64 c3 -5 -1 -10 -9 -10 -9 0 -16 5 -16 10
0 6 4 10 9 10 6 0 13 -4 16 -10z m-790 -47 c24 -35 36 -69 17 -47 -16 17 -54
84 -48 84 3 0 17 -17 31 -37z m1806 7 c6 0 7 5 3 12 -4 7 -3 8 4 4 14 -8 16
-36 4 -36 -14 0 -32 23 -31 40 1 11 2 11 6 -2 2 -10 9 -18 14 -18z m3727 -20
c-7 -10 -14 -17 -17 -15 -4 4 18 35 25 35 2 0 -1 -9 -8 -20z m-3783 -50 c3 -5
1 -10 -4 -10 -6 0 -11 5 -11 10 0 6 2 10 4 10 3 0 8 -4 11 -10z m-1711 -16
c11 -28 6 -39 -9 -20 -8 11 -15 23 -15 28 0 14 18 9 24 -8z m5066 -14 c-6 -11
-13 -20 -16 -20 -2 0 0 9 6 20 6 11 13 20 16 20 2 0 0 -9 -6 -20z m505 1 c-3
-6 -11 -11 -17 -11 -6 0 -6 6 2 15 14 17 26 13 15 -4z m-4930 -8 c-4 -10 -8
-22 -9 -28 -3 -14 -25 -52 -26 -43 0 12 32 88 37 88 3 0 2 -8 -2 -17z m404
-10 c2 -2 -3 -3 -11 -3 -9 0 -19 7 -22 16 -6 15 -4 15 11 3 10 -7 20 -15 22
-16z m716 6 c-8 -12 32 -12 56 1 16 9 19 7 19 -9 0 -11 -5 -23 -12 -27 -8 -5
-9 -2 -5 9 9 23 -9 22 -19 0 -4 -10 -8 -21 -8 -25 -4 -28 -50 -11 -59 22 -3
11 -1 18 4 14 8 -5 13 10 10 29 -1 5 3 6 9 2 6 -3 8 -11 5 -16z m-1535 -5 c0
-8 -4 -12 -10 -9 -5 3 -10 10 -10 16 0 5 5 9 10 9 6 0 10 -7 10 -16z m828 -65
c40 -6 71 -13 69 -16 -6 -6 -208 25 -216 33 -6 6 16 4 147 -17z m-293 1 c3 -5
-1 -10 -10 -10 -9 0 -13 5 -10 10 3 6 8 10 10 10 2 0 7 -4 10 -10z m105 0 c11
-7 5 -9 -22 -7 -21 1 -38 5 -38 10 0 10 42 8 60 -3z m-147 -7 c-7 -2 -19 -2
-25 0 -7 3 -2 5 12 5 14 0 19 -2 13 -5z m4882 -12 c-3 -6 -11 -11 -17 -11 -6
0 -6 6 2 15 14 17 26 13 15 -4z m-5441 -17 c5 -14 4 -15 -9 -4 -17 14 -19 20
-6 20 5 0 12 -7 15 -16z m5476 -9 c-7 -9 -15 -13 -18 -10 -3 2 1 11 8 20 7 9
15 13 18 10 3 -2 -1 -11 -8 -20z m-4935 -15 c3 -5 2 -10 -4 -10 -5 0 -13 5
-16 10 -3 6 -2 10 4 10 5 0 13 -4 16 -10z m145 -81 c-6 -46 -13 -85 -15 -87
-1 -2 -6 9 -9 24 -7 26 22 160 31 150 2 -2 -1 -41 -7 -87z m4117 85 c-3 -3
-12 -4 -19 -1 -8 3 -5 6 6 6 11 1 17 -2 13 -5z m-4176 -41 c-12 -20 -14 -14
-5 12 4 9 9 14 11 11 3 -2 0 -13 -6 -23z m91 -20 c-3 -16 -7 -22 -10 -15 -4
13 4 42 11 42 2 0 2 -12 -1 -27z m-667 -3 c10 -11 13 -20 7 -20 -6 0 -16 9
-22 20 -6 11 -9 20 -7 20 2 0 12 -9 22 -20z m1360 -53 c52 -28 13 -19 -62 15
-40 18 -72 36 -73 40 0 8 79 -25 135 -55z m-789 -8 c-13 -19 -16 -20 -16 -6 0
9 5 17 10 17 18 0 10 22 -10 27 -11 3 -17 10 -14 15 4 6 15 2 26 -10 19 -19
19 -22 4 -43z m964 34 c-17 -54 -20 -57 -15 -18 2 22 4 41 5 43 0 1 4 2 9 2 6
0 7 -11 1 -27z m3746 -21 c-17 -16 -18 -16 -5 5 7 12 15 20 18 17 3 -2 -3 -12
-13 -22z m-4629 -24 c-3 -8 -6 -5 -6 6 -1 11 2 17 5 13 3 -3 4 -12 1 -19z
m809 -8 c15 -6 24 -13 21 -16 -7 -7 -73 21 -82 36 -6 9 -3 9 13 1 11 -6 33
-16 48 -21z m-1441 0 c3 -5 -3 -10 -15 -10 -12 0 -18 5 -15 10 3 6 10 10 15
10 5 0 12 -4 15 -10z m-95 -33 c0 -2 -10 -12 -22 -23 l-23 -19 19 23 c18 21
26 27 26 19z m-122 -32 c-3 -3 -9 2 -12 12 -6 14 -5 15 5 6 7 -7 10 -15 7 -18z
m1672 5 c0 -5 -5 -10 -11 -10 -5 0 -7 5 -4 10 3 6 8 10 11 10 2 0 4 -4 4 -10z
m-90 -45 c-6 -15 -13 -26 -15 -23 -3 2 1 19 8 37 6 17 13 28 15 23 1 -5 -2
-22 -8 -37z m-1530 11 c0 -2 -8 -10 -17 -17 -16 -13 -17 -12 -4 4 13 16 21 21
21 13z m1456 -21 c9 -15 18 -51 20 -87 1 -34 0 -57 -4 -51 -8 13 -29 12 -49 0
-7 -5 -13 -4 -13 2 0 5 5 13 10 16 6 3 10 27 9 53 -1 38 -2 42 -9 22 -7 -23
-8 -23 -9 -3 -1 12 4 25 9 28 6 3 10 15 10 26 0 25 6 24 26 -6z m1959 5 c3 -5
1 -10 -4 -10 -6 0 -11 5 -11 10 0 6 2 10 4 10 3 0 8 -4 11 -10z m-655 -20 c0
-5 -5 -10 -11 -10 -5 0 -7 5 -4 10 3 6 8 10 11 10 2 0 4 -4 4 -10z m-1050 -40
c0 -5 -4 -10 -10 -10 -5 0 -10 5 -10 10 0 6 5 10 10 10 6 0 10 -4 10 -10z
m-1790 -51 l25 -20 -35 17 c-43 20 -47 24 -29 24 8 0 25 -10 39 -21z m-75 -19
c-10 -11 -20 -18 -23 -16 -5 6 21 35 32 36 5 0 1 -9 -9 -20z m795 -35 l-8 -40
-1 36 c0 20 2 39 6 42 11 11 11 4 3 -38z m189 -28 c12 -15 12 -17 -3 -11 -9 3
-16 13 -16 22 0 8 1 13 3 11 1 -2 9 -12 16 -22z m-1061 -7 c-13 -20 -28 -27
-28 -12 0 10 22 32 32 32 5 0 3 -9 -4 -20z m962 10 c0 -5 -5 -10 -11 -10 -5 0
-7 5 -4 10 3 6 8 10 11 10 2 0 4 -4 4 -10z m-49 -30 c5 0 9 -5 9 -11 0 -5 -4
-8 -9 -5 -5 4 -12 0 -14 -6 -3 -7 -5 3 -5 22 0 19 2 27 5 18 2 -10 9 -18 14
-18z m2469 10 c0 -5 -4 -10 -10 -10 -5 0 -10 5 -10 10 0 6 5 10 10 10 6 0 10
-4 10 -10z m-2513 -52 c-2 -13 -4 -5 -4 17 -1 22 1 32 4 23 2 -10 2 -28 0 -40z
m827 6 c-10 -15 -20 -21 -22 -15 -2 6 4 24 14 39 10 14 19 21 21 15 3 -7 -4
-24 -13 -39z m-1719 0 c-10 -8 -22 -14 -25 -14 -4 0 -7 6 -7 14 0 8 11 14 26
14 23 0 24 -1 6 -14z m1021 1 c-24 -18 -32 -19 -39 -2 -3 8 6 13 27 14 29 2
30 1 12 -12z m544 6 c0 -10 -70 -54 -76 -48 -2 2 13 15 34 29 45 31 42 30 42
19z m-1615 -23 c-3 -7 -20 -14 -38 -15 l-32 -1 30 13 c38 18 46 18 40 3z
m1695 -39 c-35 -29 -102 -69 -117 -69 -4 0 15 13 42 29 28 16 59 38 69 50 11
11 24 21 30 21 6 0 -5 -14 -24 -31z m969 -33 c9 -8 37 -17 63 -21 26 -4 55
-14 65 -22 17 -13 16 -13 -4 -4 -12 6 -27 11 -33 11 -17 0 40 -44 75 -58 l30
-13 -25 20 c-14 11 -22 23 -18 26 3 4 38 -25 77 -63 113 -111 144 -212 88
-285 -15 -21 -41 -44 -58 -52 -16 -9 -29 -20 -29 -26 0 -20 -115 -201 -150
-235 -25 -25 -30 -34 -18 -34 9 0 22 8 27 18 17 28 12 -5 -6 -48 -10 -22 -23
-39 -29 -37 -6 1 -23 -12 -37 -29 -18 -21 -51 -40 -103 -59 -66 -24 -85 -27
-152 -22 -99 7 -166 32 -198 74 -31 41 -15 44 19 3 32 -38 42 -38 23 -1 -9 16
-12 31 -9 35 4 3 -3 6 -15 6 -29 0 -35 15 -7 16 17 1 28 -8 41 -32 19 -35 35
-37 29 -3 -4 20 -3 20 19 5 29 -18 44 -8 19 14 -10 8 -16 14 -14 13 2 -2 10 2
18 8 9 9 13 8 14 0 3 -21 4 -26 13 -40 6 -9 5 -12 -1 -8 -5 3 -10 1 -10 -6 0
-7 8 -13 18 -13 9 0 15 5 14 11 -14 45 -14 62 0 62 8 0 15 -4 15 -9 0 -4 10
-8 23 -7 16 0 18 2 7 7 -18 9 -25 33 -8 30 7 -2 12 5 11 15 0 10 1 16 4 13 3
-3 12 2 20 10 9 8 23 13 32 10 9 -3 3 5 -14 19 -16 14 -25 25 -19 25 6 0 14
-3 18 -7 10 -10 46 -11 46 -1 0 4 9 8 21 8 12 0 19 5 16 13 -2 6 -11 11 -21 9
-9 -2 -16 2 -16 8 0 9 14 14 33 11 5 -1 5 4 1 10 -10 17 17 29 40 17 10 -6 40
-12 65 -13 42 -3 44 -2 27 11 -22 16 -4 19 23 4 14 -7 26 -3 51 20 19 17 39
30 46 30 17 0 24 23 10 35 -16 15 -85 19 -100 6 -10 -9 -15 -8 -19 3 -4 9 -14
12 -28 9 -20 -6 -21 -4 -9 8 8 9 26 13 49 11 20 -3 33 -2 30 2 -4 5 -46 11
-101 15 -4 1 -5 7 -2 15 3 8 -9 22 -30 36 -47 28 -46 35 2 12 26 -13 61 -19
117 -19 l80 -1 -68 7 c-37 4 -72 12 -78 18 -8 8 2 9 33 6 25 -3 61 2 88 11
l45 15 -25 -19 -25 -20 38 0 c33 0 37 2 28 18 -10 18 10 58 22 45 4 -3 7 -1 7
6 0 7 5 9 11 5 7 -4 9 0 5 14 -4 12 0 26 10 36 22 22 11 79 -20 103 -13 11
-26 28 -30 40 -4 11 -16 23 -27 26 -19 5 -19 4 -6 -11 29 -33 68 -143 62 -172
-5 -24 -24 -39 -47 -36 -4 1 -13 -8 -21 -18 -13 -18 -14 -17 -20 11 -3 17 -13
38 -22 46 -16 17 -21 32 -6 23 4 -3 15 2 24 12 12 14 13 19 2 29 -10 10 -14 9
-19 -2 -9 -26 -23 -16 -19 13 4 26 3 26 -11 -5 -18 -39 -30 -44 -16 -7 6 14
10 33 10 42 0 15 -2 15 -10 2 -9 -13 -10 -13 -11 0 0 10 -2 11 -6 2 -2 -6 -9
-10 -14 -6 -15 9 -10 22 11 29 11 3 20 10 20 15 0 11 -33 7 -42 -5 -5 -5 -5 5
-2 23 4 21 3 32 -5 32 -6 0 -11 -15 -12 -32 l-1 -33 -11 32 c-17 44 -28 53
-17 12 12 -41 12 -49 2 -49 -4 0 -15 16 -24 35 -14 32 -14 35 3 51 23 21 25
36 2 27 -11 -4 -14 -3 -9 5 5 8 2 10 -8 6 -12 -4 -16 0 -16 16 0 13 4 19 12
14 7 -4 8 -3 4 4 -4 7 -14 12 -22 12 -9 0 -12 5 -8 11 8 14 62 4 83 -15z
m-2656 -4 c-2 -7 3 -12 11 -12 8 0 18 -5 21 -10 4 -6 -12 -3 -34 6 -23 9 -57
14 -76 12 -38 -4 -49 8 -12 15 41 7 92 1 90 -11z m2010 6 c-18 -6 -33 -16 -33
-23 0 -7 -11 -15 -25 -17 -22 -5 -23 -3 -13 10 15 18 66 41 88 41 8 -1 0 -6
-17 -11z m-1291 -20 c-7 -7 -12 -8 -12 -2 0 6 3 14 7 17 3 4 9 5 12 2 2 -3 -1
-11 -7 -17z m958 18 c0 -2 -8 -10 -17 -17 -16 -13 -17 -12 -4 4 13 16 21 21
21 13z m230 -30 c0 -2 -8 -10 -17 -17 -16 -13 -17 -12 -4 4 13 16 21 21 21 13z
m-366 -16 c-12 -5 -43 -11 -70 -14 l-49 -5 55 13 c63 16 95 19 64 6z m120 -22
c-3 -4 -12 -4 -21 -1 -10 4 -14 2 -10 -4 4 -6 -2 -13 -13 -16 -11 -3 -23 0
-27 6 -3 7 -3 9 2 5 10 -9 38 19 31 31 -3 5 5 4 18 -2 13 -7 22 -15 20 -19z
m-1804 3 c-8 -5 -26 -11 -40 -15 -21 -5 -20 -3 5 9 32 15 60 20 35 6z m2655
-13 c5 4 5 1 1 -6 -6 -10 -11 -10 -22 -1 -8 6 -14 14 -14 16 0 3 6 0 13 -6 8
-6 18 -7 22 -3z m-2645 -18 c0 -5 -10 -10 -22 -9 -22 0 -22 1 -3 9 11 5 21 9
23 9 1 1 2 -3 2 -9z m43 3 c-7 -2 -19 -2 -25 0 -7 3 -2 5 12 5 14 0 19 -2 13
-5z m1719 -23 c-24 -22 -32 -25 -32 -10 0 6 10 15 23 20 32 13 33 12 9 -10z
m41 -27 c-6 -15 -19 -17 -27 -4 -7 11 0 18 18 18 8 0 12 -6 9 -14z m495 -56
c21 -49 12 -44 -18 12 -17 30 -30 56 -30 59 0 10 36 -44 48 -71z m-564 42 c-8
-14 -24 -10 -24 6 0 9 6 12 15 9 8 -4 12 -10 9 -15z m-1809 1 c-3 -5 -11 -10
-16 -10 -6 0 -7 5 -4 10 3 6 11 10 16 10 6 0 7 -4 4 -10z m1742 -2 c15 -7 30
-13 31 -14 2 -2 -4 -16 -13 -32 -17 -28 -20 -29 -56 -19 -44 11 -53 27 -12 22
25 -2 26 -2 9 11 -11 7 -22 12 -25 9 -4 -2 -7 5 -7 16 0 22 30 25 73 7z
m-1607 -5 c-19 -3 -39 -9 -44 -14 -13 -12 -36 -11 -36 2 0 5 4 8 9 4 5 -3 12
-1 16 5 3 5 25 9 48 8 41 -1 41 -1 7 -5z m447 -15 c-3 -8 -6 -5 -6 6 -1 11 2
17 5 13 3 -3 4 -12 1 -19z m22 -24 c9 4 5 -2 -9 -13 -29 -23 -26 -28 21 -38
32 -6 33 -5 19 13 -14 17 -14 18 2 6 9 -8 23 -11 30 -7 7 4 4 -1 -6 -9 -23
-19 -42 -20 -85 -5 -24 9 -35 9 -44 0 -9 -9 -9 -14 2 -20 7 -5 11 -13 7 -19
-9 -15 14 -75 38 -95 l21 -19 -25 6 c-14 3 -28 6 -32 6 -5 0 -8 6 -8 14 0 8
-5 18 -12 22 -8 5 -9 2 -4 -12 13 -34 12 -37 -21 -44 -18 -4 -33 -5 -34 -1 0
3 -2 16 -5 27 -2 12 4 28 13 35 15 13 15 12 4 -8 -8 -16 -8 -23 -1 -23 6 0 8
-4 5 -10 -3 -5 -1 -10 4 -10 11 0 15 24 12 67 -1 12 5 26 15 31 10 5 14 14 9
21 -5 9 -13 8 -31 -3 -33 -22 -37 -20 -19 14 8 16 15 35 15 43 0 16 32 19 42
3 5 -6 8 -2 8 11 0 12 5 25 10 28 6 4 7 12 4 18 -4 7 3 2 16 -11 13 -14 29
-21 39 -18z m1242 3 c-8 -8 -11 -7 -11 4 0 20 13 34 18 19 3 -7 -1 -17 -7 -23z
m1259 -31 c-1 -16 -5 -12 -15 13 -19 42 -19 52 0 27 8 -11 15 -29 15 -40z
m-2974 22 l19 -23 -25 20 c-14 11 -27 21 -29 22 -2 2 0 3 6 3 5 0 18 -10 29
-22z m670 12 c8 0 14 -4 14 -9 0 -5 -12 -8 -27 -6 -16 2 -32 4 -36 4 -5 1 -5
6 -2 12 4 6 14 8 22 5 8 -3 21 -6 29 -6z m2079 0 c3 -5 1 -10 -4 -10 -6 0 -11
5 -11 10 0 6 2 10 4 10 3 0 8 -4 11 -10z m-1662 -17 c-5 -15 -3 -16 8 -5 7 6
20 12 29 12 12 0 12 -2 1 -9 -8 -5 -9 -11 -3 -15 6 -3 13 -2 17 4 10 16 25 12
19 -5 -7 -18 12 -20 20 -2 5 9 7 9 12 0 3 -7 12 -9 20 -6 9 3 14 0 12 -7 -2
-7 3 -15 11 -18 8 -3 11 0 7 7 -4 6 -2 11 4 11 6 0 10 -8 8 -17 -2 -10 -7 -17
-11 -15 -4 1 -19 2 -34 2 -23 0 -25 2 -13 11 12 9 12 10 -4 5 -11 -4 -47 3
-82 16 -63 22 -64 26 -17 47 1 1 0 -7 -4 -16z m-1113 -1 c0 -10 -36 -9 -46 1
-4 4 5 7 19 7 15 0 27 -4 27 -8z m616 -79 c-3 -18 -1 -33 3 -33 4 0 7 -12 7
-27 -1 -16 4 -45 11 -65 7 -21 9 -38 5 -38 -15 0 -35 75 -38 143 -1 38 -5 71
-8 74 -3 4 -6 -4 -6 -16 0 -13 -8 -30 -19 -39 -10 -10 -24 -37 -30 -60 -7 -24
-15 -42 -17 -39 -10 10 15 80 48 134 l33 54 8 -28 c4 -15 6 -43 3 -60z m-689
70 c-9 -2 -15 -9 -12 -14 3 -5 -1 -6 -9 -3 -22 8 -10 24 17 23 17 -1 18 -2 4
-6z m1798 -18 c0 -14 -3 -25 -7 -25 -10 0 -10 34 -1 43 3 4 7 7 7 7 1 0 1 -11
1 -25z m-1075 9 c0 -8 -19 -13 -24 -6 -3 5 1 9 9 9 8 0 15 -2 15 -3z m70 -4
c0 -5 -5 -10 -11 -10 -5 0 -7 5 -4 10 3 6 8 10 11 10 2 0 4 -4 4 -10z m-57
-32 c-6 -7 -13 -22 -15 -33 -3 -17 -5 -18 -10 -4 -7 17 19 65 29 55 3 -3 1
-11 -4 -18z m1205 -9 c-6 -16 -12 -28 -14 -26 -5 5 13 57 20 57 3 0 0 -14 -6
-31z m-553 12 c3 -5 0 -13 -6 -17 -7 -4 -9 -3 -5 4 3 5 0 13 -6 15 -9 4 -10 6
-1 6 6 1 14 -3 18 -8z m-1331 -29 c3 -5 -1 -9 -9 -9 -8 0 -15 4 -15 9 0 4 4 8
9 8 6 0 12 -4 15 -8z m1206 -7 c17 -9 30 -18 30 -21 0 -4 -59 23 -69 32 -10 9
13 3 39 -11z m75 -6 c5 -5 -5 -4 -23 2 -17 6 -32 13 -32 16 0 7 43 -8 55 -18z
m532 -16 c-3 -10 -5 -4 -5 12 0 17 2 24 5 18 2 -7 2 -21 0 -30z m-1225 -8 c-9
-19 -17 -33 -19 -31 -6 5 19 66 27 66 4 0 0 -16 -8 -35z m1165 13 c0 -24 36
-89 57 -103 34 -25 40 -17 7 11 -18 14 -31 35 -31 47 1 21 1 21 15 -3 l14 -25
1 24 c0 30 7 24 12 -9 4 -25 28 -68 57 -103 14 -17 15 -16 27 10 12 30 12 31
35 -45 16 -55 28 -62 23 -14 -3 31 -2 33 5 11 11 -34 31 -71 48 -88 12 -11 12
-16 1 -23 -10 -7 -9 -8 4 -4 10 3 22 -2 27 -12 8 -13 10 -8 11 26 0 25 5 42
12 42 6 0 8 3 5 6 -3 4 -1 16 5 28 7 11 13 27 14 35 2 8 16 28 33 45 25 24 33
28 43 18 11 -11 9 -12 -7 -6 -17 7 -18 5 -8 -7 10 -12 5 -23 -27 -59 -34 -40
-39 -51 -40 -96 0 -38 6 -59 21 -78 29 -36 35 -27 10 15 -15 27 -18 42 -11 69
5 21 8 27 9 14 3 -65 56 -154 92 -154 10 0 25 -10 33 -22 9 -12 16 -18 16 -13
1 6 10 -1 21 -14 11 -13 18 -26 15 -28 -6 -6 -78 41 -100 66 -12 13 -31 21
-50 21 -19 0 -41 10 -60 28 -17 15 -24 18 -16 7 23 -31 34 -41 53 -48 9 -4 20
-15 24 -24 4 -10 15 -26 25 -35 11 -9 19 -19 19 -22 0 -3 6 -21 14 -40 8 -19
13 -41 12 -48 -2 -7 -2 -10 0 -5 3 4 9 7 14 7 6 0 8 -4 4 -9 -7 -12 23 -89 43
-113 8 -9 12 -22 10 -29 -2 -7 -18 8 -36 32 -17 24 -40 53 -50 64 -11 11 -45
56 -78 100 -32 44 -69 92 -83 108 -14 15 -21 27 -16 27 5 0 -1 9 -13 20 -18
17 -20 25 -12 40 18 33 4 22 -25 -20 -15 -21 -31 -38 -35 -37 -9 3 -107 -91
-139 -134 -22 -28 -23 -33 -9 -43 17 -13 36 -92 18 -81 -5 3 -7 12 -4 18 5 9
3 9 -6 0 -7 -7 -13 -30 -12 -52 2 -33 -3 -44 -23 -57 -17 -11 -24 -23 -20 -34
6 -19 -41 -80 -62 -80 -10 0 -13 -21 -12 -77 0 -66 2 -74 11 -50 l10 28 14
-26 c18 -35 18 -34 -12 -45 -22 -9 -25 -15 -22 -40 3 -16 1 -31 -4 -32 -4 -2
-10 -39 -12 -83 -3 -44 -5 -83 -5 -87 -1 -3 -16 -24 -34 -46 -36 -43 -48 -69
-66 -147 -6 -27 -20 -62 -31 -77 -11 -14 -24 -57 -30 -94 -10 -62 -30 -108
-48 -109 -16 -1 -137 -87 -137 -98 0 -15 -81 -20 -136 -7 -43 11 -150 89 -121
90 6 0 12 -5 12 -11 0 -5 4 -8 9 -5 5 4 18 -5 28 -18 16 -21 91 -47 79 -28 -3
5 15 8 39 8 34 1 50 6 65 24 11 13 20 27 20 32 0 5 15 15 34 23 19 8 38 20 41
26 4 6 -7 3 -24 -5 -23 -12 -36 -14 -50 -6 -14 7 -22 7 -26 0 -7 -12 -25 -4
-25 11 0 5 12 7 26 5 21 -4 24 -3 14 10 -11 12 -7 14 21 15 26 0 30 2 15 8
-21 8 -17 13 34 39 14 7 17 10 7 7 -10 -3 -44 -7 -75 -10 l-57 -5 70 16 c86
19 104 33 34 26 -33 -3 -50 -1 -46 5 4 6 -3 9 -17 8 -19 -2 -23 1 -18 17 2 10
10 17 17 14 7 -2 16 -2 19 1 3 4 34 6 69 6 l62 -1 -64 8 c-35 5 -68 7 -73 4
-4 -3 -8 -1 -8 4 0 5 30 13 68 18 45 5 57 9 37 12 -16 2 -34 8 -39 13 -6 5
-20 9 -33 9 -13 0 -23 4 -23 9 0 5 16 7 35 4 21 -3 35 0 35 6 0 15 -77 14 -83
-1 -4 -10 -6 -10 -6 -1 -2 20 19 26 88 25 36 0 60 2 53 4 -6 3 -10 10 -7 15 4
5 -8 7 -24 5 -22 -2 -31 1 -31 11 0 9 6 13 14 10 8 -3 20 1 26 9 7 8 24 15 39
15 20 1 18 3 -11 9 -43 8 -69 7 -86 -4 -6 -4 -12 -3 -12 3 0 6 -7 8 -15 5 -8
-4 -15 -1 -15 5 0 6 7 11 16 11 8 0 13 3 11 8 -3 4 17 7 44 8 50 1 102 20 94
34 -3 5 13 15 35 24 22 9 40 18 40 21 0 2 -12 0 -26 -5 -14 -6 -57 -13 -96
-17 -58 -5 -70 -4 -66 8 3 8 13 15 24 16 18 3 18 2 -1 -6 -18 -9 -17 -10 8
-10 16 -1 26 3 22 8 -3 5 0 13 6 17 8 4 9 3 5 -4 -8 -14 29 -15 59 -2 l20 9
-20 1 c-19 1 -18 2 3 10 31 13 28 21 -5 10 -47 -14 -93 -20 -93 -11 0 4 11 25
25 45 14 20 32 51 41 68 9 18 23 38 30 46 12 11 14 10 12 -10 -3 -19 2 -24 25
-26 22 -3 30 1 34 16 3 11 13 22 23 25 14 4 17 1 13 -12 -9 -24 2 -10 21 27 9
18 13 32 9 31 -19 -3 -33 2 -33 12 0 6 9 8 23 4 17 -5 19 -4 7 4 -8 6 -25 11
-36 11 -12 0 -24 7 -28 15 -6 17 9 21 19 5 3 -5 13 -10 22 -10 12 0 11 5 -8
23 -13 12 -26 19 -29 16 -11 -14 -49 10 -47 30 1 23 5 25 26 12 11 -7 10 -11
-5 -20 -11 -6 -14 -11 -7 -11 6 0 15 5 18 10 4 7 14 7 28 0 14 -7 10 -1 -11
18 -27 24 -32 34 -26 56 3 14 11 23 16 20 5 -4 8 -15 5 -25 -3 -10 0 -22 5
-26 7 -3 8 -1 4 5 -4 7 -3 12 2 12 5 0 9 6 9 13 4 51 9 67 23 67 8 0 23 7 33
14 16 12 15 14 -11 25 -29 12 -40 51 -12 46 8 -2 18 -4 22 -4 4 -1 14 -8 22
-17 9 -8 16 -11 16 -5 0 11 68 36 88 33 6 -2 12 2 12 8 0 6 4 9 9 6 5 -3 11 1
15 9 3 8 1 15 -4 15 -6 0 -10 7 -10 15 0 13 -4 14 -20 5 -16 -8 -20 -8 -18 2
2 7 -17 23 -42 35 -25 13 -53 33 -63 45 -22 27 -19 70 6 74 19 3 19 -13 1 -60
-3 -9 -2 -16 4 -16 6 0 13 18 17 40 6 34 9 39 21 29 8 -7 17 -9 21 -5 3 3 2 6
-4 6 -6 0 -9 11 -8 25 4 30 -11 34 -20 6 -4 -13 -12 -18 -21 -14 -12 4 -11 8
6 20 13 9 20 25 20 45 0 17 7 36 17 43 9 7 22 30 28 53 11 35 10 40 -4 37 -9
-1 -23 2 -32 8 -25 16 -1 57 33 57 15 0 29 4 33 10 3 5 12 7 19 4 7 -3 16 2
20 11 3 9 2 13 -4 10 -5 -3 -13 2 -19 12 -10 20 -11 24 -11 51 0 13 -2 14 -9
3 -6 -9 -11 -10 -15 -2 -4 6 -5 15 -2 20 3 5 -1 12 -10 15 -12 4 -15 2 -10 -9
7 -19 -1 -19 -21 1 -12 12 -13 20 -4 37 9 18 10 19 8 3 -1 -12 5 -20 17 -22
10 -1 30 -13 45 -27 14 -13 34 -27 45 -31 11 -4 6 5 -14 24 -22 21 -31 36 -27
50 3 11 1 18 -4 14 -5 -3 -9 6 -9 20 0 14 4 26 8 26 5 0 9 -6 9 -12z m-1727
-38 c-8 -5 -19 -10 -25 -10 -5 0 -3 5 5 10 8 5 20 10 25 10 6 0 3 -5 -5 -10z
m1355 -8 c-3 -3 -11 0 -18 7 -9 10 -8 11 6 5 10 -3 15 -9 12 -12z m275 -6 c0
-13 -6 -26 -14 -29 -11 -5 -12 0 -3 24 14 35 17 36 17 5z m71 7 c13 -16 12
-17 -3 -4 -17 13 -22 21 -14 21 2 0 10 -8 17 -17z m1969 13 c0 -3 -4 -8 -10
-11 -5 -3 -10 -1 -10 4 0 6 5 11 10 11 6 0 10 -2 10 -4z m-3730 -16 c-38 -12
-109 -12 -90 0 8 5 38 9 65 9 40 -1 45 -3 25 -9z m1887 -12 c-3 -8 -6 -5 -6 6
-1 11 2 17 5 13 3 -3 4 -12 1 -19z m815 -9 l33 -31 -40 28 c-22 16 -42 29 -44
31 -2 2 1 3 7 3 7 0 26 -14 44 -31z m-2615 15 c-3 -3 -12 -4 -19 -1 -8 3 -5 6
6 6 11 1 17 -2 13 -5z m-241 -16 c4 -6 3 -8 -3 -5 -6 4 -16 0 -23 -8 -7 -8
-18 -15 -24 -15 -6 1 0 10 13 20 27 23 28 23 37 8z m794 9 c0 -2 -10 -12 -22
-23 l-23 -19 19 23 c18 21 26 27 26 19z m1427 -34 c-3 -10 -5 -4 -5 12 0 17 2
24 5 18 2 -7 2 -21 0 -30z m413 27 c0 -5 -8 -10 -17 -10 -15 0 -16 2 -3 10 19
12 20 12 20 0z m-842 -37 c-6 -16 -19 -48 -29 -73 -10 -25 -18 -37 -19 -27 0
10 7 32 16 48 8 17 13 33 11 36 -5 4 23 43 30 43 1 0 -2 -12 -9 -27z m620 2
c-3 -3 -9 2 -12 12 -6 14 -5 15 5 6 7 -7 10 -15 7 -18z m202 -15 c0 -5 -2 -10
-4 -10 -3 0 -8 5 -11 10 -3 6 -1 10 4 10 6 0 11 -4 11 -10z m-2195 -10 c3 -5
1 -10 -4 -10 -6 0 -11 5 -11 10 0 6 2 10 4 10 3 0 8 -4 11 -10z m195 -5 c-6
-8 -9 -20 -5 -27 4 -7 -1 -4 -9 6 -22 27 -20 36 5 36 18 0 19 -3 9 -15z m113
0 c-3 -9 -8 -14 -10 -11 -3 3 -2 9 2 15 9 16 15 13 8 -4z m-443 -5 c0 -5 -2
-10 -4 -10 -3 0 -8 5 -11 10 -3 6 -1 10 4 10 6 0 11 -4 11 -10z m55 -10 c-3
-5 3 -7 14 -5 25 5 61 -5 61 -17 0 -5 -16 -6 -36 -2 -30 5 -35 4 -29 -7 8 -12
6 -12 -8 0 -18 14 -24 57 -7 46 6 -4 8 -10 5 -15z m1822 -12 c-3 -7 -5 -2 -5
12 0 14 2 19 5 13 2 -7 2 -19 0 -25z m-1677 -19 c0 -13 -54 -3 -58 11 -4 12
-2 13 9 3 18 -18 29 -16 29 5 0 14 2 15 10 2 5 -8 10 -18 10 -21z m1732 -31
c2 -21 0 -38 -4 -38 -4 0 -7 24 -7 53 1 54 5 49 11 -15z m162 25 c-15 -21 -29
-40 -31 -42 -2 -2 -6 -2 -9 2 -6 6 2 18 39 58 29 33 31 21 1 -18z m-1807 7 c1
-12 -5 -20 -15 -21 -14 0 -13 -2 3 -8 11 -5 35 -6 53 -3 35 5 38 -2 20 -45 -7
-15 -13 -39 -14 -53 -15 -153 -16 -191 -6 -218 8 -25 8 -32 -5 -36 -11 -5 -13
-2 -9 10 8 22 -4 40 -16 23 -6 -10 -7 -7 -3 10 5 14 3 21 -3 17 -15 -9 -24 70
-16 146 5 54 3 73 -10 93 -28 43 -61 25 -50 -27 14 -66 20 -155 13 -170 -5 -9
-9 -33 -9 -53 0 -27 5 -38 23 -46 21 -9 21 -9 -3 -4 -14 2 -29 5 -33 5 -5 0
-6 4 -3 9 9 14 -26 23 -38 10 -8 -9 -8 -10 1 -5 7 3 14 -2 18 -13 4 -14 15
-19 41 -19 19 0 38 -3 41 -6 4 -3 -5 -6 -19 -6 -30 0 -63 -33 -54 -55 3 -9 0
-18 -8 -21 -9 -3 -13 -27 -14 -77 -1 -115 -10 -194 -26 -224 -16 -32 -66 -82
-66 -66 0 5 11 20 24 32 14 13 22 29 19 37 -3 8 0 14 7 14 6 0 9 4 6 9 -3 4
-1 23 4 41 l9 32 -32 -6 -32 -6 38 26 c35 26 37 30 37 80 0 29 -4 55 -9 58 -5
3 -7 -18 -5 -49 4 -61 -10 -78 -56 -64 -25 7 -25 7 4 8 16 1 26 4 23 8 -4 3
-21 6 -38 5 -17 0 -28 2 -25 5 3 3 1 12 -5 19 -8 10 -5 11 12 7 15 -4 20 -2
15 5 -3 6 -2 13 3 16 5 4 12 2 16 -4 7 -12 25 -13 25 -2 0 4 -25 19 -55 32
-62 27 -67 41 -5 16 40 -16 53 -9 25 14 -8 7 -12 16 -9 21 5 9 -9 13 -36 9
-10 -1 -12 2 -5 9 10 10 39 6 89 -15 14 -5 17 -3 14 7 -3 8 -17 16 -33 19 -16
3 -30 12 -32 20 -3 10 -2 11 4 4 10 -13 73 -24 73 -13 0 13 -36 29 -65 29 -15
0 -24 4 -20 10 3 6 14 10 23 10 17 0 62 56 62 78 0 7 9 17 20 24 11 7 20 18
20 25 0 8 -8 5 -20 -7 -11 -11 -26 -20 -32 -20 -10 0 -9 3 1 9 9 6 10 10 2 16
-7 3 -9 15 -6 25 3 10 1 27 -6 38 -15 24 -5 52 18 52 9 0 30 -12 45 -27 22
-21 28 -23 28 -10 0 9 -5 17 -11 17 -6 0 -9 7 -5 15 3 8 0 14 -6 12 -6 -1 -12
11 -15 26 -2 19 0 26 7 22 7 -4 10 4 8 23 -1 17 3 36 10 44 6 8 9 18 5 21 -3
4 -1 7 5 7 6 0 9 7 5 16 -5 13 -2 15 15 10 11 -4 23 -2 27 4 10 16 21 12 22
-10z m303 0 c0 -5 -5 -10 -11 -10 -5 0 -7 5 -4 10 3 6 8 10 11 10 2 0 4 -4 4
-10z m-220 -10 c0 -5 -13 -10 -30 -10 -16 0 -30 5 -30 10 0 6 14 10 30 10 17
0 30 -4 30 -10z m2096 -25 c1 -9 -6 -15 -17 -15 -11 0 -17 -4 -14 -10 3 -6 -1
-7 -9 -4 -14 5 -14 9 0 36 16 31 35 27 40 -7z m-2416 20 c0 -7 -30 -13 -34 -7
-3 4 4 9 15 9 10 1 19 0 19 -2z m-205 -14 c-13 -11 -74 -31 -94 -30 -18 0 22
20 53 26 11 2 22 6 25 8 2 3 9 5 15 5 6 0 6 -3 1 -9z m90 -1 c-27 -12 -43 -12
-25 0 8 5 22 9 30 9 10 0 8 -3 -5 -9z m255 -10 c-6 -12 -8 -30 -5 -40 4 -13 2
-20 -7 -20 -7 0 -24 -3 -38 -5 -22 -5 -22 -4 -5 4 11 5 14 10 8 10 -16 1 -17
27 -1 37 7 4 8 3 4 -4 -4 -7 -1 -12 8 -12 9 0 16 8 16 18 0 20 8 32 22 32 5 0
4 -9 -2 -20z m610 0 c24 -15 7 -19 -20 -5 -15 8 -19 14 -10 14 8 1 22 -3 30
-9z m1897 4 c-3 -3 -12 -4 -19 -1 -8 3 -5 6 6 6 11 1 17 -2 13 -5z m-1949 -34
c0 -17 -3 -28 -8 -25 -4 3 -7 13 -5 23 2 9 4 20 4 25 2 19 8 4 9 -23z m-678
11 c0 -5 -7 -12 -16 -15 -24 -9 -28 -7 -14 9 14 17 30 20 30 6z m1400 -10 c-5
-11 -15 -23 -21 -27 -6 -3 -3 5 6 20 20 30 30 35 15 7z m1022 -28 c44 -41 51
-58 30 -74 -15 -12 -16 -12 -4 2 10 14 9 21 -8 40 -14 17 -20 20 -20 9 -1 -9
-5 -6 -10 8 -11 26 -32 30 -24 5 5 -14 4 -15 -4 -4 -9 13 -6 41 5 41 3 0 18
-12 35 -27z m280 5 c-6 -6 -16 -7 -22 -3 -9 6 -9 9 1 16 17 10 34 0 21 -13z
m-2977 -8 c-3 -5 -12 -10 -18 -10 -7 0 -6 4 3 10 19 12 23 12 15 0z m305 0 c0
-5 -5 -10 -11 -10 -5 0 -7 5 -4 10 3 6 8 10 11 10 2 0 4 -4 4 -10z m1320 0
c-13 -8 -12 -10 3 -10 9 0 17 -4 17 -10 0 -5 -7 -10 -15 -10 -8 0 -15 2 -15 4
0 2 -3 11 -6 20 -4 11 0 16 12 16 16 0 17 -2 4 -10z m-94 -38 c-14 -14 -16
-14 -16 -1 0 20 23 44 29 28 2 -6 -4 -18 -13 -27z m-1152 2 c3 -8 2 -12 -4 -9
-6 3 -10 10 -10 16 0 14 7 11 14 -7z m-237 -7 c0 -9 -10 -12 -28 -9 -16 2 -43
-1 -61 -7 -25 -9 -30 -9 -20 1 6 6 31 15 54 19 24 3 46 7 49 8 3 0 6 -5 6 -12z
m1437 -28 c25 -42 16 -44 -11 -3 -12 19 -19 34 -15 34 4 0 16 -14 26 -31z m64
-31 l-13 -23 -3 29 c-2 16 2 32 10 37 18 12 22 -14 6 -43z m-957 -12 c-8 -45
-17 -64 -25 -55 -4 5 26 111 30 106 2 -2 0 -25 -5 -51z m869 -25 c0 -9 -11 4
-25 28 -32 55 -32 64 0 21 14 -19 25 -41 25 -49z m-1457 52 c-7 -2 -19 -2 -25
0 -7 3 -2 5 12 5 14 0 19 -2 13 -5z m54 -9 c-3 -3 -12 -4 -19 -1 -8 3 -5 6 6
6 11 1 17 -2 13 -5z m2547 -23 c-2 -3 -12 3 -22 13 -16 17 -16 18 5 5 12 -7
20 -15 17 -18z m-252 -38 c-6 -10 -9 -2 -10 24 0 33 1 35 9 15 5 -13 5 -30 1
-39z m-833 -27 c-2 -2 -13 8 -23 22 l-19 27 24 -22 c12 -12 21 -24 18 -27z
m1021 25 c0 -6 -4 -13 -10 -16 -5 -3 -10 1 -10 9 0 9 5 16 10 16 6 0 10 -4 10
-9z m-940 -66 c0 -8 -4 -15 -10 -15 -5 0 -7 7 -4 15 4 8 8 15 10 15 2 0 4 -7
4 -15z m-1067 -35 c-3 -11 -9 -22 -13 -25 -5 -3 -6 -14 -3 -25 6 -23 38 -44
52 -35 14 8 0 -38 -17 -57 -14 -16 -13 -18 1 -18 31 0 47 13 47 38 0 20 3 23
12 14 13 -13 -5 -57 -27 -66 -22 -8 -53 5 -58 24 -3 13 0 17 9 13 8 -3 14 1
14 11 0 9 0 18 0 21 0 3 -3 5 -6 4 -4 0 -10 5 -14 11 -6 9 -13 9 -26 1 -11 -6
-13 -11 -6 -11 21 0 13 -30 -8 -30 -11 0 -20 5 -20 10 0 19 -29 10 -41 -12 -7
-13 -19 -29 -27 -37 -13 -13 -14 -12 -6 9 5 14 9 44 9 67 0 22 3 39 7 37 4 -2
9 0 13 6 3 5 17 10 30 10 13 0 36 13 52 30 15 16 29 29 30 30 0 0 -1 -9 -4
-20z m977 -9 c0 -6 -4 -13 -10 -16 -5 -3 -10 1 -10 9 0 9 5 16 10 16 6 0 10
-4 10 -9z m-13 -93 c-3 -7 -5 -2 -5 12 0 14 2 19 5 13 2 -7 2 -19 0 -25z m221
-16 c5 -15 -54 -16 -63 -2 -4 6 -1 18 6 26 10 12 15 13 32 1 12 -8 23 -19 25
-25z m-47 -22 c10 -1 9 -4 -4 -11 -25 -15 -47 -4 -47 22 0 21 1 21 18 6 10
-10 25 -17 33 -17z m-127 -21 c-3 -5 1 -9 8 -10 11 0 11 -2 0 -6 -16 -6 -52
24 -52 44 0 11 5 10 25 -3 14 -9 22 -20 19 -25z m-479 3 c-3 -3 -11 0 -18 7
-9 10 -8 11 6 5 10 -3 15 -9 12 -12z m-645 -46 c0 -2 -8 -10 -17 -17 -16 -13
-17 -12 -4 4 13 16 21 21 21 13z m-60 -46 c-6 -12 -14 -19 -17 -17 -2 3 1 15
7 27 6 12 14 19 17 17 2 -3 -1 -15 -7 -27z m1127 8 c-3 -8 -6 -5 -6 6 -1 11 2
17 5 13 3 -3 4 -12 1 -19z m-1022 -18 c-3 -5 -11 -10 -16 -10 -6 0 -7 5 -4 10
3 6 11 10 16 10 6 0 7 -4 4 -10z m-94 -23 c-10 -9 -11 -8 -5 6 3 10 9 15 12
12 3 -3 0 -11 -7 -18z m1123 -19 c7 -5 5 -8 -5 -8 -10 0 -20 -11 -23 -26 -4
-15 -9 -24 -12 -22 -2 3 1 27 8 53 8 30 14 41 17 29 2 -10 8 -22 15 -26z
m-1156 -3 c-6 -14 -13 -23 -16 -21 -7 7 9 46 18 46 5 0 4 -11 -2 -25z m112 21
c0 -2 -7 -7 -16 -10 -8 -3 -12 -2 -9 4 6 10 25 14 25 6z m520 -6 c12 -8 10 -9
-7 -7 -12 2 -26 6 -29 10 -11 11 19 8 36 -3z m-797 -17 c-7 -2 -19 -2 -25 0
-7 3 -2 5 12 5 14 0 19 -2 13 -5z m47 3 c0 -2 -7 -6 -15 -10 -8 -3 -15 -1 -15
4 0 6 7 10 15 10 8 0 15 -2 15 -4z m800 -48 c0 -10 -5 -16 -10 -13 -6 4 -8 11
-4 16 3 5 0 18 -8 27 -12 15 -11 16 5 3 9 -7 17 -22 17 -33z m-490 28 c0 -2
-8 -10 -17 -17 -16 -13 -17 -12 -4 4 13 16 21 21 21 13z m440 -42 c0 -2 -7 -4
-15 -4 -8 0 -15 4 -15 10 0 5 7 7 15 4 8 -4 15 -8 15 -10z m493 -11 c3 -5 -1
-14 -9 -21 -12 -11 -14 -9 -14 8 0 20 14 27 23 13z m-1063 -37 c0 -2 -8 -10
-17 -17 -16 -13 -17 -12 -4 4 13 16 21 21 21 13z m776 -37 c3 -5 -6 -9 -20 -9
-35 0 -43 -20 -18 -41 29 -23 92 -23 92 0 0 13 -2 13 -9 2 -7 -11 -11 -9 -21
9 -6 12 -9 24 -6 28 3 3 6 0 6 -7 0 -6 8 -11 18 -9 13 2 17 -4 18 -29 1 -18
-2 -33 -5 -34 -33 -4 -59 -3 -55 3 7 10 -46 14 -86 6 -20 -4 -39 -3 -45 3 -7
7 -3 8 10 4 11 -3 8 0 -6 7 -14 7 -25 19 -23 26 1 7 0 8 -3 2 -2 -5 -12 -10
-20 -10 -13 0 -13 3 -3 15 16 19 40 20 40 1 0 -7 9 -16 21 -19 16 -4 23 1 34
26 7 18 16 35 19 38 9 8 55 -1 62 -12z m-226 -13 c0 -3 -4 -8 -10 -11 -5 -3
-10 -1 -10 4 0 6 5 11 10 11 6 0 10 -2 10 -4z m40 -11 c-7 -8 -16 -15 -21 -15
-5 0 -6 7 -3 15 4 8 13 15 21 15 13 0 13 -3 3 -15z m-185 -4 c3 -5 0 -13 -6
-17 -8 -4 -9 -3 -5 4 4 7 2 12 -3 12 -6 0 -11 -4 -11 -10 0 -5 -8 -6 -17 -3
-15 6 -15 7 3 14 26 10 32 10 39 0z m46 -51 c11 0 11 2 -1 10 -12 8 -10 10 10
10 23 0 67 -19 45 -20 -5 0 -3 -5 5 -10 9 -6 10 -10 3 -10 -6 0 -14 4 -17 9
-3 4 -31 6 -62 4 -35 -2 -53 0 -50 6 4 6 14 7 23 4 13 -5 15 -2 10 13 -7 18
-6 18 7 2 7 -10 19 -18 27 -18z m-146 10 c13 -6 15 -9 5 -9 -8 0 -22 4 -30 9
-18 12 -2 12 25 0z m45 6 c0 -3 -4 -8 -10 -11 -5 -3 -10 -1 -10 4 0 6 5 11 10
11 6 0 10 -2 10 -4z m215 -6 c-4 -6 8 -10 29 -10 20 0 36 -4 36 -10 0 -5 -12
-9 -27 -9 -16 1 -37 -1 -48 -3 -23 -4 -28 24 -5 34 21 9 22 9 15 -2z m257 -69
c2 -17 1 -28 -3 -26 -10 7 -18 55 -9 55 4 0 10 -13 12 -29z m-286 7 c7 -11
-16 -39 -26 -33 -5 3 -12 0 -16 -6 -4 -8 -3 -9 4 -5 18 11 14 -9 -3 -24 -13
-11 -14 -10 -9 5 5 12 4 16 -4 11 -6 -3 -14 -1 -18 5 -4 7 -3 9 3 6 6 -4 13 0
17 8 3 8 12 15 20 15 8 0 17 4 21 9 3 6 -9 7 -30 4 -22 -4 -35 -2 -35 5 0 13
68 13 76 0z m314 -93 c0 -8 5 -15 12 -15 6 0 8 -3 5 -6 -8 -8 -37 14 -37 27 0
5 5 9 10 9 6 0 10 -7 10 -15z m-380 -50 c-20 -54 -41 -84 -60 -90 -11 -4 -19
-12 -18 -20 5 -23 -76 -100 -134 -129 -34 -16 -77 -28 -109 -30 -30 -2 -43 -1
-29 1 23 5 24 6 5 13 -15 6 -7 9 30 10 28 1 55 3 60 5 6 1 16 3 23 3 7 1 10 7
7 13 -4 6 -20 8 -38 4 -22 -4 -27 -3 -17 4 25 15 65 18 63 4 -4 -18 8 -15 37
8 23 19 23 22 7 33 -9 7 -14 15 -11 18 3 4 0 9 -7 14 -7 4 -10 3 -6 -3 4 -6
-11 -10 -36 -10 -24 0 -31 2 -17 4 14 3 37 14 53 25 19 13 36 18 53 14 17 -5
33 0 51 14 14 11 32 20 40 20 8 0 11 5 8 10 -4 6 -12 7 -18 4 -7 -4 -8 -3 -4
2 5 5 14 9 20 9 7 0 20 17 30 38 19 42 32 50 17 12z m479 -1 c10 -9 -45 -3
-59 6 -11 7 -5 8 20 4 19 -4 37 -8 39 -10z m118 10 c-3 -3 -12 -4 -19 -1 -8 3
-5 6 6 6 11 1 17 -2 13 -5z m-9 -59 c9 -9 -132 -4 -153 6 -13 6 9 7 64 4 46
-3 87 -7 89 -10z m-901 -10 c0 -8 -4 -12 -9 -9 -5 3 -6 10 -3 15 9 13 12 11
12 -6z m749 -13 c-10 -2 -22 0 -28 6 -6 6 0 7 19 4 21 -5 23 -7 9 -10z m-626
-1 l35 -3 -30 -9 c-16 -5 -37 -6 -45 -2 -8 3 -22 5 -32 4 -9 -1 -19 2 -21 6
-5 8 20 9 93 4z m70 -22 c0 -14 -17 -10 -23 5 -4 10 -1 13 9 9 7 -3 14 -9 14
-14z m610 -59 c0 -5 -10 -10 -22 -10 -19 0 -20 2 -8 10 19 13 30 13 30 0z
m-672 -19 c10 -6 10 -10 -3 -21 -8 -7 -19 -10 -22 -6 -4 4 -1 11 6 15 8 5 -6
7 -35 5 -36 -3 -44 -2 -29 5 25 12 66 13 83 2z m592 -330 c0 -6 -5 -13 -10
-16 -6 -4 -7 -11 -4 -17 4 -6 2 -8 -4 -4 -6 3 -13 2 -17 -4 -3 -5 -14 -10 -22
-10 -13 0 -10 7 12 30 29 30 45 38 45 21z m-200 -56 c13 -14 21 -25 18 -25 -2
0 -15 11 -28 25 -13 14 -21 25 -18 25 2 0 15 -11 28 -25z m297 -15 c-14 -11
-29 -20 -34 -20 -10 1 39 39 51 40 5 0 -3 -9 -17 -20z"/>
<path d="M580 5270 c6 -11 13 -20 16 -20 2 0 0 9 -6 20 -6 11 -13 20 -16 20
-2 0 0 -9 6 -20z"/>
<path d="M1410 5296 c0 -2 7 -6 15 -10 8 -3 15 -1 15 4 0 6 -7 10 -15 10 -8 0
-15 -2 -15 -4z"/>
<path d="M4440 4760 c-19 -10 -51 -35 -70 -55 l-35 -37 33 5 c19 3 37 9 40 13
4 4 -1 4 -10 1 -10 -4 -18 -4 -18 -1 0 6 73 38 82 36 4 -1 5 5 2 13 -8 20 22
31 41 15 19 -16 20 -3 1 16 -18 18 -23 17 -66 -6z"/>
<path d="M4523 4773 c9 -2 23 -2 30 0 6 3 -1 5 -18 5 -16 0 -22 -2 -12 -5z"/>
<path d="M4530 4749 c0 -5 5 -7 10 -4 6 3 10 8 10 11 0 2 -4 4 -10 4 -5 0 -10
-5 -10 -11z"/>
<path d="M4578 4743 c6 -2 18 -2 25 0 6 3 1 5 -13 5 -14 0 -19 -2 -12 -5z"/>
<path d="M5120 4696 c0 -2 7 -6 15 -10 8 -3 15 -1 15 4 0 6 -7 10 -15 10 -8 0
-15 -2 -15 -4z"/>
<path d="M4830 4686 c0 -2 15 -9 33 -15 29 -10 30 -9 13 4 -18 14 -46 20 -46
11z"/>
<path d="M4930 4651 c0 -4 16 -13 37 -19 40 -12 34 -3 -9 16 -16 6 -28 8 -28
3z"/>
<path d="M5251 4646 c2 -2 20 -6 39 -10 25 -4 31 -3 20 4 -14 9 -69 15 -59 6z"/>
<path d="M5121 4618 c12 -23 21 -24 12 -2 -5 14 -2 16 21 10 18 -4 25 -3 21 4
-3 5 -19 9 -35 8 -24 -2 -27 -5 -19 -20z"/>
<path d="M5395 4570 c3 -5 8 -10 11 -10 2 0 4 5 4 10 0 6 -5 10 -11 10 -5 0
-7 -4 -4 -10z"/>
<path d="M5378 4543 c7 -3 16 -2 19 1 4 3 -2 6 -13 5 -11 0 -14 -3 -6 -6z"/>
<path d="M5545 4460 c3 -5 10 -10 16 -10 5 0 9 5 9 10 0 6 -7 10 -16 10 -8 0
-12 -4 -9 -10z"/>
<path d="M5538 4433 c7 -3 16 -2 19 1 4 3 -2 6 -13 5 -11 0 -14 -3 -6 -6z"/>
<path d="M5510 4400 c-12 -8 -11 -10 7 -10 17 0 20 -5 16 -22 -4 -19 -3 -20 6
-8 26 36 6 63 -29 40z"/>
<path d="M5490 4350 c8 -5 20 -10 25 -10 6 0 3 5 -5 10 -8 5 -19 10 -25 10 -5
0 -3 -5 5 -10z"/>
<path d="M5635 4290 c3 -5 8 -10 11 -10 2 0 4 5 4 10 0 6 -5 10 -11 10 -5 0
-7 -4 -4 -10z"/>
<path d="M5627 4256 c-4 -10 -6 -19 -5 -20 2 -1 12 -8 23 -16 18 -13 19 -13 9
0 -7 8 -14 24 -16 35 -3 19 -4 19 -11 1z"/>
<path d="M5732 4038 c6 -144 35 -156 37 -16 1 62 -12 108 -30 108 -8 0 -10
-27 -7 -92z"/>
<path d="M5615 3999 c-4 -6 -5 -12 -2 -15 2 -3 7 2 10 11 7 17 1 20 -8 4z"/>
<path d="M5652 3915 c0 -16 2 -22 5 -12 2 9 2 23 0 30 -3 6 -5 -1 -5 -18z"/>
<path d="M5640 3743 c-33 -11 -100 -43 -100 -48 0 -9 52 7 93 27 46 23 51 36
7 21z"/>
<path d="M5325 3449 c-3 -4 2 -6 10 -5 21 3 28 13 10 13 -9 0 -18 -4 -20 -8z"/>
<path d="M4603 4543 c-21 -8 -14 -18 14 -20 17 -1 21 2 13 7 -10 6 -8 9 6 13
18 4 18 5 -1 5 -11 0 -26 -2 -32 -5z"/>
<path d="M4596 4435 c4 -8 7 -15 9 -15 2 0 5 7 9 15 3 9 0 15 -9 15 -9 0 -12
-6 -9 -15z"/>
<path d="M5256 4227 c3 -10 9 -15 12 -12 3 3 0 11 -7 18 -10 9 -11 8 -5 -6z"/>
<path d="M5280 4206 c0 -2 8 -10 18 -17 15 -13 16 -12 3 4 -13 16 -21 21 -21
13z"/>
<path d="M5216 4125 c9 -14 20 -22 26 -19 5 3 2 14 -8 25 -25 27 -37 23 -18
-6z"/>
<path d="M5120 4083 c0 -6 10 -18 22 -29 12 -10 18 -13 14 -6 -4 6 -2 12 3 12
6 0 11 -5 11 -11 0 -5 4 -8 9 -5 13 8 42 -4 35 -15 -3 -5 0 -9 6 -9 17 0 7 22
-16 34 -10 6 -21 13 -24 16 -3 3 -12 5 -20 5 -8 -1 -21 3 -27 8 -8 6 -13 6
-13 0z"/>
<path d="M5190 4020 c0 -5 -6 -7 -14 -4 -8 3 -16 2 -19 -3 -3 -5 5 -10 19 -11
15 -1 24 3 24 13 0 8 -2 15 -5 15 -3 0 -5 -4 -5 -10z"/>
<path d="M5181 3969 c23 -23 24 -23 26 -1 1 11 -6 17 -22 18 -22 2 -22 1 -4
-17z"/>
<path d="M4823 4639 c9 -6 14 -15 11 -21 -4 -6 -1 -9 6 -6 8 2 16 10 18 18 3
7 0 10 -6 6 -6 -3 -13 -2 -17 4 -3 5 -12 10 -18 10 -7 0 -4 -5 6 -11z"/>
<path d="M5405 4090 c-3 -6 1 -7 9 -4 18 7 21 14 7 14 -6 0 -13 -4 -16 -10z"/>
<path d="M5170 3645 c-7 -9 -11 -18 -8 -20 3 -3 11 1 18 10 7 9 11 18 8 20 -3
3 -11 -1 -18 -10z"/>
<path d="M6122 3311 c13 -15 24 -27 26 -26 6 6 -30 55 -40 55 -5 0 1 -13 14
-29z"/>
<path d="M6200 3285 c0 -2 9 -19 20 -37 23 -39 27 -30 5 12 -14 27 -25 38 -25
25z"/>
<path d="M6240 3193 c0 -5 10 -18 23 -29 l22 -19 -20 25 c-11 14 -21 27 -22
29 -2 2 -3 0 -3 -6z"/>
<path d="M6223 3116 c7 -13 15 -22 19 -20 10 6 -9 44 -21 44 -5 0 -4 -11 2
-24z"/>
<path d="M6343 3075 c0 -22 2 -30 4 -17 2 12 2 30 0 40 -3 9 -5 -1 -4 -23z"/>
<path d="M6094 2959 c-5 -9 100 -10 114 0 9 5 -10 8 -48 7 -34 0 -64 -4 -66
-7z"/>
<path d="M6280 2919 c0 -5 -4 -8 -9 -4 -5 3 -12 1 -16 -5 -3 -5 3 -10 14 -10
12 0 21 7 21 15 0 8 -2 15 -5 15 -3 0 -5 -5 -5 -11z"/>
<path d="M5885 2650 c3 -5 8 -10 11 -10 2 0 4 5 4 10 0 6 -5 10 -11 10 -5 0
-7 -4 -4 -10z"/>
<path d="M5909 2643 c-1 -5 -1 -12 0 -17 1 -5 -5 -4 -13 3 -8 7 -21 9 -27 5
-8 -5 1 -12 26 -21 21 -7 41 -11 43 -8 3 3 0 5 -6 5 -7 0 -12 7 -12 16 0 8 5
12 10 9 6 -3 10 -1 10 4 0 12 -29 15 -31 4z"/>
<path d="M6050 2590 l-25 -8 27 -1 c15 -1 30 4 33 9 7 11 0 11 -35 0z"/>
<path d="M5740 2558 c0 -17 27 -44 35 -36 3 3 -4 15 -15 28 -15 17 -20 19 -20
8z"/>
<path d="M5714 2519 c-4 -7 -3 -9 4 -5 5 3 13 0 15 -6 4 -9 6 -10 6 -1 1 17
-16 25 -25 12z"/>
<path d="M5837 2509 c7 -7 15 -10 18 -7 3 3 -2 9 -12 12 -14 6 -15 5 -6 -5z"/>
<path d="M5807 2499 c7 -7 15 -10 18 -7 3 3 -2 9 -12 12 -14 6 -15 5 -6 -5z"/>
<path d="M4946 3214 c-8 -21 -8 -24 4 -24 5 0 14 9 20 20 8 16 8 20 -4 20 -7
0 -17 -7 -20 -16z"/>
<path d="M5445 2929 c-4 -6 -5 -12 -2 -15 2 -3 7 2 10 11 7 17 1 20 -8 4z"/>
<path d="M5420 2900 c0 -5 5 -10 11 -10 5 0 7 5 4 10 -3 6 -8 10 -11 10 -2 0
-4 -4 -4 -10z"/>
<path d="M5100 2865 c0 -8 5 -15 10 -15 6 0 10 7 10 15 0 8 -4 15 -10 15 -5 0
-10 -7 -10 -15z"/>
<path d="M5020 2720 c-1 -3 -3 -16 -6 -30 -3 -21 -2 -22 7 -7 6 10 8 23 5 30
-2 7 -5 10 -6 7z"/>
<path d="M5026 2364 c-3 -9 -6 -24 -6 -34 0 -10 -8 -21 -18 -24 -10 -4 -33
-22 -52 -41 -26 -27 -31 -38 -22 -47 9 -9 12 -8 12 8 0 14 12 26 39 37 29 13
45 29 60 61 12 23 21 45 21 49 0 14 -28 7 -34 -9z"/>
<path d="M4923 2175 c0 -14 3 -25 8 -25 5 0 9 9 9 19 0 11 -4 22 -9 25 -5 3
-8 -6 -8 -19z"/>
<path d="M4741 1930 c-10 -31 -6 -36 19 -20 11 7 11 10 2 10 -10 0 -10 3 0 14
7 8 16 12 21 9 4 -2 7 1 7 6 0 25 -38 10 -49 -19z"/>
<path d="M4762 1893 c-24 -8 -41 -17 -39 -19 5 -5 69 16 82 27 11 11 10 11
-43 -8z"/>
<path d="M4738 1733 c12 -2 30 -2 40 0 9 3 -1 5 -23 4 -22 0 -30 -2 -17 -4z"/>
<path d="M4760 1680 c0 -5 7 -7 15 -4 8 4 15 8 15 10 0 2 -7 4 -15 4 -8 0 -15
-4 -15 -10z"/>
<path d="M4725 1670 c4 -6 11 -8 16 -5 14 9 11 15 -7 15 -8 0 -12 -5 -9 -10z"/>
<path d="M4745 1589 c-11 -17 1 -21 15 -4 8 9 8 15 2 15 -6 0 -14 -5 -17 -11z"/>
<path d="M4785 1500 c-3 -5 -1 -10 4 -10 6 0 11 5 11 10 0 6 -2 10 -4 10 -3 0
-8 -4 -11 -10z"/>
<path d="M4710 1449 c0 -5 5 -7 10 -4 6 3 10 8 10 11 0 2 -4 4 -10 4 -5 0 -10
-5 -10 -11z"/>
<path d="M4640 1300 c-9 -6 -10 -10 -3 -10 6 0 15 5 18 10 8 12 4 12 -15 0z"/>
<path d="M3552 2657 c-12 -14 2 -46 15 -34 4 5 1 12 -7 17 -14 9 -7 14 13 11
5 -1 6 3 2 9 -8 13 -10 13 -23 -3z"/>
<path d="M3722 2487 c-6 -7 -7 -18 -3 -26 6 -9 10 -10 15 -2 4 6 12 9 17 6 5
-4 9 -1 9 4 0 6 -7 11 -16 11 -8 0 -12 5 -9 10 9 14 -1 12 -13 -3z"/>
<path d="M4000 1690 c-8 -5 -10 -10 -5 -10 6 0 17 5 25 10 8 5 11 10 5 10 -5
0 -17 -5 -25 -10z"/>
<path d="M5 5769 c6 -8 54 -9 59 0 2 3 -11 7 -29 7 -19 0 -32 -3 -30 -7z"/>
<path d="M35 5720 c3 -5 8 -10 11 -10 2 0 4 5 4 10 0 6 -5 10 -11 10 -5 0 -7
-4 -4 -10z"/>
<path d="M95 5720 c3 -5 8 -10 11 -10 2 0 4 5 4 10 0 6 -5 10 -11 10 -5 0 -7
-4 -4 -10z"/>
<path d="M120 5726 c0 -2 7 -7 16 -10 8 -3 12 -2 9 4 -6 10 -25 14 -25 6z"/>
<path d="M86 5675 c3 -7 18 -18 33 -25 16 -6 48 -29 72 -51 67 -60 66 -59 78
-45 8 9 7 18 -3 31 -12 16 -16 17 -30 6 -9 -7 -16 -9 -16 -4 0 9 -75 67 -117
89 -17 10 -21 10 -17 -1z m174 -95 c0 -5 -2 -10 -4 -10 -3 0 -8 5 -11 10 -3 6
-1 10 4 10 6 0 11 -4 11 -10z"/>
<path d="M200 5666 c0 -2 8 -10 18 -17 15 -13 16 -12 3 4 -13 16 -21 21 -21
13z"/>
<path d="M240 5632 c0 -5 10 -16 21 -24 22 -14 35 -68 16 -68 -6 0 0 -11 13
-25 12 -13 27 -22 33 -18 5 3 13 -1 18 -8 4 -7 11 -11 14 -7 3 3 -8 19 -25 36
-28 29 -42 61 -20 47 6 -4 7 -12 3 -18 -4 -7 0 -6 10 2 9 7 17 10 17 5 0 -5
14 -17 32 -27 41 -23 62 -7 27 22 -13 10 -26 17 -29 15 -2 -3 2 -9 10 -14 8
-5 12 -12 8 -15 -3 -3 -12 0 -20 8 -8 8 -27 21 -43 30 -17 9 -42 27 -57 42
-16 14 -28 22 -28 17z"/>
<path d="M300 5618 c0 -2 9 -11 20 -21 11 -9 20 -13 20 -7 0 5 -9 14 -20 20
-11 6 -20 9 -20 8z"/>
<path d="M162 5594 c10 -10 20 -15 24 -12 3 4 -5 12 -18 18 -22 12 -22 12 -6
-6z"/>
<path d="M0 5590 c0 -13 28 -25 38 -16 3 4 0 11 -8 16 -20 13 -30 12 -30 0z"/>
<path d="M406 5583 c-6 -14 -5 -15 5 -6 7 7 10 15 7 18 -3 3 -9 -2 -12 -12z"/>
<path d="M480 5532 c0 -15 -7 -18 -30 -17 -36 2 -46 -8 -25 -25 20 -16 76 16
67 39 -5 14 -4 14 11 2 15 -12 17 -12 11 3 -8 22 -34 20 -34 -2z"/>
<path d="M505 5498 c-11 -7 -26 -13 -33 -14 -8 -2 -16 -4 -18 -6 -7 -7 63 -64
73 -61 6 2 25 -8 42 -22 17 -15 31 -22 31 -17 0 5 -7 15 -15 22 -8 7 -12 16
-9 21 3 5 -7 9 -22 9 -22 0 -25 2 -14 15 7 8 17 12 23 8 6 -3 7 -1 3 6 -4 6
-12 8 -19 4 -6 -4 -24 -8 -40 -10 -27 -3 -28 -2 -16 14 8 10 21 23 29 30 19
16 11 16 -15 1z"/>
<path d="M790 5500 c-8 -5 -10 -10 -5 -10 6 0 17 5 25 10 8 5 11 10 5 10 -5 0
-17 -5 -25 -10z"/>
<path d="M646 5485 c4 -8 11 -15 16 -15 6 0 5 6 -2 15 -7 8 -14 15 -16 15 -2
0 -1 -7 2 -15z"/>
<path d="M535 5480 c-3 -6 1 -7 9 -4 18 7 21 14 7 14 -6 0 -13 -4 -16 -10z"/>
<path d="M620 5481 c0 -9 -8 -11 -26 -7 -15 4 -23 3 -20 -2 11 -18 45 -20 51
-4 3 8 3 17 0 20 -3 3 -5 0 -5 -7z"/>
<path d="M700 5461 c0 -4 14 -20 30 -36 17 -16 30 -26 30 -23 0 4 -13 20 -30
36 -16 17 -30 27 -30 23z"/>
<path d="M867 5459 c7 -7 15 -10 18 -7 3 3 -2 9 -12 12 -14 6 -15 5 -6 -5z"/>
<path d="M1185 5430 c10 -11 20 -18 23 -16 5 6 -23 36 -34 36 -4 0 1 -9 11
-20z"/>
<path d="M594 5426 c1 -8 5 -18 8 -22 4 -3 5 1 4 10 -1 8 -5 18 -8 22 -4 3 -5
-1 -4 -10z"/>
<path d="M910 5401 c8 -6 11 -11 6 -11 -5 0 -3 -7 4 -15 6 -8 8 -20 4 -27 -5
-10 -4 -10 6 -1 11 10 11 15 -1 29 -8 9 -13 20 -11 23 2 3 -2 7 -10 9 -9 2 -8
0 2 -7z"/>
<path d="M658 5388 c5 -5 16 -8 23 -6 8 3 3 7 -10 11 -17 4 -21 3 -13 -5z"/>
<path d="M700 5395 c0 -6 38 -45 45 -45 14 0 2 20 -20 34 -14 9 -25 14 -25 11z"/>
<path d="M790 5382 c0 -11 4 -23 8 -26 10 -6 9 30 -1 40 -4 4 -7 -2 -7 -14z"/>
<path d="M959 5363 c-12 -16 -12 -17 2 -6 9 7 20 9 24 5 5 -4 5 -1 1 6 -9 16
-11 15 -27 -5z"/>
<path d="M832 5348 c7 -15 15 -23 17 -17 2 6 -4 18 -13 27 -15 15 -15 15 -4
-10z"/>
<path d="M890 5355 c-7 -9 -8 -15 -2 -15 5 0 12 7 16 15 3 8 4 15 2 15 -2 0
-9 -7 -16 -15z"/>
<path d="M1028 5363 c7 -3 16 -2 19 1 4 3 -2 6 -13 5 -11 0 -14 -3 -6 -6z"/>
<path d="M874 5322 c20 -23 43 -31 30 -10 -4 7 -3 8 4 4 6 -4 9 -13 5 -21 -3
-8 0 -15 6 -15 6 0 11 9 11 20 0 18 -11 25 -34 21 -4 -1 -16 4 -25 11 -11 9
-10 6 3 -10z"/>
<path d="M1070 5330 c-8 -5 -10 -10 -5 -10 6 0 17 5 25 10 8 5 11 10 5 10 -5
0 -17 -5 -25 -10z"/>
<path d="M960 5320 c8 -5 20 -10 25 -10 6 0 3 5 -5 10 -8 5 -19 10 -25 10 -5
0 -3 -5 5 -10z"/>
<path d="M1830 5236 c0 -2 8 -10 18 -17 15 -13 16 -12 3 4 -13 16 -21 21 -21
13z"/>
<path d="M2022 4988 c6 -18 99 -78 120 -78 22 0 24 16 2 24 -10 4 -13 2 -9 -7
4 -6 0 -4 -8 5 -8 10 -17 15 -20 11 -4 -3 -7 -1 -7 5 0 10 -60 52 -75 52 -3 0
-5 -6 -3 -12z"/>
<path d="M2313 4970 c2 -8 10 -14 17 -12 7 1 18 -2 25 -8 9 -8 14 -7 18 3 3 9
-4 13 -22 12 -14 0 -30 4 -34 10 -5 6 -7 4 -4 -5z"/>
<path d="M2230 4940 c0 -12 28 -25 36 -17 3 3 -4 10 -15 17 -15 7 -21 7 -21 0z"/>
<path d="M2304 4936 c17 -13 17 -17 3 -30 -12 -12 -17 -13 -20 -3 -3 7 -6 5
-6 -5 -1 -22 12 -23 29 -3 7 8 15 13 19 11 4 -3 7 4 7 14 0 11 -2 17 -4 15 -3
-2 -14 0 -26 6 -20 10 -20 9 -2 -5z"/>
<path d="M2170 4906 c0 -2 7 -9 15 -16 9 -7 15 -8 15 -2 0 5 -7 12 -15 16 -8
3 -15 4 -15 2z"/>
<path d="M2150 4892 c0 -9 70 -70 100 -87 18 -10 12 -4 -52 55 -27 23 -48 38
-48 32z"/>
<path d="M2580 4891 c0 -5 7 -12 16 -15 24 -9 27 -7 10 9 -17 17 -26 19 -26 6z"/>
<path d="M2330 4866 c0 -9 5 -16 10 -16 6 0 10 4 10 9 0 6 -4 13 -10 16 -5 3
-10 -1 -10 -9z"/>
<path d="M2220 4862 c0 -13 41 -43 50 -37 4 2 5 -6 3 -18 -6 -32 22 -56 42
-36 19 20 2 57 -30 65 -14 3 -25 14 -26 23 0 11 -2 12 -6 3 -4 -10 -8 -10 -19
-1 -9 8 -14 8 -14 1z"/>
<path d="M2705 4820 c3 -5 8 -10 11 -10 2 0 4 5 4 10 0 6 -5 10 -11 10 -5 0
-7 -4 -4 -10z"/>
<path d="M3240 4785 c0 -5 5 -17 10 -25 5 -8 10 -10 10 -5 0 6 -5 17 -10 25
-5 8 -10 11 -10 5z"/>
<path d="M2770 4776 c0 -2 7 -7 16 -10 8 -3 12 -2 9 4 -6 10 -25 14 -25 6z"/>
<path d="M2330 4760 c0 -5 5 -10 10 -10 6 0 10 5 10 10 0 6 -4 10 -10 10 -5 0
-10 -4 -10 -10z"/>
<path d="M2837 4744 c9 -15 19 -21 21 -15 4 13 -16 41 -29 41 -5 0 -2 -12 8
-26z"/>
<path d="M2570 4748 c0 -9 5 -20 11 -23 17 -11 20 0 4 21 -13 17 -14 17 -15 2z"/>
<path d="M2370 4720 c0 -5 5 -10 11 -10 5 0 7 5 4 10 -3 6 -8 10 -11 10 -2 0
-4 -4 -4 -10z"/>
<path d="M3165 4660 c-3 -5 -1 -10 4 -10 6 0 11 5 11 10 0 6 -2 10 -4 10 -3 0
-8 -4 -11 -10z"/>
<path d="M3190 4649 c0 -4 7 -22 15 -40 8 -19 14 -27 14 -19 0 14 -28 72 -29
59z"/>
<path d="M3120 4631 c0 -5 -8 -11 -17 -13 -15 -3 -14 -5 5 -10 17 -5 22 -2 22
13 0 10 -2 19 -5 19 -3 0 -5 -4 -5 -9z"/>
<path d="M3550 4470 c0 -5 5 -10 11 -10 5 0 7 5 4 10 -3 6 -8 10 -11 10 -2 0
-4 -4 -4 -10z"/>
<path d="M3890 4432 c0 -5 7 -15 15 -22 8 -7 15 -9 15 -6 0 4 -7 14 -15 22 -8
9 -15 11 -15 6z"/>
<path d="M3930 4376 c0 -2 8 -10 18 -17 15 -13 16 -12 3 4 -13 16 -21 21 -21
13z"/>
<path d="M4110 4351 c0 -5 5 -13 10 -16 6 -3 10 -2 10 4 0 5 -4 13 -10 16 -5
3 -10 2 -10 -4z"/>
<path d="M4006 4277 c3 -10 9 -15 12 -12 3 3 0 11 -7 18 -10 9 -11 8 -5 -6z"/>
<path d="M3940 4251 c0 -5 7 -14 15 -21 9 -7 13 -15 10 -18 -3 -3 -14 3 -25
13 -11 10 -20 13 -20 7 0 -7 5 -12 10 -12 6 0 10 -4 10 -10 0 -17 57 -100 64
-93 4 4 4 -1 0 -11 -6 -15 -3 -17 14 -11 14 4 22 2 22 -5 0 -6 -4 -8 -10 -5
-13 8 -13 -1 2 -28 11 -20 12 -18 24 28 9 32 10 53 3 61 -6 8 -5 14 6 18 8 3
14 16 14 28 l-2 23 -4 -22 c-5 -25 -28 -31 -36 -10 -3 6 -6 1 -7 -13 -1 -24
-1 -24 -11 -5 -38 69 -79 114 -79 86z"/>
<path d="M4011 4204 c0 -11 3 -14 6 -6 3 7 2 16 -1 19 -3 4 -6 -2 -5 -13z"/>
<path d="M4022 4028 c7 -15 15 -23 17 -17 2 6 -4 18 -13 27 -15 15 -15 15 -4
-10z"/>
</g>
</svg>
