<?xml version="1.0" standalone="no"?>
<!DOCTYPE svg PUBLIC "-//W3C//DTD SVG 20010904//EN"
 "http://www.w3.org/TR/2001/REC-SVG-20010904/DTD/svg10.dtd">
<svg version="1.0" xmlns="http://www.w3.org/2000/svg"
 width="408.000000pt" height="640.000000pt" viewBox="0 0 408.000000 640.000000"
 preserveAspectRatio="xMidYMid meet">

<g transform="translate(0.000000,640.000000) scale(0.100000,-0.100000)"
fill="#000000" stroke="none">
<path d="M1130 6384 c0 -11 -6 -15 -20 -11 -11 3 -18 1 -15 -3 7 -12 -31 -23
-53 -16 -11 4 -22 -2 -30 -14 -10 -17 -10 -20 4 -20 8 0 13 4 9 9 -3 5 -1 12
5 16 9 6 12 2 14 -27 1 -16 -46 -18 -64 -2 -14 11 -18 11 -30 -6 -17 -23 -55
-28 -47 -6 4 10 -10 21 -43 35 -50 22 -76 28 -51 12 12 -8 13 -12 1 -26 -14
-17 -34 -15 -36 3 -3 25 -5 26 -19 8 -13 -18 -15 -18 -43 3 -37 26 -67 27
-117 1 -22 -11 -46 -20 -55 -20 -8 0 -23 -7 -33 -14 -10 -8 -26 -12 -36 -9
-11 3 -32 -3 -47 -14 -15 -10 -36 -16 -46 -15 -25 4 -77 -19 -83 -38 -5 -15
-78 -50 -103 -50 -7 0 -12 -6 -11 -12 4 -32 -2 -48 -18 -48 -13 0 -14 3 -5 12
17 17 15 28 -6 28 -13 0 -23 -13 -32 -40 l-13 -41 -45 7 c-56 8 -62 0 -62 -88
0 -51 3 -68 14 -68 8 0 13 -11 12 -27 -1 -17 -6 -27 -13 -26 -10 2 -13 -33
-13 -148 0 -134 2 -150 15 -139 11 9 18 10 29 1 9 -8 21 -8 37 -2 13 5 18 10
10 10 -8 1 -12 4 -9 7 13 12 58 -29 58 -52 0 -13 5 -24 12 -24 9 0 9 -3 0 -12
-7 -7 -12 -26 -12 -44 0 -18 -6 -34 -12 -36 -8 -3 -1 -12 15 -23 21 -13 31
-15 40 -6 6 6 22 11 37 11 15 0 20 3 13 8 -8 5 -3 15 18 31 27 21 39 51 22 51
-16 0 -7 57 15 91 12 20 25 50 28 68 4 18 22 45 45 65 21 19 45 46 55 61 9 14
27 28 40 31 13 3 24 12 24 19 0 18 23 25 80 25 56 0 104 15 95 30 -3 5 -2 10
4 10 5 0 12 9 16 19 3 11 23 28 43 39 90 48 107 59 130 85 26 29 72 37 72 12
0 -8 5 -15 10 -15 15 0 90 77 124 128 37 55 59 66 121 63 28 -1 73 3 100 9 28
6 62 11 78 10 18 0 29 6 33 17 3 10 10 27 16 38 8 14 8 20 -1 23 -20 7 -12 22
13 22 27 0 86 19 101 31 5 5 -77 9 -188 9 -175 0 -197 -2 -197 -16z m-429
-189 c-8 -39 -8 -39 -16 -12 -5 18 -3 33 5 42 17 21 19 16 11 -30z m49 -65 c0
-5 -7 -10 -16 -10 -8 0 -12 5 -9 10 3 6 10 10 16 10 5 0 9 -4 9 -10z m-693
-87 c2 -5 -8 -18 -22 -27 -27 -18 -32 -8 -14 25 10 20 30 22 36 2z"/>
<path d="M770 6380 c0 -5 5 -10 11 -10 5 0 7 5 4 10 -3 6 -8 10 -11 10 -2 0
-4 -4 -4 -10z"/>
<path d="M2816 5943 c-147 -183 -216 -399 -216 -678 0 -89 -4 -135 -12 -143
-7 -7 -8 -12 -2 -12 20 0 14 -57 -13 -106 -27 -51 -28 -52 -84 -58 -31 -4 -65
-13 -75 -22 -18 -14 -18 -15 4 -9 13 4 22 2 22 -4 0 -12 72 -15 84 -4 3 4 14
8 24 9 9 1 41 8 70 15 28 7 55 10 58 7 2 -3 6 -18 7 -34 2 -27 0 -29 -38 -29
-33 0 -39 3 -37 18 3 19 -20 22 -53 6 -15 -7 -12 -8 12 -3 28 5 32 3 27 -11
-4 -9 -15 -15 -28 -13 -12 1 -32 -6 -46 -16 -19 -14 -20 -17 -5 -11 11 4 54
10 95 12 100 6 106 0 120 -107 7 -57 15 -87 25 -93 9 -4 13 -12 10 -18 -3 -5
-1 -17 5 -26 10 -16 11 -15 6 5 -3 18 -1 22 11 18 8 -3 17 -6 19 -6 9 0 3 -67
-7 -77 -7 -7 -9 -20 -5 -30 5 -13 9 -14 15 -5 4 8 9 -18 9 -57 1 -39 6 -79 12
-88 16 -30 90 -447 79 -454 -12 -7 6 -139 28 -199 13 -35 55 -85 199 -230 143
-144 187 -195 200 -230 9 -25 16 -53 16 -62 0 -11 5 -15 14 -11 9 3 14 -2 14
-15 0 -22 -5 -24 -133 -42 -72 -11 -80 -10 -93 7 -14 17 -14 17 -12 -1 2 -10
-4 -20 -12 -21 -8 -2 -42 -8 -75 -14 -116 -20 -153 -22 -159 -6 -3 8 -15 15
-26 15 -19 0 -20 -6 -20 -105 0 -88 3 -106 18 -115 14 -9 9 -10 -25 -8 -31 3
-39 0 -32 -8 7 -9 3 -17 -12 -27 -16 -12 -20 -22 -15 -44 4 -15 9 -46 11 -67
3 -22 6 -40 8 -41 1 -1 18 0 37 2 33 4 36 9 54 61 11 35 15 57 8 60 -5 1 -8
12 -5 22 3 11 9 17 14 14 5 -3 9 0 9 5 0 6 -3 11 -7 11 -14 0 -13 147 0 158 7
5 61 20 121 32 120 24 129 22 124 -34 -3 -26 -10 -31 -98 -62 -119 -43 -144
-53 -137 -60 5 -5 192 57 227 76 16 8 20 21 20 59 l0 49 98 17 c53 10 103 20
110 22 7 3 12 -4 12 -20 0 -22 -9 -28 -94 -57 -101 -35 -124 -46 -115 -55 7
-6 213 66 217 77 2 5 8 6 13 2 5 -3 4 7 -1 21 -6 15 -10 44 -10 66 0 22 -11
75 -25 117 -22 69 -32 85 -95 147 -39 38 -70 73 -70 78 0 5 38 7 85 5 47 -2
85 0 85 5 0 4 -42 7 -94 7 -65 0 -97 4 -104 13 -7 8 -13 106 -17 260 l-6 247
28 11 c15 6 63 9 105 7 43 -2 78 1 78 5 0 5 -47 7 -104 5 l-103 -3 -7 119 c-3
66 -6 184 -6 262 l0 144 28 7 c15 5 64 8 109 8 46 -1 79 3 76 8 -3 5 -52 7
-108 5 l-102 -5 -7 75 c-3 41 -6 97 -6 123 0 48 0 48 42 60 24 6 73 9 110 7
38 -2 68 0 68 5 0 5 -49 8 -110 5 l-110 -3 0 109 c0 104 19 216 41 240 5 6 9
15 9 20 0 6 -5 4 -10 -4 -7 -10 -10 14 -10 78 0 218 -83 441 -229 617 -30 36
-58 65 -62 65 -5 0 -33 -30 -63 -67z m113 -627 c2 -58 -1 -75 -14 -79 -13 -6
-15 7 -15 85 0 75 2 89 14 79 8 -7 14 -37 15 -85z m-309 -352 c0 -7 -4 -16
-10 -19 -5 -3 -10 0 -10 7 0 8 -3 9 -8 3 -11 -16 -32 -16 -32 -1 0 13 17 21
48 22 6 1 12 -5 12 -12z m105 -44 c3 -5 -1 -10 -9 -10 -9 0 -16 5 -16 10 0 6
4 10 9 10 6 0 13 -4 16 -10z m0 -50 c3 -6 -1 -7 -9 -4 -18 7 -21 14 -7 14 6 0
13 -4 16 -10z m218 -80 c9 0 9 -2 0 -8 -9 -6 -13 -59 -16 -187 -2 -180 -2
-179 -3 35 -1 118 1 203 3 188 2 -16 10 -28 16 -28z m75 -17 c-10 -2 -28 -2
-40 0 -13 2 -5 4 17 4 22 1 32 -1 23 -4z m-118 -33 c0 -5 -2 -10 -4 -10 -3 0
-8 5 -11 10 -3 6 -1 10 4 10 6 0 11 -4 11 -10z m0 -90 c0 -5 -5 -10 -11 -10
-5 0 -7 5 -4 10 3 6 8 10 11 10 2 0 4 -4 4 -10z m34 -275 c3 -8 1 -15 -4 -15
-6 0 -10 7 -10 15 0 8 2 15 4 15 2 0 6 -7 10 -15z m3 -182 c-2 -32 -3 -8 -3
52 0 61 1 87 3 58 2 -29 2 -78 0 -110z m-47 -1255 c0 -21 -4 -38 -10 -38 -5 0
-10 24 -10 53 0 37 3 48 10 37 5 -8 10 -32 10 -52z"/>
<path d="M1150 5801 c0 -8 -6 -11 -16 -7 -11 4 -14 1 -12 -13 2 -10 -4 -26
-12 -36 -14 -17 -14 -17 10 -4 14 8 28 19 32 24 5 6 8 5 8 -2 0 -7 5 -13 10
-13 6 0 10 6 10 13 -1 17 -30 54 -30 38z"/>
<path d="M9 5328 c-5 -11 -5 -78 0 -78 3 0 17 9 31 20 l25 21 -30 -7 c-17 -3
-25 -2 -20 3 13 10 16 43 4 43 -5 0 -10 -1 -10 -2z"/>
<path d="M2571 5180 c0 -8 4 -24 9 -35 l9 -20 0 20 c0 11 -4 27 -9 35 -9 13
-10 13 -9 0z"/>
<path d="M800 5087 c0 -21 5 -24 33 -23 25 1 33 6 35 24 3 19 -1 22 -32 22
-31 0 -36 -3 -36 -23z"/>
<path d="M2555 5080 c3 -5 8 -10 11 -10 2 0 4 5 4 10 0 6 -5 10 -11 10 -5 0
-7 -4 -4 -10z"/>
<path d="M733 5003 c-13 -8 -23 -19 -23 -23 0 -10 61 -32 68 -25 3 3 0 5 -7 5
-7 0 -9 5 -6 11 4 6 13 8 20 5 8 -3 19 2 25 10 7 8 10 15 6 15 -3 1 -10 2 -15
3 -5 0 -13 4 -17 9 -11 11 -26 8 -51 -10z"/>
<path d="M620 4950 c0 -5 -7 -10 -15 -10 -9 0 -18 -8 -22 -17 -13 -36 -46 -74
-59 -69 -8 3 -14 1 -14 -4 0 -13 -67 -32 -90 -25 -12 4 -27 1 -35 -5 -8 -6
-32 -10 -54 -9 -22 2 -43 0 -47 -4 -11 -11 -46 -8 -39 2 5 9 -27 2 -66 -13 -9
-4 -21 0 -29 9 -9 11 -16 12 -25 5 -10 -8 -15 -6 -20 9 -8 26 -25 28 -25 4 0
-11 -3 -14 -8 -7 -10 16 -56 12 -64 -6 -4 -8 -7 -93 -7 -187 l-1 -173 25 -6
c14 -3 37 -3 53 2 15 4 32 6 38 5 6 0 17 5 23 13 12 14 46 11 69 -7 16 -13 64
-18 56 -6 -3 5 3 9 12 9 16 0 16 -1 -1 -20 -17 -19 -17 -20 9 -30 15 -5 34
-10 42 -10 8 0 13 -4 10 -9 -3 -4 5 -18 17 -29 l22 -21 20 29 c11 17 23 30 27
30 4 0 1 17 -6 38 -12 33 -11 39 6 57 10 10 30 19 44 20 13 0 29 7 34 15 6 10
27 15 71 15 56 0 63 2 70 24 7 19 6 22 -6 17 -11 -4 -15 2 -15 26 0 17 -7 39
-15 48 -21 23 -9 47 30 61 32 12 53 48 40 69 -9 14 17 61 32 56 7 -3 13 1 13
8 0 7 9 21 20 31 11 10 18 21 14 24 -5 6 -10 7 -51 9 -13 1 -23 8 -23 16 0 10
-7 12 -22 8 -14 -3 -19 -2 -14 6 4 7 1 12 -8 12 -9 0 -16 -4 -16 -10z m-4 -65
c-3 -9 0 -15 9 -15 8 0 15 -4 15 -10 0 -5 -13 -10 -30 -10 -32 0 -38 12 -17
35 16 19 31 19 23 0z m-16 -155 c0 -5 -5 -10 -11 -10 -5 0 -7 5 -4 10 3 6 8
10 11 10 2 0 4 -4 4 -10z m-350 -270 c0 -5 -2 -10 -4 -10 -3 0 -8 5 -11 10 -3
6 -1 10 4 10 6 0 11 -4 11 -10z m155 -50 c3 -5 1 -10 -4 -10 -6 0 -11 5 -11
10 0 6 2 10 4 10 3 0 8 -4 11 -10z"/>
<path d="M1510 4955 c0 -3 11 -10 25 -15 24 -9 35 -30 15 -30 -5 0 -10 -4 -10
-10 0 -5 9 -10 20 -10 11 0 17 -5 15 -13 -3 -7 13 -19 42 -29 41 -15 50 -15
62 -3 12 11 12 17 1 29 -14 18 -50 22 -50 6 0 -5 -7 -10 -16 -10 -11 0 -14 6
-9 20 5 15 2 20 -13 20 -13 0 -18 7 -18 23 1 18 -5 23 -31 25 -18 2 -33 1 -33
-3z"/>
<path d="M790 4899 c0 -5 -4 -8 -9 -4 -19 11 -20 -13 -1 -30 20 -18 20 -17 20
13 0 18 -2 32 -5 32 -3 0 -5 -5 -5 -11z"/>
<path d="M1352 4868 c-1 -17 3 -35 10 -39 9 -6 9 -11 -1 -23 -7 -8 -13 -31
-14 -51 -1 -19 -6 -35 -12 -35 -6 0 -21 -9 -33 -20 -12 -11 -27 -19 -33 -18
-17 4 -39 -43 -33 -69 3 -12 2 -28 -3 -35 -5 -9 -10 0 -14 27 -4 29 -7 16 -7
-45 -2 -75 0 -82 11 -60 8 16 21 25 37 25 22 0 25 4 25 40 0 41 19 75 42 75 7
0 21 9 30 20 10 11 21 20 26 20 5 0 27 14 48 31 28 22 48 30 71 28 48 -3 105
2 91 8 -7 2 -13 13 -13 22 0 10 -10 23 -22 30 -13 6 -15 9 -5 7 21 -6 23 17 3
34 -8 6 -12 18 -9 26 3 8 0 14 -5 14 -6 0 -13 -8 -15 -17 -3 -13 -5 -12 -6 5
l-1 24 -30 -25 c-36 -31 -73 -44 -78 -28 -2 6 -16 11 -30 11 -18 0 -23 3 -14
8 7 5 10 16 6 25 -10 26 -20 20 -22 -15z"/>
<path d="M3381 4864 c0 -11 3 -14 6 -6 3 7 2 16 -1 19 -3 4 -6 -2 -5 -13z"/>
<path d="M2423 4758 c-13 -6 -23 -15 -23 -19 0 -9 47 8 65 23 13 12 -16 9 -42
-4z"/>
<path d="M2504 4741 c-16 -10 -38 -31 -49 -47 -11 -17 -13 -24 -4 -18 18 15
108 34 126 27 7 -3 13 -14 13 -24 0 -12 10 -21 25 -25 30 -7 30 -7 39 24 5 15
3 22 -5 22 -7 0 -4 7 7 15 19 16 19 16 -1 12 -11 -2 -31 2 -45 8 -49 23 -75
25 -106 6z"/>
<path d="M2707 4610 c3 -30 10 -62 15 -70 11 -19 -1 89 -13 110 -5 9 -6 -8 -2
-40z"/>
<path d="M1010 4590 c0 -5 -15 -10 -32 -10 -43 -1 -72 -23 -65 -50 5 -19 -4
-25 -28 -20 -5 1 -1 -8 9 -19 19 -21 42 -29 31 -11 -3 6 -2 10 4 10 5 0 11 -5
13 -12 3 -8 12 -8 38 1 28 9 37 9 45 -1 5 -7 22 -21 38 -31 l27 -17 0 74 c0
41 -4 77 -9 80 -5 3 -16 -9 -25 -27 -13 -27 -16 -29 -16 -9 0 12 5 22 11 22 8
0 8 5 -1 15 -14 17 -40 20 -40 5z"/>
<path d="M2500 4575 c0 -20 4 -26 18 -23 9 2 17 12 17 23 0 11 -8 21 -17 23
-14 3 -18 -3 -18 -23z"/>
<path d="M3385 4590 c3 -5 8 -10 11 -10 2 0 4 5 4 10 0 6 -5 10 -11 10 -5 0
-7 -4 -4 -10z"/>
<path d="M2454 4575 c-3 -8 -3 -19 1 -25 10 -16 35 7 28 26 -7 18 -22 18 -29
-1z"/>
<path d="M660 4551 c-15 -30 -5 -41 32 -34 21 4 29 3 24 -5 -4 -7 7 -9 34 -7
59 6 69 14 53 45 -12 25 -13 25 -13 3 0 -26 -12 -30 -30 -8 -7 8 -22 14 -34
13 -11 0 -29 3 -38 6 -11 5 -20 1 -28 -13z"/>
<path d="M2740 4520 c0 -5 5 -10 11 -10 5 0 7 5 4 10 -3 6 -8 10 -11 10 -2 0
-4 -4 -4 -10z"/>
<path d="M815 4500 c-3 -5 -1 -10 4 -10 6 0 11 5 11 10 0 6 -2 10 -4 10 -3 0
-8 -4 -11 -10z"/>
<path d="M1360 4485 c0 -8 4 -15 10 -15 5 0 7 7 4 15 -4 8 -8 15 -10 15 -2 0
-4 -7 -4 -15z"/>
<path d="M2721 4484 c0 -11 3 -14 6 -6 3 7 2 16 -1 19 -3 4 -6 -2 -5 -13z"/>
<path d="M185 4450 c-3 -5 -1 -10 4 -10 6 0 11 5 11 10 0 6 -2 10 -4 10 -3 0
-8 -4 -11 -10z"/>
<path d="M2796 4421 c-4 -7 -5 -15 -2 -18 9 -9 19 4 14 18 -4 11 -6 11 -12 0z"/>
<path d="M2722 4370 c0 -14 2 -19 5 -12 2 6 2 18 0 25 -3 6 -5 1 -5 -13z"/>
<path d="M550 4279 c-13 -5 -33 -9 -45 -8 -35 2 -44 -1 -64 -22 l-19 -20 -14
20 c-15 21 -28 18 -28 -5 0 -8 6 -11 17 -7 12 5 14 3 8 -7 -5 -8 -4 -11 3 -6
6 3 16 -3 22 -14 6 -11 19 -20 30 -20 16 0 19 -5 14 -29 -6 -26 -3 -30 37 -44
24 -9 69 -21 99 -28 44 -11 65 -23 103 -61 43 -42 63 -53 90 -49 12 2 8 -17
-5 -22 -10 -4 -10 -6 0 -6 57 -4 -83 -42 -151 -41 -8 0 -7 4 2 9 10 6 0 8 -30
5 -33 -4 -40 -3 -29 5 13 9 13 11 -2 11 -10 0 -18 -5 -18 -11 0 -6 -6 -9 -14
-6 -8 3 -20 -1 -26 -8 -14 -16 -80 -16 -93 0 -6 6 -10 6 -14 -2 -2 -7 -11 -13
-18 -13 -7 0 -15 -5 -17 -11 -3 -9 -9 -8 -24 1 -15 9 -35 10 -77 3 -38 -7 -60
-6 -67 1 -7 7 -10 6 -10 -3 0 -7 -6 -11 -12 -8 -7 2 -21 0 -31 -5 -13 -7 -24
-5 -36 6 -19 17 -51 12 -51 -8 0 -6 -5 -4 -10 4 -7 11 -12 12 -18 3 -4 -6 -16
-11 -27 -10 -19 2 -20 -6 -23 -298 -2 -165 0 -373 3 -462 7 -151 9 -163 26
-163 16 0 19 -8 20 -52 3 -118 2 -128 -10 -128 -5 0 -7 9 -4 19 3 13 -1 21
-14 24 -13 3 -12 5 7 6 23 1 23 3 6 12 -14 9 -20 8 -27 -2 -13 -20 -11 -27 9
-32 12 -3 13 -5 2 -6 -21 -1 -13 -89 11 -120 20 -25 16 -46 -7 -37 -11 4 -14
-10 -14 -73 0 -44 -3 -86 -6 -95 -4 -11 -1 -16 10 -16 9 0 16 5 16 11 0 5 5 7
10 4 6 -3 10 -2 10 2 0 5 22 9 50 8 51 0 65 -9 31 -20 -28 -9 -45 -31 -30 -41
8 -4 9 -3 5 4 -4 7 3 14 18 18 13 3 27 12 30 20 3 8 10 14 16 14 6 0 8 -4 5
-10 -4 -6 1 -7 11 -3 16 6 15 7 -2 20 -21 15 -11 17 16 3 26 -14 39 9 15 27
-11 7 -14 13 -9 13 5 0 9 12 8 28 -1 22 -5 26 -24 24 -18 -3 -21 0 -16 13 3 9
6 25 6 35 0 10 9 20 19 23 21 5 22 3 36 -120 6 -44 4 -53 -13 -64 -11 -7 -18
-19 -17 -28 1 -9 0 -10 -2 -3 -3 6 -10 12 -16 12 -16 -1 -54 -30 -39 -30 7 0
12 -4 12 -9 0 -9 -26 -8 -87 5 -26 5 -33 3 -33 -10 0 -9 -5 -16 -11 -16 -5 0
-7 5 -4 10 3 6 -1 10 -10 10 -9 0 -15 -6 -12 -12 2 -9 28 -13 80 -13 41 0 79
-4 83 -8 13 -13 34 -7 35 11 0 9 3 12 5 5 3 -7 12 -9 20 -6 9 3 14 -2 14 -17
0 -19 2 -20 15 -10 8 7 15 18 15 26 0 35 94 41 107 8 4 -11 15 -13 37 -10 l31
5 -27 -11 c-16 -7 -28 -17 -28 -24 0 -7 11 -10 28 -7 23 3 24 2 7 -6 -11 -5
-36 -14 -55 -20 -32 -9 -31 -10 15 -4 60 7 65 9 65 33 0 14 5 17 23 12 18 -5
19 -7 5 -10 -36 -7 -18 -25 20 -19 34 6 35 5 18 -8 -19 -14 -18 -15 9 -15 36
0 27 -9 -19 -20 -28 -6 -38 -5 -45 8 -7 13 -15 14 -42 5 l-34 -11 35 -1 35 -2
-25 -14 -25 -14 25 -2 c17 -1 20 -3 8 -6 -21 -5 -24 -42 -5 -65 7 -10 31 -18
59 -20 l47 -3 4 60 3 60 2 -62 2 -63 49 0 c27 0 56 -3 64 -6 12 -4 14 0 11 18
l-5 23 10 -22 c6 -13 15 -23 21 -23 13 0 13 27 0 32 -7 2 -7 15 0 38 5 19 10
62 10 94 0 77 18 62 21 -17 2 -51 4 -56 17 -43 13 12 13 18 2 31 -11 13 -10
14 4 9 13 -5 16 -14 12 -30 -4 -14 -2 -24 5 -24 6 0 10 14 8 33 -4 66 -1 74
41 91 22 9 40 17 40 18 0 8 -65 6 -70 -1 -3 -5 -16 -11 -30 -15 -25 -6 -25 -6
-2 5 12 7 22 19 21 28 0 12 -2 13 -6 2 -4 -9 -12 0 -24 25 l-18 39 -7 -32
c-13 -63 -24 -32 -23 65 0 53 3 91 6 84 2 -6 8 -10 13 -7 11 7 42 -24 35 -36
-11 -16 -25 -10 -25 12 0 11 -4 17 -10 14 -6 -3 -10 -34 -10 -68 1 -47 3 -58
11 -44 5 9 17 17 24 17 8 0 15 5 15 11 0 5 -4 8 -9 4 -5 -3 -12 -2 -15 3 -2 4
6 8 20 8 13 0 24 -2 24 -5 0 -4 14 -7 30 -8 17 -1 30 2 30 8 0 6 6 4 13 -3 16
-16 28 -58 17 -58 -4 0 -6 -9 -3 -20 3 -11 9 -20 14 -20 5 0 9 -16 9 -35 0
-38 -6 -40 -56 -26 l-31 9 -2 -44 c-1 -41 11 -59 22 -31 4 10 6 10 6 0 2 -25
29 -13 29 12 -1 29 12 47 19 28 3 -7 11 -13 18 -13 8 0 17 -5 20 -10 4 -7 -2
-9 -19 -4 -21 5 -25 3 -23 -14 1 -18 13 -23 77 -34 l75 -13 3 44 c4 51 -4 63
-23 37 -13 -17 -18 -18 -60 -6 -33 9 -43 16 -35 24 8 8 13 7 19 -2 4 -7 15
-10 24 -6 9 3 14 11 11 16 -4 7 8 8 34 3 41 -7 68 9 42 25 -16 10 -4 86 16 94
8 3 14 11 14 18 0 11 -2 11 -8 0 -14 -21 -30 51 -22 94 l8 39 1 -40 c2 -35 4
-37 11 -17 12 29 15 28 18 -9 2 -20 -1 -28 -9 -24 -8 6 -8 2 0 -14 14 -25 48
-28 54 -3 2 9 4 3 3 -15 0 -17 -5 -29 -11 -25 -5 3 -2 -4 9 -16 10 -12 23 -19
27 -16 5 3 6 -1 3 -9 -3 -8 -1 -18 5 -22 7 -4 11 9 12 37 0 31 3 37 8 23 7
-16 9 -14 14 14 11 51 8 161 -3 161 -6 0 -11 -34 -12 -77 l-2 -78 -3 75 c-3
43 -9 78 -16 82 -10 6 16 12 43 10 3 0 7 8 7 19 2 24 -14 24 -40 2 -11 -10
-17 -13 -14 -6 5 8 -2 11 -22 11 -30 -1 -34 -18 -5 -18 8 0 13 -4 9 -10 -3 -5
-12 -7 -20 -4 -10 4 -15 -5 -18 -38 -3 -41 -4 -41 -5 11 l-2 53 -35 -4 c-19
-2 -31 0 -27 4 4 4 20 9 35 10 17 1 27 8 27 18 0 13 1 13 10 0 9 -13 11 -13
20 0 6 10 10 11 10 3 0 -20 38 -15 61 8 14 14 19 29 16 45 -2 14 1 28 8 32 19
10 26 342 8 335 -7 -3 -13 -1 -13 5 0 6 6 12 13 15 6 3 -10 4 -38 3 -44 -1
-50 1 -50 19 0 11 -7 20 -15 20 -19 0 -60 -61 -55 -85 3 -16 -13 -31 -37 -34
-3 -1 -15 -13 -26 -27 -17 -20 -23 -52 -32 -155 -7 -71 -14 -131 -16 -133 -2
-2 -4 23 -4 57 l0 62 -30 0 -30 0 20 -40 c11 -21 20 -43 20 -47 -1 -4 -10 9
-21 30 -11 22 -22 37 -23 35 -2 -1 -6 -39 -10 -83 -4 -43 -8 -80 -9 -82 -2 -1
-3 66 -2 149 0 83 3 138 7 122 4 -16 5 -7 2 21 -8 67 -5 119 6 123 5 2 5 13 0
28 -6 14 -6 49 -2 84 5 33 8 75 7 95 0 25 3 34 12 31 16 -6 16 -1 3 25 -6 11
-8 25 -3 32 5 8 9 4 14 -13 l7 -25 1 27 c1 15 5 29 11 33 5 3 7 12 3 20 -3 8
-1 15 5 15 5 0 12 9 15 20 7 29 0 25 -23 -12 l-20 -33 2 37 c2 21 6 38 10 38
4 0 14 21 22 48 9 26 14 37 12 25 -4 -25 1 -28 22 -14 24 15 9 46 -21 44 -18
-1 -27 3 -27 14 0 8 -9 28 -21 44 -11 16 -18 35 -16 42 4 8 6 6 6 -4 1 -20 45
-62 55 -52 4 5 6 2 4 -6 -1 -8 5 -17 15 -19 10 -2 17 2 17 12 0 9 -4 16 -10
16 -12 0 -13 37 -1 44 5 4 7 -4 4 -15 -5 -19 -3 -21 20 -17 29 6 37 -6 12 -16
-8 -3 -15 -12 -15 -21 0 -24 38 -18 66 11 20 19 24 31 19 52 -8 35 -38 67 -82
87 -44 21 -79 13 -101 -24 -16 -27 -19 -28 -37 -14 -19 15 -19 15 3 8 22 -6
32 10 10 17 -7 3 -9 11 -3 24 4 10 7 25 6 32 -2 10 4 12 18 7 16 -5 22 -1 27
19 3 14 3 30 -1 35 -3 6 -1 11 4 11 6 0 11 -6 12 -12 0 -7 4 -4 9 7 5 11 9 14
9 8 1 -7 11 -13 24 -13 15 0 18 3 9 9 -9 5 3 10 34 15 31 4 50 2 55 -5 5 -8 9
-7 15 3 6 9 32 17 69 21 l60 6 -40 -14 -40 -14 40 5 c30 3 35 2 20 -5 -11 -5
-50 -12 -87 -16 -38 -4 -68 -11 -68 -15 0 -5 -18 -6 -40 -3 -28 4 -40 2 -40
-7 0 -7 -7 -10 -15 -6 -8 3 -15 1 -15 -4 0 -6 11 -10 24 -10 14 0 37 -5 52
-10 19 -8 37 -8 57 0 17 5 28 7 24 4 -3 -4 -2 -15 4 -25 8 -15 14 -17 29 -9
14 8 20 8 20 0 0 -6 5 -8 12 -4 7 5 9 1 6 -13 -3 -12 -2 -26 2 -33 5 -7 2 -34
-6 -59 -14 -47 -11 -81 7 -81 6 0 30 -16 54 -35 30 -25 45 -32 48 -23 4 9 6 8
6 -3 1 -18 65 -72 74 -63 3 3 10 -4 17 -15 17 -33 25 -25 25 26 0 45 -1 47
-32 50 -19 3 -33 0 -33 -6 0 -10 20 -15 42 -12 4 0 6 -9 5 -20 -1 -18 -3 -19
-13 -4 -8 11 -14 12 -19 5 -9 -15 -25 -2 -25 21 0 10 -5 19 -11 19 -5 0 -7 5
-4 10 4 6 -7 10 -24 10 -17 0 -31 5 -31 10 0 6 -7 10 -15 10 -13 0 -13 3 -3
20 10 15 10 22 2 28 -7 4 -10 25 -8 52 2 25 4 77 4 115 1 39 5 90 10 115 6 32
8 -8 7 -132 0 -98 3 -181 7 -185 4 -4 16 -1 28 6 11 7 17 8 14 3 -7 -12 36
-25 89 -26 24 -1 39 -6 38 -13 -1 -6 4 -14 12 -17 8 -3 15 -1 15 5 0 6 7 4 15
-4 8 -9 28 -18 45 -22 17 -4 28 -10 25 -15 -3 -4 2 -11 11 -14 9 -3 12 -2 9 5
-7 10 14 7 91 -16 40 -12 43 -11 55 11 12 24 29 32 29 15 0 -5 6 -11 13 -14 6
-2 4 -3 -6 -1 -16 2 -44 -32 -35 -42 3 -2 26 -10 52 -18 46 -14 48 -14 43 4
-3 11 0 21 7 24 6 3 -4 17 -24 35 l-35 30 28 10 c32 12 34 24 7 51 -20 20 -42
27 -37 13 1 -5 -3 -8 -8 -8 -6 0 -10 38 -10 93 0 50 -2 92 -4 92 -14 0 -30
-42 -31 -82 0 -80 -20 -67 -21 14 -1 49 -3 63 -8 43 -5 -25 -8 -27 -14 -12
-12 32 -8 67 8 67 8 0 15 5 15 10 0 6 -6 10 -12 10 -9 0 -8 4 2 10 13 9 13 11
0 20 -22 14 -30 12 -24 -5 5 -12 -5 -11 -52 5 -32 11 -54 16 -49 11 6 -5 27
-14 48 -21 39 -12 54 -49 20 -51 -15 0 -15 -2 2 -9 25 -11 -1 -11 -35 0 -21 7
-22 8 -5 10 18 1 17 3 -5 12 -45 18 -80 27 -80 19 0 -5 15 -13 33 -19 32 -11
32 -12 2 -6 -26 5 -28 3 -14 -8 9 -7 28 -34 43 -60 26 -46 45 -65 32 -33 -3 8
-1 15 4 15 6 0 10 -19 10 -42 l-1 -43 -43 69 c-65 102 -87 109 -132 45 -15
-23 -30 -36 -32 -30 -4 13 62 107 81 114 7 3 -4 3 -24 0 -24 -3 -40 0 -51 11
-15 14 -17 14 -22 0 -9 -24 -7 -90 4 -120 7 -17 7 -31 1 -38 -5 -6 -11 -29
-14 -51 -2 -22 -5 39 -7 135 l-4 175 -6 -135 c-5 -144 -19 -161 -26 -34 -2 41
-7 80 -10 86 -4 7 -2 8 4 4 9 -5 12 6 12 38 0 26 -5 47 -12 50 -19 8 44 -1 65
-9 9 -4 17 -3 17 3 0 5 -20 15 -45 22 -47 13 -78 38 -34 27 13 -3 36 -9 52
-12 24 -7 27 -5 27 19 0 21 -7 30 -33 41 -18 7 -38 25 -45 39 -6 14 -17 26
-23 26 -8 0 -8 -4 1 -15 8 -10 9 -15 1 -15 -10 0 -19 22 -24 61 -2 8 -6 19
-10 25 -9 15 -47 25 -47 13 0 -5 9 -9 19 -9 11 0 22 -4 25 -9 3 -5 -12 -4 -35
2 -28 7 -37 12 -27 18 10 7 9 9 -5 9 -15 0 -18 -6 -14 -32 5 -40 16 -68 27
-68 5 0 7 9 5 20 -3 15 2 20 20 20 13 0 27 -5 31 -12 4 -6 3 -8 -4 -4 -13 8
-44 -33 -35 -47 4 -6 1 -7 -6 -2 -9 5 -11 -1 -8 -24 6 -34 -6 -41 -23 -13 -8
13 -10 6 -8 -35 3 -55 -3 -63 -43 -63 -11 0 -18 4 -15 9 3 5 15 7 26 4 18 -5
20 0 20 35 l0 40 -37 -9 c-21 -4 -39 -8 -40 -9 -2 0 -14 0 -27 0 -19 0 -26 -6
-28 -27 -3 -16 -4 8 -4 52 0 44 1 62 4 40 4 -51 12 -58 46 -45 21 8 27 15 23
30 -6 23 27 70 49 70 8 0 14 10 14 26 0 27 0 27 -57 20 -64 -8 -82 -18 -65
-39 9 -11 8 -14 -3 -14 -15 0 -20 15 -17 52 2 15 0 17 -7 6 -6 -9 -11 -10 -15
-2 -4 6 -12 9 -17 6 -5 -4 -9 -2 -9 3 0 5 -14 6 -32 3 -20 -5 -46 -2 -65 6
-20 8 -34 9 -38 3 -3 -6 -4 -10 0 -10 3 0 -1 -13 -10 -30 -8 -16 -16 -33 -16
-37 -3 -15 -18 -48 -18 -39 -1 6 -8 1 -16 -10 -15 -18 -16 -16 -13 22 3 33 0
40 -11 36 -11 -4 -13 0 -8 17 4 17 2 21 -9 17 -8 -3 -14 1 -14 8 0 15 -27 29
-40 21 -4 -2 -15 16 -25 40 -9 25 -21 43 -26 39 -5 -3 -9 2 -9 12 0 11 -6 15
-19 11 -14 -3 -18 -1 -14 9 6 16 -2 17 -37 3z m-10 -29 c0 -5 -5 -10 -11 -10
-5 0 -7 5 -4 10 3 6 8 10 11 10 2 0 4 -4 4 -10z m-33 -16 c-3 -3 -12 -4 -19
-1 -8 3 -5 6 6 6 11 1 17 -2 13 -5z m606 -139 c-15 -19 -30 -30 -32 -24 -2 6
3 15 10 21 11 7 10 8 -5 6 -10 -2 -21 3 -23 10 -4 9 1 10 19 3 16 -6 27 -5 36
5 26 28 22 13 -5 -21z m-43 -64 c-5 -11 -15 -23 -22 -27 -7 -5 -8 -2 -3 7 21
37 44 55 25 20z m137 -83 c-3 -8 -6 -5 -6 6 -1 11 2 17 5 13 3 -3 4 -12 1 -19z
m43 8 c0 -3 -4 -8 -10 -11 -5 -3 -10 -1 -10 4 0 6 5 11 10 11 6 0 10 -2 10 -4z
m-220 -51 c0 -10 -9 -15 -27 -14 -24 2 -25 2 -5 6 12 2 22 9 22 14 0 5 2 9 5
9 3 0 5 -7 5 -15z m-270 -5 c-8 -5 -26 -9 -40 -9 -23 1 -23 2 5 9 43 11 52 11
35 0z m195 -10 c3 -5 1 -10 -4 -10 -6 0 -11 5 -11 10 0 6 2 10 4 10 3 0 8 -4
11 -10z m355 -16 c0 -8 -5 -12 -10 -9 -6 4 -8 11 -5 16 9 14 15 11 15 -7z
m-422 -1 c-10 -2 -26 -2 -35 0 -10 3 -2 5 17 5 19 0 27 -2 18 -5z m-65 -10
c-7 -2 -21 -2 -30 0 -10 3 -4 5 12 5 17 0 24 -2 18 -5z m-66 -9 c-3 -3 -12 -4
-19 -1 -8 3 -5 6 6 6 11 1 17 -2 13 -5z m-74 -11 c-7 -2 -19 -2 -25 0 -7 3 -2
5 12 5 14 0 19 -2 13 -5z m201 -8 c3 -8 1 -15 -4 -15 -6 0 -10 7 -10 15 0 8 2
15 4 15 2 0 6 -7 10 -15z m23 -7 c-3 -8 -6 -5 -6 6 -1 11 2 17 5 13 3 -3 4
-12 1 -19z m-290 6 c-3 -3 -12 -4 -19 -1 -8 3 -5 6 6 6 11 1 17 -2 13 -5z
m201 -1 c-10 -2 -26 -2 -35 0 -10 3 -2 5 17 5 19 0 27 -2 18 -5z m-117 -16
c-9 -12 -1 -12 46 -5 31 5 64 7 72 5 9 -1 -35 -11 -97 -21 -62 -10 -115 -16
-119 -12 -3 3 1 6 10 6 10 0 17 6 17 14 0 10 13 16 38 19 20 2 39 4 41 5 2 1
-2 -4 -8 -11z m56 7 c-3 -3 -12 -4 -19 -1 -8 3 -5 6 6 6 11 1 17 -2 13 -5z
m83 -69 c-6 -8 -9 -19 -5 -25 3 -5 0 -10 -7 -10 -7 0 -27 -17 -45 -37 -24 -29
-31 -33 -26 -16 3 12 12 24 20 27 8 3 11 10 8 16 -3 5 0 10 8 10 8 0 22 11 31
25 9 14 19 25 22 25 4 0 1 -7 -6 -15z m-120 -32 c0 -21 -3 -24 -9 -14 -5 8 -7
20 -4 28 8 21 13 15 13 -14z m320 -18 c19 -23 8 -26 -19 -4 -16 13 -18 19 -8
19 8 0 20 -7 27 -15z m484 -13 c3 -5 -1 -9 -9 -9 -8 0 -12 4 -9 9 3 4 7 8 9 8
2 0 6 -4 9 -8z m136 -12 c0 -5 -2 -10 -4 -10 -3 0 -8 5 -11 10 -3 6 -1 10 4
10 6 0 11 -4 11 -10z m-157 -45 c4 3 5 2 2 -2 -3 -3 0 -12 6 -20 25 -30 0 -10
-36 29 -24 25 -27 32 -9 15 17 -15 33 -25 37 -22z m128 0 c5 4 9 -4 9 -17 0
-17 -3 -19 -9 -9 -7 11 -9 11 -14 0 -3 -8 -5 2 -5 21 0 19 2 27 5 17 2 -9 9
-15 14 -12z m-91 -107 c-3 -2 -32 26 -65 62 l-59 65 64 -62 c35 -34 62 -64 60
-65z m29 84 l19 -38 -26 -1 c-15 0 -19 1 -9 4 21 5 21 7 2 43 -9 17 -13 30
-10 30 2 0 13 -17 24 -38z m-677 13 c0 -5 -5 -11 -11 -13 -6 -2 -11 4 -11 13
0 9 5 15 11 13 6 -2 11 -8 11 -13z m448 -18 c-1 -21 -1 -21 -15 -3 -8 10 -12
23 -9 28 9 14 24 -2 24 -25z m-550 2 c0 -6 -4 -7 -10 -4 -5 3 -10 11 -10 16 0
6 5 7 10 4 6 -3 10 -11 10 -16z m45 11 c3 -5 1 -10 -4 -10 -6 0 -11 5 -11 10
0 6 2 10 4 10 3 0 8 -4 11 -10z m595 -10 c0 -5 -4 -10 -10 -10 -5 0 -10 5 -10
10 0 6 5 10 10 10 6 0 10 -4 10 -10z m-730 -26 c0 -8 -7 -14 -15 -14 -15 0
-21 21 -9 33 10 9 24 -2 24 -19z m229 -41 c2 -2 -5 -3 -16 -3 -11 0 -20 7 -20
15 0 12 3 12 16 3 9 -7 18 -14 20 -15z m-5 -22 c4 -5 -25 -9 -64 -9 -92 0
-104 -11 -14 -14 l69 -2 -70 -5 c-57 -5 -65 -7 -42 -14 16 -4 38 -5 50 -1 18
6 19 5 6 -8 -15 -15 -84 -13 -94 2 -3 5 -1 20 5 34 9 25 13 26 79 26 38 0 72
-4 75 -9z m-217 -343 c-3 -8 -6 -5 -6 6 -1 11 2 17 5 13 3 -3 4 -12 1 -19z m0
-140 c-2 -24 -4 -5 -4 42 0 47 2 66 4 43 2 -24 2 -62 0 -85z m486 55 c-7 -2
-21 -2 -30 0 -10 3 -4 5 12 5 17 0 24 -2 18 -5z m-581 -35 c-7 -7 -12 -8 -12
-2 0 14 12 26 19 19 2 -3 -1 -11 -7 -17z m518 -3 c0 -8 -9 -15 -19 -15 -29 0
-35 18 -9 23 13 2 24 5 26 6 1 0 2 -6 2 -14z m58 8 c-10 -2 -26 -2 -35 0 -10
3 -2 5 17 5 19 0 27 -2 18 -5z m30 -160 c0 -68 -5 -126 -9 -129 -5 -3 -9 10
-9 28 -1 18 -2 76 -3 129 -1 69 1 96 10 96 9 0 12 -34 11 -124z m-41 5 c-2
-24 -4 -7 -4 37 0 44 2 63 4 43 2 -21 2 -57 0 -80z m-321 70 c0 -7 -15 -29
-34 -48 l-35 -35 33 48 c37 52 37 52 36 35z m-149 -135 c-2 -27 -3 -5 -3 47 0
52 1 74 3 48 2 -27 2 -69 0 -95z m445 -56 c22 -26 38 -50 35 -53 -2 -3 -33 30
-67 73 -65 81 -39 65 32 -20z m-442 -104 c0 -54 -4 -91 -8 -83 -8 15 -4 180 4
180 2 0 4 -44 4 -97z m-133 -35 c-3 -8 -6 -5 -6 6 -1 11 2 17 5 13 3 -3 4 -12
1 -19z m403 -20 c-25 -9 -36 -5 -26 10 3 6 16 8 28 4 l22 -5 -24 -9z m-824
-10 c-3 -13 -6 -30 -6 -38 0 -10 -3 -11 -8 -4 -4 6 -12 13 -18 15 -17 6 2 49
22 49 12 0 15 -6 10 -22z m924 2 c0 -5 -7 -7 -15 -4 -8 4 -15 8 -15 10 0 2 7
4 15 4 8 0 15 -4 15 -10z m-982 -35 c-1 -14 -6 -25 -11 -25 -5 0 -6 7 -3 16 3
9 6 20 6 25 0 5 2 9 5 9 3 0 4 -11 3 -25z m920 -60 c-3 -3 -20 13 -38 37 l-33
43 38 -37 c22 -21 36 -40 33 -43z m109 28 c-3 -10 -5 -2 -5 17 0 19 2 27 5 18
2 -10 2 -26 0 -35z m-287 -7 l-23 -21 19 33 c10 18 20 28 23 21 2 -6 -7 -21
-19 -33z m-183 -8 c-3 -7 -5 -2 -5 12 0 14 2 19 5 13 2 -7 2 -19 0 -25z m-523
-33 c-4 -8 -11 -15 -16 -15 -6 0 -5 6 2 15 7 8 14 15 16 15 2 0 1 -7 -2 -15z
m494 -13 c2 -12 -1 -22 -7 -22 -6 0 -11 10 -12 23 0 12 -3 16 -6 10 -2 -7 -9
-13 -15 -13 -6 0 -5 6 2 15 17 20 34 14 38 -13z m179 6 c-3 -8 -6 -5 -6 6 -1
11 2 17 5 13 3 -3 4 -12 1 -19z m83 -11 c0 -18 -2 -19 -10 -7 -13 20 -13 43 0
35 6 -3 10 -16 10 -28z m-820 13 c0 -4 -12 -7 -26 -7 -14 0 -21 3 -15 7 7 3
18 7 26 7 8 0 15 -4 15 -7z m587 -12 c-3 -8 -6 -5 -6 6 -1 11 2 17 5 13 3 -3
4 -12 1 -19z m283 6 c0 -14 -3 -14 -15 -4 -8 7 -15 14 -15 16 0 2 7 4 15 4 8
0 15 -7 15 -16z m-478 -76 c2 -21 1 -38 -3 -38 -8 0 -17 89 -9 97 5 5 7 -2 12
-59z m-138 44 c3 -5 -8 -6 -25 -4 -16 2 -29 6 -29 8 0 8 49 4 54 -4z m333 -39
c-3 -10 -5 -4 -5 12 0 17 2 24 5 18 2 -7 2 -21 0 -30z m-424 12 c-3 -9 -8 -14
-10 -11 -3 3 -2 9 2 15 9 16 15 13 8 -4z m148 -12 c13 -16 12 -17 -3 -4 -10 7
-18 15 -18 17 0 8 8 3 21 -13z m-306 -33 c-3 -5 -12 -10 -18 -10 -7 0 -6 4 3
10 19 12 23 12 15 0z m115 -5 c0 -8 -2 -15 -4 -15 -2 0 -6 7 -10 15 -3 8 -1
15 4 15 6 0 10 -7 10 -15z m358 -2 c-10 -2 -26 -2 -35 0 -10 3 -2 5 17 5 19 0
27 -2 18 -5z m422 -13 c0 -5 -7 -7 -15 -4 -8 4 -15 8 -15 10 0 2 7 4 15 4 8 0
15 -4 15 -10z m20 -20 c0 -15 -6 -20 -27 -19 -24 2 -25 2 -5 6 12 2 22 11 22
19 0 8 2 14 5 14 3 0 5 -9 5 -20z m-463 4 c-3 -3 -12 -4 -19 -1 -8 3 -5 6 6 6
11 1 17 -2 13 -5z m98 -4 c-3 -5 -12 -10 -18 -10 -7 0 -6 4 3 10 19 12 23 12
15 0z m145 -24 c0 -2 -7 -6 -15 -10 -8 -3 -15 -1 -15 4 0 6 7 10 15 10 8 0 15
-2 15 -4z m77 -32 c-3 -3 -12 -4 -19 -1 -8 3 -5 6 6 6 11 1 17 -2 13 -5z m93
-44 c-14 -10 -27 -17 -29 -14 -6 5 31 33 44 33 6 1 -1 -8 -15 -19z m-443 4
c-3 -3 -12 -4 -19 -1 -8 3 -5 6 6 6 11 1 17 -2 13 -5z m-35 -46 c-7 -7 -12 -8
-12 -2 0 14 12 26 19 19 2 -3 -1 -11 -7 -17z m125 -35 c-3 -10 -5 -2 -5 17 0
19 2 27 5 18 2 -10 2 -26 0 -35z m-127 5 c0 -6 -6 -5 -15 2 -8 7 -15 14 -15
16 0 2 7 1 15 -2 8 -4 15 -11 15 -16z"/>
<path d="M130 2620 c0 -5 5 -10 11 -10 5 0 7 5 4 10 -3 6 -8 10 -11 10 -2 0
-4 -4 -4 -10z"/>
<path d="M2720 4256 c0 -22 3 -27 11 -19 8 8 8 16 0 30 -9 16 -10 14 -11 -11z"/>
<path d="M2757 4213 c-11 -10 -8 -43 3 -43 6 0 10 11 10 25 0 26 -2 29 -13 18z"/>
<path d="M2720 4175 c0 -8 5 -15 10 -15 6 0 10 7 10 15 0 8 -4 15 -10 15 -5 0
-10 -7 -10 -15z"/>
<path d="M2720 4061 c0 -12 5 -21 10 -21 6 0 10 6 10 14 0 8 -4 18 -10 21 -5
3 -10 -3 -10 -14z"/>
<path d="M2752 4055 c0 -16 2 -22 5 -12 2 9 2 23 0 30 -3 6 -5 -1 -5 -18z"/>
<path d="M3390 4050 c0 -5 5 -10 10 -10 6 0 10 5 10 10 0 6 -4 10 -10 10 -5 0
-10 -4 -10 -10z"/>
<path d="M2720 3945 c0 -8 5 -15 10 -15 6 0 10 7 10 15 0 8 -4 15 -10 15 -5 0
-10 -7 -10 -15z"/>
<path d="M1370 3901 c0 -12 39 -25 47 -17 4 3 -1 6 -10 6 -9 0 -17 5 -17 10 0
6 -4 10 -10 10 -5 0 -10 -4 -10 -9z"/>
<path d="M1520 3890 c0 -5 5 -10 11 -10 5 0 7 5 4 10 -3 6 -8 10 -11 10 -2 0
-4 -4 -4 -10z"/>
<path d="M1560 3880 c0 -5 5 -10 11 -10 5 0 7 5 4 10 -3 6 -8 10 -11 10 -2 0
-4 -4 -4 -10z"/>
<path d="M1510 3830 c0 -5 5 -10 10 -10 6 0 10 5 10 10 0 6 -4 10 -10 10 -5 0
-10 -4 -10 -10z"/>
<path d="M1695 3810 c-3 -5 -2 -10 4 -10 5 0 13 5 16 10 3 6 2 10 -4 10 -5 0
-13 -4 -16 -10z"/>
<path d="M2761 3810 c-1 -24 10 -60 20 -60 5 0 9 7 9 15 0 8 -4 15 -9 15 -5 0
-12 10 -14 23 -2 12 -5 15 -6 7z"/>
<path d="M1689 3788 c-4 -12 -5 -48 -1 -48 7 0 31 33 32 43 0 6 -29 11 -31 5z"/>
<path d="M1743 3745 c0 -22 2 -30 4 -17 2 12 2 30 0 40 -3 9 -5 -1 -4 -23z"/>
<path d="M885 3750 c-3 -5 -1 -10 4 -10 6 0 11 5 11 10 0 6 -2 10 -4 10 -3 0
-8 -4 -11 -10z"/>
<path d="M1741 3664 c0 -11 3 -14 6 -6 3 7 2 16 -1 19 -3 4 -6 -2 -5 -13z"/>
<path d="M2780 3620 c0 -22 4 -40 8 -40 4 0 8 18 8 40 0 22 -3 40 -8 40 -4 0
-8 -18 -8 -40z"/>
<path d="M3795 3643 c-59 -11 -104 -27 -99 -34 11 -18 -9 -8 -27 14 l-18 22
-1 -27 c0 -14 5 -28 12 -30 12 -4 69 6 127 24 18 6 36 6 40 2 9 -14 45 -14 53
-1 6 9 11 8 18 -3 6 -11 12 -12 20 -4 18 18 -12 36 -41 26 -16 -6 -31 -5 -44
3 -11 6 -29 10 -40 8z"/>
<path d="M4010 3640 c13 -8 12 -10 -4 -10 -34 0 -8 -12 34 -16 31 -3 40 0 40
12 0 12 -6 15 -24 10 -14 -3 -28 -2 -31 4 -3 5 -12 10 -18 10 -7 0 -6 -4 3
-10z"/>
<path d="M2366 3608 c-11 -18 -56 -80 -101 -138 -152 -195 -212 -275 -222
-295 -17 -32 -45 -153 -40 -172 4 -14 5 -12 6 5 0 13 5 21 10 17 6 -3 9 3 9
12 -3 56 29 115 140 261 181 237 224 299 220 323 -3 18 -5 17 -22 -13z"/>
<path d="M3620 3600 c0 -7 -8 -9 -22 -5 -19 6 -21 5 -11 -6 9 -9 19 -10 35 -2
15 6 18 12 10 17 -7 4 -12 2 -12 -4z"/>
<path d="M3420 3549 c0 -26 3 -29 21 -24 16 6 20 4 13 -6 -4 -8 -16 -20 -25
-27 -15 -11 -17 -25 -12 -120 3 -59 10 -108 14 -110 5 -2 9 -11 9 -20 0 -14
-2 -14 -9 -3 -7 10 -9 7 -8 -12 1 -14 6 -23 11 -19 5 3 7 -5 4 -16 -4 -12 -2
-22 3 -22 5 0 9 7 9 16 0 13 3 14 14 5 10 -8 16 -9 21 -1 3 5 14 10 23 10 14
0 14 -2 3 -9 -8 -5 -11 -16 -8 -25 6 -15 28 -20 75 -16 17 1 22 -4 22 -24 0
-27 14 -35 24 -13 3 6 4 3 3 -8 -2 -16 4 -20 26 -19 17 1 27 -4 27 -12 0 -9
11 -14 29 -14 16 0 32 -6 34 -12 4 -8 8 -4 12 9 9 30 26 19 21 -13 -4 -20 -1
-24 20 -24 17 0 23 4 18 13 -4 7 -3 9 2 4 5 -5 15 -25 21 -45 l12 -37 -5 38
c-3 20 -3 37 0 37 3 0 15 -17 26 -37 18 -33 20 -35 19 -13 -2 43 2 46 14 11 9
-25 18 -35 36 -36 13 -1 30 -10 36 -19 11 -15 19 -15 59 -5 l46 11 0 260 c0
170 -3 257 -10 253 -5 -3 -10 1 -10 9 0 9 5 16 10 16 6 0 10 6 10 14 0 18 -32
25 -95 22 -27 -2 -65 1 -84 5 -20 4 -43 4 -53 -2 -11 -6 -18 -6 -18 0 0 5 -9
7 -20 4 -11 -3 -20 -10 -20 -15 0 -13 -113 -6 -122 7 -5 7 -11 6 -15 -1 -10
-13 -130 -17 -138 -4 -3 5 2 13 12 18 15 9 15 11 -2 28 -13 13 -20 15 -23 6
-2 -6 -20 -12 -39 -12 -27 0 -34 3 -29 15 3 8 1 15 -4 15 -6 0 -10 -14 -10
-31z m145 -369 c3 -6 -1 -7 -9 -4 -18 7 -21 14 -7 14 6 0 13 -4 16 -10z"/>
<path d="M1003 3556 c4 -10 7 -21 7 -26 0 -4 15 -8 34 -7 27 1 32 4 28 19 -2
10 -12 18 -22 18 -10 0 -26 3 -36 7 -14 5 -16 3 -11 -11z m44 -12 c-3 -3 -12
-4 -19 -1 -8 3 -5 6 6 6 11 1 17 -2 13 -5z"/>
<path d="M1082 3561 c2 -7 7 -12 11 -12 12 1 9 15 -3 20 -7 2 -11 -2 -8 -8z"/>
<path d="M2784 3550 c0 -11 4 -20 8 -20 4 0 8 9 8 20 0 11 -4 20 -8 20 -4 0
-8 -9 -8 -20z"/>
<path d="M1365 3540 c-18 -8 -17 -9 8 -9 16 -1 26 3 22 9 -3 6 -7 10 -8 9 -1
0 -11 -4 -22 -9z"/>
<path d="M1810 3534 c0 -14 3 -14 15 -4 8 7 15 14 15 16 0 2 -7 4 -15 4 -8 0
-15 -7 -15 -16z"/>
<path d="M970 3510 c-25 -8 -18 -11 32 -14 21 -2 25 1 16 11 -12 14 -12 14
-48 3z"/>
<path d="M2780 3505 c0 -8 4 -15 8 -15 5 0 9 7 9 15 0 8 -4 15 -9 15 -4 0 -8
-7 -8 -15z"/>
<path d="M1098 3503 c7 -3 16 -2 19 1 4 3 -2 6 -13 5 -11 0 -14 -3 -6 -6z"/>
<path d="M3400 3500 c0 -5 5 -10 10 -10 6 0 10 5 10 10 0 6 -4 10 -10 10 -5 0
-10 -4 -10 -10z"/>
<path d="M957 3479 c7 -7 15 -10 18 -7 3 3 -2 9 -12 12 -14 6 -15 5 -6 -5z"/>
<path d="M1424 3455 c1 -22 18 -24 24 -3 3 10 1 9 -6 -1 -8 -12 -11 -11 -15 5
-4 17 -4 17 -3 -1z"/>
<path d="M1478 3446 c9 -19 20 -32 25 -29 5 3 3 9 -4 14 -7 4 -10 11 -7 15 4
3 1 13 -7 20 -22 22 -24 17 -7 -20z"/>
<path d="M1055 3449 c-12 -18 3 -22 20 -5 14 14 14 16 1 16 -8 0 -18 -5 -21
-11z"/>
<path d="M1106 3449 c3 -6 1 -15 -6 -19 -9 -5 -8 -8 2 -12 9 -4 14 2 16 18 1
13 -3 24 -9 24 -5 0 -7 -5 -3 -11z"/>
<path d="M1525 3450 c3 -5 13 -10 21 -10 8 0 14 5 14 10 0 6 -9 10 -21 10 -11
0 -17 -4 -14 -10z"/>
<path d="M975 3440 c3 -5 8 -10 11 -10 2 0 4 5 4 10 0 6 -5 10 -11 10 -5 0 -7
-4 -4 -10z"/>
<path d="M2782 3399 c-1 -31 2 -48 8 -44 11 7 11 95 1 95 -4 0 -7 -23 -9 -51z"/>
<path d="M1584 3415 c1 -13 5 -27 8 -30 4 -4 4 -14 2 -23 -3 -10 2 -6 10 8
l15 25 1 -27 c0 -16 5 -28 10 -28 6 0 10 5 10 10 0 6 4 10 10 10 5 0 7 -8 3
-17 -5 -15 -3 -14 10 2 16 20 16 20 17 -4 0 -24 0 -24 15 -5 13 17 14 16 10
-23 -2 -24 0 -43 5 -43 5 0 16 -3 25 -6 16 -6 16 -5 1 24 -19 38 -20 52 -3 52
23 0 17 59 -6 66 -11 4 -23 1 -28 -7 -7 -11 -9 -10 -9 4 0 10 -4 15 -10 12 -5
-3 -10 -1 -10 4 0 15 -27 14 -34 -1 -3 -9 -8 -8 -16 5 -16 25 -37 21 -36 -8z"/>
<path d="M967 3419 c7 -7 15 -10 18 -7 3 3 -2 9 -12 12 -14 6 -15 5 -6 -5z"/>
<path d="M1524 3418 c-4 -7 -3 -8 5 -4 6 4 14 0 17 -8 6 -16 24 -12 24 5 0 6
-4 7 -10 4 -5 -3 -10 -1 -10 4 0 15 -17 14 -26 -1z"/>
<path d="M1300 3404 c8 -10 15 -20 16 -22 1 -2 4 1 7 5 3 5 -4 15 -16 23 -21
12 -21 12 -7 -6z"/>
<path d="M946 3394 c-4 -9 -4 -19 -1 -22 2 -3 7 3 11 12 4 9 4 19 1 22 -2 3
-7 -3 -11 -12z"/>
<path d="M1042 3382 c1 -15 -8 -49 -20 -75 l-21 -47 24 0 c14 0 25 7 28 18 4
14 5 15 6 1 0 -9 10 -19 22 -22 19 -5 19 -4 -4 26 -61 82 -44 76 22 -7 53 -66
69 -73 166 -76 13 -1 16 -3 8 -8 -7 -5 -12 -28 -11 -55 0 -45 2 -47 29 -47 30
0 29 -2 33 75 1 39 11 45 74 45 28 0 52 5 52 10 0 6 -4 10 -10 10 -5 0 -10 7
-10 16 0 9 -9 18 -20 21 -11 3 -23 17 -26 32 -11 52 -12 53 -35 41 -11 -7 -32
-9 -46 -5 -23 5 -25 4 -19 -19 3 -13 9 -31 12 -40 4 -10 -2 -17 -20 -22 -17
-4 -26 -13 -27 -28 0 -11 -3 -16 -5 -9 -3 7 -13 10 -22 7 -14 -5 -14 -3 1 10
15 12 18 23 12 53 -5 34 -11 40 -45 51 -52 16 -110 16 -110 0 0 -7 -5 -5 -11
5 -6 11 -9 30 -6 43 3 15 0 24 -9 24 -7 0 -12 -11 -12 -28z m268 -202 c0 -11
-2 -20 -4 -20 -2 0 -6 9 -9 20 -3 11 -1 20 4 20 5 0 9 -9 9 -20z"/>
<path d="M1000 3390 c0 -5 5 -10 11 -10 5 0 7 5 4 10 -3 6 -8 10 -11 10 -2 0
-4 -4 -4 -10z"/>
<path d="M1074 3378 c-3 -11 -3 -22 0 -25 3 -4 6 1 6 10 0 19 44 24 55 7 9
-14 27 -12 23 2 -3 7 -21 16 -41 19 -30 5 -38 2 -43 -13z"/>
<path d="M1760 3390 c0 -15 21 -23 32 -12 6 6 2 11 -11 15 -12 3 -21 1 -21 -3z"/>
<path d="M1237 3373 c-13 -12 -7 -25 7 -14 7 6 28 9 47 6 29 -4 30 -3 9 4 -32
11 -55 13 -63 4z"/>
<path d="M1098 3363 c7 -3 16 -2 19 1 4 3 -2 6 -13 5 -11 0 -14 -3 -6 -6z"/>
<path d="M1195 3360 c-19 -8 -19 -9 3 -9 12 -1 22 4 22 9 0 6 -1 10 -2 9 -2 0
-12 -4 -23 -9z"/>
<path d="M2780 3330 c0 -5 5 -10 10 -10 6 0 10 5 10 10 0 6 -4 10 -10 10 -5 0
-10 -4 -10 -10z"/>
<path d="M1437 3310 c3 -11 9 -17 14 -15 10 7 1 35 -11 35 -5 0 -6 -9 -3 -20z"/>
<path d="M2923 3323 c-7 -2 -13 -13 -13 -22 0 -14 6 -17 25 -13 16 3 25 11 25
23 0 19 -12 23 -37 12z"/>
<path d="M1648 3298 c2 -10 6 -18 7 -18 1 0 5 8 7 18 3 11 0 19 -7 19 -7 0
-10 -8 -7 -19z"/>
<path d="M1490 3300 c0 -5 5 -10 11 -10 5 0 7 5 4 10 -3 6 -8 10 -11 10 -2 0
-4 -4 -4 -10z"/>
<path d="M1807 3286 c4 -21 2 -24 -16 -19 -12 3 -21 1 -21 -5 0 -14 34 -25 38
-13 2 6 11 11 20 12 11 0 12 2 5 6 -7 2 -13 13 -13 24 0 10 -4 19 -9 19 -4 0
-6 -11 -4 -24z"/>
<path d="M2785 3300 c3 -5 8 -10 11 -10 2 0 4 5 4 10 0 6 -5 10 -11 10 -5 0
-7 -4 -4 -10z"/>
<path d="M1670 3290 c0 -5 5 -10 11 -10 5 0 7 5 4 10 -3 6 -8 10 -11 10 -2 0
-4 -4 -4 -10z"/>
<path d="M1475 3270 c3 -5 8 -10 11 -10 2 0 4 5 4 10 0 6 -5 10 -11 10 -5 0
-7 -4 -4 -10z"/>
<path d="M2549 3272 c-11 -5 -14 -13 -9 -26 6 -19 7 -19 12 2 6 20 13 22 72
22 55 0 67 -3 76 -20 13 -25 42 -28 33 -3 -5 12 -3 14 8 8 12 -7 12 -6 1 6
-14 15 -165 24 -193 11z"/>
<path d="M928 3263 c7 -3 16 -2 19 1 4 3 -2 6 -13 5 -11 0 -14 -3 -6 -6z"/>
<path d="M1535 3250 c4 -13 2 -20 -7 -20 -9 0 -9 -3 -2 -8 6 -4 14 -14 17 -22
4 -12 6 -11 6 3 1 9 5 17 11 17 6 0 5 10 -2 25 -13 30 -32 34 -23 5z"/>
<path d="M2450 3260 c-19 -4 -27 -8 -17 -9 9 0 17 -3 17 -6 0 -2 -34 -56 -75
-119 -79 -120 -106 -140 -140 -107 -15 15 -16 15 -10 0 5 -15 -7 -18 -87 -25
-51 -5 -99 -8 -107 -9 -8 0 -16 -6 -19 -13 -3 -11 17 -12 106 -6 l109 7 5 -33
c3 -21 0 -34 -9 -37 -7 -3 -58 -1 -113 4 -74 6 -100 6 -100 -3 0 -7 36 -14
101 -19 88 -6 100 -9 94 -23 -13 -31 -22 -135 -15 -166 6 -29 7 -27 12 19 4
28 7 63 7 78 1 19 48 100 138 238 76 115 141 209 146 209 4 0 8 -26 9 -57 0
-32 2 -62 3 -68 2 -5 3 -14 4 -20 1 -5 5 -3 10 5 6 8 7 19 3 25 -4 5 -8 35 -9
65 -1 30 -2 61 -2 68 -1 13 -8 13 -61 2z m-190 -310 c-6 -11 -12 -20 -14 -20
-2 0 -2 9 1 20 3 11 9 20 15 20 5 0 4 -9 -2 -20z"/>
<path d="M1440 3252 c0 -5 11 -12 25 -14 14 -3 25 -1 25 3 0 5 -4 9 -9 9 -5 0
-16 3 -25 6 -9 3 -16 2 -16 -4z"/>
<path d="M1586 3245 c4 -8 8 -15 10 -15 2 0 4 7 4 15 0 8 -4 15 -10 15 -5 0
-7 -7 -4 -15z"/>
<path d="M1680 3247 c0 -5 -15 -7 -32 -5 -32 3 -33 3 -31 -35 1 -47 10 -59 11
-16 0 17 3 34 7 37 3 3 4 -11 3 -31 -2 -20 -7 -36 -12 -36 -5 0 -13 -5 -18
-13 -8 -10 -9 -10 -5 2 3 9 -3 25 -12 36 -13 16 -19 18 -28 9 -7 -7 -9 -17 -5
-21 4 -5 -1 -2 -10 5 -10 7 -26 10 -38 6 -17 -6 -20 -13 -18 -51 2 -24 8 -44
13 -44 6 0 4 -4 -4 -9 -16 -11 -6 -31 16 -31 12 0 14 7 10 30 -6 30 0 60 12
60 3 0 4 -22 3 -49 -3 -43 -1 -49 20 -54 35 -10 38 -9 38 17 0 13 7 27 16 30
21 8 24 8 24 -4 0 -5 -7 -10 -16 -10 -12 0 -14 -3 -6 -13 6 -7 9 -25 8 -40 -3
-23 0 -27 23 -26 18 1 21 3 8 6 -18 5 -18 6 2 19 12 9 21 24 21 34 0 10 6 21
13 24 8 4 7 5 -3 5 -37 -3 -42 1 -26 16 8 8 28 15 44 15 16 0 35 7 42 15 10
12 9 15 -5 15 -14 0 -15 3 -5 15 10 12 9 15 -6 16 -21 1 -14 4 30 14 23 5 26
9 16 15 -20 12 -6 23 19 15 12 -3 21 -13 21 -21 0 -8 4 -14 10 -14 6 0 6 8 -1
23 -9 20 -21 25 -66 29 -7 1 -13 5 -13 9 0 4 -16 9 -35 11 -19 2 -35 0 -35 -5z
m-73 -139 c-3 -8 -6 -5 -6 6 -1 11 2 17 5 13 3 -3 4 -12 1 -19z"/>
<path d="M2325 3248 c-27 -15 -35 -28 -35 -61 0 -40 19 -74 31 -56 5 8 9 27 9
42 0 16 3 26 8 24 4 -2 17 7 29 20 21 22 21 23 3 33 -22 12 -20 12 -45 -2z
m-5 -68 c0 -5 -4 -10 -10 -10 -5 0 -10 5 -10 10 0 6 5 10 10 10 6 0 10 -4 10
-10z"/>
<path d="M930 3240 c0 -4 7 -15 15 -26 14 -19 14 -19 16 1 1 17 2 16 9 -5 8
-24 8 -23 9 7 1 29 -2 33 -24 31 -14 -1 -25 -5 -25 -8z"/>
<path d="M1030 3246 c0 -2 18 -15 40 -30 l40 -26 0 25 c0 14 -6 25 -12 26 -7
0 -25 2 -40 4 -16 2 -28 2 -28 1z"/>
<path d="M2780 3232 c0 -25 16 -37 23 -18 3 8 -1 20 -9 26 -11 10 -14 9 -14
-8z"/>
<path d="M996 3178 c-3 -35 -7 -90 -10 -122 l-5 -59 25 37 c14 20 27 36 30 36
3 0 2 -4 -1 -10 -3 -5 -2 -10 3 -10 5 0 9 37 8 81 -1 72 -4 83 -23 96 -21 14
-21 13 -27 -49z"/>
<path d="M3056 3225 c-15 -11 -13 -13 14 -11 16 0 30 5 30 10 0 4 7 3 15 -4
10 -9 15 -9 15 -1 0 6 -3 12 -7 12 -35 6 -52 4 -67 -6z"/>
<path d="M2920 3220 c0 -6 5 -8 10 -5 6 3 10 2 10 -4 0 -5 -5 -12 -10 -14 -6
-3 -5 -4 2 -3 17 3 17 28 1 34 -7 2 -13 -1 -13 -8z"/>
<path d="M3015 3221 c-3 -5 -2 -12 3 -15 5 -3 9 1 9 9 0 17 -3 19 -12 6z"/>
<path d="M2966 3205 c3 -8 12 -11 20 -8 20 7 17 18 -5 20 -13 1 -18 -3 -15
-12z"/>
<path d="M916 3195 c-3 -9 0 -15 9 -15 9 0 12 6 9 15 -4 8 -7 15 -9 15 -2 0
-5 -7 -9 -15z"/>
<path d="M1062 3159 l1 -42 19 23 c23 28 23 37 -2 50 -18 10 -20 8 -18 -31z"/>
<path d="M1128 3189 c-6 -4 12 -7 41 -7 31 -1 49 3 45 9 -6 10 -68 9 -86 -2z"/>
<path d="M1342 3160 c0 -19 2 -27 5 -17 2 9 2 25 0 35 -3 9 -5 1 -5 -18z"/>
<path d="M3283 3179 c14 -8 22 -8 30 0 8 8 3 11 -18 11 -26 -1 -28 -2 -12 -11z"/>
<path d="M1370 3165 c0 -8 2 -15 4 -15 2 0 6 7 10 15 3 8 1 15 -4 15 -6 0 -10
-7 -10 -15z"/>
<path d="M912 3134 c-2 -39 6 -42 13 -5 2 11 7 26 10 31 3 6 0 10 -8 10 -9 0
-14 -13 -15 -36z"/>
<path d="M1147 3154 c6 -17 44 -15 51 4 2 8 -7 12 -27 12 -23 0 -29 -4 -24
-16z"/>
<path d="M1210 3162 c0 -5 7 -15 15 -22 8 -7 15 -8 15 -2 0 5 -7 15 -15 22 -8
7 -15 8 -15 2z"/>
<path d="M947 3153 c-12 -11 -8 -30 7 -30 8 0 11 8 8 19 -5 20 -6 21 -15 11z"/>
<path d="M1420 3150 c0 -5 5 -10 10 -10 6 0 10 5 10 10 0 6 -4 10 -10 10 -5 0
-10 -4 -10 -10z"/>
<path d="M1455 3151 c-3 -5 -1 -12 5 -16 5 -3 10 1 10 9 0 18 -6 21 -15 7z"/>
<path d="M3050 3151 c0 -5 9 -7 20 -4 11 3 20 7 20 9 0 2 -9 4 -20 4 -11 0
-20 -4 -20 -9z"/>
<path d="M3470 3150 c0 -5 5 -10 11 -10 5 0 7 5 4 10 -3 6 -8 10 -11 10 -2 0
-4 -4 -4 -10z"/>
<path d="M2988 3143 c7 -3 16 -2 19 1 4 3 -2 6 -13 5 -11 0 -14 -3 -6 -6z"/>
<path d="M1396 3132 c-4 -7 -11 -10 -15 -7 -4 2 -8 -8 -7 -23 1 -19 7 -27 21
-29 l20 -3 -20 9 c-16 8 -17 10 -3 10 22 1 27 11 18 35 -4 14 -9 16 -14 8z"/>
<path d="M2897 3133 c-12 -11 -8 -23 8 -23 8 0 15 4 15 9 0 5 10 12 23 14 17
3 15 5 -9 6 -17 0 -34 -2 -37 -6z"/>
<path d="M3555 3130 c-3 -5 1 -10 9 -10 9 0 16 5 16 10 0 6 -4 10 -9 10 -6 0
-13 -4 -16 -10z"/>
<path d="M1420 3120 c0 -5 7 -10 16 -10 8 0 12 5 9 10 -3 6 -10 10 -16 10 -5
0 -9 -4 -9 -10z"/>
<path d="M927 3096 c-3 -7 3 -26 14 -42 16 -25 19 -26 20 -9 0 11 2 30 5 43 3
16 -1 22 -15 22 -10 0 -21 -6 -24 -14z"/>
<path d="M3420 3100 c0 -5 5 -10 11 -10 5 0 7 5 4 10 -3 6 -8 10 -11 10 -2 0
-4 -4 -4 -10z"/>
<path d="M903 3028 c-2 -50 3 -71 25 -112 l27 -50 3 49 c2 29 -1 51 -8 55 -9
5 -9 9 -1 14 7 5 5 19 -9 44 -33 64 -36 64 -37 0z"/>
<path d="M1324 3065 c4 -10 -1 -15 -14 -15 -22 0 -27 -16 -7 -23 9 -4 8 -8 -3
-16 -13 -9 -12 -11 5 -11 14 0 16 -3 7 -8 -7 -5 -15 -19 -17 -33 -6 -32 5 -90
16 -83 5 3 7 10 4 15 -4 5 -1 9 4 9 15 0 14 -5 -14 -46 -25 -37 -35 -91 -14
-79 6 4 8 9 5 12 -3 3 4 14 14 26 23 24 40 15 22 -13 -7 -11 -12 -23 -12 -27
0 -5 5 -1 10 7 8 13 10 13 10 -2 0 -9 -4 -19 -9 -22 -4 -3 -7 -17 -6 -31 3
-22 1 -23 -16 -15 -11 6 -19 7 -19 2 0 -6 9 -12 20 -15 13 -3 20 -14 20 -30 0
-14 4 -28 9 -31 4 -3 8 9 8 27 0 17 4 119 8 225 l8 192 -22 0 c-17 0 -21 -4
-17 -15z m16 -40 c0 -8 -4 -15 -10 -15 -5 0 -10 7 -10 15 0 8 5 15 10 15 6 0
10 -7 10 -15z"/>
<path d="M1428 3073 c7 -3 16 -2 19 1 4 3 -2 6 -13 5 -11 0 -14 -3 -6 -6z"/>
<path d="M1380 3049 c0 -5 5 -7 10 -4 6 3 10 8 10 11 0 2 -4 4 -10 4 -5 0 -10
-5 -10 -11z"/>
<path d="M1691 3045 c-1 -25 15 -52 26 -42 4 5 2 12 -6 16 -7 5 -12 11 -11 15
1 4 -1 12 -3 19 -3 6 -6 3 -6 -8z"/>
<path d="M3650 3050 c0 -5 5 -10 11 -10 5 0 7 5 4 10 -3 6 -8 10 -11 10 -2 0
-4 -4 -4 -10z"/>
<path d="M2158 3043 c7 -3 16 -2 19 1 4 3 -2 6 -13 5 -11 0 -14 -3 -6 -6z"/>
<path d="M2070 3030 c0 -5 4 -10 9 -10 6 0 13 5 16 10 3 6 -1 10 -9 10 -9 0
-16 -4 -16 -10z"/>
<path d="M2503 2978 c0 -46 -6 -73 -21 -101 -25 -43 -27 -51 -9 -42 6 4 5 0
-3 -7 -8 -7 -21 -24 -28 -36 -12 -22 -12 -23 8 -12 24 13 138 21 118 9 -10 -7
-9 -9 3 -9 11 0 18 12 23 40 7 47 26 54 26 9 0 -42 16 -70 37 -62 13 5 15 1
11 -20 -3 -15 -1 -27 3 -27 5 0 9 7 9 16 0 15 2 15 23 2 29 -20 77 -31 77 -19
0 5 -5 13 -11 17 -7 4 -8 9 -1 13 6 3 8 18 5 34 -5 23 -10 27 -39 27 -18 0
-35 4 -38 9 -3 5 0 9 7 8 6 0 23 1 37 2 22 1 23 3 7 12 -9 6 -26 7 -37 4 -24
-8 -27 13 -3 22 15 6 15 7 -3 14 -18 7 -18 8 1 8 17 1 17 3 5 11 -22 14 -30
12 -30 -7 0 -13 -3 -14 -12 -5 -9 9 -8 15 7 26 11 8 25 12 32 9 7 -3 13 0 13
7 0 8 -20 10 -64 8 -36 -1 -63 -5 -61 -8 2 -3 -12 -7 -31 -7 -35 -1 -38 4 -34
55 1 12 -4 22 -10 22 -7 0 -9 8 -5 20 3 11 2 20 -2 20 -5 0 -9 -28 -10 -62z
m127 -79 c0 -5 -9 -9 -20 -9 -19 0 -26 11 -14 23 8 8 34 -3 34 -14z m-97 -66
c-7 -2 -19 -2 -25 0 -7 3 -2 5 12 5 14 0 19 -2 13 -5z m10 -20 c-7 -2 -21 -2
-30 0 -10 3 -4 5 12 5 17 0 24 -2 18 -5z"/>
<path d="M1392 3005 c-15 -33 -15 -35 3 -35 10 0 15 10 15 30 0 37 -3 37 -18
5z"/>
<path d="M1431 2994 c0 -11 3 -14 6 -6 3 7 2 16 -1 19 -3 4 -6 -2 -5 -13z"/>
<path d="M3805 2990 c3 -5 8 -10 11 -10 2 0 4 5 4 10 0 6 -5 10 -11 10 -5 0
-7 -4 -4 -10z"/>
<path d="M1515 2982 c14 -15 75 -25 75 -12 0 5 -8 10 -17 10 -10 0 -29 3 -43
6 -18 5 -22 4 -15 -4z"/>
<path d="M1442 2957 c-6 -7 -11 -58 -11 -114 0 -96 1 -101 22 -107 47 -12 52
-8 54 42 2 43 -1 52 -32 82 -19 19 -35 39 -35 44 0 8 3 8 8 0 4 -6 15 -13 25
-17 10 -4 16 -11 13 -16 -3 -5 1 -14 9 -21 13 -11 15 -10 12 6 -1 11 -6 25
-10 32 -5 6 -4 12 2 12 5 0 8 8 6 18 -2 9 -4 23 -4 31 -1 7 -7 11 -16 7 -8 -3
-15 -1 -15 4 0 14 -16 12 -28 -3z m55 -173 c-3 -4 -15 4 -26 17 -20 24 -20 24
-14 2 3 -13 1 -23 -4 -23 -5 0 -10 17 -11 37 l-2 37 32 -32 c18 -17 29 -34 25
-38z m-8 -13 c15 -10 7 -31 -12 -31 -7 0 -19 5 -27 10 -13 9 -13 11 0 20 18
12 21 12 39 1z"/>
<path d="M1600 2959 c0 -10 50 -18 56 -8 3 5 2 9 -3 10 -4 0 -18 2 -30 3 -13
2 -23 -1 -23 -5z"/>
<path d="M2780 2960 c0 -5 5 -10 11 -10 5 0 7 5 4 10 -3 6 -8 10 -11 10 -2 0
-4 -4 -4 -10z"/>
<path d="M2330 2860 c-125 -118 -113 -134 15 -20 90 80 90 80 96 52 6 -25 7
-25 8 8 2 68 -10 64 -119 -40z m50 26 c0 -2 -8 -10 -17 -17 -16 -13 -17 -12
-4 4 13 16 21 21 21 13z m-40 -40 c0 -2 -8 -10 -17 -17 -16 -13 -17 -12 -4 4
13 16 21 21 21 13z"/>
<path d="M3205 2950 c-19 -5 13 -8 85 -8 72 0 104 3 85 8 -16 4 -55 8 -85 8
-30 0 -68 -4 -85 -8z"/>
<path d="M890 2900 c0 -49 1 -50 30 -50 l30 0 -25 50 c-14 28 -28 50 -30 50
-3 0 -5 -22 -5 -50z"/>
<path d="M1391 2928 c17 -34 19 -34 19 -5 0 18 -5 27 -15 27 -13 0 -14 -4 -4
-22z"/>
<path d="M10 2930 c0 -5 4 -10 9 -10 6 0 13 5 16 10 3 6 -1 10 -9 10 -9 0 -16
-4 -16 -10z"/>
<path d="M1550 2918 c0 -11 52 -9 70 2 11 7 3 9 -27 8 -24 -2 -43 -6 -43 -10z"/>
<path d="M10 2901 c0 -6 5 -13 10 -16 6 -3 10 1 10 9 0 9 -4 16 -10 16 -5 0
-10 -4 -10 -9z"/>
<path d="M1626 2901 c-19 -7 -18 -8 4 -14 13 -3 26 -4 29 -2 2 3 -2 5 -10 5
-11 0 -11 2 1 10 18 11 3 12 -24 1z"/>
<path d="M1279 2868 c-3 -22 -1 -34 4 -29 5 5 7 21 5 37 -3 27 -4 26 -9 -8z"/>
<path d="M1380 2886 c0 -9 5 -16 10 -16 6 0 10 4 10 9 0 6 -4 13 -10 16 -5 3
-10 -1 -10 -9z"/>
<path d="M1575 2878 c12 -39 25 -44 25 -10 0 22 -5 32 -16 32 -11 0 -14 -6 -9
-22z"/>
<path d="M1700 2786 c0 -82 -4 -116 -12 -119 -8 -3 -6 -6 5 -6 15 -1 17 11 17
119 0 66 -2 120 -5 120 -3 0 -5 -51 -5 -114z"/>
<path d="M1530 2858 c0 -23 3 -29 9 -19 8 12 4 51 -5 51 -2 0 -4 -15 -4 -32z"/>
<path d="M3220 2880 c-23 -5 2 -7 75 -8 69 0 101 3 85 8 -31 10 -113 10 -160
0z"/>
<path d="M15 2860 c-3 -5 1 -10 10 -10 9 0 13 5 10 10 -3 6 -8 10 -10 10 -2 0
-7 -4 -10 -10z"/>
<path d="M1380 2835 c0 -8 2 -15 4 -15 2 0 6 7 10 15 3 8 1 15 -4 15 -6 0 -10
-7 -10 -15z"/>
<path d="M1540 2816 c-11 -18 -11 -19 1 -9 12 10 17 8 28 -9 7 -11 14 -29 17
-41 3 -18 0 -17 -26 8 -28 27 -30 28 -30 7 0 -11 5 -24 11 -28 8 -4 7 -9 -2
-16 -11 -8 -10 -9 3 -5 9 3 22 -1 28 -9 7 -8 20 -14 29 -14 14 1 14 2 -2 14
-12 9 -14 16 -8 21 17 10 13 31 -12 68 -23 34 -24 34 -37 13z"/>
<path d="M1397 2813 c-11 -10 -8 -43 3 -43 6 0 10 11 10 25 0 26 -2 29 -13 18z"/>
<path d="M3225 2814 c70 -8 175 -8 175 -1 0 4 -46 6 -102 5 -57 0 -89 -3 -73
-4z"/>
<path d="M1630 2771 c0 -6 4 -13 10 -16 6 -3 7 1 4 9 -7 18 -14 21 -14 7z"/>
<path d="M2472 2762 c-18 -12 29 -32 74 -32 28 0 35 4 32 18 -2 13 -15 18 -48
20 -25 1 -51 -2 -58 -6z"/>
<path d="M1390 2750 c0 -5 5 -10 11 -10 5 0 7 5 4 10 -3 6 -8 10 -11 10 -2 0
-4 -4 -4 -10z"/>
<path d="M1290 2740 c0 -5 5 -10 10 -10 6 0 10 5 10 10 0 6 -4 10 -10 10 -5 0
-10 -4 -10 -10z"/>
<path d="M3235 2740 c-28 -5 -8 -7 65 -7 83 0 96 1 60 8 -52 9 -71 9 -125 -1z"/>
<path d="M2458 2723 c7 -3 16 -2 19 1 4 3 -2 6 -13 5 -11 0 -14 -3 -6 -6z"/>
<path d="M1446 2708 c3 -4 9 -8 15 -8 5 0 9 4 9 8 0 5 -7 9 -15 9 -8 0 -12 -4
-9 -9z"/>
<path d="M2495 2710 c3 -5 12 -7 20 -3 21 7 19 13 -6 13 -11 0 -18 -4 -14 -10z"/>
<path d="M2578 2713 c6 -2 18 -2 25 0 6 3 1 5 -13 5 -14 0 -19 -2 -12 -5z"/>
<path d="M1380 2693 c0 -12 5 -25 10 -28 13 -8 13 15 0 35 -8 12 -10 11 -10
-7z"/>
<path d="M1490 2700 c0 -5 5 -10 10 -10 6 0 10 5 10 10 0 6 -4 10 -10 10 -5 0
-10 -4 -10 -10z"/>
<path d="M1620 2670 c0 -5 5 -10 10 -10 6 0 10 5 10 10 0 6 -4 10 -10 10 -5 0
-10 -4 -10 -10z"/>
<path d="M3295 2670 c17 -4 48 -8 70 -8 38 0 38 1 10 8 -16 4 -48 8 -70 8 -38
0 -38 -1 -10 -8z"/>
<path d="M1500 2660 c19 -13 30 -13 30 0 0 6 -10 10 -22 10 -19 0 -20 -2 -8
-10z"/>
<path d="M3213 2663 c9 -2 25 -2 35 0 9 3 1 5 -18 5 -19 0 -27 -2 -17 -5z"/>
<path d="M1580 2650 c0 -5 5 -10 11 -10 5 0 7 5 4 10 -3 6 -8 10 -11 10 -2 0
-4 -4 -4 -10z"/>
<path d="M1260 2640 c0 -5 15 -10 33 -10 24 0 28 3 17 10 -20 13 -50 13 -50 0z"/>
<path d="M1650 2630 c0 -5 5 -10 11 -10 5 0 7 5 4 10 -3 6 -8 10 -11 10 -2 0
-4 -4 -4 -10z"/>
<path d="M3228 2623 c18 -2 45 -2 60 0 15 2 0 4 -33 4 -33 0 -45 -2 -27 -4z"/>
<path d="M3353 2623 c9 -2 25 -2 35 0 9 3 1 5 -18 5 -19 0 -27 -2 -17 -5z"/>
<path d="M1392 2593 c-8 -15 -9 -24 -1 -28 15 -10 21 0 17 27 l-3 23 -13 -22z"/>
<path d="M1302 2581 c-14 -15 -14 -16 2 -19 17 -4 46 14 46 28 0 13 -32 7 -48
-9z"/>
<path d="M1578 2573 c6 -2 18 -2 25 0 6 3 1 5 -13 5 -14 0 -19 -2 -12 -5z"/>
<path d="M1323 2553 c-25 -5 -29 -19 -24 -80 4 -50 15 -55 35 -15 10 20 22
109 13 101 -1 -1 -12 -4 -24 -6z m4 -65 c-3 -8 -6 -5 -6 6 -1 11 2 17 5 13 3
-3 4 -12 1 -19z"/>
<path d="M1436 2545 c-3 -9 -6 -24 -6 -33 0 -14 1 -14 13 0 16 20 55 29 61 14
3 -6 5 -2 3 9 -3 26 -61 34 -71 10z"/>
<path d="M1540 2550 c0 -7 23 -8 65 -4 l65 7 0 -77 c0 -74 -1 -76 -25 -76 -14
0 -25 -4 -25 -9 0 -4 11 -6 25 -3 18 3 25 0 25 -11 0 -8 3 -22 6 -31 4 -11 1
-16 -10 -16 -13 0 -14 -4 -4 -25 23 -50 29 -22 26 115 l-3 140 -72 0 c-44 0
-73 -4 -73 -10z"/>
<path d="M1387 2543 c-3 -5 1 -19 9 -33 l13 -25 1 27 c0 27 -14 45 -23 31z"/>
<path d="M1380 2481 c0 -5 5 -13 10 -16 6 -3 10 -2 10 4 0 5 -4 13 -10 16 -5
3 -10 2 -10 -4z"/>
<path d="M1430 2412 c0 -48 4 -82 10 -82 6 0 9 3 9 8 -1 4 -1 31 0 60 l1 52
30 -32 c16 -18 29 -28 29 -23 0 6 -17 30 -39 55 l-40 44 0 -82z"/>
<path d="M27 2447 c-29 -12 -37 -37 -12 -37 8 0 24 9 34 19 11 11 27 21 38 24
12 3 11 5 -7 5 -14 0 -37 -5 -53 -11z"/>
<path d="M795 2450 c3 -5 12 -7 20 -3 21 7 19 13 -6 13 -11 0 -18 -4 -14 -10z"/>
<path d="M751 2434 c0 -11 3 -14 6 -6 3 7 2 16 -1 19 -3 4 -6 -2 -5 -13z"/>
<path d="M1380 2440 c0 -5 5 -10 10 -10 6 0 10 5 10 10 0 6 -4 10 -10 10 -5 0
-10 -4 -10 -10z"/>
<path d="M1078 2398 c-2 -13 -8 -23 -15 -23 -6 0 -15 -3 -19 -7 -4 -5 5 -8 19
-8 23 0 27 4 27 30 0 35 -7 40 -12 8z"/>
<path d="M1295 2410 c3 -5 8 -10 11 -10 2 0 4 5 4 10 0 6 -5 10 -11 10 -5 0
-7 -4 -4 -10z"/>
<path d="M1396 2392 c-4 -13 -5 -26 -2 -29 10 -11 18 4 14 29 l-4 23 -8 -23z"/>
<path d="M1532 2381 c0 -17 4 -31 10 -31 6 0 8 -9 5 -20 -3 -11 -1 -20 4 -20
13 0 11 44 -3 59 -8 9 -9 12 -1 7 14 -8 45 3 38 15 -3 4 -13 5 -21 2 -9 -3
-19 0 -23 6 -5 7 -8 -1 -9 -18z"/>
<path d="M1185 2390 c3 -5 8 -10 11 -10 2 0 4 5 4 10 0 6 -5 10 -11 10 -5 0
-7 -4 -4 -10z"/>
<path d="M1127 2368 c18 -20 26 -19 18 4 -3 8 -12 15 -20 15 -13 0 -12 -4 2
-19z"/>
<path d="M1185 2360 c3 -5 8 -10 11 -10 2 0 4 5 4 10 0 6 -5 10 -11 10 -5 0
-7 -4 -4 -10z"/>
<path d="M48 2343 c6 -2 18 -2 25 0 6 3 1 5 -13 5 -14 0 -19 -2 -12 -5z"/>
<path d="M138 2343 c12 -2 30 -2 40 0 9 3 -1 5 -23 4 -22 0 -30 -2 -17 -4z"/>
<path d="M1325 2340 c3 -5 1 -10 -5 -10 -6 0 -8 -4 -5 -10 3 -5 -2 -10 -12
-11 -15 0 -14 -2 5 -11 15 -7 22 -20 22 -38 0 -24 -3 -26 -30 -22 -39 6 -51
-21 -22 -47 17 -14 19 -20 9 -30 -9 -9 -9 -14 2 -20 8 -5 12 -18 8 -30 -3 -12
-1 -19 4 -15 5 3 9 0 9 -7 0 -9 3 -9 14 0 8 7 14 25 14 40 -1 15 4 36 11 48
13 26 15 73 2 73 -5 0 -8 23 -6 50 2 39 0 50 -12 50 -8 0 -11 -4 -8 -10z"/>
<path d="M1390 2328 c0 -7 5 -20 10 -28 8 -12 10 -9 10 13 0 15 -4 27 -10 27
-5 0 -10 -6 -10 -12z"/>
<path d="M230 2314 c0 -8 5 -12 10 -9 6 3 10 10 10 16 0 5 -4 9 -10 9 -5 0
-10 -7 -10 -16z"/>
<path d="M1136 2315 c4 -8 16 -15 28 -15 11 0 32 -3 46 -7 24 -6 24 -6 7 11
-12 12 -26 16 -42 12 -14 -4 -25 -2 -25 4 0 5 -4 10 -10 10 -5 0 -7 -7 -4 -15z"/>
<path d="M205 2309 c-4 -6 -5 -12 -2 -15 2 -3 7 2 10 11 7 17 1 20 -8 4z"/>
<path d="M1430 2310 c0 -13 28 -25 38 -16 3 4 0 11 -8 16 -20 13 -30 12 -30 0z"/>
<path d="M1050 2245 c0 -30 4 -55 9 -55 4 0 25 -16 45 -35 43 -40 52 -42 84
-16 17 15 22 30 22 63 0 24 5 49 11 55 9 9 7 12 -7 11 -10 0 -50 7 -87 16 -38
9 -70 16 -73 16 -2 0 -4 -25 -4 -55z"/>
<path d="M1380 2283 c0 -13 5 -23 10 -23 13 0 13 11 0 30 -8 12 -10 11 -10 -7z"/>
<path d="M1551 2284 c0 -11 3 -14 6 -6 3 7 2 16 -1 19 -3 4 -6 -2 -5 -13z"/>
<path d="M1438 2273 c7 -3 16 -2 19 1 4 3 -2 6 -13 5 -11 0 -14 -3 -6 -6z"/>
<path d="M1980 2195 c0 -8 5 -17 10 -20 6 -4 9 -1 8 5 -2 7 5 14 15 15 31 6
29 12 -3 13 -19 0 -30 -4 -30 -13z"/>
<path d="M2068 2203 c7 -3 16 -2 19 1 4 3 -2 6 -13 5 -11 0 -14 -3 -6 -6z"/>
<path d="M1810 2171 c0 -14 6 -17 23 -14 13 3 24 11 24 19 0 8 -10 14 -24 14
-16 0 -23 -6 -23 -19z"/>
<path d="M1870 2174 c0 -11 8 -14 27 -12 39 4 42 28 4 28 -21 0 -31 -5 -31
-16z"/>
<path d="M790 2149 c33 -13 36 -21 32 -69 -5 -51 -17 -43 -13 9 2 39 -13 56
-43 45 -10 -4 -11 -15 -5 -47 4 -23 8 -45 9 -49 0 -5 30 -8 68 -8 l67 0 -25
20 c-14 10 -21 22 -17 26 4 4 7 2 7 -4 0 -7 5 -12 10 -12 6 0 10 9 10 20 0 14
-5 18 -17 14 -17 -5 -17 -5 0 9 9 8 17 24 17 36 0 19 -5 21 -62 20 -52 0 -59
-2 -38 -10z"/>
<path d="M2050 2150 c-13 -8 -12 -10 3 -10 9 0 17 5 17 10 0 12 -1 12 -20 0z"/>
<path d="M1190 2125 c0 -8 4 -15 8 -15 5 0 9 7 9 15 0 8 -4 15 -9 15 -4 0 -8
-7 -8 -15z"/>
<path d="M1823 2134 c-8 -4 -2 -17 17 -38 32 -35 56 -42 64 -19 3 8 10 11 16
8 14 -9 13 8 -2 23 -9 9 -9 12 0 12 7 0 12 5 12 10 0 6 -7 10 -15 10 -8 0 -15
-7 -15 -15 0 -8 -4 -15 -10 -15 -5 0 -9 6 -7 13 2 12 -38 20 -60 11z m77 -45
c0 -11 -27 -12 -34 -1 -2 4 4 9 15 9 10 1 19 -2 19 -8z"/>
<path d="M404 2095 c-9 -14 -13 -32 -9 -45 6 -19 24 -28 26 -12 0 4 2 24 5 45
5 43 0 46 -22 12z"/>
<path d="M1775 2104 c12 -9 19 -24 17 -37 -2 -20 -2 -20 9 -4 8 15 7 23 -7 38
-9 10 -22 19 -28 19 -6 0 -2 -7 9 -16z"/>
<path d="M460 2035 c0 -43 4 -75 10 -75 6 0 10 21 10 47 0 46 0 46 20 28 18
-17 20 -17 14 -2 -4 12 -1 17 12 17 16 0 17 -2 4 -10 -12 -8 -12 -10 -1 -10
19 0 7 -11 -16 -14 -27 -4 -29 -42 -3 -49 12 -3 19 -10 15 -16 -3 -7 0 -8 9
-5 13 5 16 23 16 88 0 49 -4 76 -9 67 -7 -11 -9 -11 -14 0 -5 12 -8 11 -17 -1
-9 -11 -13 -12 -17 -2 -2 6 -11 12 -19 12 -11 0 -14 -17 -14 -75z"/>
<path d="M570 2013 c0 -51 3 -92 8 -92 35 6 65 -34 61 -83 -1 -13 -1 -32 -1
-42 2 -18 3 -18 21 -2 17 16 19 33 20 161 l2 143 -56 4 -55 3 0 -92z m57 27
c-5 -30 -24 -46 -21 -18 1 13 3 26 3 31 1 4 5 7 11 7 5 0 8 -9 7 -20z m30 -42
c-3 -7 -5 -2 -5 12 0 14 2 19 5 13 2 -7 2 -19 0 -25z m-32 -58 c3 -5 -1 -10
-9 -10 -9 0 -16 5 -16 10 0 6 4 10 9 10 6 0 13 -4 16 -10z"/>
<path d="M1640 2099 c0 -5 4 -8 9 -4 5 3 12 -5 14 -17 4 -20 4 -19 6 5 1 18
-4 27 -14 27 -8 0 -15 -5 -15 -11z"/>
<path d="M1742 2069 c0 -24 2 -39 4 -32 3 7 12 9 20 6 20 -7 17 17 -5 46 l-18
23 -1 -43z"/>
<path d="M690 2086 c0 -8 5 -18 10 -21 6 -3 10 3 10 14 0 12 -4 21 -10 21 -5
0 -10 -6 -10 -14z"/>
<path d="M1590 2080 c0 -5 5 -10 11 -10 5 0 7 5 4 10 -3 6 -8 10 -11 10 -2 0
-4 -4 -4 -10z"/>
<path d="M1816 2062 c-3 -4 4 -9 15 -9 23 -2 25 3 4 10 -8 4 -16 3 -19 -1z"/>
<path d="M1810 2030 c-27 -9 -26 -11 8 -15 13 -1 22 3 22 11 0 8 -1 14 -2 13
-2 -1 -14 -5 -28 -9z"/>
<path d="M1900 2030 c18 -12 30 -13 30 -2 0 4 -10 9 -22 9 -18 2 -20 0 -8 -7z"/>
<path d="M1760 2020 c0 -5 5 -10 11 -10 5 0 7 5 4 10 -3 6 -8 10 -11 10 -2 0
-4 -4 -4 -10z"/>
<path d="M1460 2010 c0 -5 5 -10 10 -10 6 0 10 5 10 10 0 6 -4 10 -10 10 -5 0
-10 -4 -10 -10z"/>
<path d="M701 2003 c0 -6 -4 -20 -7 -30 -5 -14 -4 -15 5 -7 7 7 11 20 8 30 -3
11 -5 14 -6 7z"/>
<path d="M752 1973 c-25 -3 -32 -9 -30 -21 4 -20 69 -27 80 -9 12 19 9 37 -4
35 -7 0 -28 -3 -46 -5z"/>
<path d="M848 1932 c-9 -16 -19 -40 -22 -55 -4 -26 -3 -27 34 -27 31 0 39 4
38 18 -1 9 2 34 6 55 6 34 5 37 -16 37 -15 0 -30 -10 -40 -28z m42 -37 c0 -8
-8 -15 -17 -14 -13 0 -14 2 -4 6 11 5 11 7 0 14 -11 7 -10 9 4 9 9 0 17 -7 17
-15z"/>
<path d="M921 1944 c0 -11 3 -14 6 -6 3 7 2 16 -1 19 -3 4 -6 -2 -5 -13z"/>
<path d="M945 1950 c-3 -5 -1 -10 4 -10 6 0 11 5 11 10 0 6 -2 10 -4 10 -3 0
-8 -4 -11 -10z"/>
<path d="M2065 1949 c-4 -6 -13 -8 -21 -5 -8 3 -14 1 -14 -5 0 -7 10 -9 25 -5
20 5 23 3 19 -11 -5 -16 -4 -16 10 1 15 19 13 36 -4 36 -5 0 -12 -5 -15 -11z"/>
<path d="M975 1940 c-3 -5 -1 -10 4 -10 6 0 11 5 11 10 0 6 -2 10 -4 10 -3 0
-8 -4 -11 -10z"/>
<path d="M1980 1940 c0 -5 5 -10 10 -10 6 0 10 5 10 10 0 6 -4 10 -10 10 -5 0
-10 -4 -10 -10z"/>
<path d="M1000 1916 c0 -13 -7 -29 -15 -36 -15 -13 -17 -63 -2 -53 5 3 13 -1
18 -8 6 -9 9 -10 9 -2 0 6 -5 15 -10 18 -15 9 -2 25 21 25 10 0 19 4 19 9 0 5
9 11 20 14 11 3 20 11 20 19 0 9 -2 10 -8 1 -11 -17 -61 -11 -54 7 3 8 10 18
16 22 6 4 1 8 -11 8 -18 0 -23 -6 -23 -24z"/>
<path d="M1875 1930 c-3 -5 3 -10 14 -10 11 0 23 5 26 10 3 6 -3 10 -14 10
-11 0 -23 -4 -26 -10z"/>
<path d="M1175 1920 c16 -9 14 -10 -12 -5 -26 3 -33 1 -33 -11 0 -14 8 -15 48
-9 68 10 72 18 12 29 -28 5 -31 4 -15 -4z"/>
<path d="M1747 1924 c-3 -3 -3 -13 0 -21 5 -12 7 -12 14 -1 15 23 4 40 -14 22z"/>
<path d="M2010 1920 c0 -5 5 -10 11 -10 5 0 7 5 4 10 -3 6 -8 10 -11 10 -2 0
-4 -4 -4 -10z"/>
<path d="M697 1886 c-5 -21 -6 -41 -3 -44 12 -11 17 7 14 44 l-3 39 -8 -39z"/>
<path d="M725 1895 c0 -14 4 -25 9 -25 5 0 3 -7 -4 -15 -7 -9 -11 -18 -8 -20
5 -5 58 69 58 80 0 3 -12 5 -27 5 -23 0 -28 -4 -28 -25z"/>
<path d="M1092 1890 c1 -16 4 -30 9 -30 4 0 5 -9 2 -20 -4 -15 0 -20 15 -20
16 0 19 6 17 33 -2 17 -8 31 -14 30 -6 -2 -11 6 -11 17 0 11 -4 20 -9 20 -5 0
-9 -13 -9 -30z"/>
<path d="M1168 1883 c-11 -3 -18 -14 -18 -29 0 -26 7 -29 30 -14 13 8 12 10
-4 10 -17 0 -17 2 4 20 23 20 21 22 -12 13z"/>
<path d="M1055 1860 c3 -5 8 -10 11 -10 2 0 4 5 4 10 0 6 -5 10 -11 10 -5 0
-7 -4 -4 -10z"/>
<path d="M1322 1845 c-15 -32 -15 -55 -1 -55 5 0 8 -4 5 -9 -3 -5 -16 -7 -28
-3 -14 3 -19 2 -14 -6 4 -7 15 -12 24 -13 14 0 13 -2 -3 -9 -18 -8 -18 -9 6
-9 25 -1 26 1 28 64 1 36 0 65 -2 65 -2 0 -9 -11 -15 -25z"/>
<path d="M1395 1860 c-3 -5 -1 -10 4 -10 6 0 11 5 11 10 0 6 -2 10 -4 10 -3 0
-8 -4 -11 -10z"/>
<path d="M1362 1840 c0 -14 2 -19 5 -12 2 6 2 18 0 25 -3 6 -5 1 -5 -13z"/>
<path d="M1016 1827 c22 -31 23 -31 48 -12 24 18 21 21 -28 31 l-39 7 19 -26z"/>
<path d="M790 1831 c0 -6 5 -13 10 -16 6 -3 10 1 10 9 0 9 -4 16 -10 16 -5 0
-10 -4 -10 -9z"/>
<path d="M835 1827 c-20 -11 -19 -46 2 -69 9 -11 11 -18 5 -18 -7 0 -12 -11
-12 -25 l0 -26 89 2 c76 1 89 4 86 18 -3 21 -35 28 -35 7 0 -21 -13 -20 -34 3
-10 11 -28 22 -40 25 -11 2 10 4 48 3 41 -1 68 2 67 8 -1 9 -19 13 -88 16
l-26 2 23 12 c22 12 22 12 1 18 -11 3 -21 12 -21 21 0 17 -37 19 -65 3z m50
-17 c-3 -5 -12 -10 -18 -10 -7 0 -6 4 3 10 19 12 23 12 15 0z"/>
<path d="M696 1804 c-4 -14 -5 -29 -2 -31 3 -3 8 7 12 21 3 15 4 29 1 32 -2 3
-8 -7 -11 -22z"/>
<path d="M751 1786 c-12 -18 -21 -36 -21 -39 0 -3 18 -7 40 -9 45 -4 50 7 28
55 -17 35 -22 34 -47 -7z"/>
<path d="M975 1790 c3 -5 17 -9 30 -8 31 3 21 18 -11 18 -14 0 -22 -4 -19 -10z"/>
<path d="M654 1765 c-4 -14 -3 -29 0 -33 9 -8 26 18 26 41 0 26 -19 20 -26 -8z"/>
<path d="M1057 1771 c-3 -11 1 -22 8 -25 7 -2 15 4 18 14 4 14 16 20 48 23 40
3 39 4 -12 5 -48 2 -57 -1 -62 -17z"/>
<path d="M1825 1740 c-3 -5 -1 -10 4 -10 6 0 11 5 11 10 0 6 -2 10 -4 10 -3 0
-8 -4 -11 -10z"/>
<path d="M1020 1725 c0 -8 7 -15 15 -15 9 0 12 6 9 15 -4 8 -10 15 -15 15 -5
0 -9 -7 -9 -15z"/>
<path d="M1127 1721 c-6 -26 5 -42 19 -27 8 9 8 17 -1 29 -12 16 -13 16 -18
-2z"/>
<path d="M725 1720 c-12 -19 15 -38 50 -37 19 1 35 5 35 10 0 4 -4 5 -10 2 -5
-3 -10 1 -10 10 0 9 -4 13 -10 10 -5 -3 -10 -1 -10 4 0 14 -37 14 -45 1z"/>
<path d="M1060 1720 c0 -5 5 -10 10 -10 6 0 10 5 10 10 0 6 -4 10 -10 10 -5 0
-10 -4 -10 -10z"/>
<path d="M858 1662 c-14 -16 -1 -29 14 -14 7 7 20 12 30 12 10 0 18 3 18 8 0
12 -51 8 -62 -6z"/>
<path d="M690 1660 c0 -5 5 -10 10 -10 6 0 10 5 10 10 0 6 -4 10 -10 10 -5 0
-10 -4 -10 -10z"/>
<path d="M724 1639 l-1 -32 18 24 c23 30 24 39 2 39 -13 0 -18 -9 -19 -31z"/>
<path d="M750 1626 c-36 -47 -35 -47 -10 -76 20 -23 20 -23 20 -2 0 11 5 24
10 27 6 3 10 -2 10 -13 0 -10 7 -19 15 -19 10 0 15 10 14 26 0 24 -1 24 -9 6
-7 -17 -9 -15 -9 13 -1 17 4 32 9 32 6 0 10 11 10 23 0 36 -27 29 -60 -17z"/>
<path d="M826 1653 c-6 -14 -5 -15 5 -6 7 7 10 15 7 18 -3 3 -9 -2 -12 -12z"/>
<path d="M985 1660 c-18 -8 -17 -9 8 -9 16 -1 26 3 22 9 -3 6 -7 10 -8 9 -1 0
-11 -4 -22 -9z"/>
<path d="M658 1640 c-20 -27 -24 -45 -8 -35 6 3 10 -4 10 -16 0 -16 3 -20 11
-12 6 6 9 28 7 49 l-3 39 -17 -25z"/>
<path d="M700 1635 c-7 -23 -5 -64 3 -56 5 5 7 21 4 37 -2 16 -5 25 -7 19z"/>
<path d="M853 1632 c-22 -3 -33 -22 -13 -22 6 0 10 -5 10 -11 0 -5 -4 -7 -10
-4 -6 4 -10 -8 -10 -28 0 -32 3 -35 36 -42 24 -4 40 -2 48 6 8 9 8 10 -1 5 -9
-5 -13 0 -13 14 0 13 -4 19 -11 14 -8 -4 -8 0 0 15 16 28 -5 58 -36 53z"/>
<path d="M1161 1626 c-8 -9 -9 -16 -2 -21 6 -3 18 -23 28 -43 l18 -37 3 28 c2
18 8 25 15 21 7 -4 8 -3 4 2 -5 5 -16 9 -25 9 -9 0 -16 6 -14 13 1 8 -2 11 -9
6 -9 -5 -10 -1 -7 14 7 26 5 27 -11 8z"/>
<path d="M1442 1610 c0 -19 2 -27 5 -17 2 9 2 25 0 35 -3 9 -5 1 -5 -18z"/>
<path d="M1013 1595 c5 -37 17 -42 17 -7 0 18 -5 32 -10 32 -6 0 -9 -11 -7
-25z"/>
<path d="M1048 1574 c-2 -25 0 -48 4 -50 5 -3 8 18 8 45 0 64 -7 66 -12 5z"/>
<path d="M976 1588 c-9 -35 -7 -68 4 -68 6 0 10 20 10 45 0 50 -4 57 -14 23z"/>
<path d="M1285 1590 c-3 -5 0 -10 7 -10 9 0 9 -3 2 -8 -6 -4 -14 -16 -17 -27
l-7 -20 16 20 c30 38 36 55 20 55 -8 0 -18 -4 -21 -10z"/>
<path d="M1402 1565 c0 -16 2 -22 5 -12 2 9 2 23 0 30 -3 6 -5 -1 -5 -18z"/>
<path d="M1127 1557 c-4 -10 -7 -31 -7 -47 0 -21 5 -29 24 -32 16 -3 27 0 30
9 9 22 7 35 -3 29 -11 -7 -28 13 -33 39 -3 19 -4 19 -11 2z"/>
<path d="M1313 1535 c-28 -42 -28 -51 -4 -65 11 -5 22 -20 24 -32 2 -13 5 12
6 55 0 42 0 77 -1 77 -2 0 -13 -16 -25 -35z m7 -37 c0 -16 -3 -19 -11 -11 -6
6 -8 16 -5 22 11 17 16 13 16 -11z"/>
<path d="M1012 1522 c1 -18 5 -32 10 -32 11 0 10 31 -2 50 -6 10 -9 5 -8 -18z"/>
<path d="M750 1510 l25 -8 -25 -2 c-14 -1 -19 -4 -12 -7 6 -2 12 -12 12 -21 0
-13 5 -11 20 8 27 34 25 40 -12 39 -31 -1 -32 -1 -8 -9z"/>
<path d="M829 1498 c-3 -28 4 -53 14 -60 8 -5 6 -9 -5 -13 -28 -11 -9 -33 28
-33 19 0 34 4 34 9 0 5 -5 9 -10 9 -6 0 -3 11 6 25 15 24 15 25 -2 26 -11 0
-14 3 -6 6 6 2 12 13 12 24 0 15 -7 19 -35 19 -21 0 -35 -5 -36 -12z"/>
<path d="M801 1487 c0 -10 -5 -16 -10 -13 -5 3 -11 -1 -15 -9 -3 -8 0 -17 5
-21 17 -10 31 11 26 37 -3 16 -5 18 -6 6z"/>
<path d="M1186 1481 c-3 -5 1 -11 9 -15 9 -3 15 0 15 9 0 16 -16 20 -24 6z"/>
<path d="M988 1439 c15 -27 21 -30 55 -27 28 3 36 0 32 -10 -2 -7 0 -10 5 -7
6 4 9 19 7 33 -4 28 -26 38 -89 41 l-27 1 17 -31z"/>
<path d="M1101 1423 c0 -24 2 -25 8 -8 7 17 9 17 17 4 5 -9 16 -19 24 -22 12
-4 11 -6 -2 -6 -10 -1 -18 -5 -18 -10 0 -12 41 -1 58 15 18 19 15 23 -18 18
-25 -4 -30 -2 -30 15 0 14 -6 21 -20 21 -15 0 -20 -6 -19 -27z"/>
<path d="M1158 1433 c7 -3 16 -2 19 1 4 3 -2 6 -13 5 -11 0 -14 -3 -6 -6z"/>
<path d="M974 1378 c1 -13 11 -25 20 -26 17 -4 17 -2 1 22 -21 32 -26 33 -21
4z"/>
<path d="M1025 1390 c3 -5 11 -10 16 -10 6 0 7 5 4 10 -3 6 -11 10 -16 10 -6
0 -7 -4 -4 -10z"/>
<path d="M870 1370 c-27 -9 -28 -8 30 -14 12 -1 15 18 3 20 -4 1 -19 -2 -33
-6z"/>
<path d="M1068 1373 c7 -3 16 -2 19 1 4 3 -2 6 -13 5 -11 0 -14 -3 -6 -6z"/>
<path d="M1070 1338 c0 -13 5 -30 10 -38 7 -11 10 -7 10 17 0 17 -4 35 -10 38
-6 3 -10 -4 -10 -17z"/>
<path d="M1103 1320 c0 -25 2 -35 4 -22 2 12 2 32 0 45 -2 12 -4 2 -4 -23z"/>
<path d="M1142 1348 c9 -7 19 -26 21 -43 3 -24 4 -21 6 13 1 37 -2 42 -21 42
-19 0 -20 -1 -6 -12z"/>
<path d="M80 1308 c-14 -5 -37 -8 -53 -5 l-27 4 0 -324 0 -324 32 -30 c30 -27
33 -34 32 -88 -1 -42 -7 -66 -22 -87 -26 -37 -20 -77 17 -100 14 -10 31 -23
36 -30 6 -6 27 -17 48 -24 20 -6 37 -16 37 -21 0 -6 5 -7 10 -4 11 7 14 -8 3
-19 -4 -3 -8 -13 -9 -20 -1 -7 -5 -23 -8 -34 -5 -14 1 -29 20 -49 16 -18 24
-22 20 -10 -3 9 -1 17 3 17 5 0 15 2 23 5 10 4 12 -5 10 -40 -4 -47 -19 -58
-42 -30 -7 8 -21 15 -31 15 -9 0 -24 7 -33 15 -18 18 -50 13 -86 -15 l-25 -20
26 0 c37 0 72 -36 65 -66 l-6 -24 266 0 c205 0 265 3 262 12 -3 7 -15 15 -29
18 -26 6 -26 8 -14 58 4 18 14 32 22 32 10 0 13 6 9 16 -7 19 15 59 52 91 13
12 25 33 25 47 0 18 4 23 15 19 10 -4 13 -1 10 8 -3 8 -1 22 3 31 7 13 4 20
-11 28 -11 6 -25 8 -31 4 -13 -8 -45 21 -64 59 -11 21 -12 33 -5 37 14 9 1 62
-13 57 -6 -2 -15 -17 -19 -34 -4 -17 -15 -36 -23 -43 -8 -7 -15 -21 -15 -31 0
-11 -7 -19 -16 -19 -8 0 -13 4 -10 9 9 14 -21 33 -42 27 -12 -4 -25 1 -36 13
-27 29 -53 3 -50 -50 3 -55 -36 -48 -63 13 -9 19 -17 25 -31 21 -11 -2 -23 0
-26 6 -4 6 -1 11 8 11 11 0 12 6 5 27 -18 56 -21 63 -30 63 -5 0 -9 7 -9 15 0
8 -9 19 -19 25 -11 5 -29 25 -40 44 -25 40 -29 69 -5 40 13 -16 15 -17 10 -1
-8 25 12 63 40 76 19 9 27 7 42 -9 18 -19 36 -21 60 -6 15 9 42 -10 42 -29 0
-13 35 -27 44 -17 4 3 -2 14 -11 24 -16 18 -16 19 4 24 28 8 42 73 19 86 -8 5
-13 14 -11 21 6 17 -26 56 -32 40 -7 -19 -41 -15 -63 7 -24 24 -26 63 -4 84
10 10 11 16 3 16 -9 0 -8 4 1 15 10 12 10 15 -3 15 -9 0 -30 13 -47 28 -21 20
-43 29 -68 30 -30 1 -44 9 -74 44 -21 24 -36 48 -33 55 2 7 -1 27 -7 44 -6 18
-7 34 -2 38 12 8 17 68 7 74 -4 3 -19 0 -33 -5z m67 -773 c2 -27 0 -28 -11
-12 -7 9 -18 17 -25 17 -12 0 -15 13 -4 24 16 15 38 0 40 -29z m303 -149 c0
-3 -4 -8 -10 -11 -5 -3 -10 -1 -10 4 0 6 5 11 10 11 6 0 10 -2 10 -4z"/>
<path d="M975 1312 c-11 -12 -4 -32 15 -42 18 -10 20 -8 20 18 0 26 -19 39
-35 24z"/>
<path d="M1023 1280 c-2 -29 2 -40 13 -40 12 0 12 4 4 20 -8 16 -8 18 4 14 16
-6 32 -42 27 -59 -1 -5 3 -5 10 2 9 10 6 19 -14 47 -15 19 -27 39 -27 45 0 6
-4 11 -8 11 -4 0 -8 -18 -9 -40z"/>
<path d="M1131 1294 c0 -11 3 -14 6 -6 3 7 2 16 -1 19 -3 4 -6 -2 -5 -13z"/>
<path d="M1130 1240 c0 -11 2 -20 4 -20 2 0 6 9 9 20 3 11 1 20 -4 20 -5 0 -9
-9 -9 -20z"/>
<path d="M1545 990 c4 -6 11 -8 16 -5 14 9 11 15 -7 15 -8 0 -12 -5 -9 -10z"/>
<path d="M1410 965 c0 -5 5 -17 10 -25 5 -8 10 -10 10 -5 0 6 -5 17 -10 25 -5
8 -10 11 -10 5z"/>
<path d="M1551 954 c0 -11 3 -14 6 -6 3 7 2 16 -1 19 -3 4 -6 -2 -5 -13z"/>
<path d="M1370 938 c0 -7 5 -20 10 -28 8 -12 10 -11 10 7 0 12 -4 25 -10 28
-5 3 -10 0 -10 -7z"/>
<path d="M535 659 c-4 -6 2 -13 14 -16 11 -3 19 -9 16 -13 -3 -5 5 -16 17 -24
13 -9 23 -27 24 -43 0 -16 5 -28 9 -28 8 0 9 26 5 108 -1 9 -6 17 -11 17 -6 0
-9 -8 -7 -18 2 -11 0 -20 -4 -20 -5 -1 -8 0 -8 3 0 6 -38 45 -44 45 -3 0 -8
-5 -11 -11z"/>
<path d="M3434 216 c-9 -24 4 -48 23 -44 22 4 29 36 12 52 -9 8 -10 8 -4 -4 8
-13 6 -13 -8 -1 -14 11 -18 11 -23 -3z"/>
<path d="M3373 195 c0 -8 9 -15 19 -15 10 0 18 7 18 15 0 8 -8 15 -18 15 -10
0 -19 -7 -19 -15z"/>
<path d="M3490 199 c0 -14 31 -31 45 -25 23 8 7 34 -21 32 -13 0 -24 -4 -24
-7z"/>
<path d="M3436 135 c-10 -28 -7 -57 6 -49 7 5 8 3 2 -7 -5 -8 -9 -18 -10 -24
0 -5 -2 -16 -2 -22 -1 -7 -7 -13 -13 -13 -5 0 -8 4 -4 9 3 5 1 12 -4 15 -5 3
-11 -1 -15 -9 -3 -8 -13 -15 -21 -15 -9 0 -14 -4 -10 -10 3 -5 26 -9 50 -8 45
1 45 1 47 37 3 81 -11 134 -26 96z"/>
<path d="M3496 134 c-13 -33 -6 -44 25 -44 24 0 30 3 25 16 -3 9 -6 17 -6 20
0 2 -7 1 -15 -2 -8 -4 -15 -1 -15 4 0 6 8 13 18 15 13 4 12 5 -4 6 -12 0 -25
-6 -28 -15z"/>
<path d="M3395 118 c-4 -10 -14 -18 -23 -18 -12 0 -13 -3 -4 -12 19 -19 51 2
42 27 -7 18 -8 19 -15 3z"/>
<path d="M3472 110 c0 -14 2 -19 5 -12 2 6 2 18 0 25 -3 6 -5 1 -5 -13z"/>
<path d="M961 61 c-11 -7 -10 -11 7 -20 28 -15 31 -14 25 9 -6 22 -11 24 -32
11z"/>
<path d="M3383 63 c9 -2 23 -2 30 0 6 3 -1 5 -18 5 -16 0 -22 -2 -12 -5z"/>
<path d="M3499 58 c20 -5 37 -6 43 0 5 5 -9 9 -34 9 l-43 1 34 -10z"/>
<path d="M1015 50 c-3 -5 3 -10 15 -10 12 0 18 5 15 10 -3 6 -10 10 -15 10 -5
0 -12 -4 -15 -10z"/>
<path d="M3471 29 c-1 -23 3 -26 39 -27 34 -2 40 1 40 18 0 23 -10 26 -29 8
-8 -9 -11 -9 -9 -2 2 7 -1 12 -7 12 -5 0 -9 -4 -7 -9 1 -5 -2 -9 -7 -9 -5 0
-12 8 -14 18 -3 11 -5 8 -6 -9z"/>
<path d="M1215 15 c-29 -13 -28 -13 38 -14 53 -1 67 2 67 14 0 19 -63 20 -105
0z"/>
</g>
</svg>
